<?xml version="1.0" standalone="no"?>
<!DOCTYPE svg PUBLIC "-//W3C//DTD SVG 1.1//EN" "http://www.w3.org/Graphics/SVG/1.1/DTD/svg11.dtd" >
<svg>
<metadata>
Created by FontForge 20090622 at Fri Feb  3 10:31:17 2017
 By deploy user
</metadata>
<defs>
<font id="ShinGoPr5-Light-AlphaNum" horiz-adv-x="1000" vert-adv-y="1000" >
  <font-face 
    font-family="ShinGoPr5-Light-AlphaNum"
    font-weight="200"
    font-stretch="normal"
    units-per-em="1000"
    panose-1="2 0 3 3 0 0 0 0 0 0"
    ascent="800"
    descent="-200"
    bbox="20 -97 983 857"
    underline-thickness="50"
    underline-position="-100"
  />
<missing-glyph horiz-adv-x="364" 
d="M33 0v666h265v-666h-265zM66 33h199v600h-199v-600z" />
    <glyph glyph-name=".notdef" horiz-adv-x="364" 
d="M33 0v666h265v-666h-265zM66 33h199v600h-199v-600z" />
    <glyph glyph-name=".null" horiz-adv-x="0" vert-adv-y="0" 
 />
    <glyph glyph-name="nonmarkingreturn" horiz-adv-x="333" 
 />
    <glyph glyph-name="Japan1.7555" 
d="M500 854q128 0 237 -62.5t173 -172t64 -239.5q0 -196 -139 -335t-335 -139t-335 139t-139 335q0 130 64 239.5t173 172t237 62.5zM500 819q-181 0 -310 -128t-129 -311q0 -119 59 -220t160 -160t220 -59q182 0 310.5 128.5t128.5 310.5q0 183 -129 311t-310 128zM387 672
h157v-584h-49v540h-108v44z" />
    <glyph glyph-name="Japan1.7556" 
d="M500 854q128 0 237 -62.5t173 -172t64 -239.5q0 -196 -139 -335t-335 -139t-335 139t-139 335q0 130 64 239.5t173 172t237 62.5zM500 819q-181 0 -310 -128t-129 -311q0 -119 59 -220t160 -160t220 -59q182 0 310.5 128.5t128.5 310.5q0 183 -129 311t-310 128zM544 335
l-69 -23q-55 -18 -71 -53.5t-15 -126.5h261v-44h-309q-1 101 9.5 150.5t34.5 72.5t79 43l58 21q29 11 43 19.5t26.5 37t12.5 76.5q0 68 -22 97.5t-84 29.5q-31 0 -52 -9t-31.5 -20.5t-15.5 -34.5t-5.5 -38t-0.5 -44h-48q0 35 1.5 52.5t9.5 48t23 46.5t46 29t75 13
q87 0 119.5 -43t32.5 -121q0 -82 -24 -120.5t-84 -58.5z" />
    <glyph glyph-name="Japan1.7557" 
d="M500 854q128 0 237 -62.5t173 -172t64 -239.5q0 -196 -139 -335t-335 -139t-335 139t-139 335q0 130 64 239.5t173 172t237 62.5zM500 819q-181 0 -310 -128t-129 -311q0 -119 59 -220t160 -160t220 -59q182 0 310.5 128.5t128.5 310.5q0 183 -129 311t-310 128zM344 269
h48q-3 -80 16.5 -112t93.5 -32q58 0 82.5 28.5t24.5 96.5q0 76 -30 98t-97 22h-37v44h44q69 0 92.5 19t23.5 90q0 56 -21 83.5t-83 27.5q-36 0 -58 -10t-31.5 -30t-12 -39t-2.5 -50h-48q0 36 5.5 63t20 54t46.5 41.5t80 14.5q84 0 118.5 -41t34.5 -114q0 -108 -74 -131
q16 -8 25.5 -14t23.5 -21.5t21 -42.5t7 -65q0 -96 -42.5 -131.5t-112.5 -35.5q-38 0 -66 7t-44.5 23t-26.5 30.5t-14.5 41t-5.5 41.5t-1 44z" />
    <glyph glyph-name="Japan1.7558" 
d="M500 854q128 0 237 -62.5t173 -172t64 -239.5q0 -196 -139 -335t-335 -139t-335 139t-139 335q0 130 64 239.5t173 172t237 62.5zM500 819q-181 0 -310 -128t-129 -311q0 -119 59 -220t160 -160t220 -59q182 0 310.5 128.5t128.5 310.5q0 183 -129 311t-310 128zM514 672
h71v-398h60v-43h-60v-143h-47v143h-231v45zM538 627l-184 -353h184v353z" />
    <glyph glyph-name="Japan1.7559" 
d="M500 854q128 0 237 -62.5t173 -172t64 -239.5q0 -196 -139 -335t-335 -139t-335 139t-139 335q0 130 64 239.5t173 172t237 62.5zM500 819q-181 0 -310 -128t-129 -311q0 -119 59 -220t160 -160t220 -59q182 0 310.5 128.5t128.5 310.5q0 183 -129 311t-310 128zM354 672
h284v-44h-237l-5 -195q15 13 24.5 19.5t33 14t53.5 7.5q83 0 112.5 -47.5t29.5 -142.5q0 -106 -32 -154t-121 -48q-84 0 -119.5 40.5t-36.5 126.5h49q-2 -71 21.5 -97.5t83.5 -26.5q64 0 85.5 32t21.5 117q0 90 -19.5 123t-79.5 33q-35 0 -58.5 -7t-34 -22t-13.5 -24t-6 -25
h-42z" />
    <glyph glyph-name="Japan1.7560" 
d="M500 854q128 0 237 -62.5t173 -172t64 -239.5q0 -196 -139 -335t-335 -139t-335 139t-139 335q0 130 64 239.5t173 172t237 62.5zM500 819q-181 0 -310 -128t-129 -311q0 -119 59 -220t160 -160t220 -59q182 0 310.5 128.5t128.5 310.5q0 183 -129 311t-310 128zM651 524
h-48q1 58 -21 84t-80 26q-47 0 -69.5 -18.5t-31.5 -66.5t-11 -151q12 18 21 27t34.5 19t62.5 10q41 0 70.5 -14t44 -31.5t22.5 -46.5t9.5 -47.5t1.5 -44.5q0 -95 -31.5 -141.5t-118.5 -46.5q-43 0 -72.5 11t-47.5 30.5t-27.5 55.5t-12.5 75.5t-3 101.5q0 78 3.5 127t12.5 90
t27 62t46 32t70 11q46 0 77 -13t46 -37t20.5 -48t5.5 -56zM500 410q-62 0 -84.5 -36t-22.5 -115q0 -81 29 -107.5t81 -26.5q65 0 85 34t20 115q0 71 -22.5 103.5t-85.5 32.5z" />
    <glyph glyph-name="Japan1.7561" 
d="M500 854q128 0 237 -62.5t173 -172t64 -239.5q0 -196 -139 -335t-335 -139t-335 139t-139 335q0 130 64 239.5t173 172t237 62.5zM500 819q-181 0 -310 -128t-129 -311q0 -119 59 -220t160 -160t220 -59q182 0 310.5 128.5t128.5 310.5q0 183 -129 311t-310 128zM338 672
h337v-53l-204 -531h-53l212 540h-292v44z" />
    <glyph glyph-name="Japan1.7562" 
d="M427 392q-14 5 -23 10.5t-24 19.5t-23 40.5t-8 62.5q0 153 151 153t151 -152q0 -108 -78 -134q86 -22 86 -148q0 -33 -6 -59t-22 -51t-49 -38.5t-82 -13.5q-159 0 -159 158q0 130 86 152zM500 634q-62 0 -83 -29.5t-21 -80.5q0 -23 3.5 -39.5t13 -34t31.5 -26.5t56 -9
t56.5 9.5t32 28t12.5 34t3 38.5q0 49 -21 79t-83 30zM500 370q-66 0 -88.5 -32t-22.5 -97q0 -25 3.5 -42t13.5 -36t34 -28.5t60 -9.5q37 0 60.5 10t34 29.5t13.5 36.5t3 43q0 67 -25 96.5t-86 29.5zM500 854q128 0 237 -62.5t173 -172t64 -239.5q0 -196 -139 -335t-335 -139
t-335 139t-139 335q0 130 64 239.5t173 172t237 62.5zM500 819q-181 0 -310 -128t-129 -311q0 -119 59 -220t160 -160t220 -59q182 0 310.5 128.5t128.5 310.5q0 183 -129 311t-310 128z" />
    <glyph glyph-name="Japan1.7563" 
d="M500 854q128 0 237 -62.5t173 -172t64 -239.5q0 -196 -139 -335t-335 -139t-335 139t-139 335q0 130 64 239.5t173 172t237 62.5zM500 819q-181 0 -310 -128t-129 -311q0 -119 59 -220t160 -160t220 -59q182 0 310.5 128.5t128.5 310.5q0 183 -129 311t-310 128zM343 236
h48q0 -59 20.5 -84.5t81.5 -25.5q49 0 71 15.5t33.5 65t12.5 156.5q-12 -18 -21 -27.5t-34 -19t-62 -9.5q-41 0 -71 13.5t-44.5 31.5t-22.5 46.5t-9.5 47t-1.5 44.5q0 94 31.5 141.5t118.5 47.5q43 0 72.5 -11t47 -30.5t27 -55.5t12.5 -75.5t3 -102.5q0 -192 -29.5 -257
t-130.5 -65q-79 0 -115.5 36.5t-37.5 117.5zM500 350q62 0 84.5 36.5t22.5 115.5q0 81 -28.5 107.5t-81.5 26.5q-65 0 -85 -34.5t-20 -115.5q0 -71 23 -103.5t85 -32.5z" />
    <glyph glyph-name="Japan1.7564" 
d="M500 854q128 0 237 -62.5t173 -172t64 -239.5q0 -196 -139 -335t-335 -139t-335 139t-139 335q0 130 64 239.5t173 172t237 62.5zM500 819q-181 0 -310 -128t-129 -311q0 -119 59 -220t160 -160t220 -59q182 0 310.5 128.5t128.5 310.5q0 183 -129 311t-310 128zM639 670
q96 0 126.5 -60.5t30.5 -229.5t-30.5 -229.5t-126.5 -60.5t-127 61t-31 229q0 169 31 229.5t127 60.5zM639 627q-47 0 -69.5 -19t-32 -70t-9.5 -158t10 -158.5t32 -70t69 -18.5t69 18.5t31.5 70t9.5 158.5t-9.5 158t-31.5 70t-69 19zM216 664h153v-568h-47v525h-106v43z" />
    <glyph glyph-name="Japan1.7565" 
d="M500 854q128 0 237 -62.5t173 -172t64 -239.5q0 -196 -139 -335t-335 -139t-335 139t-139 335q0 130 64 239.5t173 172t237 62.5zM500 819q-181 0 -310 -128t-129 -311q0 -119 59 -220t160 -160t220 -59q182 0 310.5 128.5t128.5 310.5q0 183 -129 311t-310 128zM216 664
h153v-568h-47v525h-106v43zM552 664h153v-568h-47v525h-106v43z" />
    <glyph glyph-name="Japan1.7566" 
d="M500 854q128 0 237 -62.5t173 -172t64 -239.5q0 -196 -139 -335t-335 -139t-335 139t-139 335q0 130 64 239.5t173 172t237 62.5zM500 819q-181 0 -310 -128t-129 -311q0 -119 59 -220t160 -160t220 -59q182 0 310.5 128.5t128.5 310.5q0 183 -129 311t-310 128zM216 664
h153v-568h-47v525h-106v43zM671 336l-63 -22q-50 -17 -64.5 -52t-13.5 -123h238v-43h-282q-1 99 9 148t32 71t71 40l53 20q27 11 40.5 19.5t24.5 36t11 73.5q0 66 -20 94.5t-77 28.5q-28 0 -47 -8.5t-29 -20t-14.5 -33t-5 -36.5t-0.5 -43h-44q0 32 1 50.5t8.5 47.5t21.5 45
t42 28.5t68 12.5q77 0 108 -41t31 -119q0 -79 -22 -116.5t-77 -57.5z" />
    <glyph glyph-name="Japan1.7567" 
d="M500 854q128 0 237 -62.5t173 -172t64 -239.5q0 -196 -139 -335t-335 -139t-335 139t-139 335q0 130 64 239.5t173 172t237 62.5zM500 819q-181 0 -310 -128t-129 -311q0 -119 59 -220t160 -160t220 -59q182 0 310.5 128.5t128.5 310.5q0 183 -129 311t-310 128zM216 664
h153v-568h-47v525h-106v43zM503 272h43q-1 -39 1 -60t11.5 -42t30.5 -29t57 -8q53 0 75.5 27t22.5 94q0 73 -27 94.5t-89 21.5h-34v43h40q63 0 85 18t22 87q0 54 -19.5 81.5t-76.5 27.5q-32 0 -52.5 -9.5t-29 -29t-11 -38.5t-1.5 -49h-44q-1 78 28 123.5t110 45.5
q78 0 109 -40.5t31 -110.5q0 -105 -67 -128q15 -7 23.5 -13t21 -20.5t19 -41t6.5 -63.5q0 -50 -12 -84t-34 -50.5t-44.5 -22.5t-51.5 -6q-41 0 -69.5 12t-42.5 27.5t-21.5 44t-8.5 47t-1 51.5z" />
    <glyph glyph-name="Japan1.7568" 
d="M668 664h65v-387h54v-42h-54v-139h-43v139h-211v44zM690 620l-168 -343h168v343zM500 854q128 0 237 -62.5t173 -172t64 -239.5q0 -196 -139 -335t-335 -139t-335 139t-139 335q0 130 64 239.5t173 172t237 62.5zM500 819q-181 0 -310 -128t-129 -311q0 -119 59 -220
t160 -160t220 -59q182 0 310.5 128.5t128.5 310.5q0 183 -129 311t-310 128zM216 664h153v-568h-47v525h-106v43z" />
    <glyph glyph-name="Japan1.7569" 
d="M500 854q128 0 237 -62.5t173 -172t64 -239.5q0 -196 -139 -335t-335 -139t-335 139t-139 335q0 130 64 239.5t173 172t237 62.5zM500 819q-181 0 -310 -128t-129 -311q0 -119 59 -220t160 -160t220 -59q182 0 310.5 128.5t128.5 310.5q0 183 -129 311t-310 128zM216 664
h153v-568h-47v525h-106v43zM516 664h259v-43h-216l-5 -190q42 40 101 40q75 0 102.5 -46t27.5 -139q0 -103 -30 -149.5t-110 -46.5q-78 0 -110 39.5t-32 122.5h44q-2 -69 20 -94t76 -25q59 0 78.5 31t19.5 114q0 86 -18 118.5t-73 32.5q-32 0 -53 -8t-30.5 -22t-12.5 -23.5
t-5 -22.5h-39z" />
    <glyph glyph-name="Japan1.7570" 
d="M779 520h-44q1 56 -18.5 81.5t-72.5 25.5q-42 0 -62.5 -15.5t-30 -64t-10.5 -150.5q11 18 19 26.5t31 18.5t57 10q38 0 65 -13.5t40 -31t20.5 -45t9 -45.5t1.5 -43q0 -94 -30 -139t-107 -45q-40 0 -67.5 11t-43.5 30t-24.5 55t-11 73.5t-2.5 98.5q0 184 26.5 248
t118.5 64q42 0 70.5 -12.5t42 -36.5t18.5 -47t5 -54zM642 410q-57 0 -77.5 -35t-20.5 -112q0 -79 26.5 -105t73.5 -26q59 0 77.5 33.5t18.5 112.5q0 67 -20.5 99.5t-77.5 32.5zM500 854q128 0 237 -62.5t173 -172t64 -239.5q0 -196 -139 -335t-335 -139t-335 139t-139 335
q0 130 64 239.5t173 172t237 62.5zM500 819q-181 0 -310 -128t-129 -311q0 -119 59 -220t160 -160t220 -59q182 0 310.5 128.5t128.5 310.5q0 183 -129 311t-310 128zM216 664h153v-568h-47v525h-106v43z" />
    <glyph glyph-name="Japan1.7571" 
d="M500 854q128 0 237 -62.5t173 -172t64 -239.5q0 -196 -139 -335t-335 -139t-335 139t-139 335q0 130 64 239.5t173 172t237 62.5zM500 819q-181 0 -310 -128t-129 -311q0 -119 59 -220t160 -160t220 -59q182 0 310.5 128.5t128.5 310.5q0 183 -129 311t-310 128zM216 664
h153v-568h-47v525h-106v43zM488 664h302v-52l-192 -516h-50l200 525h-260v43z" />
    <glyph glyph-name="Japan1.7572" 
d="M575 391q-13 5 -21.5 10.5t-22 19.5t-21 39.5t-7.5 60.5q0 149 138 149t138 -149q0 -103 -72 -130q79 -20 79 -143q0 -71 -31 -114.5t-114 -43.5q-145 0 -145 154q0 126 79 147zM641 627q-55 0 -75 -28t-20 -78q0 -22 3 -38.5t12 -33.5t29 -26t51 -9q32 0 52.5 9.5t29 27
t11 33t2.5 37.5q0 48 -20 77t-75 29zM641 370q-61 0 -81 -31t-20 -94q0 -24 3 -40t12 -34.5t31 -28.5t55 -10q34 0 55.5 9.5t31 29t12 36t2.5 41.5q0 70 -23.5 96t-77.5 26zM500 854q128 0 237 -62.5t173 -172t64 -239.5q0 -196 -139 -335t-335 -139t-335 139t-139 335
q0 130 64 239.5t173 172t237 62.5zM500 819q-181 0 -310 -128t-129 -311q0 -119 59 -220t160 -160t220 -59q182 0 310.5 128.5t128.5 310.5q0 183 -129 311t-310 128zM216 664h153v-568h-47v525h-106v43z" />
    <glyph glyph-name="Japan1.7573" 
d="M503 241h44q0 -58 19 -83t74 -25q45 0 65.5 16t30 63.5t10.5 150.5q-10 -17 -18.5 -26t-31.5 -18.5t-57 -9.5q-38 0 -65 13.5t-40.5 31t-21 45.5t-8.5 45.5t-1 43.5q0 90 29 136t109 46q40 0 66.5 -11t43 -29.5t25 -54t11 -73.5t2.5 -99q0 -186 -27 -249t-119 -63
q-75 0 -107 36.5t-33 113.5zM646 351q57 0 77.5 35.5t20.5 111.5q0 78 -26 104t-75 26q-59 0 -77.5 -34t-18.5 -111q0 -68 20.5 -100t78.5 -32zM500 854q128 0 237 -62.5t173 -172t64 -239.5q0 -196 -139 -335t-335 -139t-335 139t-139 335q0 130 64 239.5t173 172t237 62.5
zM500 819q-181 0 -310 -128t-129 -311q0 -119 59 -220t160 -160t220 -59q182 0 310.5 128.5t128.5 310.5q0 183 -129 311t-310 128zM216 664h153v-568h-47v525h-106v43z" />
    <glyph glyph-name="Japan1.7574" 
d="M668 670q96 0 126.5 -60.5t30.5 -229.5t-30.5 -229.5t-126.5 -60.5t-126.5 60.5t-30.5 229.5t31 229.5t126 60.5zM668 627q-47 0 -69.5 -19t-32 -70t-9.5 -158t10 -158.5t32 -70t69 -18.5t69 18.5t32 70t10 158.5q0 106 -9.5 157.5t-32 70.5t-69.5 19zM500 854
q128 0 237 -62.5t173 -172t64 -239.5q0 -196 -139 -335t-335 -139t-335 139t-139 335q0 130 64 239.5t173 172t237 62.5zM500 819q-181 0 -310 -128t-129 -311q0 -119 59 -220t160 -160t220 -59q182 0 310.5 128.5t128.5 310.5q0 183 -129 311t-310 128zM378 336l-63 -22
q-50 -17 -64.5 -52t-14.5 -123h238v-43h-282q-1 99 9 148t32 71t71 40l53 20q28 10 41 19.5t24 36t11 73.5q0 66 -20 94.5t-77 28.5q-28 0 -47 -8.5t-29 -20t-14.5 -33t-5 -36.5t-0.5 -43h-44q0 33 1.5 51t9 47.5t21.5 45t42 28t68 12.5q77 0 108 -41t31 -119
q0 -79 -22 -117t-77 -57z" />
    <glyph glyph-name="Japan1.7575" 
d="M384 788h232v-59h-83v-670h83v-59h-232v59h83v670h-83v59z" />
    <glyph glyph-name="Japan1.7576" 
d="M249 788h502v-59h-77v-669h77v-60h-502v60h77v669h-77v59zM609 729h-218v-669h218v669z" />
    <glyph glyph-name="Japan1.7577" 
d="M176 788h648v-59h-78v-670h78v-59h-648v59h78v670h-78v59zM468 729h-151v-670h151v670zM683 729h-151v-670h151v670z" />
    <glyph glyph-name="Japan1.7578" 
d="M80 788h365v-59h-80l200 -673l200 673h-82v59h237v-59h-86l-224 -729h-89l-225 729h-72v-670h79v-59h-223v59h78v670h-78v59z" />
    <glyph glyph-name="Japan1.7579" 
d="M107 788h235v-59h-81l236 -679l243 679h-82v59h235v-59h-79l-270 -729h-96l-262 729h-79v59z" />
    <glyph glyph-name="Japan1.7580" 
d="M555 788h365v-59h-78v-670h78v-59h-223v59h79v670h-72l-225 -729h-89l-224 729h-86v59h237v-59h-82l200 -673l200 673h-80v59z" />
    <glyph glyph-name="Japan1.7581" 
d="M25 788h235v-59h-84l174 -677l181 677h-82v59h526v-59h-79v-670h79v-59h-389v59h73v670h-60l-202 -729h-92l-198 729h-82v59zM833 729h-110v-670h110v670z" />
    <glyph glyph-name="Japan1.7582" 
d="M20 788h185v-59h-60l154 -680l155 680h-61v59h587v-59h-61v-670h61v-59h-468v59h64v670h-55l-178 -729h-91l-174 729h-58v59zM716 729h-79v-670h79v670zM857 729h-79v-670h79v670z" />
    <glyph glyph-name="Japan1.7583" 
d="M93 788h406v-59h-81l159 -295l159 295h-83v59h237v-59h-78l-184 -326l198 -344h81v-59h-237v59h80l-173 315l-180 -315h84v-59h-388v59h74v670h-74v59zM342 729h-109v-670h88l204 344z" />
    <glyph glyph-name="Japan1.7584" 
d="M312 729l188 -291l188 291h-83v59h235v-59h-75l-214 -321l234 -349h78v-59h-234v59h78l-207 318l-207 -318h78v-59h-234v59h78l234 349l-214 321h-75v59h235v-59h-83z" />
    <glyph glyph-name="Japan1.8061" 
d="M500 796q38 0 66.5 -2t60 -8.5t54 -19.5t45 -32.5t37.5 -50t27 -71t17.5 -95.5t5.5 -123q0 -77 -7.5 -136.5t-21 -102t-35.5 -72t-45.5 -47.5t-58.5 -28t-67.5 -13t-77.5 -3q-44 0 -76 3t-67 12.5t-58.5 27t-46.5 47.5t-36 72t-21 102.5t-8 137.5q0 107 15.5 182
t40 117.5t67.5 66t85 30t105 6.5zM499 737q-70 0 -112 -12t-74.5 -47.5t-45.5 -103.5t-13 -179q0 -93 10.5 -155.5t28 -100t50.5 -57t68 -25.5t91 -6q55 0 90.5 7t67.5 27t49 58t27 99t10 150q0 94 -11 158t-29 101t-52 56t-67.5 24.5t-87.5 5.5zM847 92h84v-92h-84v92z" />
    <glyph glyph-name="Japan1.8062" 
d="M847 92h84v-92h-84v92zM349 788h214v-788h-68v729h-146v59z" />
    <glyph glyph-name="Japan1.8063" 
d="M847 92h84v-92h-84v92zM583 327l-160 -32q-44 -9 -66.5 -17t-47 -29t-34.5 -61t-10 -103v-26h537v-59h-604v22q0 133 17 192q9 31 26.5 55t35 37.5t45 24t43 14.5t42.5 9l158 31q39 8 62 15.5t51.5 25.5t42.5 51t14 82q0 102 -54 140t-161 38q-137 0 -189.5 -47.5
t-51.5 -155.5h-69q1 79 24 132.5t66 80.5t91 38t113 11q29 0 47 -0.5t52.5 -5t57.5 -12.5t52.5 -25.5t46.5 -41.5t29.5 -62t12.5 -86q0 -100 -48.5 -155.5t-170.5 -80.5z" />
    <glyph glyph-name="Japan1.8064" 
d="M847 92h84v-92h-84v92zM197 259h68q-1 -33 0.5 -54.5t8.5 -48.5t22.5 -43.5t41.5 -32t68 -22.5t98 -7q32 0 51 1t50.5 5.5t51.5 15t40 28t30 47t10 68.5q0 21 -1 35t-11.5 41t-29 44t-57.5 30.5t-93 13.5h-109v59h111q26 0 42 1t45.5 8.5t47.5 21.5t32 43.5t14 70.5
q0 87 -54.5 120t-160.5 33q-119 0 -174.5 -36.5t-57.5 -140.5h-68q4 72 26.5 120t64 72.5t90 34t118.5 9.5q283 0 283 -209q0 -41 -10.5 -73.5t-23 -49.5t-33 -30t-31 -17t-26.5 -8q22 -7 38 -15t41 -28t39 -58.5t14 -90.5q0 -46 -12.5 -83t-30.5 -60t-47 -39.5t-52 -24.5
t-56 -12.5t-49.5 -5t-41.5 -0.5q-81 0 -137 12t-98 42t-62 82.5t-20 130.5z" />
    <glyph glyph-name="Japan1.8065" 
d="M847 92h84v-92h-84v92zM606 788h95v-532h141v-59h-141v-197h-67v197h-477v79zM634 256v474l-415 -474h415z" />
    <glyph glyph-name="Japan1.8066" 
d="M847 92h84v-92h-84v92zM225 788h545v-59h-479l-8 -273q23 21 40 32.5t67 25t119 13.5q26 0 46.5 -1t52.5 -7t56.5 -16t51.5 -30t45 -47.5t29.5 -70t11.5 -95.5q0 -142 -75 -205t-230 -63q-57 0 -103.5 8.5t-77 22t-53 34.5t-34.5 40.5t-19.5 46t-9.5 45.5t-3 44h68
q0 -22 1 -35t5.5 -35t13 -35t26 -29.5t41.5 -25.5t61 -15.5t85 -6.5q123 0 180 45t57 154q0 51 -8.5 87t-31 67.5t-67.5 47.5t-112 16q-77 0 -125.5 -15t-68.5 -34t-40 -53h-63z" />
    <glyph glyph-name="Japan1.8067" 
d="M847 92h84v-92h-84v92zM793 580h-68q2 83 -47 120t-166 37q-153 0 -197 -76q-54 -92 -54 -281q36 57 96 84.5t160 27.5q26 0 47.5 -1.5t53 -7t55.5 -14.5t50.5 -27.5t44 -43t28.5 -62.5t11 -85q0 -69 -20 -118.5t-48.5 -76t-72 -42t-78 -19t-79.5 -3.5q-181 0 -248 85.5
t-67 289.5q0 84 9.5 150.5t24 111t40 76.5t49.5 49.5t60 27t65 12t71 2.5q284 0 280 -216zM507 433q-46 0 -83 -7.5t-61 -18.5t-41.5 -29t-27 -34.5t-14.5 -38t-6.5 -37t-1.5 -35.5q0 -50 17.5 -86t41 -54t59.5 -28t59 -12t53 -2q124 0 181.5 42t57.5 155q0 53 -17.5 90
t-39.5 55t-60 28t-59.5 11t-57.5 1z" />
    <glyph glyph-name="Japan1.8068" 
d="M847 92h84v-92h-84v92zM189 788h625v-64l-411 -724h-87l432 729h-559v59z" />
    <glyph glyph-name="Japan1.8069" 
d="M670 414q40 -11 69 -34t42.5 -46t21 -52.5t8.5 -42t1 -26.5q0 -121 -80.5 -171t-231.5 -50q-157 0 -234.5 51.5t-77.5 170.5q0 10 1 19.5t4 32t12.5 42t24 41.5t40.5 39t60 26q-123 39 -123 179q0 44 12 78.5t35 56t49.5 35.5t62.5 21t66.5 9.5t67.5 2.5q47 0 84 -3.5
t78 -16.5t68 -34t45 -59t18 -90q0 -140 -123 -179zM500 737q-70 0 -117 -11.5t-69.5 -33.5t-31 -45.5t-8.5 -55.5q0 -36 11.5 -63.5t34.5 -43.5t44 -26t52.5 -13.5t47.5 -4.5t41 -1q221 0 221 153q0 69 -48.5 107t-177.5 38zM500 381q-123 0 -184 -36.5t-61 -131.5
q0 -90 57.5 -126t187.5 -36q135 0 190 38t55 127q0 41 -13 71t-34.5 48t-54.5 28.5t-66 14t-77 3.5zM847 92h84v-92h-84v92z" />
    <glyph glyph-name="Japan1.8070" 
d="M847 92h84v-92h-84v92zM189 218h68q0 -42 8 -69.5t31.5 -51.5t72.5 -35t126 -11q100 0 151.5 30.5t73.5 108t20 226.5q-39 -58 -92.5 -84.5t-146.5 -26.5q-29 0 -52 1t-56.5 6.5t-59 15t-53 27.5t-45.5 42.5t-29.5 62.5t-11.5 86q0 250 302 250q79 0 133 -15t89 -44
t54.5 -80.5t26.5 -114t7 -156.5q0 -154 -32 -239.5t-97.5 -120t-180.5 -34.5q-167 0 -235 53.5t-72 172.5zM494 737q-41 0 -73 -4.5t-63.5 -17t-51.5 -33.5t-32.5 -56.5t-12.5 -83.5q0 -97 57 -137.5t184 -40.5t176.5 45t49.5 138q0 98 -52.5 144t-181.5 46z" />
    <glyph glyph-name="Japan1.8071" 
d="M192 857h42q-81 -100 -124.5 -223.5t-43.5 -253.5q0 -131 43.5 -254.5t124.5 -222.5h-42q-59 69 -97.5 150t-52 154.5t-17 108t-3.5 64.5t3.5 64.5t17 108t52 154.5t97.5 150zM808 -97h-43q82 99 125.5 222.5t43.5 254.5q0 130 -43.5 253.5t-124.5 223.5h42
q59 -69 97.5 -150t52 -154.5t17 -108t3.5 -64.5t-3.5 -64.5t-17 -108t-52 -154.5t-97.5 -150zM367 684h164v-608h-51v563h-113v45z" />
    <glyph glyph-name="Japan1.8072" 
d="M192 857h42q-81 -100 -124.5 -223.5t-43.5 -253.5q0 -131 43.5 -254.5t124.5 -222.5h-42q-59 69 -97.5 150t-52 154.5t-17 108t-3.5 64.5t3.5 64.5t17 108t52 154.5t97.5 150zM808 -97h-43q82 99 125.5 222.5t43.5 254.5q0 130 -43.5 253.5t-124.5 223.5h42
q59 -69 97.5 -150t52 -154.5t17 -108t3.5 -64.5t-3.5 -64.5t-17 -108t-52 -154.5t-97.5 -150zM544 333l-72 -24q-57 -19 -73.5 -55.5t-16.5 -132.5h272v-45h-322q-2 106 10.5 159t37 75.5t80.5 42.5l60 22q24 9 36 15.5t26 21t19.5 39t5.5 62.5q0 71 -23 101.5t-88 30.5
q-32 0 -54 -9.5t-33 -21t-16 -35.5t-5.5 -39.5t-0.5 -45.5h-51l1.5 39.5t4 38t9.5 38t17.5 31.5t28.5 27t42.5 16t58.5 7q89 0 124 -45t35 -127q0 -85 -25.5 -125t-87.5 -61z" />
    <glyph glyph-name="Japan1.8073" 
d="M192 857h42q-81 -100 -124.5 -223.5t-43.5 -253.5q0 -131 43.5 -254.5t124.5 -222.5h-42q-59 69 -97.5 150t-52 154.5t-17 108t-3.5 64.5t3.5 64.5t17 108t52 154.5t97.5 150zM808 -97h-43q82 99 125.5 222.5t43.5 254.5q0 130 -43.5 253.5t-124.5 223.5h42
q59 -69 97.5 -150t52 -154.5t17 -108t3.5 -64.5t-3.5 -64.5t-17 -108t-52 -154.5t-97.5 -150zM339 264h50q-3 -83 17 -116t97 -33q60 0 86 29t26 101q0 79 -31 101.5t-102 22.5h-38v46h45q71 0 96.5 20t25.5 93q0 59 -22 88t-87 29q-37 0 -60.5 -10.5t-33 -32t-12 -41
t-2.5 -51.5h-50q0 28 2 49t11.5 47.5t25.5 43.5t46.5 29t72.5 12q88 0 123.5 -43.5t35.5 -118.5q0 -114 -77 -137q16 -7 26 -13.5t25 -22.5t22.5 -44.5t7.5 -68.5q0 -54 -14.5 -91t-40.5 -54t-50.5 -23t-56.5 -6q-34 0 -60 6.5t-43 16t-29 27t-18 31t-9.5 38t-4 37.5
t-0.5 39z" />
    <glyph glyph-name="Japan1.8074" 
d="M507 684h74v-415h62v-44h-62v-149h-49v149h-241v47zM532 637l-192 -368h192v368zM192 857h42q-81 -100 -124.5 -223.5t-43.5 -253.5q0 -131 43.5 -254.5t124.5 -222.5h-42q-59 69 -97.5 150t-52 154.5t-17 108t-3.5 64.5t3.5 64.5t17 108t52 154.5t97.5 150zM808 -97h-43
q82 99 125.5 222.5t43.5 254.5q0 130 -43.5 253.5t-124.5 223.5h42q59 -69 97.5 -150t52 -154.5t17 -108t3.5 -64.5t-3.5 -64.5t-17 -108t-52 -154.5t-97.5 -150z" />
    <glyph glyph-name="Japan1.8075" 
d="M192 857h42q-81 -100 -124.5 -223.5t-43.5 -253.5q0 -131 43.5 -254.5t124.5 -222.5h-42q-59 69 -97.5 150t-52 154.5t-17 108t-3.5 64.5t3.5 64.5t17 108t52 154.5t97.5 150zM808 -97h-43q82 99 125.5 222.5t43.5 254.5q0 130 -43.5 253.5t-124.5 223.5h42
q59 -69 97.5 -150t52 -154.5t17 -108t3.5 -64.5t-3.5 -64.5t-17 -108t-52 -154.5t-97.5 -150zM351 684h296v-45h-247l-5 -204l25 20t34 15t56 8q86 0 117 -50t31 -148q0 -111 -34 -161t-126 -50q-90 0 -125 43t-36 131h50q-2 -74 22.5 -101t87.5 -27q67 0 89 33.5t22 120.5
q0 94 -20.5 129t-83.5 35q-36 0 -60.5 -8.5t-35 -23.5t-14 -25.5t-5.5 -24.5h-44z" />
    <glyph glyph-name="Japan1.8076" 
d="M657 530h-50q1 60 -21 87.5t-84 27.5q-49 0 -72 -19.5t-33 -70t-11 -157.5q12 19 21.5 29t35.5 20t65 10q43 0 73.5 -14t46 -33t24 -49t10 -49.5t1.5 -46.5q0 -99 -33.5 -147.5t-123.5 -48.5q-46 0 -76.5 12t-49 32t-28 58.5t-12.5 79t-3 105.5q0 81 3.5 132t13 93.5
t28 64.5t47.5 33.5t73 11.5q87 0 121 -43t34 -118zM500 412q-65 0 -88 -38.5t-23 -119.5q0 -83 29.5 -111.5t84.5 -28.5q68 0 89 36t21 119q0 73 -23.5 108t-89.5 35zM192 857h42q-81 -100 -124.5 -223.5t-43.5 -253.5q0 -131 43.5 -254.5t124.5 -222.5h-42
q-59 69 -97.5 150t-52 154.5t-17 108t-3.5 64.5t3.5 64.5t17 108t52 154.5t97.5 150zM808 -97h-43q82 99 125.5 222.5t43.5 254.5q0 130 -43.5 253.5t-124.5 223.5h42q59 -69 97.5 -150t52 -154.5t17 -108t3.5 -64.5t-3.5 -64.5t-17 -108t-52 -154.5t-97.5 -150z" />
    <glyph glyph-name="Japan1.8077" 
d="M192 857h42q-81 -100 -124.5 -223.5t-43.5 -253.5q0 -131 43.5 -254.5t124.5 -222.5h-42q-59 69 -97.5 150t-52 154.5t-17 108t-3.5 64.5t3.5 64.5t17 108t52 154.5t97.5 150zM808 -97h-43q82 99 125.5 222.5t43.5 254.5q0 130 -43.5 253.5t-124.5 223.5h42
q59 -69 97.5 -150t52 -154.5t17 -108t3.5 -64.5t-3.5 -64.5t-17 -108t-52 -154.5t-97.5 -150zM313 684h351v-55l-212 -553h-56l222 563h-305v45z" />
    <glyph glyph-name="Japan1.8078" 
d="M424 392q-82 30 -82 140q0 159 158 159t158 -159q0 -38 -8.5 -66t-24.5 -42.5t-25.5 -20.5t-23.5 -11q89 -22 89 -154q0 -78 -35.5 -123.5t-129.5 -45.5q-165 0 -165 166q0 135 89 157zM500 645q-64 0 -86 -31t-22 -84q0 -24 3.5 -41t13.5 -35t33 -27.5t58 -9.5
q36 0 59.5 10t33 29.5t12.5 35.5t3 39t-3.5 40.5t-14 35.5t-33.5 28t-57 10zM500 370q-69 0 -92 -33t-23 -101q0 -26 3.5 -43.5t14 -37.5t35 -30.5t62.5 -10.5t63 10.5t35.5 31t13.5 38.5t3 44q0 71 -25.5 101.5t-89.5 30.5zM192 857h42q-81 -100 -124.5 -223.5
t-43.5 -253.5q0 -131 43.5 -254.5t124.5 -222.5h-42q-59 69 -97.5 150t-52 154.5t-17 108t-3.5 64.5t3.5 64.5t17 108t52 154.5t97.5 150zM808 -97h-43q82 99 125.5 222.5t43.5 254.5q0 130 -43.5 253.5t-124.5 223.5h42q59 -69 97.5 -150t52 -154.5t17 -108t3.5 -64.5
t-3.5 -64.5t-17 -108t-52 -154.5t-97.5 -150z" />
    <glyph glyph-name="Japan1.8079" 
d="M337 231h50q-1 -61 21 -88.5t86 -27.5q50 0 73.5 16.5t34.5 68.5t12 162q-12 -18 -21.5 -28t-35.5 -20t-65 -10q-43 0 -73.5 14t-46 32.5t-24 48t-10 49.5t-1.5 47q0 102 35 149t122 47q38 0 65.5 -7t46 -24t30 -38t17.5 -56t8 -70.5t2 -89.5q0 -200 -30.5 -268
t-136.5 -68q-87 0 -123 40.5t-36 120.5zM500 349q65 0 88 38t23 119q0 85 -29.5 112.5t-84.5 27.5q-68 0 -89 -36t-21 -119q0 -74 23.5 -108t89.5 -34zM192 857h42q-81 -100 -124.5 -223.5t-43.5 -253.5q0 -131 43.5 -254.5t124.5 -222.5h-42q-59 69 -97.5 150t-52 154.5
t-17 108t-3.5 64.5t3.5 64.5t17 108t52 154.5t97.5 150zM808 -97h-43q82 99 125.5 222.5t43.5 254.5q0 130 -43.5 253.5t-124.5 223.5h42q59 -69 97.5 -150t52 -154.5t17 -108t3.5 -64.5t-3.5 -64.5t-17 -108t-52 -154.5t-97.5 -150z" />
    <glyph glyph-name="Japan1.8080" 
d="M649 682q99 0 131.5 -63.5t32.5 -238.5t-32.5 -238.5t-131.5 -63.5q-100 0 -132 63.5t-32 238.5q0 176 32 239t132 63zM649 637q-49 0 -72.5 -20t-33 -72.5t-9.5 -164.5t10 -165t33 -72.5t72 -19.5q48 0 71.5 19t33.5 72.5t10 165.5q0 111 -10 164t-33 73t-72 20z
M192 857h42q-81 -100 -124.5 -223.5t-43.5 -253.5q0 -131 43.5 -254.5t124.5 -222.5h-42q-59 69 -97.5 150t-52 154.5t-17 108t-3.5 64.5t3.5 64.5t17 108t52 154.5t97.5 150zM808 -97h-43q82 99 125.5 222.5t43.5 254.5q0 130 -43.5 253.5t-124.5 223.5h42
q59 -69 97.5 -150t52 -154.5t17 -108t3.5 -64.5t-3.5 -64.5t-17 -108t-52 -154.5t-97.5 -150zM194 676h159v-592h-49v547h-110v45z" />
    <glyph glyph-name="Japan1.8081" 
d="M192 857h42q-81 -100 -124.5 -223.5t-43.5 -253.5q0 -131 43.5 -254.5t124.5 -222.5h-42q-59 69 -97.5 150t-52 154.5t-17 108t-3.5 64.5t3.5 64.5t17 108t52 154.5t97.5 150zM808 -97h-43q82 99 125.5 222.5t43.5 254.5q0 130 -43.5 253.5t-124.5 223.5h42
q59 -69 97.5 -150t52 -154.5t17 -108t3.5 -64.5t-3.5 -64.5t-17 -108t-52 -154.5t-97.5 -150zM562 676h159v-592h-49v547h-110v45zM202 676h159v-592h-49v547h-110v45z" />
    <glyph glyph-name="Japan1.8082" 
d="M192 857h42q-81 -100 -124.5 -223.5t-43.5 -253.5q0 -131 43.5 -254.5t124.5 -222.5h-42q-59 69 -97.5 150t-52 154.5t-17 108t-3.5 64.5t3.5 64.5t17 108t52 154.5t97.5 150zM808 -97h-43q82 99 125.5 222.5t43.5 254.5q0 130 -43.5 253.5t-124.5 223.5h42
q59 -69 97.5 -150t52 -154.5t17 -108t3.5 -64.5t-3.5 -64.5t-17 -108t-52 -154.5t-97.5 -150zM186 676h159v-592h-49v547h-110v45zM689 335l-69 -24q-55 -19 -71.5 -54.5t-16.5 -127.5h264v-45h-312q-1 102 10.5 154.5t35.5 74.5t78 41l59 21q44 15 64 40t20 94t-22 98.5
t-85 29.5q-31 0 -52.5 -9t-32 -20.5t-16 -34t-6 -38.5t-0.5 -45h-49q0 35 1.5 54.5t10 50t24 46.5t46.5 28.5t75 12.5q87 0 120.5 -44t33.5 -123q0 -82 -25 -120.5t-85 -59.5z" />
    <glyph glyph-name="Japan1.8083" 
d="M192 857h42q-81 -100 -124.5 -223.5t-43.5 -253.5q0 -131 43.5 -254.5t124.5 -222.5h-42q-59 69 -97.5 150t-52 154.5t-17 108t-3.5 64.5t3.5 64.5t17 108t52 154.5t97.5 150zM808 -97h-43q82 99 125.5 222.5t43.5 254.5q0 130 -43.5 253.5t-124.5 223.5h42
q59 -69 97.5 -150t52 -154.5t17 -108t3.5 -64.5t-3.5 -64.5t-17 -108t-52 -154.5t-97.5 -150zM186 676h159v-592h-49v547h-110v45zM480 268h48q-3 -81 16.5 -113t93.5 -32q58 0 83.5 28t25.5 98q0 77 -30.5 99t-98.5 22h-37v44h44q70 0 94.5 19t24.5 91q0 57 -21.5 85
t-84.5 28q-36 0 -58.5 -10t-32.5 -30.5t-12.5 -40.5t-1.5 -50h-49q0 27 2 48t11 46.5t25 42t45 28t70 11.5q86 0 120.5 -42t34.5 -115q0 -110 -74 -133q17 -8 26 -14t23.5 -21.5t21.5 -43t7 -66.5q0 -53 -14 -88.5t-39 -52t-49 -22.5t-55 -6q-45 0 -77 12.5t-47.5 28.5
t-24 46t-9.5 49t-1 54z" />
    <glyph glyph-name="Japan1.8084" 
d="M679 676h72v-404h60v-43h-60v-145h-48v145h-234v46zM703 630l-186 -358h186v358zM192 857h42q-81 -100 -124.5 -223.5t-43.5 -253.5q0 -131 43.5 -254.5t124.5 -222.5h-42q-59 69 -97.5 150t-52 154.5t-17 108t-3.5 64.5t3.5 64.5t17 108t52 154.5t97.5 150zM808 -97h-43
q82 99 125.5 222.5t43.5 254.5q0 130 -43.5 253.5t-124.5 223.5h42q59 -69 97.5 -150t52 -154.5t17 -108t3.5 -64.5t-3.5 -64.5t-17 -108t-52 -154.5t-97.5 -150zM186 676h159v-592h-49v547h-110v45z" />
    <glyph glyph-name="Japan1.8085" 
d="M192 857h42q-81 -100 -124.5 -223.5t-43.5 -253.5q0 -131 43.5 -254.5t124.5 -222.5h-42q-59 69 -97.5 150t-52 154.5t-17 108t-3.5 64.5t3.5 64.5t17 108t52 154.5t97.5 150zM808 -97h-43q82 99 125.5 222.5t43.5 254.5q0 130 -43.5 253.5t-124.5 223.5h42
q59 -69 97.5 -150t52 -154.5t17 -108t3.5 -64.5t-3.5 -64.5t-17 -108t-52 -154.5t-97.5 -150zM186 676h159v-592h-49v547h-110v45zM499 676h287v-45h-239l-5 -198q47 42 111 42q83 0 113.5 -48t30.5 -144q0 -108 -33 -156.5t-122 -48.5q-87 0 -121.5 42t-35.5 127h49
q-2 -72 21.5 -98t85.5 -26q65 0 86 32.5t21 117.5q0 91 -19.5 124.5t-80.5 33.5q-35 0 -59 -8t-34.5 -23t-13.5 -24.5t-5 -23.5h-43z" />
    <glyph glyph-name="Japan1.8086" 
d="M792 526h-48q1 58 -20.5 84.5t-81.5 26.5q-47 0 -69 -17.5t-32.5 -67t-11.5 -154.5q13 18 21.5 27.5t34 19.5t62.5 10q42 0 71.5 -13.5t44.5 -32t23.5 -47t10 -47.5t1.5 -46q0 -97 -33 -144t-119 -47q-44 0 -74 11.5t-48 31t-27 56.5t-12 76.5t-3 103.5q0 192 29 258.5
t131 66.5q85 0 117.5 -42t32.5 -114zM640 411q-63 0 -85.5 -37t-22.5 -116q0 -82 29 -109t82 -27q66 0 86 35t20 116q0 71 -22.5 104.5t-86.5 33.5zM192 857h42q-81 -100 -124.5 -223.5t-43.5 -253.5q0 -131 43.5 -254.5t124.5 -222.5h-42q-59 69 -97.5 150t-52 154.5
t-17 108t-3.5 64.5t3.5 64.5t17 108t52 154.5t97.5 150zM808 -97h-43q82 99 125.5 222.5t43.5 254.5q0 130 -43.5 253.5t-124.5 223.5h42q59 -69 97.5 -150t52 -154.5t17 -108t3.5 -64.5t-3.5 -64.5t-17 -108t-52 -154.5t-97.5 -150zM186 676h159v-592h-49v547h-110v45z" />
    <glyph glyph-name="Japan1.8087" 
d="M192 857h42q-81 -100 -124.5 -223.5t-43.5 -253.5q0 -131 43.5 -254.5t124.5 -222.5h-42q-59 69 -97.5 150t-52 154.5t-17 108t-3.5 64.5t3.5 64.5t17 108t52 154.5t97.5 150zM808 -97h-43q82 99 125.5 222.5t43.5 254.5q0 130 -43.5 253.5t-124.5 223.5h42
q59 -69 97.5 -150t52 -154.5t17 -108t3.5 -64.5t-3.5 -64.5t-17 -108t-52 -154.5t-97.5 -150zM186 676h159v-592h-49v547h-110v45zM465 676h341v-54l-206 -538h-54l215 547h-296v45z" />
    <glyph glyph-name="Japan1.8088" 
d="M568 392q-80 29 -80 135q0 155 154 155q153 0 153 -155q0 -107 -80 -135q87 -22 87 -149q0 -75 -34.5 -120t-125.5 -45q-161 0 -161 161q0 132 87 153zM642 637q-63 0 -84.5 -30.5t-21.5 -81.5q0 -49 21 -79t84 -30q35 0 57.5 9.5t32 28t12.5 34.5t3 39q0 49 -21 79.5
t-83 30.5zM641 370q-67 0 -89.5 -32.5t-22.5 -97.5q0 -25 3.5 -42t13.5 -36.5t34 -29.5t61 -10q30 0 51.5 7.5t33 18.5t18 28.5t8 31.5t1.5 34q0 68 -24.5 98t-87.5 30zM192 857h42q-81 -100 -124.5 -223.5t-43.5 -253.5q0 -131 43.5 -254.5t124.5 -222.5h-42
q-59 69 -97.5 150t-52 154.5t-17 108t-3.5 64.5t3.5 64.5t17 108t52 154.5t97.5 150zM808 -97h-43q82 99 125.5 222.5t43.5 254.5q0 130 -43.5 253.5t-124.5 223.5h42q59 -69 97.5 -150t52 -154.5t17 -108t3.5 -64.5t-3.5 -64.5t-17 -108t-52 -154.5t-97.5 -150zM186 676
h159v-592h-49v547h-110v45z" />
    <glyph glyph-name="Japan1.8089" 
d="M480 235h49q-1 -59 20 -85.5t83 -26.5q49 0 71.5 16t34 66.5t12.5 157.5q-12 -18 -21 -27.5t-34.5 -19.5t-63.5 -10q-41 0 -71 13.5t-45 31.5t-23.5 46.5t-10 48t-1.5 46.5q0 98 33.5 144t118.5 46q44 0 74 -11.5t48 -31t27.5 -56.5t12.5 -76.5t3 -102.5
q0 -193 -29.5 -259t-132.5 -66q-84 0 -119 38.5t-36 117.5zM638 350q64 0 86 37t22 116q0 81 -28.5 108t-81.5 27q-66 0 -86.5 -35t-20.5 -115q0 -72 23 -105t86 -33zM192 857h42q-81 -100 -124.5 -223.5t-43.5 -253.5q0 -131 43.5 -254.5t124.5 -222.5h-42
q-59 69 -97.5 150t-52 154.5t-17 108t-3.5 64.5t3.5 64.5t17 108t52 154.5t97.5 150zM808 -97h-43q82 99 125.5 222.5t43.5 254.5q0 130 -43.5 253.5t-124.5 223.5h42q59 -69 97.5 -150t52 -154.5t17 -108t3.5 -64.5t-3.5 -64.5t-17 -108t-52 -154.5t-97.5 -150zM186 676
h159v-592h-49v547h-110v45z" />
    <glyph glyph-name="Japan1.8090" 
d="M688 682q99 0 131.5 -63.5t32.5 -238.5t-32.5 -238.5t-131.5 -63.5q-100 0 -132 63.5t-32 238.5q0 176 32 239t132 63zM688 637q-49 0 -72.5 -20t-33 -72.5t-9.5 -164.5t10 -165t33 -72.5t72 -19.5q48 0 71.5 19t33.5 72.5t10 165.5q0 111 -10 164t-33 73t-72 20z
M192 857h42q-81 -100 -124.5 -223.5t-43.5 -253.5q0 -131 43.5 -254.5t124.5 -222.5h-42q-59 69 -97.5 150t-52 154.5t-17 108t-3.5 64.5t3.5 64.5t17 108t52 154.5t97.5 150zM808 -97h-43q82 99 125.5 222.5t43.5 254.5q0 130 -43.5 253.5t-124.5 223.5h42
q59 -69 97.5 -150t52 -154.5t17 -108t3.5 -64.5t-3.5 -64.5t-17 -108t-52 -154.5t-97.5 -150zM361 335l-69 -24q-55 -19 -71.5 -54.5t-16.5 -127.5h264v-45h-312q-1 102 10.5 154.5t35.5 74.5t78 41l59 21q44 15 64 40t20 94t-22 98.5t-85 29.5q-31 0 -52.5 -9t-32 -20.5
t-16 -34t-6 -38.5t-0.5 -45h-49q0 35 1.5 54.5t10 50t24 46.5t46.5 28.5t75 12.5q87 0 120.5 -44t33.5 -123q0 -82 -25 -120.5t-85 -59.5z" />
    <glyph glyph-name="Japan1.8091" 
d="M500 854q128 0 237 -62.5t173 -172t64 -239.5q0 -196 -139 -335t-335 -139t-335 139t-139 335q0 130 64 239.5t173 172t237 62.5zM500 819q-181 0 -310 -128t-129 -311q0 -119 59 -220t160 -160t220 -59q182 0 310.5 128.5t128.5 310.5q0 183 -129 311t-310 128zM378 336
l-63 -22q-50 -17 -64.5 -52t-14.5 -123h238v-43h-282q-1 99 9 148t32 71t71 40l53 20q28 10 41 19.5t24 36t11 73.5q0 66 -20 94.5t-77 28.5q-28 0 -47 -8.5t-29 -20t-14.5 -33t-5 -36.5t-0.5 -43h-44q0 33 1.5 51t9 47.5t21.5 45t42 28t68 12.5q77 0 108 -41t31 -119
q0 -79 -22 -117t-77 -57zM570 664h153v-568h-47v525h-106v43z" />
    <glyph glyph-name="Japan1.8092" 
d="M468 589h64v-589h-64v589zM458 788h84v-91h-84v91z" />
    <glyph glyph-name="Japan1.8093" 
d="M343 589h64v-589h-64v589zM333 788h85v-91h-85v91zM593 589h64v-589h-64v589zM582 788h85v-91h-85v91z" />
    <glyph glyph-name="Japan1.8094" 
d="M274 589h64v-589h-64v589zM263 788h85v-91h-85v91zM468 589h64v-589h-64v589zM458 788h84v-91h-84v91zM662 589h64v-589h-64v589zM652 788h85v-91h-85v91z" />
    <glyph glyph-name="Japan1.8095" 
d="M383 589h66l116 -401l39 -135l39 135l116 401h66l-180 -589h-82zM246 589h64v-589h-64v589zM235 788h85v-91h-85v91z" />
    <glyph glyph-name="Japan1.8096" 
d="M245 589h71l184 -531l184 531h71l-215 -589h-80z" />
    <glyph glyph-name="Japan1.8097" 
d="M175 589h66l116 -401l39 -135l39 135l116 401h66l-180 -589h-82zM690 589h64v-589h-64v589zM680 788h85v-91h-85v91z" />
    <glyph glyph-name="Japan1.8098" 
d="M595 589h63v-589h-63v589zM584 788h84v-91h-84v91zM736 589h63v-589h-63v589zM726 788h84v-91h-84v91zM135 589h66l105 -399l31 -135l32 135l105 399h66l-163 -589h-79z" />
    <glyph glyph-name="Japan1.8099" 
d="M116 589h66l93 -408l27 -123l26 123l93 408h66l-146 -589h-79zM527 589h61v-589h-61v589zM516 788h82v-91h-82v91zM645 589h62v-589h-62v589zM635 788h82v-91h-82v91zM764 589h62v-589h-62v589zM754 788h82v-91h-82v91z" />
    <glyph glyph-name="Japan1.8100" 
d="M387 589h71l138 -239l138 239h71l-163 -278l185 -311h-77l-154 275l-154 -275h-77l185 311zM239 589h64v-589h-64v589zM229 788h85v-91h-85v91z" />
    <glyph glyph-name="Japan1.8101" 
d="M257 589h78l165 -244l165 244h78l-194 -277l210 -312h-81l-178 274l-178 -274h-81l210 312z" />
    <glyph glyph-name="Japan1.8102" 
d="M500 854q128 0 237 -62.5t173 -172t64 -239.5q0 -196 -139 -335t-335 -139t-335 139t-139 335q0 130 64 239.5t173 172t237 62.5zM500 819q-181 0 -310 -128t-129 -311q0 -119 59 -220t160 -160t220 -59q182 0 310.5 128.5t128.5 310.5q0 183 -129 311t-310 128zM378 336
l-63 -22q-50 -17 -64.5 -52t-14.5 -123h238v-43h-282q-1 99 9 148t32 71t71 40l53 20q28 10 41 19.5t24 36t11 73.5q0 66 -20 94.5t-77 28.5q-28 0 -47 -8.5t-29 -20t-14.5 -33t-5 -36.5t-0.5 -43h-44q0 33 1.5 51t9 47.5t21.5 45t42 28t68 12.5q77 0 108 -41t31 -119
q0 -79 -22 -117t-77 -57zM714 336l-63 -22q-50 -17 -64.5 -52t-14.5 -123h238v-43h-282q-1 99 9 148t32 71t71 40l53 20q28 10 41 19.5t24 36t11 73.5q0 66 -20 94.5t-77 28.5q-28 0 -47 -8.5t-29 -20t-14.5 -33t-5 -36.5t-0.5 -43h-44q0 33 1.5 51t9 47.5t21.5 45t42 28
t68 12.5q77 0 108 -41t31 -119q0 -79 -22 -117t-77 -57z" />
    <glyph glyph-name="Japan1.8103" 
d="M500 854q128 0 237 -62.5t173 -172t64 -239.5q0 -196 -139 -335t-335 -139t-335 139t-139 335q0 130 64 239.5t173 172t237 62.5zM500 819q-181 0 -310 -128t-129 -311q0 -119 59 -220t160 -160t220 -59q182 0 310.5 128.5t128.5 310.5q0 183 -129 311t-310 128zM378 336
l-63 -22q-50 -17 -64.5 -52t-14.5 -123h238v-43h-282q-1 99 9 148t32 71t71 40l53 20q28 10 41 19.5t24 36t11 73.5q0 66 -20 94.5t-77 28.5q-28 0 -47 -8.5t-29 -20t-14.5 -33t-5 -36.5t-0.5 -43h-44q0 33 1.5 51t9 47.5t21.5 45t42 28t68 12.5q77 0 108 -41t31 -119
q0 -79 -22 -117t-77 -57zM526 272h43q-1 -39 1 -60t11.5 -42t30.5 -29t57 -8q53 0 75.5 27t22.5 94q0 73 -27 94.5t-89 21.5h-34v43h40q63 0 85 18t22 87q0 54 -19.5 81.5t-76.5 27.5q-32 0 -52.5 -9.5t-29 -29t-11 -38.5t-1.5 -49h-44q-1 78 28 123.5t110 45.5
q78 0 109 -40.5t31 -110.5q0 -105 -68 -128q15 -7 24 -13t21.5 -20.5t19 -41t6.5 -63.5q0 -50 -12 -84t-34 -50.5t-44.5 -22.5t-51.5 -6q-41 0 -69.5 12t-42.5 27.5t-21.5 44t-8.5 47t-1 51.5z" />
    <glyph glyph-name="Japan1.8104" 
d="M701 664h65v-387h54v-42h-54v-139h-43v139h-212v44zM723 620l-168 -343h168v343zM500 854q128 0 237 -62.5t173 -172t64 -239.5q0 -196 -139 -335t-335 -139t-335 139t-139 335q0 130 64 239.5t173 172t237 62.5zM500 819q-181 0 -310 -128t-129 -311q0 -119 59 -220
t160 -160t220 -59q182 0 310.5 128.5t128.5 310.5q0 183 -129 311t-310 128zM378 336l-63 -22q-50 -17 -64.5 -52t-14.5 -123h238v-43h-282q-1 99 9 148t32 71t71 40l53 20q28 10 41 19.5t24 36t11 73.5q0 66 -20 94.5t-77 28.5q-28 0 -47 -8.5t-29 -20t-14.5 -33t-5 -36.5
t-0.5 -43h-44q0 33 1.5 51t9 47.5t21.5 45t42 28t68 12.5q77 0 108 -41t31 -119q0 -79 -22 -117t-77 -57z" />
    <glyph glyph-name="Japan1.8105" 
d="M500 854q128 0 237 -62.5t173 -172t64 -239.5q0 -196 -139 -335t-335 -139t-335 139t-139 335q0 130 64 239.5t173 172t237 62.5zM500 819q-181 0 -310 -128t-129 -311q0 -119 59 -220t160 -160t220 -59q182 0 310.5 128.5t128.5 310.5q0 183 -129 311t-310 128zM378 336
l-63 -22q-50 -17 -64.5 -52t-14.5 -123h238v-43h-282q-1 99 9 148t32 71t71 40l53 20q28 10 41 19.5t24 36t11 73.5q0 66 -20 94.5t-77 28.5q-28 0 -47 -8.5t-29 -20t-14.5 -33t-5 -36.5t-0.5 -43h-44q0 33 1.5 51t9 47.5t21.5 45t42 28t68 12.5q77 0 108 -41t31 -119
q0 -79 -22 -117t-77 -57zM542 664h259v-43h-216l-5 -190q42 40 101 40q75 0 102.5 -46t27.5 -139q0 -103 -30 -149.5t-110 -46.5q-77 0 -109 39.5t-33 122.5h44q-2 -69 20 -94t77 -25q59 0 78 31t19 114q0 86 -18 118.5t-73 32.5q-32 0 -53 -8t-30.5 -22t-12.5 -23.5
t-5 -22.5h-39z" />
    <glyph glyph-name="Japan1.8106" 
d="M805 520h-44q1 56 -18.5 81.5t-72.5 25.5q-42 0 -62.5 -15.5t-30 -64t-10.5 -150.5q11 18 19 26.5t31 18.5t57 10q38 0 65 -13.5t40 -31t20.5 -45t9 -45.5t1.5 -43q0 -94 -30 -139t-107 -45q-40 0 -67.5 11t-43.5 30t-24.5 55t-11 73.5t-2.5 98.5q0 184 26.5 248
t118.5 64q42 0 70.5 -12.5t42 -36.5t18.5 -47t5 -54zM668 410q-33 0 -54 -12t-30 -36t-11.5 -45t-2.5 -54q0 -79 26.5 -105t73.5 -26q59 0 77.5 33.5t18.5 112.5q0 67 -20.5 99.5t-77.5 32.5zM500 854q128 0 237 -62.5t173 -172t64 -239.5q0 -196 -139 -335t-335 -139
t-335 139t-139 335q0 130 64 239.5t173 172t237 62.5zM500 819q-181 0 -310 -128t-129 -311q0 -119 59 -220t160 -160t220 -59q182 0 310.5 128.5t128.5 310.5q0 183 -129 311t-310 128zM378 336l-63 -22q-50 -17 -64.5 -52t-14.5 -123h238v-43h-282q-1 99 9 148t32 71
t71 40l53 20q28 10 41 19.5t24 36t11 73.5q0 66 -20 94.5t-77 28.5q-28 0 -47 -8.5t-29 -20t-14.5 -33t-5 -36.5t-0.5 -43h-44q0 33 1.5 51t9 47.5t21.5 45t42 28t68 12.5q77 0 108 -41t31 -119q0 -79 -22 -117t-77 -57z" />
    <glyph glyph-name="Japan1.8107" 
d="M500 854q128 0 237 -62.5t173 -172t64 -239.5q0 -196 -139 -335t-335 -139t-335 139t-139 335q0 130 64 239.5t173 172t237 62.5zM500 819q-181 0 -310 -128t-129 -311q0 -119 59 -220t160 -160t220 -59q182 0 310.5 128.5t128.5 310.5q0 183 -129 311t-310 128zM378 336
l-63 -22q-50 -17 -64.5 -52t-14.5 -123h238v-43h-282q-1 99 9 148t32 71t71 40l53 20q28 10 41 19.5t24 36t11 73.5q0 66 -20 94.5t-77 28.5q-28 0 -47 -8.5t-29 -20t-14.5 -33t-5 -36.5t-0.5 -43h-44q0 33 1.5 51t9 47.5t21.5 45t42 28t68 12.5q77 0 108 -41t31 -119
q0 -79 -22 -117t-77 -57zM518 664h301v-52l-192 -516h-50l200 525h-259v43z" />
    <glyph glyph-name="Japan1.8108" 
d="M601 391q-13 5 -21.5 10.5t-22 19.5t-21 39.5t-7.5 60.5q0 149 138 149q139 0 139 -149q0 -103 -72 -130q78 -20 78 -143q0 -71 -30.5 -114.5t-113.5 -43.5q-146 0 -146 154q0 126 79 147zM667 627q-55 0 -75 -28t-20 -78q0 -22 3 -38.5t12 -33.5t29 -26t51 -9
q32 0 52.5 9.5t29 27t11 33t2.5 37.5q0 48 -20 77t-75 29zM667 371q-57 0 -79 -30t-22 -96q0 -24 3 -40t12 -34.5t31 -28.5t55 -10q34 0 55.5 9.5t31 29t12 36t2.5 41.5q0 64 -22 93.5t-79 29.5zM500 854q128 0 237 -62.5t173 -172t64 -239.5q0 -196 -139 -335t-335 -139
t-335 139t-139 335q0 130 64 239.5t173 172t237 62.5zM500 819q-181 0 -310 -128t-129 -311q0 -119 59 -220t160 -160t220 -59q182 0 310.5 128.5t128.5 310.5q0 183 -129 311t-310 128zM378 336l-63 -22q-50 -17 -64.5 -52t-14.5 -123h238v-43h-282q-1 99 9 148t32 71
t71 40l53 20q28 10 41 19.5t24 36t11 73.5q0 66 -20 94.5t-77 28.5q-28 0 -47 -8.5t-29 -20t-14.5 -33t-5 -36.5t-0.5 -43h-44q0 33 1.5 51t9 47.5t21.5 45t42 28t68 12.5q77 0 108 -41t31 -119q0 -79 -22 -117t-77 -57z" />
    <glyph glyph-name="Japan1.8109" 
d="M525 241h44q-1 -58 18 -83t75 -25q45 0 65.5 16t30 63.5t10.5 150.5q-11 -17 -19 -26t-31 -18.5t-57 -9.5q-38 0 -65 13.5t-40.5 31t-21 45.5t-8.5 45.5t-1 43.5q0 90 28.5 136t108.5 46q94 0 121.5 -58.5t27.5 -208.5q0 -186 -27 -249t-120 -63q-75 0 -107 36.5
t-32 113.5zM667 351q57 0 77.5 35.5t20.5 111.5q0 78 -25.5 104t-74.5 26q-59 0 -77.5 -34t-18.5 -111q0 -68 20 -100t78 -32zM500 854q128 0 237 -62.5t173 -172t64 -239.5q0 -196 -139 -335t-335 -139t-335 139t-139 335q0 130 64 239.5t173 172t237 62.5zM500 819
q-181 0 -310 -128t-129 -311q0 -119 59 -220t160 -160t220 -59q182 0 310.5 128.5t128.5 310.5q0 183 -129 311t-310 128zM378 336l-63 -22q-50 -17 -64.5 -52t-14.5 -123h238v-43h-282q-1 99 9 148t32 71t71 40l53 20q28 10 41 19.5t24 36t11 73.5q0 66 -20 94.5t-77 28.5
q-28 0 -47 -8.5t-29 -20t-14.5 -33t-5 -36.5t-0.5 -43h-44q0 33 1.5 51t9 47.5t21.5 45t42 28t68 12.5q77 0 108 -41t31 -119q0 -79 -22 -117t-77 -57z" />
    <glyph glyph-name="Japan1.8110" 
d="M668 670q96 0 126.5 -60.5t30.5 -229.5t-30.5 -229.5t-126.5 -60.5t-126.5 60.5t-30.5 229.5t31 229.5t126 60.5zM668 627q-47 0 -69.5 -19t-32 -70t-9.5 -158t10 -158.5t32 -70t69 -18.5t69 18.5t32 70t10 158.5q0 106 -9.5 157.5t-32 70.5t-69.5 19zM500 854
q128 0 237 -62.5t173 -172t64 -239.5q0 -196 -139 -335t-335 -139t-335 139t-139 335q0 130 64 239.5t173 172t237 62.5zM500 819q-181 0 -310 -128t-129 -311q0 -119 59 -220t160 -160t220 -59q182 0 310.5 128.5t128.5 310.5q0 183 -129 311t-310 128zM190 272h43
q-1 -39 1 -60t11.5 -42t30.5 -29t57 -8q53 0 75.5 27t22.5 94q0 73 -27 94.5t-89 21.5h-34v43h40q63 0 85 18t22 87q0 54 -19.5 81.5t-76.5 27.5q-32 0 -52.5 -9.5t-29 -29t-11 -38.5t-1.5 -49h-44q-1 78 28 123.5t110 45.5q78 0 109 -40.5t31 -110.5q0 -105 -68 -128
q15 -7 24 -13t21.5 -20.5t19 -41t6.5 -63.5q0 -50 -12 -84t-34 -50.5t-44.5 -22.5t-51.5 -6q-41 0 -69.5 12t-42.5 27.5t-21.5 44t-8.5 47t-1 51.5z" />
    <glyph glyph-name="Japan1.8111" 
d="M500 854q128 0 237 -62.5t173 -172t64 -239.5q0 -196 -139 -335t-335 -139t-335 139t-139 335q0 130 64 239.5t173 172t237 62.5zM500 819q-181 0 -310 -128t-129 -311q0 -119 59 -220t160 -160t220 -59q182 0 310.5 128.5t128.5 310.5q0 183 -129 311t-310 128zM190 272
h43q-1 -39 1 -60t11.5 -42t30.5 -29t57 -8q53 0 75.5 27t22.5 94q0 73 -27 94.5t-89 21.5h-34v43h40q63 0 85 18t22 87q0 54 -19.5 81.5t-76.5 27.5q-32 0 -52.5 -9.5t-29 -29t-11 -38.5t-1.5 -49h-44q-1 78 28 123.5t110 45.5q78 0 109 -40.5t31 -110.5q0 -105 -68 -128
q15 -7 24 -13t21.5 -20.5t19 -41t6.5 -63.5q0 -50 -12 -84t-34 -50.5t-44.5 -22.5t-51.5 -6q-41 0 -69.5 12t-42.5 27.5t-21.5 44t-8.5 47t-1 51.5zM570 664h153v-568h-47v525h-106v43z" />
    <glyph glyph-name="Japan1.8112" 
d="M724 480v-262q0 -71 17 -101h-62q-8 28 -11 72q-10 -18 -18 -27.5t-28.5 -23t-57.5 -19.5t-92 -6q-31 0 -51.5 1.5t-53 9.5t-52.5 23t-35.5 45t-15.5 73q0 47 18 80t46 48.5t52.5 22t47.5 6.5l175 4q16 0 24 1.5t19 7.5t16 20.5t5 38.5q0 54 -32.5 75.5t-135.5 21.5
q-79 0 -114 -21t-37 -82h-63q1 159 218 159q53 0 93 -7t63 -21.5t37 -28.5t20 -37t7 -36t1 -37zM666 315v80q-15 -19 -52 -19l-169 -4q-34 -1 -58.5 -10t-36.5 -19.5t-18 -28t-7 -27.5t-1 -26q0 -29 11.5 -48.5t33.5 -29.5t46.5 -13.5t58.5 -3.5q105 0 148.5 36t43.5 113z
M192 857h42q-81 -100 -124.5 -223.5t-43.5 -253.5q0 -131 43.5 -254.5t124.5 -222.5h-42q-59 69 -97.5 150t-52 154.5t-17 108t-3.5 64.5t3.5 64.5t17 108t52 154.5t97.5 150zM808 -97h-43q82 99 125.5 222.5t43.5 254.5q0 130 -43.5 253.5t-124.5 223.5h42
q59 -69 97.5 -150t52 -154.5t17 -108t3.5 -64.5t-3.5 -64.5t-17 -108t-52 -154.5t-97.5 -150z" />
    <glyph glyph-name="Japan1.8113" 
d="M285 743h58v-237q25 35 65 52.5t114 17.5q114 0 167 -58t53 -209q0 -146 -51.5 -206t-168.5 -60q-75 0 -114 17.5t-65 52.5l-5 -61h-53v691zM513 524q-95 0 -131.5 -51t-36.5 -164q0 -114 37.5 -164t130.5 -50q46 0 78 12t49.5 29t26.5 47.5t11.5 57.5t2.5 68
q0 53 -4.5 85.5t-20.5 65.5t-51.5 48.5t-91.5 15.5zM192 857h42q-81 -100 -124.5 -223.5t-43.5 -253.5q0 -131 43.5 -254.5t124.5 -222.5h-42q-59 69 -97.5 150t-52 154.5t-17 108t-3.5 64.5t3.5 64.5t17 108t52 154.5t97.5 150zM808 -97h-43q82 99 125.5 222.5t43.5 254.5
q0 130 -43.5 253.5t-124.5 223.5h42q59 -69 97.5 -150t52 -154.5t17 -108t3.5 -64.5t-3.5 -64.5t-17 -108t-52 -154.5t-97.5 -150z" />
    <glyph glyph-name="Japan1.8114" 
d="M682 307h58q-6 -111 -62 -152.5t-172 -41.5q-129 0 -187.5 57t-58.5 210q0 149 57 208t187 59q234 0 230 -186h-59q-2 77 -44.5 103t-128.5 26q-46 0 -74 -6t-55 -25.5t-39.5 -62t-12.5 -110.5q0 -123 37.5 -169.5t144.5 -46.5q96 0 135.5 28t43.5 109zM192 857h42
q-81 -100 -124.5 -223.5t-43.5 -253.5q0 -131 43.5 -254.5t124.5 -222.5h-42q-59 69 -97.5 150t-52 154.5t-17 108t-3.5 64.5t3.5 64.5t17 108t52 154.5t97.5 150zM808 -97h-43q82 99 125.5 222.5t43.5 254.5q0 130 -43.5 253.5t-124.5 223.5h42q59 -69 97.5 -150t52 -154.5
t17 -108t3.5 -64.5t-3.5 -64.5t-17 -108t-52 -154.5t-97.5 -150z" />
    <glyph glyph-name="Japan1.8115" 
d="M653 743h58v-691h-52l-6 61q-25 -35 -64.5 -52.5t-113.5 -17.5q-117 0 -169 60t-52 206q0 151 53.5 209t167.5 58q74 0 114 -17.5t64 -52.5v237zM484 524q-56 0 -91.5 -15.5t-51.5 -48.5t-20.5 -65.5t-4.5 -85.5q0 -42 2 -68t11.5 -57t27 -48t49.5 -29t78 -12
q93 0 130.5 49.5t37.5 164.5q0 113 -36.5 164t-131.5 51zM192 857h42q-81 -100 -124.5 -223.5t-43.5 -253.5q0 -131 43.5 -254.5t124.5 -222.5h-42q-59 69 -97.5 150t-52 154.5t-17 108t-3.5 64.5t3.5 64.5t17 108t52 154.5t97.5 150zM808 -97h-43q82 99 125.5 222.5
t43.5 254.5q0 130 -43.5 253.5t-124.5 223.5h42q59 -69 97.5 -150t52 -154.5t17 -108t3.5 -64.5t-3.5 -64.5t-17 -108t-52 -154.5t-97.5 -150z" />
    <glyph glyph-name="Japan1.8116" 
d="M739 361h-418q-1 -99 37 -145t149 -46q82 0 122.5 23.5t46.5 86.5h63q-15 -167 -226 -167q-76 0 -126.5 17.5t-77.5 53.5t-37.5 80.5t-10.5 109.5q0 42 2 70t15.5 70.5t37.5 68t72.5 45t117.5 19.5q48 0 86 -10t62 -24.5t41.5 -38t25.5 -42.5t12.5 -47.5t5 -43t0.5 -37.5
v-43zM321 415h356q0 43 -5.5 70.5t-22.5 54.5t-54.5 40t-95.5 13q-35 0 -62 -6t-55.5 -23t-44 -54.5t-16.5 -94.5zM192 857h42q-81 -100 -124.5 -223.5t-43.5 -253.5q0 -131 43.5 -254.5t124.5 -222.5h-42q-59 69 -97.5 150t-52 154.5t-17 108t-3.5 64.5t3.5 64.5t17 108
t52 154.5t97.5 150zM808 -97h-43q82 99 125.5 222.5t43.5 254.5q0 130 -43.5 253.5t-124.5 223.5h42q59 -69 97.5 -150t52 -154.5t17 -108t3.5 -64.5t-3.5 -64.5t-17 -108t-52 -154.5t-97.5 -150z" />
    <glyph glyph-name="Japan1.8117" 
d="M453 541v45q0 38 12.5 65t30.5 41t48 21t54 8t60 0v-54q-27 3 -52.5 0.5t-45.5 -9t-32.5 -23.5t-12.5 -43v-51h143v-55h-143v-464h-62v464h-111v55h111zM192 857h42q-81 -100 -124.5 -223.5t-43.5 -253.5q0 -131 43.5 -254.5t124.5 -222.5h-42q-59 69 -97.5 150
t-52 154.5t-17 108t-3.5 64.5t3.5 64.5t17 108t52 154.5t97.5 150zM808 -97h-43q82 99 125.5 222.5t43.5 254.5q0 130 -43.5 253.5t-124.5 223.5h42q59 -69 97.5 -150t52 -154.5t17 -108t3.5 -64.5t-3.5 -64.5t-17 -108t-52 -154.5t-97.5 -150z" />
    <glyph glyph-name="Japan1.8118" 
d="M791 723v-54q-40 -2 -55.5 -9t-27.5 -28q21 -31 21 -72q0 -43 -13 -74t-32 -48t-49.5 -27t-58 -12.5t-65.5 -2.5q-137 0 -178 31q-12 -7 -18.5 -11.5t-13.5 -14.5t-7 -22q0 -41 61 -45l265 -16q41 -3 71 -14t44 -23.5t22 -31.5t9.5 -30t1.5 -26q0 -78 -60 -109t-203 -31
q-140 0 -207 27.5t-67 103.5q0 72 66 105q-28 7 -43.5 30t-15.5 51q0 35 20.5 57t51.5 25q-34 35 -34 103q0 73 51.5 112.5t179.5 39.5q126 0 168 -37q9 15 17 23.5t34 18.5t65 11zM503 652q-98 0 -133 -23t-35 -82q0 -55 40 -75t128 -20q95 0 131 22.5t36 80.5q0 51 -34 74
t-133 23zM558 269l-182 11q-89 -17 -89 -85q0 -32 14.5 -49t64 -27.5t144.5 -10.5q64 0 105.5 6.5t61 19.5t26 26t6.5 32q0 36 -30 53.5t-121 23.5zM192 857h42q-81 -100 -124.5 -223.5t-43.5 -253.5q0 -131 43.5 -254.5t124.5 -222.5h-42q-59 69 -97.5 150t-52 154.5
t-17 108t-3.5 64.5t3.5 64.5t17 108t52 154.5t97.5 150zM808 -97h-43q82 99 125.5 222.5t43.5 254.5q0 130 -43.5 253.5t-124.5 223.5h42q59 -69 97.5 -150t52 -154.5t17 -108t3.5 -64.5t-3.5 -64.5t-17 -108t-52 -154.5t-97.5 -150z" />
    <glyph glyph-name="Japan1.8119" 
d="M279 739h60v-245q52 78 183 78q29 0 55 -4t53 -16t46.5 -31t32 -51t12.5 -74v-350h-60v338q0 18 -1 30t-9 34t-23.5 35.5t-47 24.5t-75.5 11q-53 0 -88.5 -15.5t-51 -43t-21 -53t-5.5 -59.5v-302h-60v693zM192 857h42q-81 -100 -124.5 -223.5t-43.5 -253.5
q0 -131 43.5 -254.5t124.5 -222.5h-42q-59 69 -97.5 150t-52 154.5t-17 108t-3.5 64.5t3.5 64.5t17 108t52 154.5t97.5 150zM808 -97h-43q82 99 125.5 222.5t43.5 254.5q0 130 -43.5 253.5t-124.5 223.5h42q59 -69 97.5 -150t52 -154.5t17 -108t3.5 -64.5t-3.5 -64.5
t-17 -108t-52 -154.5t-97.5 -150z" />
    <glyph glyph-name="Japan1.8120" 
d="M460 726h80v-89h-80v89zM470 552h60v-518h-60v518zM192 857h42q-81 -100 -124.5 -223.5t-43.5 -253.5q0 -131 43.5 -254.5t124.5 -222.5h-42q-59 69 -97.5 150t-52 154.5t-17 108t-3.5 64.5t3.5 64.5t17 108t52 154.5t97.5 150zM808 -97h-43q82 99 125.5 222.5
t43.5 254.5q0 130 -43.5 253.5t-124.5 223.5h42q59 -69 97.5 -150t52 -154.5t17 -108t3.5 -64.5t-3.5 -64.5t-17 -108t-52 -154.5t-97.5 -150z" />
    <glyph glyph-name="Japan1.8121" 
d="M477 753h81v-86h-81v86zM487 573h61v-477q0 -44 -11.5 -72t-34.5 -40t-45 -15.5t-54 -3.5v54q22 0 34.5 1.5t25.5 8.5t18.5 23t5.5 43v478zM192 857h42q-81 -100 -124.5 -223.5t-43.5 -253.5q0 -131 43.5 -254.5t124.5 -222.5h-42q-59 69 -97.5 150t-52 154.5t-17 108
t-3.5 64.5t3.5 64.5t17 108t52 154.5t97.5 150zM808 -97h-43q82 99 125.5 222.5t43.5 254.5q0 130 -43.5 253.5t-124.5 223.5h42q59 -69 97.5 -150t52 -154.5t17 -108t3.5 -64.5t-3.5 -64.5t-17 -108t-52 -154.5t-97.5 -150z" />
    <glyph glyph-name="Japan1.8122" 
d="M393 318l256 233h83l-274 -240l303 -276h-85l-283 269v-269h-59v690h59v-407zM192 857h42q-81 -100 -124.5 -223.5t-43.5 -253.5q0 -131 43.5 -254.5t124.5 -222.5h-42q-59 69 -97.5 150t-52 154.5t-17 108t-3.5 64.5t3.5 64.5t17 108t52 154.5t97.5 150zM766 857h42
q59 -69 97.5 -150t52 -154.5t17 -108t3.5 -64.5t-3.5 -64.5t-17 -108t-52 -154.5t-97.5 -150h-42q81 99 124.5 222.5t43.5 254.5q0 130 -43.5 253.5t-124.5 223.5z" />
    <glyph glyph-name="Japan1.8123" 
d="M470 725h60v-690h-60v690zM192 857h42q-81 -100 -124.5 -223.5t-43.5 -253.5q0 -131 43.5 -254.5t124.5 -222.5h-42q-59 69 -97.5 150t-52 154.5t-17 108t-3.5 64.5t3.5 64.5t17 108t52 154.5t97.5 150zM766 857h42q59 -69 97.5 -150t52 -154.5t17 -108t3.5 -64.5
t-3.5 -64.5t-17 -108t-52 -154.5t-97.5 -150h-42q81 99 124.5 222.5t43.5 254.5q0 130 -43.5 253.5t-124.5 223.5z" />
    <glyph glyph-name="Japan1.8124" 
d="M192 857h42q-81 -100 -124.5 -223.5t-43.5 -253.5q0 -131 43.5 -254.5t124.5 -222.5h-42q-59 69 -97.5 150t-52 154.5t-17 108t-3.5 64.5t3.5 64.5t17 108t52 154.5t97.5 150zM766 857h42q59 -69 97.5 -150t52 -154.5t17 -108t3.5 -64.5t-3.5 -64.5t-17 -108t-52 -154.5
t-97.5 -150h-42q81 99 124.5 222.5t43.5 254.5q0 130 -43.5 253.5t-124.5 223.5zM175 639h53l2 -57q58 65 140 65q35 0 61.5 -8t43.5 -23.5t24.5 -25.5t16.5 -27q11 18 20.5 29.5t27 25.5t43 21.5t58.5 7.5q47 0 80 -14t49 -31t24.5 -44.5t9.5 -42t1 -36.5v-358h-58v350
q0 18 -0.5 29.5t-6.5 31.5t-16.5 32t-32 21.5t-52.5 9.5q-131 0 -131 -134v-340h-58v338q0 24 -0.5 37.5t-6.5 35t-16.5 33t-32.5 21t-53 9.5q-70 0 -101 -35.5t-31 -88.5v-350h-58v518z" />
    <glyph glyph-name="Japan1.8125" 
d="M279 640h57l3 -71q53 78 179 78q203 0 203 -177v-350h-60v341q0 20 -2 35t-11 35.5t-24.5 33t-45.5 22t-72 9.5q-52 0 -87.5 -15t-51.5 -42t-22 -53.5t-6 -60.5v-305h-60v520zM192 857h42q-81 -100 -124.5 -223.5t-43.5 -253.5q0 -131 43.5 -254.5t124.5 -222.5h-42
q-59 69 -97.5 150t-52 154.5t-17 108t-3.5 64.5t3.5 64.5t17 108t52 154.5t97.5 150zM766 857h42q59 -69 97.5 -150t52 -154.5t17 -108t3.5 -64.5t-3.5 -64.5t-17 -108t-52 -154.5t-97.5 -150h-42q81 99 124.5 222.5t43.5 254.5q0 130 -43.5 253.5t-124.5 223.5z" />
    <glyph glyph-name="Japan1.8126" 
d="M261 380q0 52 3 85.5t16.5 71.5t38.5 59.5t70.5 36t110.5 14.5q76 0 124.5 -17t73 -53t33 -78.5t8.5 -106.5q0 -40 -1 -63t-5.5 -56.5t-13.5 -53.5t-26.5 -42.5t-42.5 -34.5t-63 -20.5t-87 -8.5q-65 0 -110 14t-70 35.5t-38.5 59.5t-17 72t-3.5 86zM500 592
q-51 0 -84.5 -9.5t-53 -24.5t-29 -45.5t-12 -60t-2.5 -80.5q0 -118 35.5 -161t145.5 -43q50 0 83.5 9t53 24t29.5 45.5t12.5 61.5t2.5 85q0 114 -36 156.5t-145 42.5zM192 857h42q-81 -100 -124.5 -223.5t-43.5 -253.5q0 -131 43.5 -254.5t124.5 -222.5h-42
q-59 69 -97.5 150t-52 154.5t-17 108t-3.5 64.5t3.5 64.5t17 108t52 154.5t97.5 150zM766 857h42q59 -69 97.5 -150t52 -154.5t17 -108t3.5 -64.5t-3.5 -64.5t-17 -108t-52 -154.5t-97.5 -150h-42q81 99 124.5 222.5t43.5 254.5q0 130 -43.5 253.5t-124.5 223.5z" />
    <glyph glyph-name="Japan1.8127" 
d="M312 34v636h53l2 -65q14 21 25.5 33t48.5 26t91 14q63 0 105.5 -20t63 -58t28 -79t7.5 -97q0 -126 -45.5 -191t-157.5 -65q-41 0 -71.5 7t-49.5 20.5t-27 23t-18 24.5v-209h-55zM525 223q83 0 117 43.5t34 155.5q0 64 -10.5 105t-33 61t-46.5 27t-61 7q-31 0 -53.5 -5.5
t-48.5 -24t-40 -61t-14 -108.5q0 -103 36.5 -151.5t119.5 -48.5zM192 857h42q-81 -100 -124.5 -223.5t-43.5 -253.5q0 -131 43.5 -254.5t124.5 -222.5h-42q-59 69 -97.5 150t-52 154.5t-17 108t-3.5 64.5t3.5 64.5t17 108t52 154.5t97.5 150zM766 857h42q59 -69 97.5 -150
t52 -154.5t17 -108t3.5 -64.5t-3.5 -64.5t-17 -108t-52 -154.5t-97.5 -150h-42q81 99 124.5 222.5t43.5 254.5q0 130 -43.5 253.5t-124.5 223.5z" />
    <glyph glyph-name="Japan1.8128" 
d="M688 670v-636h-55v209q-10 -15 -18 -24.5t-27 -23t-49.5 -20.5t-71.5 -7q-112 0 -157.5 65t-45.5 191q0 57 7.5 97.5t28 78.5t62.5 58t106 20q41 0 71 -6.5t48.5 -20t27 -22.5t18.5 -24l2 65h53zM474 224q19 0 30.5 1t33 6t35.5 18t28.5 33.5t22 56.5t7.5 84
q0 66 -14 108.5t-40.5 61t-49 24t-53.5 5.5q-37 0 -61 -7t-46 -27t-32.5 -61t-10.5 -105q0 -112 34 -155.5t116 -42.5zM192 857h42q-81 -100 -124.5 -223.5t-43.5 -253.5q0 -131 43.5 -254.5t124.5 -222.5h-42q-59 69 -97.5 150t-52 154.5t-17 108t-3.5 64.5t3.5 64.5
t17 108t52 154.5t97.5 150zM766 857h42q59 -69 97.5 -150t52 -154.5t17 -108t3.5 -64.5t-3.5 -64.5t-17 -108t-52 -154.5t-97.5 -150h-42q81 99 124.5 222.5t43.5 254.5q0 130 -43.5 253.5t-124.5 223.5z" />
    <glyph glyph-name="Japan1.8129" 
d="M377 635h58l3 -58q37 45 80 55.5t132 9.5v-54q-40 2 -55 2q-158 0 -158 -136v-335h-60v516zM192 857h42q-81 -100 -124.5 -223.5t-43.5 -253.5q0 -131 43.5 -254.5t124.5 -222.5h-42q-59 69 -97.5 150t-52 154.5t-17 108t-3.5 64.5t3.5 64.5t17 108t52 154.5t97.5 150z
M766 857h42q59 -69 97.5 -150t52 -154.5t17 -108t3.5 -64.5t-3.5 -64.5t-17 -108t-52 -154.5t-97.5 -150h-42q81 99 124.5 222.5t43.5 254.5q0 130 -43.5 253.5t-124.5 223.5z" />
    <glyph glyph-name="Japan1.8130" 
d="M728 495h-63q0 21 -3 33t-16.5 30.5t-50 28t-94.5 9.5q-54 0 -89.5 -8.5t-51.5 -25t-21.5 -32.5t-5.5 -38q0 -40 22.5 -53.5t78.5 -20.5l171 -21q26 -3 45 -9t42.5 -19t36.5 -39t13 -63q0 -41 -16 -70.5t-39 -45t-58 -25t-63.5 -11.5t-65.5 -2q-48 0 -86 6.5t-62.5 15.5
t-42.5 25t-27 29t-14 33t-6 32.5t-2 31.5h63q0 -21 1 -32t5.5 -28t16.5 -26t31.5 -18.5t51.5 -13.5t77 -4q90 0 132 21.5t42 79.5q0 45 -23 61t-84 23l-163 19q-63 7 -100.5 34.5t-37.5 92.5q0 46 19 77.5t54.5 47t72.5 21.5t84 6q59 0 102.5 -10.5t66.5 -25t36.5 -37
t17 -40t3.5 -39.5zM192 857h42q-81 -100 -124.5 -223.5t-43.5 -253.5q0 -131 43.5 -254.5t124.5 -222.5h-42q-59 69 -97.5 150t-52 154.5t-17 108t-3.5 64.5t3.5 64.5t17 108t52 154.5t97.5 150zM766 857h42q59 -69 97.5 -150t52 -154.5t17 -108t3.5 -64.5t-3.5 -64.5
t-17 -108t-52 -154.5t-97.5 -150h-42q81 99 124.5 222.5t43.5 254.5q0 130 -43.5 253.5t-124.5 223.5z" />
    <glyph glyph-name="Japan1.8131" 
d="M461 573v124h58v-124h142v-56h-142v-318q0 -30 1.5 -43t10.5 -28t30 -20t57 -5q34 0 66 4v-57q-33 -3 -50 -3q-57 0 -92.5 8.5t-52.5 28t-22.5 41.5t-5.5 57v335h-121v56h121zM192 857h42q-81 -100 -124.5 -223.5t-43.5 -253.5q0 -131 43.5 -254.5t124.5 -222.5h-42
q-59 69 -97.5 150t-52 154.5t-17 108t-3.5 64.5t3.5 64.5t17 108t52 154.5t97.5 150zM766 857h42q59 -69 97.5 -150t52 -154.5t17 -108t3.5 -64.5t-3.5 -64.5t-17 -108t-52 -154.5t-97.5 -150h-42q81 99 124.5 222.5t43.5 254.5q0 130 -43.5 253.5t-124.5 223.5z" />
    <glyph glyph-name="Japan1.8132" 
d="M721 120h-57l-3 71q-53 -78 -179 -78q-203 0 -203 177v350h60v-341q0 -26 4 -45t18 -42t47.5 -35.5t85.5 -12.5t87.5 15t51.5 42t22 53.5t6 60.5v305h60v-520zM192 857h42q-81 -100 -124.5 -223.5t-43.5 -253.5q0 -131 43.5 -254.5t124.5 -222.5h-42q-59 69 -97.5 150
t-52 154.5t-17 108t-3.5 64.5t3.5 64.5t17 108t52 154.5t97.5 150zM766 857h42q59 -69 97.5 -150t52 -154.5t17 -108t3.5 -64.5t-3.5 -64.5t-17 -108t-52 -154.5t-97.5 -150h-42q81 99 124.5 222.5t43.5 254.5q0 130 -43.5 253.5t-124.5 223.5z" />
    <glyph glyph-name="Japan1.8133" 
d="M266 638h65l169 -465l169 465h65l-197 -516h-73zM192 857h42q-81 -100 -124.5 -223.5t-43.5 -253.5q0 -131 43.5 -254.5t124.5 -222.5h-42q-59 69 -97.5 150t-52 154.5t-17 108t-3.5 64.5t3.5 64.5t17 108t52 154.5t97.5 150zM766 857h42q59 -69 97.5 -150t52 -154.5
t17 -108t3.5 -64.5t-3.5 -64.5t-17 -108t-52 -154.5t-97.5 -150h-42q81 99 124.5 222.5t43.5 254.5q0 130 -43.5 253.5t-124.5 223.5z" />
    <glyph glyph-name="Japan1.8134" 
d="M145 630h61l125 -471l126 471h80l129 -471l128 471h61l-147 -516h-83l-128 466l-125 -466h-82zM192 857h42q-81 -100 -124.5 -223.5t-43.5 -253.5q0 -131 43.5 -254.5t124.5 -222.5h-42q-59 69 -97.5 150t-52 154.5t-17 108t-3.5 64.5t3.5 64.5t17 108t52 154.5t97.5 150
zM766 857h42q59 -69 97.5 -150t52 -154.5t17 -108t3.5 -64.5t-3.5 -64.5t-17 -108t-52 -154.5t-97.5 -150h-42q81 99 124.5 222.5t43.5 254.5q0 130 -43.5 253.5t-124.5 223.5z" />
    <glyph glyph-name="Japan1.8135" 
d="M278 638h71l151 -213l150 213h72l-177 -243l193 -273h-74l-164 240l-164 -240h-74l193 273zM192 857h42q-81 -100 -124.5 -223.5t-43.5 -253.5q0 -131 43.5 -254.5t124.5 -222.5h-42q-59 69 -97.5 150t-52 154.5t-17 108t-3.5 64.5t3.5 64.5t17 108t52 154.5t97.5 150z
M766 857h42q59 -69 97.5 -150t52 -154.5t17 -108t3.5 -64.5t-3.5 -64.5t-17 -108t-52 -154.5t-97.5 -150h-42q81 99 124.5 222.5t43.5 254.5q0 130 -43.5 253.5t-124.5 223.5z" />
    <glyph glyph-name="Japan1.8136" 
d="M192 857h42q-81 -100 -124.5 -223.5t-43.5 -253.5q0 -131 43.5 -254.5t124.5 -222.5h-42q-59 69 -97.5 150t-52 154.5t-17 108t-3.5 64.5t3.5 64.5t17 108t52 154.5t97.5 150zM766 857h42q59 -69 97.5 -150t52 -154.5t17 -108t3.5 -64.5t-3.5 -64.5t-17 -108t-52 -154.5
t-97.5 -150h-42q81 99 124.5 222.5t43.5 254.5q0 130 -43.5 253.5t-124.5 223.5zM267 691h68l174 -452l156 452h68l-196 -523q-25 -66 -58.5 -90t-91.5 -24q-29 0 -85 6v51q45 -6 86 -6q12 0 19.5 1t21 5.5t24.5 17.5t18 34l6 17z" />
    <glyph glyph-name="Japan1.8137" 
d="M293 638h424v-56l-359 -404h359v-56h-434v56l356 404h-346v56zM192 857h42q-81 -100 -124.5 -223.5t-43.5 -253.5q0 -131 43.5 -254.5t124.5 -222.5h-42q-59 69 -97.5 150t-52 154.5t-17 108t-3.5 64.5t3.5 64.5t17 108t52 154.5t97.5 150zM766 857h42q59 -69 97.5 -150
t52 -154.5t17 -108t3.5 -64.5t-3.5 -64.5t-17 -108t-52 -154.5t-97.5 -150h-42q81 99 124.5 222.5t43.5 254.5q0 130 -43.5 253.5t-124.5 223.5z" />
    <glyph glyph-name="Japan1.8184" 
d="M810 821l26 -21l-645 -861l-27 20zM786 129l-110 -23q-27 -5 -40.5 -20.5t-15.5 -26t-2 -26.5v-31h256v-48h-311v72q0 50 23.5 84.5t70.5 43.5l113 22q53 10 53 72q0 37 -20.5 59t-76.5 22q-55 0 -78.5 -16.5t-23.5 -54.5v-31h-56q0 26 1 41t9 39t22.5 37.5t44.5 24
t73 10.5q93 0 126.5 -32t33.5 -96q0 -62 -22 -87t-70 -35zM201 804h129v-416h-55v362h-74v54z" />
    <glyph glyph-name="Japan1.8185" 
d="M757 379h77v-276h60v-50h-60v-91h-54v91h-232v66zM780 103v231l-183 -231h183zM810 821l26 -21l-645 -861l-27 20zM201 804h129v-416h-55v362h-74v54z" />
    <glyph glyph-name="Japan1.8224" 
d="M500 854q128 0 237 -62.5t173 -172t64 -239.5q0 -196 -139 -335t-335 -139t-335 139t-139 335q0 130 64 239.5t173 172t237 62.5zM500 819q-181 0 -310 -128t-129 -311q0 -119 59 -220t160 -160t220 -59q182 0 310.5 128.5t128.5 310.5q0 183 -129 311t-310 128zM500 678
q95 0 126 -62.5t31 -235.5q0 -174 -30.5 -236t-126.5 -62t-126.5 62.5t-30.5 235.5t31 235.5t126 62.5zM500 634q-47 0 -69.5 -19.5t-32 -72t-9.5 -162.5q-1 -109 9 -162.5t32.5 -73t69.5 -19.5q46 0 68.5 19t32 72t9.5 164q0 110 -9.5 162.5t-31.5 72t-69 19.5z" />
    <glyph glyph-name="Japan1.8225" 
d="M501 788h406v-59h-74v-670h74v-59h-388v59h84l-180 315l-173 -315h80v-59h-237v59h81l198 344l-184 326h-78v59h237v-59h-83l159 -295l159 295h-81v59zM767 729h-109l-183 -326l204 -344h88v670z" />
    <glyph glyph-name="Japan1.8226" 
d="M449 788h526v-59h-79v-670h79v-59h-541v59h117l-180 315l-189 -315h80v-59h-237v59h81l214 344l-217 326h-78v59h237v-59h-83l192 -295l159 295h-81v59zM656 729h-50l-183 -326l204 -344h29v670zM832 729h-111v-670h111v670z" />
    <glyph glyph-name="Japan1.8227" 
d="M500 691q103 0 136 -65.5t33 -245.5t-33 -245.5t-136 -65.5t-136 65.5t-33 245.5t33 245.5t136 65.5zM500 645q-50 0 -74 -20.5t-34.5 -75.5t-10.5 -169q0 -115 10.5 -170t34.5 -75t74 -20t74 20t34.5 75t10.5 170q0 114 -10.5 169t-34.5 75.5t-74 20.5zM192 857h42
q-81 -100 -124.5 -223.5t-43.5 -253.5q0 -131 43.5 -254.5t124.5 -222.5h-42q-59 69 -97.5 150t-52 154.5t-17 108t-3.5 64.5t3.5 64.5t17 108t52 154.5t97.5 150zM808 -97h-43q82 99 125.5 222.5t43.5 254.5q0 130 -43.5 253.5t-124.5 223.5h42q59 -69 97.5 -150t52 -154.5
t17 -108t3.5 -64.5t-3.5 -64.5t-17 -108t-52 -154.5t-97.5 -150z" />
    <glyph glyph-name="Japan1.8228" 
d="M749 706l92 105l35 -31l-103 -117q40 -86 40 -269q0 -77 -7.5 -136.5t-21 -102t-35.5 -72t-45.5 -47.5t-58.5 -28t-67.5 -13t-77.5 -3q-90 0 -147.5 16.5t-95.5 64.5l-98 -112l-35 31l107 123q-44 89 -44 279q0 107 15.5 182t40 117.5t67 66t84.5 30t106 6.5
q92 0 151.5 -18t97.5 -72zM280 170l423 484q-24 43 -64.5 63t-141.5 20q-70 0 -112.5 -12.5t-74 -49.5t-44 -104.5t-12.5 -177.5q0 -143 26 -223zM724 606l-423 -482q23 -36 65 -54.5t130 -18.5q56 0 91 6t68.5 25.5t51.5 56.5t28.5 99t10.5 154q0 136 -22 214z" />
    <glyph glyph-name="Japan1.8286" 
d="M500 854q128 0 237 -62.5t173 -172t64 -239.5q0 -196 -139 -335t-335 -139t-335 139t-139 335q0 130 64 239.5t173 172t237 62.5zM541 681h-162v-45h112v-557h50v602z" />
    <glyph glyph-name="Japan1.8287" 
d="M500 854q128 0 237 -62.5t173 -172t64 -239.5q0 -196 -139 -335t-335 -139t-335 139t-139 335q0 130 64 239.5t173 172t237 62.5zM475 310l71 24q62 21 87 61t25 123q0 80 -34 124.5t-123 44.5q-33 0 -58.5 -7t-42 -16.5t-28.5 -27t-17.5 -31.5t-9 -38t-4 -37t-0.5 -38
h50q0 30 0.5 46t6 39t16 35t32 21t53.5 9q64 0 86.5 -29.5t22.5 -100.5q0 -39 -5.5 -63.5t-20 -39t-25 -20t-34.5 -14.5l-60 -22q-56 -21 -80.5 -44t-35.5 -74.5t-10 -155.5h318v45h-269q0 94 16.5 130.5t72.5 55.5z" />
    <glyph glyph-name="Japan1.8288" 
d="M500 854q128 0 237 -62.5t173 -172t64 -239.5q0 -196 -139 -335t-335 -139t-335 139t-139 335q0 130 64 239.5t173 172t237 62.5zM390 266h-49q0 -25 0.5 -39t3.5 -37.5t9 -37t18 -30.5t28.5 -26.5t42.5 -16t60 -6.5q73 0 116.5 37.5t43.5 134.5q0 39 -7 67t-22 44
t-24.5 22t-26.5 14q76 24 76 136q0 159 -158 159q-49 0 -82 -15t-48 -43t-20.5 -55.5t-5.5 -64.5h50q0 31 2.5 50.5t12 41t32 31.5t59.5 10q65 0 86.5 -28.5t21.5 -86.5q0 -73 -24.5 -92.5t-95.5 -19.5h-45v-46h38q70 0 100.5 -22t30.5 -101q0 -71 -25.5 -99.5t-85.5 -28.5
q-75 0 -95 32.5t-17 115.5z" />
    <glyph glyph-name="Japan1.8289" 
d="M500 854q128 0 237 -62.5t173 -172t64 -239.5q0 -196 -139 -335t-335 -139t-335 139t-139 335q0 130 64 239.5t173 172t237 62.5zM587 681h-73l-214 -408v-47h238v-147h49v147h61v44h-61v411zM349 270l189 364v-364h-189z" />
    <glyph glyph-name="Japan1.8290" 
d="M500 854q128 0 237 -62.5t173 -172t64 -239.5q0 -196 -139 -335t-335 -139t-335 139t-139 335q0 130 64 239.5t173 172t237 62.5zM645 681h-293l-6 -330h44q2 16 6.5 27t16 25t34.5 21.5t57 7.5q61 0 81.5 -34t20.5 -127q0 -88 -21.5 -120.5t-87.5 -32.5q-63 0 -87 27
t-22 100h-50q0 -88 36 -130t124 -42q91 0 124.5 50t33.5 158q0 98 -30.5 147t-116.5 49q-31 0 -55 -8t-33.5 -15t-24.5 -20l5 202h244v45z" />
    <glyph glyph-name="Japan1.8291" 
d="M500 854q128 0 237 -62.5t173 -172t64 -239.5q0 -196 -139 -335t-335 -139t-335 139t-139 335q0 130 64 239.5t173 172t237 62.5zM603 528h49q0 31 -5 55t-19.5 50t-47 40t-81.5 14q-103 0 -133 -67.5t-30 -264.5q0 -64 3 -105t13 -78t28.5 -56.5t48.5 -31t75 -11.5
q89 0 121.5 48t32.5 146q0 27 -1.5 45.5t-9.5 48.5t-23 48t-45.5 32.5t-73.5 14.5q-38 0 -64 -10t-35.5 -20t-21.5 -28q2 107 11.5 156.5t32.5 68.5t72 19q60 0 82.5 -26.5t20.5 -87.5zM498 411q64 0 87.5 -34t23.5 -106q0 -82 -21 -118t-88 -36q-54 0 -83.5 27.5
t-29.5 110.5q0 81 23 118.5t88 37.5z" />
    <glyph glyph-name="Japan1.8292" 
d="M500 854q128 0 237 -62.5t173 -172t64 -239.5q0 -196 -139 -335t-335 -139t-335 139t-139 335q0 130 64 239.5t173 172t237 62.5zM679 681h-347v-45h302l-219 -557h55l209 547v55z" />
    <glyph glyph-name="Japan1.8293" 
d="M500 854q128 0 237 -62.5t173 -172t64 -239.5q0 -196 -139 -335t-335 -139t-335 139t-139 335q0 130 64 239.5t173 172t237 62.5zM426 392q-29 -6 -46 -22q-43 -42 -43 -134q0 -163 164 -163q51 0 85 14.5t50 40.5t22 52t6 60q0 131 -88 152q81 29 81 138q0 157 -156 157
t-156 -157q0 -38 8.5 -65t23.5 -41.5t25 -20.5t24 -11zM501 642q63 0 85 -30.5t22 -82.5q0 -23 -3.5 -40t-13 -35t-32.5 -28t-58 -10q-65 0 -86 30.5t-21 81.5q0 53 22 83.5t85 30.5zM500 370q64 0 89.5 -30.5t25.5 -99.5q0 -26 -3 -44t-13.5 -38t-35.5 -30.5t-63 -10.5
q-37 0 -61 10t-34.5 29.5t-14 37.5t-3.5 43q0 68 23 100.5t90 32.5z" />
    <glyph glyph-name="Japan1.8294" 
d="M500 854q128 0 237 -62.5t173 -172t64 -239.5q0 -196 -139 -335t-335 -139t-335 139t-139 335q0 130 64 239.5t173 172t237 62.5zM389 232h-49q1 -80 35.5 -119.5t121.5 -39.5q44 0 72.5 11t47.5 32t28.5 63t13 93t3.5 133q0 65 -3 105.5t-13 78t-28.5 57t-48.5 31
t-75 11.5q-89 0 -121.5 -48.5t-32.5 -145.5q0 -27 1.5 -46.5t10 -49t23.5 -48t45.5 -32.5t72.5 -14q38 0 64 10t35.5 20t21.5 28q-1 -110 -12.5 -161t-34 -67t-72.5 -16q-63 0 -84.5 26.5t-21.5 87.5zM501 349q-64 0 -88 33t-24 107q0 83 21.5 118.5t87.5 35.5
q54 0 83.5 -27t29.5 -111q0 -81 -23 -118.5t-87 -37.5z" />
    <glyph glyph-name="Japan1.8295" 
d="M393 0v59h56l-150 287l-149 -287h56v-59h-186v59h61l184 353l-166 317h-58v59h185v-59h-58l131 -251l131 251h-58v59h608v-59h-61v-670h61v-59h-587zM716 729h-79v-670h79v670zM499 729l-165 -317l184 -353h58v670h-77zM857 729h-79v-670h79v670z" />
    <glyph glyph-name="Japan1.8296" 
d="M313 0v59h56l-110 272l-109 -272h56v-59h-186v59h61l144 358l-126 312h-58v59h186v-59h-59l91 -227l91 227h-58v59h435v-59h-61l95 -680l94 680h-60v59h185v-59h-58l-111 -729h-101l-111 729h-48v-670h64v-59h-302zM419 729l-125 -312l144 -358h51v670h-70z" />
    <glyph glyph-name="Japan1.8297" 
d="M356 59h56l-131 281l-131 -281h56v-59h-186v59h61l166 355l-148 315h-58v59h185v-59h-58l113 -242l113 242h-59v59h321v-59h-60l129 -680l130 680h-60v59h185v-59h-58l-149 -729h-95l-149 729h-67l-147 -315l166 -355h61v-59h-186v59z" />
    <glyph glyph-name="Japan1.8298" 
d="M542 589h71l-163 -278l185 -311h-77l-154 275l-154 -275h-77l185 311l-163 278h71l138 -239zM697 589h64v-589h-64v589zM686 788h85v-91h-85v91z" />
    <glyph glyph-name="Japan1.8299" 
d="M595 589h63v-589h-63v589zM584 788h85v-91h-85v91zM736 589h63v-589h-63v589zM726 788h84v-91h-84v91zM447 589h71l-135 -278l157 -311h-77l-125 275l-126 -275h-77l156 311l-134 278h71l110 -239z" />
    <glyph glyph-name="Japan1.8300" 
d="M527 589h61v-589h-61v589zM516 788h82v-91h-82v91zM397 589h68l-117 -278l139 -311h-74l-111 275l-112 -275h-74l139 311l-117 278h68l96 -239zM645 589h62v-589h-62v589zM635 788h82v-91h-82v91zM764 589h62v-589h-62v589zM754 788h82v-91h-82v91z" />
    <glyph glyph-name="Japan1.8301" 
d="M875 589h66l-144 -589h-83l-143 589h65l120 -531zM469 589h62v-589h-62v589zM459 788h82v-91h-82v91zM342 589h65l-121 -278l143 -311h-71l-118 275l-117 -275h-72l143 311l-121 278h66l101 -239z" />
    <glyph glyph-name="Japan1.8302" 
d="M420 589h71l-163 -278l186 -311h-77l-153 275l-155 -275h-77l184 311l-163 278h71l140 -239zM546 589h65l138 -531l134 531h65l-156 -589h-86z" />
    <glyph glyph-name="Japan1.9780" 
d="M280 810q96 0 125.5 -42.5t29.5 -158.5q0 -70 -3.5 -105.5t-19 -67.5t-46.5 -43.5t-85 -11.5q-89 0 -123.5 41t-34.5 165q0 132 30.5 177.5t126.5 45.5zM278 763q-64 0 -82.5 -33.5t-18.5 -132.5q0 -100 19 -133t84 -33t82.5 31.5t17.5 141.5q0 101 -19.5 130t-82.5 29z
M810 821l26 -21l-645 -861l-27 20zM559 91h57v-16q0 -46 23.5 -61t76.5 -15q57 0 84 14.5t27 59.5q0 79 -68 79h-72v47h72q8 0 17.5 1.5t25 17t15.5 43.5q0 39 -21.5 54.5t-73.5 15.5t-75.5 -16.5t-23.5 -68.5h-56q1 73 36.5 103.5t113.5 30.5q28 0 48.5 -2.5t47.5 -12.5
t42 -34t15 -62q0 -48 -14 -66t-44 -28q13 -3 22 -7t22 -14.5t20 -31.5t7 -52q0 -122 -157 -122q-93 0 -130 33.5t-37 109.5z" />
    <glyph glyph-name="Japan1.9781" 
d="M810 821l26 -21l-645 -861l-27 20zM559 91h57v-16q0 -46 23.5 -61t76.5 -15q57 0 84 14.5t27 59.5q0 79 -68 79h-72v47h72q8 0 17.5 1.5t25 17t15.5 43.5q0 39 -21.5 54.5t-73.5 15.5t-75.5 -16.5t-23.5 -68.5h-56q1 73 36.5 103.5t113.5 30.5q28 0 48.5 -2.5t47.5 -12.5
t42 -34t15 -62q0 -48 -14 -66t-44 -28q13 -3 22 -7t22 -14.5t20 -31.5t7 -52q0 -122 -157 -122q-93 0 -130 33.5t-37 109.5zM201 804h129v-416h-55v362h-74v54z" />
    <glyph glyph-name="Japan1.9782" 
d="M810 821l26 -21l-645 -861l-27 20zM559 91h57v-16q0 -46 23.5 -61t76.5 -15q57 0 84 14.5t27 59.5q0 79 -68 79h-72v47h72q8 0 17.5 1.5t25 17t15.5 43.5q0 39 -21.5 54.5t-73.5 15.5t-75.5 -16.5t-23.5 -68.5h-56q1 73 36.5 103.5t113.5 30.5q28 0 48.5 -2.5t47.5 -12.5
t42 -34t15 -62q0 -48 -14 -66t-44 -28q13 -3 22 -7t22 -14.5t20 -31.5t7 -52q0 -122 -157 -122q-93 0 -130 33.5t-37 109.5zM345 561l-111 -23q-27 -5 -40.5 -20.5t-15.5 -26t-2 -26.5v-31h257v-48h-311v72q0 50 23.5 84t69.5 43l113 22q53 9 53 73q0 37 -20 59t-77 22
q-54 0 -77.5 -16.5t-23.5 -54.5v-31h-56q0 27 1 41.5t8.5 38.5t22.5 37t45 23.5t73 10.5q92 0 125.5 -32t33.5 -95q0 -62 -22 -87t-69 -35z" />
    <glyph glyph-name="Japan1.9783" 
d="M757 379h77v-276h60v-50h-60v-91h-54v91h-232v66zM780 103v231l-183 -231h183zM810 821l26 -21l-645 -861l-27 20zM117 523h57v-17q0 -45 24 -60.5t76 -15.5q57 0 84.5 15t27.5 60q0 78 -68 78h-72v48h72q7 0 16.5 1.5t25 17t15.5 43.5q0 38 -21.5 54t-72.5 16
q-52 0 -75.5 -16.5t-23.5 -68.5h-56q1 72 36.5 103t113.5 31q29 0 49 -2.5t47 -12.5t42 -34.5t15 -62.5q0 -47 -14 -65t-44 -28q13 -3 21.5 -7t21.5 -14.5t20 -31.5t7 -52q0 -123 -157 -123q-93 0 -130 34t-37 110z" />
    <glyph glyph-name="Japan1.9784" 
d="M810 821l26 -21l-645 -861l-27 20zM573 374h289v-49h-234v-117q34 29 104 29q79 0 113.5 -34t34.5 -106t-32.5 -109.5t-130.5 -37.5q-45 0 -76 8.5t-46.5 19.5t-23.5 31t-9 33t-1 36h55q-1 -40 19 -60t78 -20q72 0 92 22.5t20 70.5q0 22 -2.5 36t-11.5 29t-30 22.5
t-54 7.5q-37 0 -60 -7t-29.5 -13.5t-13.5 -18.5h-51v227zM201 804h129v-416h-55v362h-74v54z" />
    <glyph glyph-name="Japan1.9785" 
d="M810 821l26 -21l-645 -861l-27 20zM573 374h289v-49h-234v-117q34 29 104 29q79 0 113.5 -34t34.5 -106t-32.5 -109.5t-130.5 -37.5q-45 0 -76 8.5t-46.5 19.5t-23.5 31t-9 33t-1 36h55q-1 -40 19 -60t78 -20q72 0 92 22.5t20 70.5q0 22 -2.5 36t-11.5 29t-30 22.5
t-54 7.5q-37 0 -60 -7t-29.5 -13.5t-13.5 -18.5h-51v227zM345 561l-111 -23q-27 -5 -40.5 -20.5t-15.5 -26t-2 -26.5v-31h257v-48h-311v72q0 50 23.5 84t69.5 43l113 22q53 9 53 73q0 37 -20 59t-77 22q-54 0 -77.5 -16.5t-23.5 -54.5v-31h-56q0 27 1 41.5t8.5 38.5t22.5 37
t45 23.5t73 10.5q92 0 125.5 -32t33.5 -95q0 -62 -22 -87t-69 -35z" />
    <glyph glyph-name="Japan1.9786" 
d="M810 821l26 -21l-645 -861l-27 20zM573 374h289v-49h-234v-117q34 29 104 29q79 0 113.5 -34t34.5 -106t-32.5 -109.5t-130.5 -37.5q-45 0 -76 8.5t-46.5 19.5t-23.5 31t-9 33t-1 36h55q-1 -40 19 -60t78 -20q72 0 92 22.5t20 70.5q0 22 -2.5 36t-11.5 29t-30 22.5
t-54 7.5q-37 0 -60 -7t-29.5 -13.5t-13.5 -18.5h-51v227zM117 523h57v-17q0 -45 24 -60.5t76 -15.5q57 0 84.5 15t27.5 60q0 78 -68 78h-72v48h72q7 0 16.5 1.5t25 17t15.5 43.5q0 38 -21.5 54t-72.5 16q-52 0 -75.5 -16.5t-23.5 -68.5h-56q1 72 36.5 103t113.5 31
q29 0 49 -2.5t47 -12.5t42 -34.5t15 -62.5q0 -47 -14 -65t-44 -28q13 -3 21.5 -7t21.5 -14.5t20 -31.5t7 -52q0 -123 -157 -123q-93 0 -130 34t-37 110z" />
    <glyph glyph-name="Japan1.9787" 
d="M316 810h76v-276h60v-49h-60v-91h-54v91h-232v65zM338 534v232l-182 -232h182zM810 821l26 -21l-645 -861l-27 20zM573 374h289v-49h-234v-117q34 29 104 29q79 0 113.5 -34t34.5 -106t-32.5 -109.5t-130.5 -37.5q-45 0 -76 8.5t-46.5 19.5t-23.5 31t-9 33t-1 36h55
q-1 -40 19 -60t78 -20q72 0 92 22.5t20 70.5q0 22 -2.5 36t-11.5 29t-30 22.5t-54 7.5q-37 0 -60 -7t-29.5 -13.5t-13.5 -18.5h-51v227z" />
    <glyph glyph-name="Japan1.9788" 
d="M870 266h-53q-3 33 -23 48t-71 15q-64 0 -84 -27.5t-22 -127.5q10 13 17.5 19.5t32.5 13t65 6.5q24 0 41 -1.5t38.5 -8.5t35 -20t23 -37.5t9.5 -58.5q0 -45 -13.5 -75t-38.5 -42.5t-46.5 -16.5t-52.5 -4q-99 0 -132.5 42t-33.5 160q0 74 8.5 119.5t30 69.5t48.5 31.5
t72 7.5q48 0 80 -10.5t46 -29.5t18.5 -35t4.5 -38zM722 167q-36 0 -58 -7.5t-30.5 -23t-10.5 -26t-2 -28.5q0 -44 21 -65t79 -21q34 0 55 7t30.5 21t12 27t2.5 34q0 48 -22 65t-77 17zM810 821l26 -21l-645 -861l-27 20zM201 804h129v-416h-55v362h-74v54z" />
    <glyph glyph-name="Japan1.9789" 
d="M870 266h-53q-3 33 -23 48t-71 15q-64 0 -84 -27.5t-22 -127.5q10 13 17.5 19.5t32.5 13t65 6.5q24 0 41 -1.5t38.5 -8.5t35 -20t23 -37.5t9.5 -58.5q0 -45 -13.5 -75t-38.5 -42.5t-46.5 -16.5t-52.5 -4q-99 0 -132.5 42t-33.5 160q0 74 8.5 119.5t30 69.5t48.5 31.5
t72 7.5q48 0 80 -10.5t46 -29.5t18.5 -35t4.5 -38zM722 167q-36 0 -58 -7.5t-30.5 -23t-10.5 -26t-2 -28.5q0 -44 21 -65t79 -21q34 0 55 7t30.5 21t12 27t2.5 34q0 48 -22 65t-77 17zM810 821l26 -21l-645 -861l-27 20zM131 806h290v-49h-235v-117q36 29 105 29
q79 0 113.5 -34t34.5 -106q0 -73 -32.5 -110.5t-130.5 -37.5q-55 0 -89.5 11t-47.5 33.5t-16 39t-3 45.5h54q-1 -40 19 -60t78 -20q39 0 62.5 6.5t34 21t13 28t2.5 37.5q0 22 -2.5 35.5t-11 29t-29.5 23t-54 7.5q-37 0 -60.5 -7.5t-30 -13.5t-13.5 -18h-51v227z" />
    <glyph glyph-name="Japan1.9790" 
d="M810 821l26 -21l-645 -861l-27 20zM564 366h313v-50l-197 -366h-63l200 366h-253v50zM201 804h129v-416h-55v362h-74v54z" />
    <glyph glyph-name="Japan1.9791" 
d="M810 821l26 -21l-645 -861l-27 20zM564 366h313v-50l-197 -366h-63l200 366h-253v50zM345 561l-111 -23q-27 -5 -40.5 -20.5t-15.5 -26t-2 -26.5v-31h257v-48h-311v72q0 50 23.5 84t69.5 43l113 22q53 9 53 73q0 37 -20 59t-77 22q-54 0 -77.5 -16.5t-23.5 -54.5v-31h-56
q0 27 1 41.5t8.5 38.5t22.5 37t45 23.5t73 10.5q92 0 125.5 -32t33.5 -95q0 -62 -22 -87t-69 -35z" />
    <glyph glyph-name="Japan1.9792" 
d="M810 821l26 -21l-645 -861l-27 20zM564 366h313v-50l-197 -366h-63l200 366h-253v50zM117 523h57v-17q0 -45 24 -60.5t76 -15.5q57 0 84.5 15t27.5 60q0 78 -68 78h-72v48h72q7 0 16.5 1.5t25 17t15.5 43.5q0 38 -21.5 54t-72.5 16q-52 0 -75.5 -16.5t-23.5 -68.5h-56
q1 72 36.5 103t113.5 31q29 0 49 -2.5t47 -12.5t42 -34.5t15 -62.5q0 -47 -14 -65t-44 -28q13 -3 21.5 -7t21.5 -14.5t20 -31.5t7 -52q0 -123 -157 -123q-93 0 -130 34t-37 110z" />
    <glyph glyph-name="Japan1.9793" 
d="M316 810h76v-276h60v-49h-60v-91h-54v91h-232v65zM338 534v232l-182 -232h182zM810 821l26 -21l-645 -861l-27 20zM564 366h313v-50l-197 -366h-63l200 366h-253v50z" />
    <glyph glyph-name="Japan1.9794" 
d="M810 821l26 -21l-645 -861l-27 20zM564 366h313v-50l-197 -366h-63l200 366h-253v50zM131 806h290v-49h-235v-117q36 29 105 29q79 0 113.5 -34t34.5 -106q0 -73 -32.5 -110.5t-130.5 -37.5q-55 0 -89.5 11t-47.5 33.5t-16 39t-3 45.5h54q-1 -40 19 -60t78 -20
q39 0 62.5 6.5t34 21t13 28t2.5 37.5q0 22 -2.5 35.5t-11 29t-29.5 23t-54 7.5q-37 0 -60.5 -7.5t-30 -13.5t-13.5 -18h-51v227z" />
    <glyph glyph-name="Japan1.9795" 
d="M429 697h-54q-2 33 -22 48.5t-72 15.5q-64 0 -83.5 -27.5t-21.5 -127.5q9 13 17 19.5t32.5 13t64.5 6.5q24 0 41 -1.5t38.5 -8.5t35 -20t23 -37.5t9.5 -58.5q0 -45 -13.5 -75t-38 -42.5t-46.5 -16.5t-52 -4q-99 0 -132.5 42t-33.5 160q0 74 8.5 119t29.5 69t48 32t72 8
q48 0 80 -10.5t46 -30t18.5 -35.5t5.5 -38zM280 599q-36 0 -58 -7.5t-30.5 -23t-10.5 -26t-2 -28.5q0 -45 21.5 -65.5t78.5 -20.5q34 0 55.5 6.5t31 21t12 27.5t2.5 34q0 48 -22 65t-78 17zM810 821l26 -21l-645 -861l-27 20zM564 366h313v-50l-197 -366h-63l200 366h-253
v50z" />
    <glyph glyph-name="Japan1.9796" 
d="M816 172q15 -5 23 -9.5t20 -15t18 -29.5t6 -46q0 -39 -12 -64.5t-36 -37.5t-50 -16.5t-63 -4.5q-84 0 -123.5 26t-39.5 92q0 27 6.5 47t19 31.5t20.5 16.5t22 10q-58 26 -58 92q0 116 152 116q153 0 153 -114q0 -32 -12 -53.5t-21 -27.5t-25 -13zM721 330
q-24 0 -37.5 -1.5t-29.5 -8.5t-23 -23t-7 -42q0 -18 5.5 -29.5t13 -17.5t24.5 -9t29.5 -3.5t39.5 -0.5q19 0 29 1t24.5 6.5t21.5 20t7 37.5q0 24 -9 39.5t-26 21.5t-29.5 7.5t-32.5 1.5zM721 147q-16 0 -26 -0.5t-28 -4.5t-29 -11t-19.5 -22.5t-8.5 -36.5q0 -35 24.5 -55.5
t91.5 -20.5q56 0 80 18t24 62q0 38 -23.5 54.5t-85.5 16.5zM810 821l26 -21l-645 -861l-27 20zM201 804h129v-416h-55v362h-74v54z" />
    <glyph glyph-name="Japan1.9797" 
d="M816 172q15 -5 23 -9.5t20 -15t18 -29.5t6 -46q0 -39 -12 -64.5t-36 -37.5t-50 -16.5t-63 -4.5q-84 0 -123.5 26t-39.5 92q0 27 6.5 47t19 31.5t20.5 16.5t22 10q-58 26 -58 92q0 116 152 116q153 0 153 -114q0 -32 -12 -53.5t-21 -27.5t-25 -13zM721 330
q-24 0 -37.5 -1.5t-29.5 -8.5t-23 -23t-7 -42q0 -18 5.5 -29.5t13 -17.5t24.5 -9t29.5 -3.5t39.5 -0.5q19 0 29 1t24.5 6.5t21.5 20t7 37.5q0 24 -9 39.5t-26 21.5t-29.5 7.5t-32.5 1.5zM721 147q-16 0 -26 -0.5t-28 -4.5t-29 -11t-19.5 -22.5t-8.5 -36.5q0 -35 24.5 -55.5
t91.5 -20.5q56 0 80 18t24 62q0 38 -23.5 54.5t-85.5 16.5zM810 821l26 -21l-645 -861l-27 20zM117 523h57v-17q0 -45 24 -60.5t76 -15.5q57 0 84.5 15t27.5 60q0 78 -68 78h-72v48h72q7 0 16.5 1.5t25 17t15.5 43.5q0 38 -21.5 54t-72.5 16q-52 0 -75.5 -16.5t-23.5 -68.5
h-56q1 72 36.5 103t113.5 31q29 0 49 -2.5t47 -12.5t42 -34.5t15 -62.5q0 -47 -14 -65t-44 -28q13 -3 21.5 -7t21.5 -14.5t20 -31.5t7 -52q0 -123 -157 -123q-93 0 -130 34t-37 110z" />
    <glyph glyph-name="Japan1.9798" 
d="M816 172q15 -5 23 -9.5t20 -15t18 -29.5t6 -46q0 -39 -12 -64.5t-36 -37.5t-50 -16.5t-63 -4.5q-84 0 -123.5 26t-39.5 92q0 27 6.5 47t19 31.5t20.5 16.5t22 10q-58 26 -58 92q0 116 152 116q153 0 153 -114q0 -32 -12 -53.5t-21 -27.5t-25 -13zM721 330
q-24 0 -37.5 -1.5t-29.5 -8.5t-23 -23t-7 -42q0 -18 5.5 -29.5t13 -17.5t24.5 -9t29.5 -3.5t39.5 -0.5q19 0 29 1t24.5 6.5t21.5 20t7 37.5q0 24 -9 39.5t-26 21.5t-29.5 7.5t-32.5 1.5zM721 147q-16 0 -26 -0.5t-28 -4.5t-29 -11t-19.5 -22.5t-8.5 -36.5q0 -35 24.5 -55.5
t91.5 -20.5q56 0 80 18t24 62q0 38 -23.5 54.5t-85.5 16.5zM810 821l26 -21l-645 -861l-27 20zM131 806h290v-49h-235v-117q36 29 105 29q79 0 113.5 -34t34.5 -106q0 -73 -32.5 -110.5t-130.5 -37.5q-55 0 -89.5 11t-47.5 33.5t-16 39t-3 45.5h54q-1 -40 19 -60t78 -20
q39 0 62.5 6.5t34 21t13 28t2.5 37.5q0 22 -2.5 35.5t-11 29t-29.5 23t-54 7.5q-37 0 -60.5 -7.5t-30 -13.5t-13.5 -18h-51v227z" />
    <glyph glyph-name="Japan1.9799" 
d="M816 172q15 -5 23 -9.5t20 -15t18 -29.5t6 -46q0 -39 -12 -64.5t-36 -37.5t-50 -16.5t-63 -4.5q-84 0 -123.5 26t-39.5 92q0 27 6.5 47t19 31.5t20.5 16.5t22 10q-58 26 -58 92q0 116 152 116q153 0 153 -114q0 -32 -12 -53.5t-21 -27.5t-25 -13zM721 330
q-24 0 -37.5 -1.5t-29.5 -8.5t-23 -23t-7 -42q0 -18 5.5 -29.5t13 -17.5t24.5 -9t29.5 -3.5t39.5 -0.5q19 0 29 1t24.5 6.5t21.5 20t7 37.5q0 24 -9 39.5t-26 21.5t-29.5 7.5t-32.5 1.5zM721 147q-16 0 -26 -0.5t-28 -4.5t-29 -11t-19.5 -22.5t-8.5 -36.5q0 -35 24.5 -55.5
t91.5 -20.5q56 0 80 18t24 62q0 38 -23.5 54.5t-85.5 16.5zM810 821l26 -21l-645 -861l-27 20zM123 797h313v-49l-197 -367h-64l201 367h-253v49z" />
    <glyph glyph-name="Japan1.9800" 
d="M571 62h54q2 -33 22 -48t71 -15q65 0 84.5 27.5t21.5 127.5q-9 -13 -17 -19.5t-32.5 -13t-64.5 -6.5q-31 0 -52 3.5t-45.5 14.5t-37.5 38.5t-13 69.5q0 45 13.5 75t38.5 42.5t47 16.5t52 4q99 0 132.5 -42t33.5 -160q0 -74 -8.5 -119t-29.5 -69t-48 -32t-72 -8
q-49 0 -80.5 10t-45.5 29.5t-18.5 35.5t-5.5 38zM720 161q36 0 58 7.5t30.5 23t10.5 26t2 28.5q0 45 -21.5 65.5t-78.5 20.5q-34 0 -55.5 -6.5t-31 -21t-12 -27.5t-2.5 -34q0 -48 22 -65t78 -17zM810 821l26 -21l-645 -861l-27 20zM201 804h129v-416h-55v362h-74v54z" />
    <glyph glyph-name="Japan1.9801" 
d="M571 62h54q2 -33 22 -48t71 -15q65 0 84.5 27.5t21.5 127.5q-9 -13 -17 -19.5t-32.5 -13t-64.5 -6.5q-31 0 -52 3.5t-45.5 14.5t-37.5 38.5t-13 69.5q0 45 13.5 75t38.5 42.5t47 16.5t52 4q99 0 132.5 -42t33.5 -160q0 -74 -8.5 -119t-29.5 -69t-48 -32t-72 -8
q-49 0 -80.5 10t-45.5 29.5t-18.5 35.5t-5.5 38zM720 161q36 0 58 7.5t30.5 23t10.5 26t2 28.5q0 45 -21.5 65.5t-78.5 20.5q-34 0 -55.5 -6.5t-31 -21t-12 -27.5t-2.5 -34q0 -48 22 -65t78 -17zM810 821l26 -21l-645 -861l-27 20zM345 561l-111 -23q-27 -5 -40.5 -20.5
t-15.5 -26t-2 -26.5v-31h257v-48h-311v72q0 50 23.5 84t69.5 43l113 22q53 9 53 73q0 37 -20 59t-77 22q-54 0 -77.5 -16.5t-23.5 -54.5v-31h-56q0 27 1 41.5t8.5 38.5t22.5 37t45 23.5t73 10.5q92 0 125.5 -32t33.5 -95q0 -62 -22 -87t-69 -35z" />
    <glyph glyph-name="Japan1.9802" 
d="M571 62h54q2 -33 22 -48t71 -15q65 0 84.5 27.5t21.5 127.5q-9 -13 -17 -19.5t-32.5 -13t-64.5 -6.5q-31 0 -52 3.5t-45.5 14.5t-37.5 38.5t-13 69.5q0 45 13.5 75t38.5 42.5t47 16.5t52 4q99 0 132.5 -42t33.5 -160q0 -74 -8.5 -119t-29.5 -69t-48 -32t-72 -8
q-49 0 -80.5 10t-45.5 29.5t-18.5 35.5t-5.5 38zM720 161q36 0 58 7.5t30.5 23t10.5 26t2 28.5q0 45 -21.5 65.5t-78.5 20.5q-34 0 -55.5 -6.5t-31 -21t-12 -27.5t-2.5 -34q0 -48 22 -65t78 -17zM316 810h76v-276h60v-49h-60v-91h-54v91h-232v65zM338 534v232l-182 -232h182
zM810 821l26 -21l-645 -861l-27 20z" />
    <glyph glyph-name="Japan1.9803" 
d="M571 62h54q2 -33 22 -48t71 -15q65 0 84.5 27.5t21.5 127.5q-9 -13 -17 -19.5t-32.5 -13t-64.5 -6.5q-31 0 -52 3.5t-45.5 14.5t-37.5 38.5t-13 69.5q0 45 13.5 75t38.5 42.5t47 16.5t52 4q99 0 132.5 -42t33.5 -160q0 -74 -8.5 -119t-29.5 -69t-48 -32t-72 -8
q-49 0 -80.5 10t-45.5 29.5t-18.5 35.5t-5.5 38zM720 161q36 0 58 7.5t30.5 23t10.5 26t2 28.5q0 45 -21.5 65.5t-78.5 20.5q-34 0 -55.5 -6.5t-31 -21t-12 -27.5t-2.5 -34q0 -48 22 -65t78 -17zM810 821l26 -21l-645 -861l-27 20zM131 806h290v-49h-235v-117q36 29 105 29
q79 0 113.5 -34t34.5 -106q0 -73 -32.5 -110.5t-130.5 -37.5q-55 0 -89.5 11t-47.5 33.5t-16 39t-3 45.5h54q-1 -40 19 -60t78 -20q39 0 62.5 6.5t34 21t13 28t2.5 37.5q0 22 -2.5 35.5t-11 29t-29.5 23t-54 7.5q-37 0 -60.5 -7.5t-30 -13.5t-13.5 -18h-51v227z" />
    <glyph glyph-name="Japan1.9804" 
d="M571 62h54q2 -33 22 -48t71 -15q65 0 84.5 27.5t21.5 127.5q-9 -13 -17 -19.5t-32.5 -13t-64.5 -6.5q-31 0 -52 3.5t-45.5 14.5t-37.5 38.5t-13 69.5q0 45 13.5 75t38.5 42.5t47 16.5t52 4q99 0 132.5 -42t33.5 -160q0 -74 -8.5 -119t-29.5 -69t-48 -32t-72 -8
q-49 0 -80.5 10t-45.5 29.5t-18.5 35.5t-5.5 38zM720 161q36 0 58 7.5t30.5 23t10.5 26t2 28.5q0 45 -21.5 65.5t-78.5 20.5q-34 0 -55.5 -6.5t-31 -21t-12 -27.5t-2.5 -34q0 -48 22 -65t78 -17zM810 821l26 -21l-645 -861l-27 20zM123 797h313v-49l-197 -367h-64l201 367
h-253v49z" />
    <glyph glyph-name="Japan1.9805" 
d="M374 604q20 -7 31 -13.5t23.5 -29t12.5 -58.5q0 -73 -41.5 -98t-119.5 -25q-83 0 -123 26.5t-40 92.5q0 27 6.5 47t19 31.5t20.5 16.5t22 10q-15 7 -24.5 13t-21.5 27t-12 52q0 115 152 115q154 0 154 -113q0 -32 -12 -53.5t-21.5 -27.5t-25.5 -13zM280 761
q-25 0 -38 -1.5t-29.5 -8t-23.5 -22.5t-7 -42q0 -18 6 -30t13 -18t24.5 -9t30 -3.5t39.5 -0.5q19 0 29 1.5t24.5 7t21.5 20t7 37.5q0 24 -9 39t-26 21t-29.5 7.5t-32.5 1.5zM280 579q-20 0 -33.5 -1.5t-34.5 -7.5t-32.5 -23t-11.5 -43q0 -35 25 -55.5t92 -20.5
q56 0 79.5 17.5t23.5 61.5q0 39 -23 55.5t-85 16.5zM571 62h54q2 -33 22 -48t71 -15q65 0 84.5 27.5t21.5 127.5q-9 -13 -17 -19.5t-32.5 -13t-64.5 -6.5q-31 0 -52 3.5t-45.5 14.5t-37.5 38.5t-13 69.5q0 45 13.5 75t38.5 42.5t47 16.5t52 4q99 0 132.5 -42t33.5 -160
q0 -74 -8.5 -119t-29.5 -69t-48 -32t-72 -8q-49 0 -80.5 10t-45.5 29.5t-18.5 35.5t-5.5 38zM720 161q36 0 58 7.5t30.5 23t10.5 26t2 28.5q0 45 -21.5 65.5t-78.5 20.5q-34 0 -55.5 -6.5t-31 -21t-12 -27.5t-2.5 -34q0 -48 22 -65t78 -17zM810 821l26 -21l-645 -861l-27 20
z" />
    <glyph glyph-name="Japan1.9806" 
d="M825 379q69 0 88 -45t19 -170q0 -123 -19 -168.5t-87 -45.5q-65 0 -87 42.5t-22 171.5q0 127 22 171t86 44zM824 332q-33 0 -42.5 -33t-9.5 -134q0 -103 10.5 -134.5t43.5 -31.5q32 0 41 30.5t9 135.5q0 107 -9.5 137t-42.5 30zM810 821l26 -21l-645 -861l-27 20z
M201 804h129v-416h-55v362h-74v54zM550 372h96v-416h-52v361h-44v55z" />
    <glyph glyph-name="Japan1.9807" 
d="M825 379q69 0 88 -45t19 -170q0 -123 -19 -168.5t-87 -45.5q-65 0 -87 42.5t-22 171.5q0 127 22 171t86 44zM824 332q-33 0 -42.5 -33t-9.5 -134q0 -103 10.5 -134.5t43.5 -31.5q32 0 41 30.5t9 135.5q0 107 -9.5 137t-42.5 30zM810 821l26 -21l-645 -861l-27 20z
M117 523h57v-17q0 -45 24 -60.5t76 -15.5q57 0 84.5 15t27.5 60q0 78 -68 78h-72v48h72q7 0 16.5 1.5t25 17t15.5 43.5q0 38 -21.5 54t-72.5 16q-52 0 -75.5 -16.5t-23.5 -68.5h-56q1 72 36.5 103t113.5 31q29 0 49 -2.5t47 -12.5t42 -34.5t15 -62.5q0 -47 -14 -65t-44 -28
q13 -3 21.5 -7t21.5 -14.5t20 -31.5t7 -52q0 -123 -157 -123q-93 0 -130 34t-37 110zM550 372h96v-416h-52v361h-44v55z" />
    <glyph glyph-name="Japan1.9808" 
d="M825 379q69 0 88 -45t19 -170q0 -123 -19 -168.5t-87 -45.5q-65 0 -87 42.5t-22 171.5q0 127 22 171t86 44zM824 332q-33 0 -42.5 -33t-9.5 -134q0 -103 10.5 -134.5t43.5 -31.5q32 0 41 30.5t9 135.5q0 107 -9.5 137t-42.5 30zM810 821l26 -21l-645 -861l-27 20z
M123 797h313v-49l-197 -367h-64l201 367h-253v49zM550 372h96v-416h-52v361h-44v55z" />
    <glyph glyph-name="Japan1.9809" 
d="M130 494h53q2 -33 22.5 -48t71.5 -15q64 0 84 27.5t22 127.5q-10 -13 -17.5 -19.5t-32.5 -13t-65 -6.5q-24 0 -41 1.5t-38.5 8.5t-35 20t-23 37.5t-9.5 58.5q0 45 13.5 75t38.5 42.5t46.5 16.5t52.5 4q99 0 132.5 -42t33.5 -160q0 -74 -8.5 -119.5t-30 -69.5t-48.5 -31.5
t-72 -7.5q-48 0 -80 10.5t-46 29.5t-18.5 35t-4.5 38zM278 593q36 0 58 7.5t30.5 23t10.5 26t2 28.5q0 44 -21.5 65t-78.5 21q-34 0 -55.5 -7t-30.5 -21t-11.5 -27t-2.5 -34q0 -48 22 -65t77 -17zM825 379q69 0 88 -45t19 -170q0 -123 -19 -168.5t-87 -45.5q-65 0 -87 42.5
t-22 171.5q0 127 22 171t86 44zM824 332q-33 0 -42.5 -33t-9.5 -134q0 -103 10.5 -134.5t43.5 -31.5q32 0 41 30.5t9 135.5q0 107 -9.5 137t-42.5 30zM810 821l26 -21l-645 -861l-27 20zM550 372h96v-416h-52v361h-44v55z" />
    <glyph glyph-name="Japan1.9810" 
d="M810 821l26 -21l-645 -861l-27 20zM201 804h129v-416h-55v362h-74v54zM583 372h95v-416h-52v361h-43v55zM804 372h96v-416h-52v361h-44v55z" />
    <glyph glyph-name="Japan1.9811" 
d="M810 821l26 -21l-645 -861l-27 20zM345 561l-111 -23q-27 -5 -40.5 -20.5t-15.5 -26t-2 -26.5v-31h257v-48h-311v72q0 50 23.5 84t69.5 43l113 22q53 9 53 73q0 37 -20 59t-77 22q-54 0 -77.5 -16.5t-23.5 -54.5v-31h-56q0 27 1 41.5t8.5 38.5t22.5 37t45 23.5t73 10.5
q92 0 125.5 -32t33.5 -95q0 -62 -22 -87t-69 -35zM583 372h95v-416h-52v361h-43v55zM804 372h96v-416h-52v361h-44v55z" />
    <glyph glyph-name="Japan1.9812" 
d="M810 821l26 -21l-645 -861l-27 20zM117 523h57v-17q0 -45 24 -60.5t76 -15.5q57 0 84.5 15t27.5 60q0 78 -68 78h-72v48h72q7 0 16.5 1.5t25 17t15.5 43.5q0 38 -21.5 54t-72.5 16q-52 0 -75.5 -16.5t-23.5 -68.5h-56q1 72 36.5 103t113.5 31q29 0 49 -2.5t47 -12.5
t42 -34.5t15 -62.5q0 -47 -14 -65t-44 -28q13 -3 21.5 -7t21.5 -14.5t20 -31.5t7 -52q0 -123 -157 -123q-93 0 -130 34t-37 110zM583 372h95v-416h-52v361h-43v55zM804 372h96v-416h-52v361h-44v55z" />
    <glyph glyph-name="Japan1.9813" 
d="M316 810h76v-276h60v-49h-60v-91h-54v91h-232v65zM338 534v232l-182 -232h182zM810 821l26 -21l-645 -861l-27 20zM583 372h95v-416h-52v361h-43v55zM804 372h96v-416h-52v361h-44v55z" />
    <glyph glyph-name="Japan1.9814" 
d="M810 821l26 -21l-645 -861l-27 20zM131 806h290v-49h-235v-117q36 29 105 29q79 0 113.5 -34t34.5 -106q0 -73 -32.5 -110.5t-130.5 -37.5q-55 0 -89.5 11t-47.5 33.5t-16 39t-3 45.5h54q-1 -40 19 -60t78 -20q39 0 62.5 6.5t34 21t13 28t2.5 37.5q0 22 -2.5 35.5t-11 29
t-29.5 23t-54 7.5q-37 0 -60.5 -7.5t-30 -13.5t-13.5 -18h-51v227zM583 372h95v-416h-52v361h-43v55zM804 372h96v-416h-52v361h-44v55z" />
    <glyph glyph-name="Japan1.9815" 
d="M429 697h-54q-2 33 -22 48.5t-72 15.5q-64 0 -83.5 -27.5t-21.5 -127.5q9 13 17 19.5t32.5 13t64.5 6.5q24 0 41 -1.5t38.5 -8.5t35 -20t23 -37.5t9.5 -58.5q0 -45 -13.5 -75t-38 -42.5t-46.5 -16.5t-52 -4q-99 0 -132.5 42t-33.5 160q0 74 8.5 119t29.5 69t48 32t72 8
q48 0 80 -10.5t46 -30t18.5 -35.5t5.5 -38zM280 599q-36 0 -58 -7.5t-30.5 -23t-10.5 -26t-2 -28.5q0 -45 21.5 -65.5t78.5 -20.5q34 0 55.5 6.5t31 21t12 27.5t2.5 34q0 48 -22 65t-78 17zM810 821l26 -21l-645 -861l-27 20zM583 372h95v-416h-52v361h-43v55zM804 372h96
v-416h-52v361h-44v55z" />
    <glyph glyph-name="Japan1.9816" 
d="M810 821l26 -21l-645 -861l-27 20zM123 797h313v-49l-197 -367h-64l201 367h-253v49zM583 372h95v-416h-52v361h-43v55zM804 372h96v-416h-52v361h-44v55z" />
    <glyph glyph-name="Japan1.9817" 
d="M374 604q20 -7 31 -13.5t23.5 -29t12.5 -58.5q0 -73 -41.5 -98t-119.5 -25q-83 0 -123 26.5t-40 92.5q0 27 6.5 47t19 31.5t20.5 16.5t22 10q-15 7 -24.5 13t-21.5 27t-12 52q0 115 152 115q154 0 154 -113q0 -32 -12 -53.5t-21.5 -27.5t-25.5 -13zM280 761
q-25 0 -38 -1.5t-29.5 -8t-23.5 -22.5t-7 -42q0 -18 6 -30t13 -18t24.5 -9t30 -3.5t39.5 -0.5q19 0 29 1.5t24.5 7t21.5 20t7 37.5q0 24 -9 39t-26 21t-29.5 7.5t-32.5 1.5zM280 579q-20 0 -33.5 -1.5t-34.5 -7.5t-32.5 -23t-11.5 -43q0 -35 25 -55.5t92 -20.5
q56 0 79.5 17.5t23.5 61.5q0 39 -23 55.5t-85 16.5zM810 821l26 -21l-645 -861l-27 20zM583 372h95v-416h-52v361h-43v55zM804 372h96v-416h-52v361h-44v55z" />
    <glyph glyph-name="Japan1.9818" 
d="M130 494h53q2 -33 22.5 -48t71.5 -15q64 0 84 27.5t22 127.5q-10 -13 -17.5 -19.5t-32.5 -13t-65 -6.5q-24 0 -41 1.5t-38.5 8.5t-35 20t-23 37.5t-9.5 58.5q0 45 13.5 75t38.5 42.5t46.5 16.5t52.5 4q99 0 132.5 -42t33.5 -160q0 -74 -8.5 -119.5t-30 -69.5t-48.5 -31.5
t-72 -7.5q-48 0 -80 10.5t-46 29.5t-18.5 35t-4.5 38zM278 593q36 0 58 7.5t30.5 23t10.5 26t2 28.5q0 44 -21.5 65t-78.5 21q-34 0 -55.5 -7t-30.5 -21t-11.5 -27t-2.5 -34q0 -48 22 -65t77 -17zM810 821l26 -21l-645 -861l-27 20zM583 372h95v-416h-52v361h-43v55z
M804 372h96v-416h-52v361h-44v55z" />
    <glyph glyph-name="Japan1.9819" 
d="M343 810q68 0 87.5 -44.5t19.5 -169.5q0 -124 -19 -169.5t-87 -45.5q-65 0 -87.5 43t-22.5 172q0 127 22 170.5t87 43.5zM341 763q-32 0 -42 -33t-10 -133q0 -103 10.5 -134.5t43.5 -31.5q32 0 41.5 30.5t9.5 135.5q0 107 -10 136.5t-43 29.5zM810 821l26 -21l-645 -861
l-27 20zM583 372h95v-416h-52v361h-43v55zM804 372h96v-416h-52v361h-44v55zM68 804h96v-416h-53v361h-43v55z" />
    <glyph glyph-name="Japan1.9820" 
d="M810 821l26 -21l-645 -861l-27 20zM550 372h96v-416h-52v361h-44v55zM717 233v38q0 38 11 62t30.5 32.5t33 11t32.5 2.5q51 1 79 -23t28 -95q0 -25 -1 -38t-6.5 -33t-18.5 -33.5t-35 -22.5l-64 -27q-19 -8 -27.5 -22t-8.5 -51v-28h162v-50h-215v81q0 84 65 112l64 28
q32 14 32 60v40q0 56 -47 56q-36 0 -48.5 -16t-12.5 -46v-38h-53zM201 804h129v-416h-55v362h-74v54z" />
    <glyph glyph-name="Japan1.9821" 
d="M810 821l26 -21l-645 -861l-27 20zM550 372h96v-416h-52v361h-44v55zM717 233v38q0 38 11 62t30.5 32.5t33 11t32.5 2.5q51 1 79 -23t28 -95q0 -25 -1 -38t-6.5 -33t-18.5 -33.5t-35 -22.5l-64 -27q-19 -8 -27.5 -22t-8.5 -51v-28h162v-50h-215v81q0 84 65 112l64 28
q32 14 32 60v40q0 56 -47 56q-36 0 -48.5 -16t-12.5 -46v-38h-53zM131 806h290v-49h-235v-117q36 29 105 29q79 0 113.5 -34t34.5 -106q0 -73 -32.5 -110.5t-130.5 -37.5q-55 0 -89.5 11t-47.5 33.5t-16 39t-3 45.5h54q-1 -40 19 -60t78 -20q39 0 62.5 6.5t34 21t13 28
t2.5 37.5q0 22 -2.5 35.5t-11 29t-29.5 23t-54 7.5q-37 0 -60.5 -7.5t-30 -13.5t-13.5 -18h-51v227z" />
    <glyph glyph-name="Japan1.9822" 
d="M810 821l26 -21l-645 -861l-27 20zM550 372h96v-416h-52v361h-44v55zM717 233v38q0 38 11 62t30.5 32.5t33 11t32.5 2.5q51 1 79 -23t28 -95q0 -25 -1 -38t-6.5 -33t-18.5 -33.5t-35 -22.5l-64 -27q-19 -8 -27.5 -22t-8.5 -51v-28h162v-50h-215v81q0 84 65 112l64 28
q32 14 32 60v40q0 56 -47 56q-36 0 -48.5 -16t-12.5 -46v-38h-53zM123 797h313v-49l-197 -367h-64l201 367h-253v49z" />
    <glyph glyph-name="Japan1.9823" 
d="M810 821l26 -21l-645 -861l-27 20zM550 372h96v-416h-52v361h-44v55zM717 233v38q0 38 11 62t30.5 32.5t33 11t32.5 2.5q51 1 79 -23t28 -95q0 -25 -1 -38t-6.5 -33t-18.5 -33.5t-35 -22.5l-64 -27q-19 -8 -27.5 -22t-8.5 -51v-28h162v-50h-215v81q0 84 65 112l64 28
q32 14 32 60v40q0 56 -47 56q-36 0 -48.5 -16t-12.5 -46v-38h-53zM100 804h96v-416h-52v361h-44v55zM322 804h95v-416h-52v361h-43v55z" />
    <glyph glyph-name="Japan1.9824" 
d="M716 379q51 0 65.5 -45t14.5 -170q0 -123 -14 -168.5t-64 -45.5q-48 0 -65 42.5t-17 171.5q0 128 16.5 171.5t63.5 43.5zM715 332q-10 0 -18 -9t-10 -22q-6 -31 -6 -136q0 -106 6 -135q7 -31 29 -31q11 0 17 5t10.5 24t6 55t1.5 100q0 103 -9 129q-7 20 -27 20zM903 379
q51 0 65.5 -45.5t14.5 -169.5q0 -63 -2.5 -98.5t-10.5 -64.5t-23.5 -40t-41.5 -11q-49 0 -65.5 42.5t-16.5 171.5q0 128 16.5 171.5t63.5 43.5zM902 332q-10 0 -18 -9t-10 -22q-6 -31 -6 -136q0 -106 6 -135q7 -31 29 -31q11 0 17 5t10.5 24t6 55t1.5 100q0 103 -9 129
q-7 20 -27 20zM810 821l26 -21l-645 -861l-27 20zM201 804h129v-416h-55v362h-74v54zM537 372h72v-416h-43v361h-29v55z" />
    <glyph glyph-name="Japan1.9825" 
d="M500 810q45 0 76.5 -13t47.5 -30.5t25 -45.5t10.5 -46.5t1.5 -45.5t-1.5 -46t-10.5 -47t-25 -45t-48 -30t-76 -13q-45 0 -76.5 13t-48 30.5t-25 45t-10 46.5t-1.5 46t1.5 45.5t10.5 46.5t25 45.5t47.5 30.5t76.5 13zM500 759q-65 0 -86 -27.5t-21 -102.5q0 -77 20.5 -104
t86.5 -26q65 0 86 27.5t21 102.5q0 76 -20.5 103t-86.5 27zM65 396h870v-32h-870v32zM343 76h55q0 -21 2 -31.5t11 -23.5t32 -18t60 -5q30 0 48 2t34.5 14.5t16.5 36.5q0 60 -64 60h-69v48h69q61 0 61 49q0 53 -97 53q-44 0 -66 -8.5t-26.5 -20t-6.5 -37.5h-54q1 26 4 41
t16 35.5t46 30.5t85 10q153 0 153 -100q0 -22 -5.5 -37t-16 -22.5t-18.5 -11t-20 -6.5q14 -3 21 -5.5t19 -10.5t18 -24.5t6 -40.5q0 -62 -38.5 -83t-112.5 -21q-95 0 -127.5 26t-35.5 100z" />
    <glyph glyph-name="Japan1.9826" 
d="M65 396h870v-32h-870v32zM576 97l-126 -21q-18 -3 -28.5 -10t-14.5 -19.5t-5 -19.5t-1 -21h248v-49h-302v58q0 97 85 111l124 20q23 3 33 19t10 35q0 30 -20.5 46t-80.5 16q-27 0 -45.5 -5t-28 -10.5t-14.5 -18t-6 -20t-1 -23.5h-53q0 22 1 34.5t8.5 32.5t22 31t43.5 20
t70 9q54 0 89 -11t48.5 -31t17 -34t3.5 -34q0 -93 -77 -105zM407 801h133v-344h-53v295h-80v49z" />
    <glyph glyph-name="Japan1.9827" 
d="M65 396h870v-32h-870v32zM343 76h55q0 -21 2 -31.5t11 -23.5t32 -18t60 -5q30 0 48 2t34.5 14.5t16.5 36.5q0 60 -64 60h-69v48h69q61 0 61 49q0 53 -97 53q-44 0 -66 -8.5t-26.5 -20t-6.5 -37.5h-54q1 26 4 41t16 35.5t46 30.5t85 10q153 0 153 -100q0 -22 -5.5 -37
t-16 -22.5t-18.5 -11t-20 -6.5q14 -3 21 -5.5t19 -10.5t18 -24.5t6 -40.5q0 -62 -38.5 -83t-112.5 -21q-95 0 -127.5 26t-35.5 100zM407 801h133v-344h-53v295h-80v49z" />
    <glyph glyph-name="Japan1.9828" 
d="M65 396h870v-32h-870v32zM343 76h55q0 -21 2 -31.5t11 -23.5t32 -18t60 -5q30 0 48 2t34.5 14.5t16.5 36.5q0 60 -64 60h-69v48h69q61 0 61 49q0 53 -97 53q-44 0 -66 -8.5t-26.5 -20t-6.5 -37.5h-54q1 26 4 41t16 35.5t46 30.5t85 10q153 0 153 -100q0 -22 -5.5 -37
t-16 -22.5t-18.5 -11t-20 -6.5q14 -3 21 -5.5t19 -10.5t18 -24.5t6 -40.5q0 -62 -38.5 -83t-112.5 -21q-95 0 -127.5 26t-35.5 100zM576 594l-126 -21q-18 -3 -28.5 -10t-14.5 -19t-5 -19.5t-1 -20.5h248v-49h-302v58q0 97 85 111l124 20q23 3 33 19t10 35q0 30 -20.5 46
t-80.5 16q-27 0 -45.5 -5t-28 -10.5t-14.5 -18t-6 -20t-1 -23.5h-53q0 22 1 34.5t8.5 32.5t22 31t43.5 20t70 9q54 0 89 -11t48.5 -31t17 -34t3.5 -34q0 -94 -77 -106z" />
    <glyph glyph-name="Japan1.9829" 
d="M530 312h75v-224h63v-49h-63v-76h-51v76h-222v61zM554 88v176l-163 -176h163zM65 396h870v-32h-870v32zM407 801h133v-344h-53v295h-80v49z" />
    <glyph glyph-name="Japan1.9830" 
d="M530 312h75v-224h63v-49h-63v-76h-51v76h-222v61zM554 88v176l-163 -176h163zM65 396h870v-32h-870v32zM343 573h55q0 -21 2 -31.5t11 -23t31.5 -17.5t60.5 -5q23 0 36 1t30 5.5t25 16t8 30.5q0 60 -64 60h-69v48h69q61 0 61 49q0 53 -97 53q-44 0 -66 -8.5t-26.5 -20
t-6.5 -37.5h-54q1 26 4 41t16 35.5t46 30.5t85 10q153 0 153 -101q0 -28 -11 -45t-21.5 -22t-27.5 -9q14 -3 21 -5.5t19 -10.5t18 -24.5t6 -40.5q0 -62 -38.5 -83t-112.5 -21q-95 0 -127.5 25.5t-35.5 99.5z" />
    <glyph glyph-name="Japan1.9831" 
d="M65 396h870v-32h-870v32zM363 308h276v-51h-222l-5 -83q28 23 97 23q147 0 147 -125q0 -62 -35 -92t-120 -30q-51 0 -84.5 10t-48.5 28.5t-19.5 35.5t-4.5 41h54q0 -40 27 -52.5t73 -12.5q55 0 80 12.5t25 58.5q0 41 -21 59t-80 18q-37 0 -58 -6.5t-25.5 -12.5t-7.5 -17
h-54zM407 801h133v-344h-53v295h-80v49z" />
    <glyph glyph-name="Japan1.9832" 
d="M65 396h870v-32h-870v32zM363 308h276v-51h-222l-5 -83q28 23 97 23q147 0 147 -125q0 -62 -35 -92t-120 -30q-51 0 -84.5 10t-48.5 28.5t-19.5 35.5t-4.5 41h54q0 -40 27 -52.5t73 -12.5q55 0 80 12.5t25 58.5q0 41 -21 59t-80 18q-37 0 -58 -6.5t-25.5 -12.5t-7.5 -17
h-54zM576 594l-126 -21q-18 -3 -28.5 -10t-14.5 -19t-5 -19.5t-1 -20.5h248v-49h-302v58q0 97 85 111l124 20q23 3 33 19t10 35q0 30 -20.5 46t-80.5 16q-27 0 -45.5 -5t-28 -10.5t-14.5 -18t-6 -20t-1 -23.5h-53q0 22 1 34.5t8.5 32.5t22 31t43.5 20t70 9q54 0 89 -11
t48.5 -31t17 -34t3.5 -34q0 -94 -77 -106z" />
    <glyph glyph-name="Japan1.9833" 
d="M65 396h870v-32h-870v32zM363 308h276v-51h-222l-5 -83q28 23 97 23q147 0 147 -125q0 -62 -35 -92t-120 -30q-51 0 -84.5 10t-48.5 28.5t-19.5 35.5t-4.5 41h54q0 -40 27 -52.5t73 -12.5q55 0 80 12.5t25 58.5q0 41 -21 59t-80 18q-37 0 -58 -6.5t-25.5 -12.5t-7.5 -17
h-54zM343 573h55q0 -21 2 -31.5t11 -23t31.5 -17.5t60.5 -5q23 0 36 1t30 5.5t25 16t8 30.5q0 60 -64 60h-69v48h69q61 0 61 49q0 53 -97 53q-44 0 -66 -8.5t-26.5 -20t-6.5 -37.5h-54q1 26 4 41t16 35.5t46 30.5t85 10q153 0 153 -101q0 -28 -11 -45t-21.5 -22t-27.5 -9
q14 -3 21 -5.5t19 -10.5t18 -24.5t6 -40.5q0 -62 -38.5 -83t-112.5 -21q-95 0 -127.5 25.5t-35.5 99.5z" />
    <glyph glyph-name="Japan1.9834" 
d="M530 810h75v-224h63v-49h-63v-76h-51v76h-222v61zM554 586v176l-163 -176h163zM65 396h870v-32h-870v32zM363 308h276v-51h-222l-5 -83q28 23 97 23q147 0 147 -125q0 -62 -35 -92t-120 -30q-51 0 -84.5 10t-48.5 28.5t-19.5 35.5t-4.5 41h54q0 -40 27 -52.5t73 -12.5
q55 0 80 12.5t25 58.5q0 41 -21 59t-80 18q-37 0 -58 -6.5t-25.5 -12.5t-7.5 -17h-54z" />
    <glyph glyph-name="Japan1.9835" 
d="M650 211h-54q-2 53 -92 53q-32 0 -52.5 -5.5t-32 -12.5t-16.5 -25t-6.5 -32.5t-1.5 -45.5q10 12 18.5 18.5t33.5 13t63 6.5q28 0 48.5 -3t46.5 -13t40.5 -34.5t14.5 -61.5q0 -68 -41 -94.5t-127 -26.5t-119 37t-33 134q0 82 18 125t49.5 56.5t89.5 13.5q43 0 73.5 -8
t45 -18t23 -26.5t10 -26t1.5 -24.5zM504 131q-55 0 -80.5 -15t-25.5 -52q0 -19 6 -32.5t14 -20t24.5 -10t27 -4t31.5 -0.5q64 0 83.5 17t19.5 50q0 42 -22.5 54.5t-77.5 12.5zM65 396h870v-32h-870v32zM407 801h133v-344h-53v295h-80v49z" />
    <glyph glyph-name="Japan1.9836" 
d="M650 211h-54q-2 53 -92 53q-32 0 -52.5 -5.5t-32 -12.5t-16.5 -25t-6.5 -32.5t-1.5 -45.5q10 12 18.5 18.5t33.5 13t63 6.5q28 0 48.5 -3t46.5 -13t40.5 -34.5t14.5 -61.5q0 -68 -41 -94.5t-127 -26.5t-119 37t-33 134q0 82 18 125t49.5 56.5t89.5 13.5q43 0 73.5 -8
t45 -18t23 -26.5t10 -26t1.5 -24.5zM504 131q-55 0 -80.5 -15t-25.5 -52q0 -19 6 -32.5t14 -20t24.5 -10t27 -4t31.5 -0.5q64 0 83.5 17t19.5 50q0 42 -22.5 54.5t-77.5 12.5zM65 396h870v-32h-870v32zM363 806h276v-51h-222l-5 -83q26 22 97 22q68 0 107.5 -27t39.5 -97
q0 -62 -35 -92t-120 -30q-51 0 -84.5 10t-48.5 28.5t-19.5 35.5t-4.5 41h54q0 -40 27 -53t73 -13q54 0 79.5 13t25.5 59q0 41 -21 59t-80 18q-37 0 -58 -6.5t-25 -12.5t-8 -17h-54z" />
    <glyph glyph-name="Japan1.9837" 
d="M65 396h870v-32h-870v32zM338 309h324v-43l-203 -312h-70l207 306h-258v49zM407 801h133v-344h-53v295h-80v49z" />
    <glyph glyph-name="Japan1.9838" 
d="M65 396h870v-32h-870v32zM338 309h324v-43l-203 -312h-70l207 306h-258v49zM576 594l-126 -21q-18 -3 -28.5 -10t-14.5 -19t-5 -19.5t-1 -20.5h248v-49h-302v58q0 97 85 111l124 20q23 3 33 19t10 35q0 30 -20.5 46t-80.5 16q-27 0 -45.5 -5t-28 -10.5t-14.5 -18t-6 -20
t-1 -23.5h-53q0 22 1 34.5t8.5 32.5t22 31t43.5 20t70 9q54 0 89 -11t48.5 -31t17 -34t3.5 -34q0 -94 -77 -106z" />
    <glyph glyph-name="Japan1.9839" 
d="M65 396h870v-32h-870v32zM338 309h324v-43l-203 -312h-70l207 306h-258v49zM343 573h55q0 -21 2 -31.5t11 -23t31.5 -17.5t60.5 -5q23 0 36 1t30 5.5t25 16t8 30.5q0 60 -64 60h-69v48h69q61 0 61 49q0 53 -97 53q-44 0 -66 -8.5t-26.5 -20t-6.5 -37.5h-54q1 26 4 41
t16 35.5t46 30.5t85 10q153 0 153 -101q0 -28 -11 -45t-21.5 -22t-27.5 -9q14 -3 21 -5.5t19 -10.5t18 -24.5t6 -40.5q0 -62 -38.5 -83t-112.5 -21q-95 0 -127.5 25.5t-35.5 99.5z" />
    <glyph glyph-name="Japan1.9840" 
d="M530 810h75v-224h63v-49h-63v-76h-51v76h-222v61zM554 586v176l-163 -176h163zM65 396h870v-32h-870v32zM338 309h324v-43l-203 -312h-70l207 306h-258v49z" />
    <glyph glyph-name="Japan1.9841" 
d="M65 396h870v-32h-870v32zM338 309h324v-43l-203 -312h-70l207 306h-258v49zM363 806h276v-51h-222l-5 -83q26 22 97 22q68 0 107.5 -27t39.5 -97q0 -62 -35 -92t-120 -30q-51 0 -84.5 10t-48.5 28.5t-19.5 35.5t-4.5 41h54q0 -40 27 -53t73 -13q54 0 79.5 13t25.5 59
q0 41 -21 59t-80 18q-37 0 -58 -6.5t-25 -12.5t-8 -17h-54z" />
    <glyph glyph-name="Japan1.9842" 
d="M650 708h-54q-2 54 -92 54q-32 0 -52.5 -5.5t-32 -12.5t-16.5 -25t-6.5 -32.5t-1.5 -45.5q10 12 18.5 18t33.5 13t63 7q28 0 48.5 -3t46.5 -13t40.5 -34.5t14.5 -62.5q0 -68 -41 -94t-127 -26t-119 37t-33 134q0 82 18 125t49.5 56.5t89.5 13.5q43 0 73.5 -8t45 -18
t23 -27t10 -26.5t1.5 -24.5zM504 629q-55 0 -80.5 -15t-25.5 -52q0 -19 6 -32.5t14 -20t24.5 -10t27 -4t31.5 -0.5q64 0 83.5 17t19.5 50q0 42 -22.5 54.5t-77.5 12.5zM65 396h870v-32h-870v32zM338 309h324v-43l-203 -312h-70l207 306h-258v49z" />
    <glyph glyph-name="Japan1.9843" 
d="M386 140q-38 28 -38 75q0 97 152 97t152 -97q0 -22 -7.5 -38.5t-13.5 -22t-17 -14.5q47 -29 47 -85q0 -105 -161 -105t-161 105q0 56 47 85zM500 263q-42 0 -64.5 -8.5t-27 -17.5t-4.5 -23q0 -52 96 -52t96 53q0 8 -2 14t-10 15t-29.5 14t-54.5 5zM500 114q-59 0 -82 -14
t-23 -44t21.5 -43.5t83.5 -13.5q61 0 83 13.5t22 45.5q0 56 -105 56zM65 396h870v-32h-870v32zM407 801h133v-344h-53v295h-80v49z" />
    <glyph glyph-name="Japan1.9844" 
d="M386 140q-38 28 -38 75q0 97 152 97t152 -97q0 -22 -7.5 -38.5t-13.5 -22t-17 -14.5q47 -29 47 -85q0 -105 -161 -105t-161 105q0 56 47 85zM500 263q-42 0 -64.5 -8.5t-27 -17.5t-4.5 -23q0 -52 96 -52t96 53q0 8 -2 14t-10 15t-29.5 14t-54.5 5zM500 114q-59 0 -82 -14
t-23 -44t21.5 -43.5t83.5 -13.5q61 0 83 13.5t22 45.5q0 56 -105 56zM65 396h870v-32h-870v32zM343 573h55q0 -21 2 -31.5t11 -23t31.5 -17.5t60.5 -5q23 0 36 1t30 5.5t25 16t8 30.5q0 60 -64 60h-69v48h69q61 0 61 49q0 53 -97 53q-44 0 -66 -8.5t-26.5 -20t-6.5 -37.5
h-54q1 26 4 41t16 35.5t46 30.5t85 10q153 0 153 -101q0 -28 -11 -45t-21.5 -22t-27.5 -9q14 -3 21 -5.5t19 -10.5t18 -24.5t6 -40.5q0 -62 -38.5 -83t-112.5 -21q-95 0 -127.5 25.5t-35.5 99.5z" />
    </font>
</defs>
</svg>
