<?xml version="1.0" standalone="no"?>
<!DOCTYPE svg PUBLIC "-//W3C//DTD SVG 1.1//EN" "http://www.w3.org/Graphics/SVG/1.1/DTD/svg11.dtd" >
<svg>
<metadata>
Created by FontForge 20090622 at Fri Feb  3 10:32:47 2017
 By deploy user
</metadata>
<defs>
<font id="ShinGoPr5-Medium-AlphaNum" horiz-adv-x="1000" vert-adv-y="1000" >
  <font-face 
    font-family="ShinGoPr5-Medium-AlphaNum"
    font-weight="500"
    font-stretch="normal"
    units-per-em="1000"
    panose-1="2 0 6 3 0 0 0 0 0 0"
    ascent="800"
    descent="-200"
    bbox="13 -97 987 857"
    underline-thickness="50"
    underline-position="-100"
  />
<missing-glyph horiz-adv-x="364" 
d="M33 0v666h265v-666h-265zM66 33h199v600h-199v-600z" />
    <glyph glyph-name=".notdef" horiz-adv-x="364" 
d="M33 0v666h265v-666h-265zM66 33h199v600h-199v-600z" />
    <glyph glyph-name=".null" horiz-adv-x="0" vert-adv-y="0" 
 />
    <glyph glyph-name="nonmarkingreturn" horiz-adv-x="333" 
 />
    <glyph glyph-name="Japan1.7555" 
d="M500 854q128 0 237 -62.5t173 -172t64 -239.5q0 -196 -139 -335t-335 -139t-335 139t-139 335q0 130 64 239.5t173 172t237 62.5zM500 819q-181 0 -310 -128t-129 -311q0 -119 59 -220t160 -160t220 -59q182 0 310.5 128.5t128.5 310.5q0 183 -129 311t-310 128zM365 672
h188v-584h-80v505h-108v79z" />
    <glyph glyph-name="Japan1.7556" 
d="M500 854q128 0 237 -62.5t173 -172t64 -239.5q0 -196 -139 -335t-335 -139t-335 139t-139 335q0 130 64 239.5t173 172t237 62.5zM500 819q-181 0 -310 -128t-129 -311q0 -119 59 -220t160 -160t220 -59q182 0 310.5 128.5t128.5 310.5q0 183 -129 311t-310 128zM563 335
l-78 -32q-26 -11 -38 -21.5t-19 -37.5t-7 -77h231v-79h-307q-2 153 16 202t86 77l69 29q35 15 49 35t14 68q0 54 -16 77t-61 23q-52 0 -65.5 -24t-13.5 -82v-16h-75q-1 40 0.5 63.5t9 53t23 45.5t45.5 27.5t73 11.5q82 0 119 -34.5t37 -130.5q0 -79 -18 -117t-74 -61z" />
    <glyph glyph-name="Japan1.7557" 
d="M500 854q128 0 237 -62.5t173 -172t64 -239.5q0 -196 -139 -335t-335 -139t-335 139t-139 335q0 130 64 239.5t173 172t237 62.5zM500 819q-181 0 -310 -128t-129 -311q0 -119 59 -220t160 -160t220 -59q182 0 310.5 128.5t128.5 310.5q0 183 -129 311t-310 128zM344 278
h78q-1 -35 0 -51t8 -34.5t23.5 -25t45.5 -6.5q42 0 61 20.5t19 75.5q0 57 -19.5 75t-74.5 18h-42v77h46q21 0 32 1.5t25.5 8t21.5 24.5t7 46q0 22 -2 34.5t-8.5 28t-22.5 22.5t-42 7q-27 0 -43.5 -7.5t-23 -24.5t-7.5 -31t-1 -41h-78q0 46 4.5 74.5t19.5 56t46.5 40
t81.5 12.5q77 0 114.5 -35t37.5 -121q0 -52 -15.5 -84.5t-60.5 -47.5q12 -3 19 -5.5t20 -11.5t21 -23t14 -40.5t6 -62.5q0 -91 -36 -128t-117 -37q-33 0 -58 5.5t-41.5 13t-28 24t-17 29t-9 37.5t-4 40.5t-0.5 46.5z" />
    <glyph glyph-name="Japan1.7558" 
d="M500 854q128 0 237 -62.5t173 -172t64 -239.5q0 -196 -139 -335t-335 -139t-335 139t-139 335q0 130 64 239.5t173 172t237 62.5zM500 819q-181 0 -310 -128t-129 -311q0 -119 59 -220t160 -160t220 -59q182 0 310.5 128.5t128.5 310.5q0 183 -129 311t-310 128zM488 672
h106v-378h47v-79h-47v-127h-77v127h-206v94zM518 582l-135 -288h135v288z" />
    <glyph glyph-name="Japan1.7559" 
d="M500 854q128 0 237 -62.5t173 -172t64 -239.5q0 -196 -139 -335t-335 -139t-335 139t-139 335q0 130 64 239.5t173 172t237 62.5zM500 819q-181 0 -310 -128t-129 -311q0 -119 59 -220t160 -160t220 -59q182 0 310.5 128.5t128.5 310.5q0 183 -129 311t-310 128zM357 672
h288v-79h-212l-4 -145q34 31 92 31q37 0 63.5 -14t40 -32t20.5 -48.5t8.5 -51t1.5 -50.5q0 -50 -5 -81.5t-20 -61.5t-47.5 -44t-83.5 -14q-76 0 -115.5 38t-38.5 140h77q1 -31 2.5 -44t9 -28.5t23.5 -21t43 -5.5q49 0 63.5 24.5t14.5 85.5q0 30 -1 46t-5 35t-12.5 28
t-23.5 15.5t-37 6.5q-23 0 -39 -6.5t-23.5 -18.5t-9.5 -18.5t-4 -17.5h-73z" />
    <glyph glyph-name="Japan1.7560" 
d="M500 854q128 0 237 -62.5t173 -172t64 -239.5q0 -196 -139 -335t-335 -139t-335 139t-139 335q0 130 64 239.5t173 172t237 62.5zM500 819q-181 0 -310 -128t-129 -311q0 -119 59 -220t160 -160t220 -59q182 0 310.5 128.5t128.5 310.5q0 183 -129 311t-310 128zM651 513
h-77q1 50 -15 67.5t-57 17.5q-53 0 -67 -31.5t-15 -148.5q36 39 102 39q26 0 46.5 -6t42 -23.5t33.5 -56t12 -96.5q0 -46 -5 -77t-19.5 -59.5t-45 -42.5t-77.5 -14t-77 10.5t-48 27.5t-26.5 55.5t-11 78t-2.5 110.5q0 67 1.5 105.5t6.5 79t15 61t28 38.5t44 24t64 6
q49 0 80.5 -14.5t45 -41.5t18 -51t4.5 -58zM500 379q-47 0 -62.5 -26t-15.5 -92q0 -60 19 -80t60 -20q48 0 63 24t15 94q0 64 -19 82t-60 18z" />
    <glyph glyph-name="Japan1.7561" 
d="M500 854q128 0 237 -62.5t173 -172t64 -239.5q0 -196 -139 -335t-335 -139t-335 139t-139 335q0 130 64 239.5t173 172t237 62.5zM500 819q-181 0 -310 -128t-129 -311q0 -119 59 -220t160 -160t220 -59q182 0 310.5 128.5t128.5 310.5q0 183 -129 311t-310 128zM335 648
h330v-85l-185 -499h-86l194 505h-253v79z" />
    <glyph glyph-name="Japan1.7562" 
d="M421 391q-13 5 -22 11t-22 19t-19.5 38t-6.5 60q0 90 35.5 124.5t109.5 34.5q77 0 115 -31.5t38 -128.5q0 -35 -6.5 -59.5t-19.5 -38t-21.5 -19t-22.5 -10.5q15 -5 24 -10t24 -19.5t22.5 -44.5t7.5 -74q0 -82 -35 -121.5t-120 -39.5q-76 0 -117.5 33t-41.5 126q0 36 6 63
t13 41.5t20 25t20 13.5t19 7zM500 600q-21 0 -36 -5.5t-22 -12.5t-11 -21.5t-4.5 -23.5t-0.5 -28q0 -17 1.5 -27t7.5 -24.5t22.5 -21.5t42.5 -7t42.5 7t22.5 22t7.5 26t1.5 33q0 19 -1.5 30.5t-8 25.5t-22.5 20.5t-42 6.5zM500 351q-50 0 -65 -24.5t-15 -79.5q0 -43 16 -65
t64 -22q28 0 45 7t24 22.5t9 28.5t2 36q0 50 -16 73.5t-64 23.5zM500 854q128 0 237 -62.5t173 -172t64 -239.5q0 -196 -139 -335t-335 -139t-335 139t-139 335q0 130 64 239.5t173 172t237 62.5zM500 819q-181 0 -310 -128t-129 -311q0 -119 59 -220t160 -160t220 -59
q182 0 310.5 128.5t128.5 310.5q0 183 -129 311t-310 128z" />
    <glyph glyph-name="Japan1.7563" 
d="M500 854q128 0 237 -62.5t173 -172t64 -239.5q0 -196 -139 -335t-335 -139t-335 139t-139 335q0 130 64 239.5t173 172t237 62.5zM500 819q-181 0 -310 -128t-129 -311q0 -119 59 -220t160 -160t220 -59q182 0 310.5 128.5t128.5 310.5q0 183 -129 311t-310 128zM342 247
h77q-1 -52 15.5 -68.5t57.5 -16.5q58 0 71.5 30t15.5 150q-34 -39 -102 -39q-27 0 -47 6t-41.5 23.5t-33.5 56t-12 96.5q0 46 5 77t19.5 59.5t45 42.5t77.5 14q39 0 66.5 -5.5t46 -22t28.5 -34.5t15.5 -54.5t7 -70.5t1.5 -93q0 -58 -1 -93t-4.5 -73t-10.5 -59t-18 -41
t-28.5 -29.5t-41.5 -15t-57 -5.5q-90 0 -121 42.5t-31 122.5zM499 381q47 0 62.5 26t15.5 92q0 61 -19 80.5t-60 19.5q-48 0 -63 -23.5t-15 -93.5q0 -64 19 -82.5t60 -18.5z" />
    <glyph glyph-name="Japan1.7564" 
d="M630 670q36 0 61.5 -6t43 -23t27 -36t14.5 -56.5t6.5 -73t1.5 -95.5q0 -59 -1.5 -94.5t-6.5 -72.5t-14.5 -56.5t-26.5 -36.5t-42 -23.5t-61 -6.5q-44 0 -72 10t-45 27.5t-25.5 56t-11 80.5t-2.5 116q0 73 2.5 114t10.5 80.5t25 57t44.5 28t71.5 10.5zM630 592
q-56 0 -68 -36.5t-12 -175.5q0 -140 12 -176t68 -36q55 0 67 36t12 176q0 139 -12 175.5t-67 36.5zM500 854q128 0 237 -62.5t173 -172t64 -239.5q0 -196 -139 -335t-335 -139t-335 139t-139 335q0 130 64 239.5t173 172t237 62.5zM500 819q-181 0 -310 -128t-129 -311
q0 -119 59 -220t160 -160t220 -59q182 0 310.5 128.5t128.5 310.5q0 183 -129 311t-310 128zM175 664h183v-568h-78v490h-105v78z" />
    <glyph glyph-name="Japan1.7565" 
d="M500 854q128 0 237 -62.5t173 -172t64 -239.5q0 -196 -139 -335t-335 -139t-335 139t-139 335q0 130 64 239.5t173 172t237 62.5zM500 819q-181 0 -310 -128t-129 -311q0 -119 59 -220t160 -160t220 -59q182 0 310.5 128.5t128.5 310.5q0 183 -129 311t-310 128zM187 664
h183v-568h-78v490h-105v78zM551 664h182v-568h-78v490h-104v78z" />
    <glyph glyph-name="Japan1.7566" 
d="M500 854q128 0 237 -62.5t173 -172t64 -239.5q0 -196 -139 -335t-335 -139t-335 139t-139 335q0 130 64 239.5t173 172t237 62.5zM500 819q-181 0 -310 -128t-129 -311q0 -119 59 -220t160 -160t220 -59q182 0 310.5 128.5t128.5 310.5q0 183 -129 311t-310 128zM175 664
h183v-568h-78v490h-105v78zM691 337l-76 -32q-26 -11 -37.5 -21t-18 -36t-6.5 -74h225v-78h-299q-1 104 5.5 152.5t27 74.5t66.5 45l67 27q34 14 47.5 34t13.5 67q0 53 -15.5 74.5t-58.5 21.5q-51 0 -64 -23t-13 -79v-16h-73q-1 39 0.5 62.5t9 52t23 44t44 26.5t70.5 11
q78 0 114.5 -33.5t36.5 -127.5q0 -76 -17.5 -112.5t-71.5 -59.5z" />
    <glyph glyph-name="Japan1.7567" 
d="M500 854q128 0 237 -62.5t173 -172t64 -239.5q0 -196 -139 -335t-335 -139t-335 139t-139 335q0 130 64 239.5t173 172t237 62.5zM500 819q-181 0 -310 -128t-129 -311q0 -119 59 -220t160 -160t220 -59q182 0 310.5 128.5t128.5 310.5q0 183 -129 311t-310 128zM175 664
h183v-568h-78v490h-105v78zM479 281h75q-1 -28 0 -49t7.5 -35.5t22.5 -22t45 -7.5q41 0 59 20t18 73q0 55 -18.5 73t-72.5 18h-41v74h45q20 0 31 1.5t25 8.5t20.5 24t6.5 44q0 21 -1.5 33.5t-8 27t-22 21.5t-40.5 7q-21 0 -36 -6t-22 -13.5t-11 -22.5t-4 -26v-32h-76
q0 44 4.5 72t18.5 54.5t45 39t80 12.5q29 0 50 -4.5t45.5 -17.5t38 -45t13.5 -80q0 -53 -14 -85.5t-59 -47.5q14 -3 23.5 -7.5t24 -18t22 -42t7.5 -70.5q0 -89 -34.5 -125.5t-113.5 -36.5q-32 0 -56.5 5.5t-40.5 13t-27 23t-16.5 28t-8.5 36.5t-3.5 39.5t-0.5 45.5z" />
    <glyph glyph-name="Japan1.7568" 
d="M641 664h104v-367h45v-77h-45v-124h-75v124h-201v91zM670 576l-131 -279h131v279zM500 854q128 0 237 -62.5t173 -172t64 -239.5q0 -196 -139 -335t-335 -139t-335 139t-139 335q0 130 64 239.5t173 172t237 62.5zM500 819q-181 0 -310 -128t-129 -311q0 -119 59 -220
t160 -160t220 -59q182 0 310.5 128.5t128.5 310.5q0 183 -129 311t-310 128zM175 664h183v-568h-78v490h-105v78z" />
    <glyph glyph-name="Japan1.7569" 
d="M500 854q128 0 237 -62.5t173 -172t64 -239.5q0 -196 -139 -335t-335 -139t-335 139t-139 335q0 130 64 239.5t173 172t237 62.5zM500 819q-181 0 -310 -128t-129 -311q0 -119 59 -220t160 -160t220 -59q182 0 310.5 128.5t128.5 310.5q0 183 -129 311t-310 128zM175 664
h183v-568h-78v490h-105v78zM491 664h279v-78h-206l-3 -140q34 30 89 30q36 0 61 -12.5t38.5 -30t20.5 -45.5t8.5 -48.5t1.5 -48.5q0 -40 -2.5 -66t-11 -54t-24.5 -44t-44 -26.5t-69 -10.5q-74 0 -112.5 37t-37.5 136h75q0 -28 1.5 -41.5t8.5 -28.5t23 -20.5t43 -5.5
q47 0 61 24t14 83q0 37 -1.5 55.5t-9 37.5t-23 26.5t-42.5 7.5q-67 0 -74 -59h-71z" />
    <glyph glyph-name="Japan1.7570" 
d="M776 509h-75q1 49 -14.5 66t-55.5 17q-51 0 -64.5 -30.5t-14.5 -144.5q10 12 18 18.5t29.5 13t52.5 6.5q26 0 45.5 -6t40 -23t32 -54.5t11.5 -93.5q0 -92 -28.5 -140t-114.5 -48q-46 0 -75 10t-46.5 27t-26 54.5t-10.5 75.5t-2 107q0 48 0.5 79t3 65t7 53.5t12.5 40.5
t19 32t27 20t37 12.5t49 3.5q38 0 65.5 -10.5t42.5 -25.5t23 -38.5t10 -42t2 -44.5zM630 379q-47 0 -61.5 -25t-14.5 -89q0 -59 18.5 -78.5t57.5 -19.5q47 0 61.5 23t14.5 92q0 62 -18.5 79.5t-57.5 17.5zM500 854q128 0 237 -62.5t173 -172t64 -239.5q0 -196 -139 -335
t-335 -139t-335 139t-139 335q0 130 64 239.5t173 172t237 62.5zM500 819q-181 0 -310 -128t-129 -311q0 -119 59 -220t160 -160t220 -59q182 0 310.5 128.5t128.5 310.5q0 183 -129 311t-310 128zM175 664h183v-568h-78v490h-105v78z" />
    <glyph glyph-name="Japan1.7571" 
d="M500 854q128 0 237 -62.5t173 -172t64 -239.5q0 -196 -139 -335t-335 -139t-335 139t-139 335q0 130 64 239.5t173 172t237 62.5zM500 819q-181 0 -310 -128t-129 -311q0 -119 59 -220t160 -160t220 -59q182 0 310.5 128.5t128.5 310.5q0 183 -129 311t-310 128zM179 664
h183v-568h-78v490h-105v78zM481 664h321v-83l-180 -485h-83l188 490h-246v78z" />
    <glyph glyph-name="Japan1.7572" 
d="M553 390q-18 8 -29.5 15.5t-25 36.5t-13.5 73q0 88 35 121.5t106 33.5q74 0 111 -31t37 -125q0 -34 -6 -57.5t-19 -37t-21 -18.5t-22 -11q14 -4 23 -9t23.5 -19t22 -43.5t7.5 -71.5q0 -81 -34 -119t-116 -38q-74 0 -114.5 32.5t-40.5 122.5q0 43 7.5 73t22 44t23.5 19
t23 9zM629 593q-21 0 -35 -5.5t-21 -12t-10.5 -20.5t-4 -23t-0.5 -27q0 -17 1.5 -26.5t7.5 -23.5t22 -21t41 -7t40.5 6.5t21.5 21t7.5 25.5t1.5 33q0 19 -1.5 29.5t-7.5 24t-22 20t-41 6.5zM630 352q-49 0 -63.5 -24.5t-14.5 -77.5q0 -41 15 -62t62 -21q27 0 43.5 7
t23.5 21.5t9 27.5t2 35q0 48 -15 71t-62 23zM500 854q128 0 237 -62.5t173 -172t64 -239.5q0 -196 -139 -335t-335 -139t-335 139t-139 335q0 130 64 239.5t173 172t237 62.5zM500 819q-181 0 -310 -128t-129 -311q0 -119 59 -220t160 -160t220 -59q182 0 310.5 128.5
t128.5 310.5q0 183 -129 311t-310 128zM175 664h183v-568h-78v490h-105v78z" />
    <glyph glyph-name="Japan1.7573" 
d="M476 251h75q-1 -50 15 -66.5t57 -16.5q55 0 68 29.5t15 145.5q-10 -12 -18 -18.5t-29.5 -13t-51.5 -6.5q-26 0 -46 6t-40.5 23.5t-32 54.5t-11.5 93q0 45 5 75.5t19.5 58t44 41t74.5 13.5q33 0 56.5 -5t41 -13.5t29 -26.5t18 -36t10 -51t4.5 -62.5t1 -78.5q0 -79 -2 -122
t-10.5 -85t-25.5 -60t-45.5 -29t-73.5 -11q-86 0 -116.5 41.5t-30.5 119.5zM628 381q47 0 62 25t15 90q0 59 -18.5 78t-58.5 19q-46 0 -61 -23t-15 -91q0 -62 18.5 -80t57.5 -18zM500 854q128 0 237 -62.5t173 -172t64 -239.5q0 -196 -139 -335t-335 -139t-335 139t-139 335
q0 130 64 239.5t173 172t237 62.5zM500 819q-181 0 -310 -128t-129 -311q0 -119 59 -220t160 -160t220 -59q182 0 310.5 128.5t128.5 310.5q0 183 -129 311t-310 128zM175 664h183v-568h-78v490h-105v78z" />
    <glyph glyph-name="Japan1.7574" 
d="M674 670q36 0 61.5 -6t43 -23t27 -36t14.5 -56.5t6.5 -73t1.5 -95.5q0 -59 -1.5 -94.5t-6.5 -72.5t-14.5 -56.5t-26.5 -36.5t-42 -23.5t-61 -6.5q-44 0 -72 10t-45 27.5t-25.5 56t-11 80.5t-2.5 116q0 73 2.5 114t10.5 80.5t25 57t44.5 28t71.5 10.5zM674 592
q-56 0 -68 -36.5t-12 -175.5q0 -140 12 -176t68 -36q55 0 67 36t12 176q0 139 -12 175.5t-67 36.5zM500 854q128 0 237 -62.5t173 -172t64 -239.5q0 -196 -139 -335t-335 -139t-335 139t-139 335q0 130 64 239.5t173 172t237 62.5zM500 819q-181 0 -310 -128t-129 -311
q0 -119 59 -220t160 -160t220 -59q182 0 310.5 128.5t128.5 310.5q0 183 -129 311t-310 128zM387 337l-75 -32q-26 -11 -37.5 -21t-18 -36t-6.5 -74h224v-78h-298q-1 104 5.5 152.5t27 74.5t66.5 45l67 27q34 14 47.5 34t13.5 67q0 53 -15.5 74.5t-59.5 21.5q-50 0 -63 -23
t-13 -79v-16h-73q-1 39 0.5 62.5t9 52t23 44t44 26.5t70.5 11q78 0 114.5 -33.5t36.5 -127.5q0 -75 -18 -112t-72 -60z" />
    <glyph glyph-name="Japan1.7575" 
d="M357 788h286v-96h-84v-596h84v-96h-286v96h84v596h-84v96z" />
    <glyph glyph-name="Japan1.7576" 
d="M213 788h574v-96h-77v-596h77v-96h-574v96h77v596h-77v96zM593 692h-186v-596h186v596z" />
    <glyph glyph-name="Japan1.7577" 
d="M143 788h714v-96h-75v-596h75v-96h-714v96h75v596h-75v96zM444 692h-114v-596h114v596zM670 692h-114v-596h114v596z" />
    <glyph glyph-name="Japan1.7578" 
d="M57 788h448v-96h-75l157 -566l154 566h-76v96h278v-96h-79l-203 -692h-148l-206 692h-57v-596h76v-96h-269v96h75v596h-75v96z" />
    <glyph glyph-name="Japan1.7579" 
d="M98 788h288v-96h-80l192 -583l197 583h-81v96h289v-96h-78l-251 -692h-152l-246 692h-78v96z" />
    <glyph glyph-name="Japan1.7580" 
d="M943 788v-96h-75v-596h75v-96h-269v96h76v596h-57l-206 -692h-148l-203 692h-79v96h278v-96h-76l154 -566l157 566h-75v96h448z" />
    <glyph glyph-name="Japan1.7581" 
d="M19 788h245v-96h-63l123 -589l127 589h-61v96h591v-96h-64v-596h64v-96h-427v96h60v596h-47l-165 -692h-156l-160 692h-67v96zM805 692h-79v-596h79v596z" />
    <glyph glyph-name="Japan1.7582" 
d="M17 788h197v-96h-44l107 -601l106 601h-44v96h644v-96h-52v-596h52v-96h-510v96h53v596h-40l-137 -692h-149l-132 692h-51v96zM681 692h-58v-596h58v596zM835 692h-58v-596h58v596z" />
    <glyph glyph-name="Japan1.7583" 
d="M78 788h462v-96h-60l111 -214l117 214h-62v96h267v-96h-76l-167 -292l177 -304h76v-96h-267v96h63l-129 233l-130 -233h64v-96h-447v96h71v596h-70v96zM351 692h-87v-596h67l184 306z" />
    <glyph glyph-name="Japan1.7584" 
d="M154 788h274v-96h-66l139 -221l137 221h-66v96h274v-96h-74l-191 -287l205 -309h79v-96h-277v96h64l-151 243l-153 -243h64v-96h-277v96h80l205 309l-191 287h-75v96z" />
    <glyph glyph-name="Japan1.8061" 
d="M846 127h120v-127h-120v127zM500 796q70 0 120 -8.5t87.5 -29t60.5 -50.5t37 -78.5t19.5 -106.5t5.5 -140q0 -114 -13 -183.5t-49.5 -119t-100.5 -69t-167 -19.5q-102 0 -164.5 18.5t-100.5 67.5t-51.5 122t-13.5 194q0 80 5.5 137t20.5 103.5t38 76t61 49.5t87.5 28
t117.5 8zM500 688q-59 0 -94 -7.5t-60 -23.5t-36.5 -52.5t-16 -84t-4.5 -128.5q0 -67 2.5 -108.5t11 -77.5t22.5 -54t39.5 -31t58.5 -17t84 -4q47 0 78 4.5t55 18t37 32.5t21 54t10.5 75.5t2.5 103.5q0 69 -2.5 113.5t-11.5 80.5t-22.5 54.5t-39 31.5t-56 16.5t-79.5 3.5z
" />
    <glyph glyph-name="Japan1.8062" 
d="M846 127h120v-127h-120v127zM325 788h272v-788h-119v680h-153v108z" />
    <glyph glyph-name="Japan1.8063" 
d="M846 127h120v-127h-120v127zM610 311l-191 -30q-31 -5 -49 -11t-37.5 -21t-28.5 -44.5t-9 -74.5v-22h526v-108h-645v87q0 46 2.5 77t13.5 72.5t32 68t60 49.5t95 31l195 29q71 11 101.5 38t30.5 97q0 74 -43 106.5t-152 32.5q-123 0 -163 -34t-40 -130h-118
q0 69 12.5 115t45.5 84t96.5 55.5t160.5 17.5q54 0 92.5 -3.5t84.5 -18t74.5 -40t48 -72.5t19.5 -113q0 -74 -22 -118t-65 -72q-59 -37 -127 -48z" />
    <glyph glyph-name="Japan1.8064" 
d="M846 127h120v-127h-120v127zM174 269h120v-40.5t3.5 -36.5t11 -31t22.5 -25.5t37 -19.5t55.5 -12t77.5 -4q113 0 159.5 26t46.5 103q0 27 -3.5 44t-17 39.5t-46.5 34t-85 11.5h-125v97h125q18 0 28.5 0.5t30 3.5t32 10.5t25.5 19t19.5 32t6.5 47.5q0 66 -40 93t-132 27
q-45 0 -79 -4.5t-56.5 -10.5t-38 -18t-23.5 -21.5t-12 -27.5t-5 -29t-1 -33h-119q2 66 18 112t41 73t68.5 42t88.5 20t113 5q29 0 46.5 -0.5t52 -4.5t57.5 -11.5t52 -23.5t46.5 -38t29.5 -57t12 -79q0 -140 -112 -171q122 -43 122 -187q0 -63 -21.5 -108.5t-51.5 -68.5
t-76.5 -36.5t-80.5 -16t-80 -2.5q-106 0 -173 15.5t-104.5 51.5t-51 85t-13.5 125z" />
    <glyph glyph-name="Japan1.8065" 
d="M846 127h120v-127h-120v127zM560 788h165v-508h131v-108h-131v-172h-119v172h-462v130zM606 280v406l-343 -406h343z" />
    <glyph glyph-name="Japan1.8066" 
d="M846 127h120v-127h-120v127zM208 788h584v-108h-473l-6 -212q19 16 36 26t67.5 22.5t118.5 12.5q65 0 113 -10.5t90 -38t63.5 -81t21.5 -132.5q0 -73 -14.5 -122t-50.5 -84.5t-99 -52t-159 -16.5q-174 0 -247 55.5t-76 197.5h119q0 -18 0.5 -27.5t2.5 -26t7.5 -25.5
t14.5 -21t24 -19t35 -13.5t49 -9.5t66 -3q118 0 164 31t46 120q0 34 -2 54t-12.5 46t-30 39t-57 23t-92.5 10q-58 0 -97 -6.5t-59.5 -19.5t-29.5 -23.5t-16 -27.5h-110z" />
    <glyph glyph-name="Japan1.8067" 
d="M846 127h120v-127h-120v127zM808 570h-117q0 17 -1 26t-5.5 26t-15.5 26.5t-29.5 20t-50.5 15.5t-75 5q-96 0 -136 -22t-55 -65q-26 -74 -23 -185q66 84 228 84q292 0 292 -248q0 -140 -74.5 -200.5t-243.5 -60.5q-99 0 -161 20.5t-98.5 70.5t-49.5 122.5t-13 188.5
q0 91 9.5 157.5t31 110t47.5 71t67.5 41t81.5 18t99 4.5q28 0 45.5 -0.5t52 -5t57.5 -12.5t51.5 -24.5t45.5 -40t29 -60t11 -83.5zM507 396q-64 0 -106 -11t-62.5 -33.5t-28 -47.5t-7.5 -61q0 -46 17 -76t49 -43.5t62.5 -18t73.5 -4.5q63 0 103 9t60 29.5t26.5 46t6.5 66.5
q0 35 -8 59.5t-28 44.5t-59.5 30t-98.5 10z" />
    <glyph glyph-name="Japan1.8068" 
d="M846 127h120v-127h-120v127zM173 788h654v-111l-384 -677h-144l403 680h-529v108z" />
    <glyph glyph-name="Japan1.8069" 
d="M295 410q-30 11 -52 32t-32 41t-16 45t-6.5 35t-0.5 20q0 42 12 76t30 55.5t46.5 37.5t54 24.5t60 13t57 5.5t52.5 1t52.5 -1t57 -5.5t60 -13t54 -24.5t46.5 -37.5t30 -55.5t12 -76q0 -13 -2.5 -29t-11 -46.5t-32.5 -57.5t-61 -40q43 -12 71 -40.5t38 -65t12.5 -55
t2.5 -36.5q0 -47 -13 -83.5t-37.5 -60t-54 -39.5t-69 -24t-75.5 -11t-80 -3q-54 0 -95.5 4t-87.5 18t-76.5 37t-50 64.5t-19.5 97.5q0 19 2 38t10 45t20.5 47t36 39.5t55.5 27.5zM500 692q-117 0 -156.5 -28t-39.5 -90q0 -32 11 -54t27.5 -34.5t45 -19.5t54.5 -8.5t65 -1.5
q105 0 147 27t42 95q0 62 -43 88t-153 26zM500 360q-122 0 -167.5 -29.5t-45.5 -104.5q0 -71 43.5 -100t169.5 -29q89 0 136 15.5t62 42t15 75.5q0 75 -48.5 102.5t-164.5 27.5zM846 127h120v-127h-120v127z" />
    <glyph glyph-name="Japan1.8070" 
d="M846 127h120v-127h-120v127zM174 228h118q0 -26 2 -41.5t12 -34.5t29.5 -29t56 -17t88.5 -7q95 0 140 18.5t63 68.5q26 71 23 185q-66 -84 -228 -84q-293 0 -293 250q0 142 77.5 200.5t241.5 58.5q99 0 160.5 -20t98 -70t50 -122t13.5 -188q0 -80 -8.5 -142t-22 -104.5
t-38.5 -72t-50 -46t-65.5 -25.5t-75.5 -11.5t-89 -2.5q-36 0 -60.5 1t-59 6t-58 14.5t-49 27t-41 42t-25.5 61.5t-10 84zM502 392q54 0 92.5 9.5t59 23.5t32 36.5t14 40.5t2.5 44q0 36 -11.5 62.5t-29.5 41.5t-46 23.5t-53.5 11t-59.5 2.5q-64 0 -104 -9t-60 -29.5t-27 -46
t-7 -67.5q0 -78 44.5 -110.5t153.5 -32.5z" />
    <glyph glyph-name="Japan1.8071" 
d="M192 857h42q-81 -100 -124.5 -223.5t-43.5 -253.5q0 -131 43.5 -254.5t124.5 -222.5h-42q-59 69 -97.5 150t-52 154.5t-17 108t-3.5 64.5t3.5 64.5t17 108t52 154.5t97.5 150zM766 857h42q59 -69 97.5 -150t52 -154.5t17 -108t3.5 -64.5t-3.5 -64.5t-17 -108t-52 -154.5
t-97.5 -150h-42q81 99 124.5 222.5t43.5 254.5q0 130 -43.5 253.5t-124.5 223.5zM360 684h195v-608h-83v526h-112v82z" />
    <glyph glyph-name="Japan1.8072" 
d="M192 857h42q-81 -100 -124.5 -223.5t-43.5 -253.5q0 -131 43.5 -254.5t124.5 -222.5h-42q-59 69 -97.5 150t-52 154.5t-17 108t-3.5 64.5t3.5 64.5t17 108t52 154.5t97.5 150zM766 857h42q59 -69 97.5 -150t52 -154.5t17 -108t3.5 -64.5t-3.5 -64.5t-17 -108t-52 -154.5
t-97.5 -150h-42q81 99 124.5 222.5t43.5 254.5q0 130 -43.5 253.5t-124.5 223.5zM568 333l-84 -33q-41 -16 -55 -41.5t-14 -100.5h249v-82h-330q-1 68 1 108t7.5 73.5t19 52t32 32t49.5 25.5l74 29q37 15 52.5 36t15.5 72q0 57 -17.5 80.5t-65.5 23.5q-56 0 -70 -24.5
t-14 -85.5v-17h-82q0 31 0.5 46.5t3.5 42t9 40.5t17.5 32t28.5 27t43.5 15.5t60.5 6.5q87 0 127 -35.5t40 -136.5q0 -83 -19.5 -123t-78.5 -63z" />
    <glyph glyph-name="Japan1.8073" 
d="M192 857h42q-81 -100 -124.5 -223.5t-43.5 -253.5q0 -131 43.5 -254.5t124.5 -222.5h-42q-59 69 -97.5 150t-52 154.5t-17 108t-3.5 64.5t3.5 64.5t17 108t52 154.5t97.5 150zM766 857h42q59 -69 97.5 -150t52 -154.5t17 -108t3.5 -64.5t-3.5 -64.5t-17 -108t-52 -154.5
t-97.5 -150h-42q81 99 124.5 222.5t43.5 254.5q0 130 -43.5 253.5t-124.5 223.5zM333 274h83q0 -31 0.5 -44.5t4 -32.5t12.5 -26t25.5 -13t41.5 -6q45 0 64.5 22t19.5 78q0 59 -20.5 78t-79.5 19h-45v79h49q22 0 34.5 2t28 9.5t23 25.5t7.5 48q0 22 -2 36t-9.5 29t-25 22.5
t-44.5 7.5q-24 0 -40 -6.5t-24 -14t-12 -25t-4.5 -28t-0.5 -34.5h-83q0 47 4.5 75t19.5 58t49.5 44t89.5 14q26 0 46 -2.5t43.5 -12t38.5 -26t25 -46.5t10 -71q0 -36 -4.5 -60t-23.5 -47.5t-53 -34.5q17 -4 27 -8.5t26 -19t24.5 -45t8.5 -75.5q0 -96 -39 -135t-126 -39
q-31 0 -55.5 3.5t-42 12.5t-29.5 17.5t-20 26t-12.5 29t-6.5 35.5t-2.5 38t-0.5 43z" />
    <glyph glyph-name="Japan1.8074" 
d="M496 684h115v-393h50v-83h-50v-132h-83v132h-221v98zM529 590l-145 -299h145v299zM192 857h42q-81 -100 -124.5 -223.5t-43.5 -253.5q0 -131 43.5 -254.5t124.5 -222.5h-42q-59 69 -97.5 150t-52 154.5t-17 108t-3.5 64.5t3.5 64.5t17 108t52 154.5t97.5 150zM766 857h42
q59 -69 97.5 -150t52 -154.5t17 -108t3.5 -64.5t-3.5 -64.5t-17 -108t-52 -154.5t-97.5 -150h-42q81 99 124.5 222.5t43.5 254.5q0 130 -43.5 253.5t-124.5 223.5z" />
    <glyph glyph-name="Japan1.8075" 
d="M192 857h42q-81 -100 -124.5 -223.5t-43.5 -253.5q0 -131 43.5 -254.5t124.5 -222.5h-42q-59 69 -97.5 150t-52 154.5t-17 108t-3.5 64.5t3.5 64.5t17 108t52 154.5t97.5 150zM766 857h42q59 -69 97.5 -150t52 -154.5t17 -108t3.5 -64.5t-3.5 -64.5t-17 -108t-52 -154.5
t-97.5 -150h-42q81 99 124.5 222.5t43.5 254.5q0 130 -43.5 253.5t-124.5 223.5zM346 684h310v-82h-228l-4 -151q40 33 98 33q39 0 67 -13.5t43 -32t23 -48.5t10 -52.5t2 -53.5q0 -54 -5 -87.5t-21.5 -65.5t-51.5 -47t-90 -15q-86 0 -125.5 41.5t-40.5 144.5h83q1 -33 3 -47
t10 -30t25 -21t46 -5q52 0 68 25.5t16 87.5q0 77 -15 107.5t-70 30.5q-74 0 -81 -63h-79z" />
    <glyph glyph-name="Japan1.8076" 
d="M662 519h-83q1 51 -15.5 69.5t-61.5 18.5q-39 0 -56.5 -13.5t-24 -51t-7.5 -122.5q12 12 20 19t32.5 14.5t57.5 7.5q28 0 49.5 -6t44.5 -24t36 -59t13 -102q0 -47 -5.5 -79t-20.5 -62t-47.5 -45t-82.5 -15q-36 0 -62.5 5.5t-46 14t-32.5 27.5t-20.5 38.5t-11.5 54.5
t-5 67.5t-1 84.5q0 84 2.5 130t11.5 91t27.5 65t49.5 32t80 12q42 0 72.5 -11t47 -26.5t25.5 -40.5t11.5 -45.5t2.5 -48.5zM500 379q-52 0 -68 -27t-16 -96q0 -64 20 -84t65 -20q52 0 68 24.5t16 97.5q0 67 -21 86t-64 19zM192 857h42q-81 -100 -124.5 -223.5t-43.5 -253.5
q0 -131 43.5 -254.5t124.5 -222.5h-42q-59 69 -97.5 150t-52 154.5t-17 108t-3.5 64.5t3.5 64.5t17 108t52 154.5t97.5 150zM766 857h42q59 -69 97.5 -150t52 -154.5t17 -108t3.5 -64.5t-3.5 -64.5t-17 -108t-52 -154.5t-97.5 -150h-42q81 99 124.5 222.5t43.5 254.5
q0 130 -43.5 253.5t-124.5 223.5z" />
    <glyph glyph-name="Japan1.8077" 
d="M192 857h42q-81 -100 -124.5 -223.5t-43.5 -253.5q0 -131 43.5 -254.5t124.5 -222.5h-42q-59 69 -97.5 150t-52 154.5t-17 108t-3.5 64.5t3.5 64.5t17 108t52 154.5t97.5 150zM766 857h42q59 -69 97.5 -150t52 -154.5t17 -108t3.5 -64.5t-3.5 -64.5t-17 -108t-52 -154.5
t-97.5 -150h-42q81 99 124.5 222.5t43.5 254.5q0 130 -43.5 253.5t-124.5 223.5zM323 660h354v-88l-198 -520h-92l207 526h-271v82z" />
    <glyph glyph-name="Japan1.8078" 
d="M415 391q-15 6 -23.5 11.5t-23 20t-21.5 40.5t-7 62q0 94 38.5 130t117.5 36q82 0 123 -33t41 -134q0 -37 -7 -62.5t-21 -39.5t-23 -19.5t-24 -11.5q12 -4 19.5 -7t21 -13.5t22 -25.5t15 -43t6.5 -64q0 -85 -37.5 -127t-129.5 -42q-82 0 -126.5 34.5t-44.5 131.5
q0 46 8 77.5t23.5 47t25.5 21t27 10.5zM500 609q-29 0 -46 -7t-24 -23t-8.5 -28.5t-1.5 -36.5q0 -18 1.5 -28t8 -25t24.5 -22.5t46 -7.5t45.5 6.5t24 22t8 27t1.5 35.5q0 21 -1.5 32.5t-8.5 26t-24.5 21.5t-44.5 7zM500 350q-54 0 -70 -26.5t-16 -82.5q0 -44 17 -67t69 -23
q30 0 48.5 7.5t26 23.5t9.5 29.5t2 37.5q0 51 -17 76t-69 25zM192 857h42q-81 -100 -124.5 -223.5t-43.5 -253.5q0 -131 43.5 -254.5t124.5 -222.5h-42q-59 69 -97.5 150t-52 154.5t-17 108t-3.5 64.5t3.5 64.5t17 108t52 154.5t97.5 150zM766 857h42q59 -69 97.5 -150
t52 -154.5t17 -108t3.5 -64.5t-3.5 -64.5t-17 -108t-52 -154.5t-97.5 -150h-42q81 99 124.5 222.5t43.5 254.5q0 130 -43.5 253.5t-124.5 223.5z" />
    <glyph glyph-name="Japan1.8079" 
d="M331 242h82q-1 -54 17 -71.5t63 -17.5q42 0 59.5 12.5t24.5 50t8 125.5q-12 -13 -20 -19.5t-32 -14t-58 -7.5q-28 0 -49.5 6t-44.5 24t-36 58.5t-13 101.5q0 48 5.5 80t21 62t48 44.5t82.5 14.5q36 0 62 -5.5t45.5 -14t32 -27.5t20.5 -38.5t12 -54.5t5 -68t1 -85
q0 -60 -1 -97t-5 -76.5t-11.5 -61t-19.5 -42.5t-31 -31t-45 -15.5t-61 -5.5q-51 0 -85 13.5t-50 39.5t-21.5 53.5t-5.5 66.5zM499 381q51 0 67.5 27t16.5 96q0 62 -20 83t-64 21q-52 0 -68.5 -24.5t-16.5 -97.5q0 -67 20.5 -86t64.5 -19zM192 857h42q-81 -100 -124.5 -223.5
t-43.5 -253.5q0 -131 43.5 -254.5t124.5 -222.5h-42q-59 69 -97.5 150t-52 154.5t-17 108t-3.5 64.5t3.5 64.5t17 108t52 154.5t97.5 150zM766 857h42q59 -69 97.5 -150t52 -154.5t17 -108t3.5 -64.5t-3.5 -64.5t-17 -108t-52 -154.5t-97.5 -150h-42q81 99 124.5 222.5
t43.5 254.5q0 130 -43.5 253.5t-124.5 223.5z" />
    <glyph glyph-name="Japan1.8080" 
d="M640 682q39 0 66.5 -6t46 -24t28.5 -37.5t15.5 -59t7 -76t1.5 -99.5q0 -54 -1 -87.5t-4.5 -69.5t-10.5 -56t-19 -39.5t-30 -29t-42.5 -15t-57.5 -5.5q-39 0 -66 6t-45.5 23t-29 37t-16 58.5t-7 76.5t-1.5 101t1.5 101t7 76.5t16 58.5t29 37t45.5 23t66 6zM640 601
q-59 0 -72 -38t-13 -183t13 -183t71 -38q59 0 72.5 38t13.5 183t-13 183t-72 38zM192 857h42q-81 -100 -124.5 -223.5t-43.5 -253.5q0 -131 43.5 -254.5t124.5 -222.5h-42q-59 69 -97.5 150t-52 154.5t-17 108t-3.5 64.5t3.5 64.5t17 108t52 154.5t97.5 150zM766 857h42
q59 -69 97.5 -150t52 -154.5t17 -108t3.5 -64.5t-3.5 -64.5t-17 -108t-52 -154.5t-97.5 -150h-42q81 99 124.5 222.5t43.5 254.5q0 130 -43.5 253.5t-124.5 223.5zM160 676h190v-592h-82v511h-108v81z" />
    <glyph glyph-name="Japan1.8081" 
d="M192 857h42q-81 -100 -124.5 -223.5t-43.5 -253.5q0 -131 43.5 -254.5t124.5 -222.5h-42q-59 69 -97.5 150t-52 154.5t-17 108t-3.5 64.5t3.5 64.5t17 108t52 154.5t97.5 150zM766 857h42q59 -69 97.5 -150t52 -154.5t17 -108t3.5 -64.5t-3.5 -64.5t-17 -108t-52 -154.5
t-97.5 -150h-42q81 99 124.5 222.5t43.5 254.5q0 130 -43.5 253.5t-124.5 223.5zM552 676h190v-592h-82v511h-108v81zM176 676h190v-592h-82v511h-108v81z" />
    <glyph glyph-name="Japan1.8082" 
d="M192 857h42q-81 -100 -124.5 -223.5t-43.5 -253.5q0 -131 43.5 -254.5t124.5 -222.5h-42q-59 69 -97.5 150t-52 154.5t-17 108t-3.5 64.5t3.5 64.5t17 108t52 154.5t97.5 150zM766 857h42q59 -69 97.5 -150t52 -154.5t17 -108t3.5 -64.5t-3.5 -64.5t-17 -108t-52 -154.5
t-97.5 -150h-42q81 99 124.5 222.5t43.5 254.5q0 130 -43.5 253.5t-124.5 223.5zM160 676h190v-592h-82v511h-108v81zM706 335l-82 -33q-40 -16 -53.5 -40t-12.5 -97h241v-81h-320q-1 156 16 205t89 78l73 29q36 14 50.5 35t14.5 70q0 55 -17 77.5t-63 22.5q-54 0 -68 -24
t-14 -82v-17h-79q0 41 1 63t9 53.5t24 47.5t47 28t77 12q85 0 123.5 -35t38.5 -133q0 -80 -18.5 -118t-76.5 -61z" />
    <glyph glyph-name="Japan1.8083" 
d="M192 857h42q-81 -100 -124.5 -223.5t-43.5 -253.5q0 -131 43.5 -254.5t124.5 -222.5h-42q-59 69 -97.5 150t-52 154.5t-17 108t-3.5 64.5t3.5 64.5t17 108t52 154.5t97.5 150zM766 857h42q59 -69 97.5 -150t52 -154.5t17 -108t3.5 -64.5t-3.5 -64.5t-17 -108t-52 -154.5
t-97.5 -150h-42q81 99 124.5 222.5t43.5 254.5q0 130 -43.5 253.5t-124.5 223.5zM160 676h190v-592h-82v511h-108v81zM478 277h81q-1 -23 -0.5 -42t4 -33t12 -23.5t24.5 -14.5t41 -5q45 0 63.5 21t18.5 75q0 58 -20 76.5t-77 18.5h-44v77h48q21 0 33 1.5t27 8.5t22 25t7 47
q0 22 -2 35.5t-9 28t-23.5 21.5t-43.5 7q-28 0 -45.5 -7.5t-24 -24.5t-7.5 -31t-1 -41h-82q0 36 2.5 58t11.5 49t25 42t46.5 25.5t74.5 10.5q32 0 55.5 -5t49 -19.5t39 -47t13.5 -81.5q0 -36 -4.5 -59t-22.5 -46t-52 -34q12 -3 20 -5.5t21.5 -11.5t21.5 -23t14.5 -40.5
t6.5 -62.5q0 -93 -38 -131t-122 -38q-27 0 -48.5 3.5t-37.5 8t-28.5 15t-20.5 18.5t-13.5 24.5t-8.5 27t-4.5 32t-2 33t-0.5 37.5z" />
    <glyph glyph-name="Japan1.8084" 
d="M652 676h112v-383h48v-80h-48v-129h-81v129h-215v96zM684 584l-141 -291h141v291zM192 857h42q-81 -100 -124.5 -223.5t-43.5 -253.5q0 -131 43.5 -254.5t124.5 -222.5h-42q-59 69 -97.5 150t-52 154.5t-17 108t-3.5 64.5t3.5 64.5t17 108t52 154.5t97.5 150zM766 857h42
q59 -69 97.5 -150t52 -154.5t17 -108t3.5 -64.5t-3.5 -64.5t-17 -108t-52 -154.5t-97.5 -150h-42q81 99 124.5 222.5t43.5 254.5q0 130 -43.5 253.5t-124.5 223.5zM160 676h190v-592h-82v511h-108v81z" />
    <glyph glyph-name="Japan1.8085" 
d="M192 857h42q-81 -100 -124.5 -223.5t-43.5 -253.5q0 -131 43.5 -254.5t124.5 -222.5h-42q-59 69 -97.5 150t-52 154.5t-17 108t-3.5 64.5t3.5 64.5t17 108t52 154.5t97.5 150zM766 857h42q59 -69 97.5 -150t52 -154.5t17 -108t3.5 -64.5t-3.5 -64.5t-17 -108t-52 -154.5
t-97.5 -150h-42q81 99 124.5 222.5t43.5 254.5q0 130 -43.5 253.5t-124.5 223.5zM160 676h190v-592h-82v511h-108v81zM491 676h300v-81h-221l-4 -146q38 31 96 31q38 0 65 -13t41.5 -31t22.5 -47t9.5 -50.5t1.5 -51.5q0 -41 -2.5 -68.5t-12 -56.5t-26.5 -45.5t-47.5 -27.5
t-74.5 -11q-84 0 -122 40.5t-39 140.5h80q1 -26 2 -37t5.5 -26.5t13 -21.5t23.5 -10.5t38 -4.5q51 0 66 24t15 85q0 75 -14 104.5t-68 29.5q-24 0 -41 -6.5t-24.5 -18.5t-9.5 -18.5t-4 -17.5h-76z" />
    <glyph glyph-name="Japan1.8086" 
d="M797 515h-80q1 50 -15 68t-60 18q-55 0 -69.5 -31.5t-15.5 -151.5q35 40 107 40q27 0 48 -6t43 -23.5t34.5 -57t12.5 -98.5q0 -46 -5 -77.5t-20 -60t-47 -43t-80 -14.5q-49 0 -80.5 10.5t-50.5 28t-28 56.5t-11.5 78t-2.5 111q0 58 1 93t4.5 73.5t10.5 59.5t18.5 42
t30 30.5t43 15.5t58.5 6q51 0 83.5 -14t47 -41.5t19 -52t4.5 -59.5zM640 379q-49 0 -65 -26t-16 -93q0 -61 19.5 -81t62.5 -20q50 0 65.5 23.5t15.5 94.5q0 65 -20 83.5t-62 18.5zM192 857h42q-81 -100 -124.5 -223.5t-43.5 -253.5q0 -131 43.5 -254.5t124.5 -222.5h-42
q-59 69 -97.5 150t-52 154.5t-17 108t-3.5 64.5t3.5 64.5t17 108t52 154.5t97.5 150zM766 857h42q59 -69 97.5 -150t52 -154.5t17 -108t3.5 -64.5t-3.5 -64.5t-17 -108t-52 -154.5t-97.5 -150h-42q81 99 124.5 222.5t43.5 254.5q0 130 -43.5 253.5t-124.5 223.5zM160 676
h190v-592h-82v511h-108v81z" />
    <glyph glyph-name="Japan1.8087" 
d="M192 857h42q-81 -100 -124.5 -223.5t-43.5 -253.5q0 -131 43.5 -254.5t124.5 -222.5h-42q-59 69 -97.5 150t-52 154.5t-17 108t-3.5 64.5t3.5 64.5t17 108t52 154.5t97.5 150zM766 857h42q59 -69 97.5 -150t52 -154.5t17 -108t3.5 -64.5t-3.5 -64.5t-17 -108t-52 -154.5
t-97.5 -150h-42q81 99 124.5 222.5t43.5 254.5q0 130 -43.5 253.5t-124.5 223.5zM176 676h190v-592h-82v511h-108v81zM484 676h344v-87l-193 -505h-89l202 511h-264v81z" />
    <glyph glyph-name="Japan1.8088" 
d="M558 391q-19 8 -31.5 16t-27 38t-14.5 76q0 92 37 126.5t114 34.5q79 0 119 -32t40 -130q0 -36 -7 -61t-20 -38.5t-22.5 -19t-23.5 -10.5q15 -5 25 -10t25.5 -20t23.5 -45t8 -74q0 -83 -36 -123.5t-126 -40.5q-37 0 -64.5 6t-52 22.5t-37 50t-12.5 83.5q0 45 8 75.5
t23 45.5t25 20.5t26 9.5zM640 602q-28 0 -44.5 -6.5t-23 -22.5t-8 -27.5t-1.5 -35.5q0 -17 1.5 -27t8 -25t23.5 -22t44 -7q28 0 44.5 6.5t23 21.5t8 26.5t1.5 34.5q0 20 -1.5 31.5t-8.5 25.5t-23.5 20.5t-43.5 6.5zM640 351q-52 0 -68 -25.5t-16 -80.5q0 -42 16.5 -64.5
t67.5 -22.5q29 0 47 7.5t25.5 22.5t9.5 28.5t2 36.5q0 50 -17 74t-67 24zM192 857h42q-81 -100 -124.5 -223.5t-43.5 -253.5q0 -131 43.5 -254.5t124.5 -222.5h-42q-59 69 -97.5 150t-52 154.5t-17 108t-3.5 64.5t3.5 64.5t17 108t52 154.5t97.5 150zM766 857h42
q59 -69 97.5 -150t52 -154.5t17 -108t3.5 -64.5t-3.5 -64.5t-17 -108t-52 -154.5t-97.5 -150h-42q81 99 124.5 222.5t43.5 254.5q0 130 -43.5 253.5t-124.5 223.5zM160 676h190v-592h-82v511h-108v81z" />
    <glyph glyph-name="Japan1.8089" 
d="M476 246h80q-2 -53 15.5 -69.5t61.5 -16.5q41 0 57.5 12t23.5 48.5t8 121.5q-35 -40 -106 -40q-28 0 -49 6t-43 23.5t-34.5 57t-12.5 98.5q0 46 5 77.5t20.5 60t47 43t80.5 14.5t80 -10.5t50 -28t28 -56t11.5 -78t2.5 -111.5q0 -59 -1 -95t-4.5 -74.5t-11 -59.5t-19 -41
t-30.5 -29.5t-43.5 -15t-59.5 -5.5q-50 0 -83 13t-48.5 39t-20.5 52t-5 64zM639 381q50 0 65.5 26t15.5 93q0 61 -19.5 81t-61.5 20q-50 0 -66 -23.5t-16 -94.5q0 -65 20 -83.5t62 -18.5zM192 857h42q-81 -100 -124.5 -223.5t-43.5 -253.5q0 -131 43.5 -254.5t124.5 -222.5
h-42q-59 69 -97.5 150t-52 154.5t-17 108t-3.5 64.5t3.5 64.5t17 108t52 154.5t97.5 150zM766 857h42q59 -69 97.5 -150t52 -154.5t17 -108t3.5 -64.5t-3.5 -64.5t-17 -108t-52 -154.5t-97.5 -150h-42q81 99 124.5 222.5t43.5 254.5q0 130 -43.5 253.5t-124.5 223.5z
M160 676h190v-592h-82v511h-108v81z" />
    <glyph glyph-name="Japan1.8090" 
d="M688 682q39 0 66.5 -6t46 -24t28.5 -37.5t15.5 -59t7 -76t1.5 -99.5q0 -54 -1 -87.5t-4.5 -69.5t-10.5 -56t-19 -39.5t-30 -29t-42.5 -15t-57.5 -5.5q-39 0 -66 6t-45.5 23t-29 37t-16 58.5t-7 76.5t-1.5 101t1.5 101t7 76.5t16 58.5t29 37t45.5 23t66 6zM688 601
q-59 0 -72 -38t-13 -183t13 -183t71 -38q59 0 72.5 38t13.5 183t-13 183t-72 38zM192 857h42q-81 -100 -124.5 -223.5t-43.5 -253.5q0 -131 43.5 -254.5t124.5 -222.5h-42q-59 69 -97.5 150t-52 154.5t-17 108t-3.5 64.5t3.5 64.5t17 108t52 154.5t97.5 150zM766 857h42
q59 -69 97.5 -150t52 -154.5t17 -108t3.5 -64.5t-3.5 -64.5t-17 -108t-52 -154.5t-97.5 -150h-42q81 99 124.5 222.5t43.5 254.5q0 130 -43.5 253.5t-124.5 223.5zM378 335l-82 -33q-40 -16 -53.5 -40t-12.5 -97h241v-81h-320q-1 156 16 205t89 78l73 29q36 14 50.5 35
t14.5 70q0 55 -17 77.5t-63 22.5q-54 0 -68 -24t-14 -82v-17h-79q0 41 1 63t9 53.5t24 47.5t47 28t77 12q85 0 123.5 -35t38.5 -133q0 -80 -18.5 -118t-76.5 -61z" />
    <glyph glyph-name="Japan1.8091" 
d="M500 854q128 0 237 -62.5t173 -172t64 -239.5q0 -196 -139 -335t-335 -139t-335 139t-139 335q0 130 64 239.5t173 172t237 62.5zM500 819q-181 0 -310 -128t-129 -311q0 -119 59 -220t160 -160t220 -59q182 0 310.5 128.5t128.5 310.5q0 183 -129 311t-310 128zM403 337
l-75 -32q-26 -11 -37.5 -21t-18 -36t-6.5 -74h224v-78h-298q-1 104 5.5 152.5t27 74.5t66.5 45l67 27q34 14 47.5 34t13.5 67q0 53 -15.5 74.5t-59.5 21.5q-50 0 -63 -23t-13 -79v-16h-73q-1 39 0.5 62.5t9 52t23 44t44 26.5t70.5 11q78 0 114.5 -33.5t36.5 -127.5
q0 -75 -18 -112t-72 -60zM575 664h182v-568h-78v490h-104v78z" />
    <glyph glyph-name="Japan1.8092" 
d="M444 589h112v-589h-112v589zM438 788h124v-116h-124v116z" />
    <glyph glyph-name="Japan1.8093" 
d="M310 589h111v-589h-111v589zM304 788h123v-116h-123v116zM579 589h111v-589h-111v589zM573 788h123v-116h-123v116z" />
    <glyph glyph-name="Japan1.8094" 
d="M446 589h108v-589h-108v589zM440 788h120v-116h-120v116zM228 788h120v-116h-120v116zM234 589h109v-589h-109v589zM652 788h120v-116h-120v116zM657 589h109v-589h-109v589z" />
    <glyph glyph-name="Japan1.8095" 
d="M202 788h123v-116h-123v116zM208 589h111v-589h-111v589zM358 589h117l93 -324l44 -156l43 156l93 324h117l-185 -589h-137z" />
    <glyph glyph-name="Japan1.8096" 
d="M204 589h122l174 -484l174 484h122l-227 -589h-138z" />
    <glyph glyph-name="Japan1.8097" 
d="M681 589h111v-589h-111v589zM675 788h123v-116h-123v116zM135 589h117l93 -324l43 -156l44 156l93 324h117l-185 -589h-137z" />
    <glyph glyph-name="Japan1.8098" 
d="M94 589h115l75 -312l36 -166l37 166l75 312h115l-159 -589h-136zM574 589h109v-589h-109v589zM569 788h120v-116h-120v116zM747 589h109v-589h-109v589zM741 788h120v-116h-120v116z" />
    <glyph glyph-name="Japan1.8099" 
d="M77 589h111l63 -301l28 -174l28 174l63 301h111l-133 -589h-138zM647 589h93v-589h-93v589zM782 589h94v-589h-94v589zM509 589h94v-589h-94v589zM640 788h107v-116h-107v116zM776 788h107v-116h-107v116zM503 788h106v-116h-106v116z" />
    <glyph glyph-name="Japan1.8100" 
d="M206 788h122v-116h-122v116zM212 589h110v-589h-110v589zM369 589h124l118 -219l118 219h124l-154 -280l173 -309h-129l-132 253l-132 -253h-129l174 309z" />
    <glyph glyph-name="Japan1.8101" 
d="M227 589h131l143 -225l146 225h131l-187 -279l201 -310h-132l-159 255l-160 -255h-133l205 311z" />
    <glyph glyph-name="Japan1.8102" 
d="M500 854q128 0 237 -62.5t173 -172t64 -239.5q0 -196 -139 -335t-335 -139t-335 139t-139 335q0 130 64 239.5t173 172t237 62.5zM500 819q-181 0 -310 -128t-129 -311q0 -119 59 -220t160 -160t220 -59q182 0 310.5 128.5t128.5 310.5q0 183 -129 311t-310 128zM387 337
l-75 -32q-26 -11 -37.5 -21t-18 -36t-6.5 -74h224v-78h-298q-1 104 5.5 152.5t27 74.5t66.5 45l67 27q34 14 47.5 34t13.5 67q0 53 -15.5 74.5t-59.5 21.5q-50 0 -63 -23t-13 -79v-16h-73q-1 39 0.5 62.5t9 52t23 44t44 26.5t70.5 11q78 0 114.5 -33.5t36.5 -127.5
q0 -75 -18 -112t-72 -60zM735 337l-76 -32q-26 -11 -37.5 -21t-18 -36t-6.5 -74h225v-78h-299q-1 104 5.5 152.5t27 74.5t66.5 45l67 27q34 14 47.5 34t13.5 67q0 53 -15.5 74.5t-58.5 21.5q-51 0 -64 -23t-13 -79v-16h-73q-1 39 0.5 62.5t9 52t23 44t44 26.5t70.5 11
q78 0 114.5 -33.5t36.5 -127.5q0 -76 -17.5 -112.5t-71.5 -59.5z" />
    <glyph glyph-name="Japan1.8103" 
d="M500 854q128 0 237 -62.5t173 -172t64 -239.5q0 -196 -139 -335t-335 -139t-335 139t-139 335q0 130 64 239.5t173 172t237 62.5zM500 819q-181 0 -310 -128t-129 -311q0 -119 59 -220t160 -160t220 -59q182 0 310.5 128.5t128.5 310.5q0 183 -129 311t-310 128zM387 337
l-75 -32q-26 -11 -37.5 -21t-18 -36t-6.5 -74h224v-78h-298q-1 104 5.5 152.5t27 74.5t66.5 45l67 27q34 14 47.5 34t13.5 67q0 53 -15.5 74.5t-59.5 21.5q-50 0 -63 -23t-13 -79v-16h-73q-1 39 0.5 62.5t9 52t23 44t44 26.5t70.5 11q78 0 114.5 -33.5t36.5 -127.5
q0 -75 -18 -112t-72 -60zM523 281h75q-1 -28 0 -49t7.5 -35.5t22.5 -22t45 -7.5q41 0 59 20t18 73q0 55 -18.5 73t-72.5 18h-41v74h45q20 0 31 1.5t25 8.5t20.5 24t6.5 44q0 21 -1.5 33.5t-8 27t-22 21.5t-40.5 7q-21 0 -36 -6t-22 -13.5t-11 -22.5t-4 -26v-32h-76
q0 44 4.5 72t18.5 54.5t45 39t80 12.5q29 0 50 -4.5t45.5 -17.5t38 -45t13.5 -80q0 -53 -14 -85.5t-59 -47.5q14 -3 23.5 -7.5t24 -18t22 -42t7.5 -70.5q0 -89 -34.5 -125.5t-113.5 -36.5q-32 0 -56.5 5.5t-40.5 13t-27 23t-16.5 28t-8.5 36.5t-3.5 39.5t-0.5 45.5z" />
    <glyph glyph-name="Japan1.8104" 
d="M685 664h104v-367h45v-77h-45v-124h-75v124h-201v91zM714 576l-131 -279h131v279zM500 854q128 0 237 -62.5t173 -172t64 -239.5q0 -196 -139 -335t-335 -139t-335 139t-139 335q0 130 64 239.5t173 172t237 62.5zM500 819q-181 0 -310 -128t-129 -311q0 -119 59 -220
t160 -160t220 -59q182 0 310.5 128.5t128.5 310.5q0 183 -129 311t-310 128zM387 337l-75 -32q-26 -11 -37.5 -21t-18 -36t-6.5 -74h224v-78h-298q-1 104 5.5 152.5t27 74.5t66.5 45l67 27q34 14 47.5 34t13.5 67q0 53 -15.5 74.5t-59.5 21.5q-50 0 -63 -23t-13 -79v-16h-73
q-1 39 0.5 62.5t9 52t23 44t44 26.5t70.5 11q78 0 114.5 -33.5t36.5 -127.5q0 -75 -18 -112t-72 -60z" />
    <glyph glyph-name="Japan1.8105" 
d="M500 854q128 0 237 -62.5t173 -172t64 -239.5q0 -196 -139 -335t-335 -139t-335 139t-139 335q0 130 64 239.5t173 172t237 62.5zM500 819q-181 0 -310 -128t-129 -311q0 -119 59 -220t160 -160t220 -59q182 0 310.5 128.5t128.5 310.5q0 183 -129 311t-310 128zM387 337
l-75 -32q-26 -11 -37.5 -21t-18 -36t-6.5 -74h224v-78h-298q-1 104 5.5 152.5t27 74.5t66.5 45l67 27q34 14 47.5 34t13.5 67q0 53 -15.5 74.5t-59.5 21.5q-50 0 -63 -23t-13 -79v-16h-73q-1 39 0.5 62.5t9 52t23 44t44 26.5t70.5 11q78 0 114.5 -33.5t36.5 -127.5
q0 -75 -18 -112t-72 -60zM535 664h279v-78h-206l-3 -140q34 30 89 30q36 0 61 -12.5t38.5 -30t20.5 -45.5t8.5 -48.5t1.5 -48.5q0 -40 -2.5 -66t-11 -54t-24.5 -44t-44 -26.5t-69 -10.5q-74 0 -112.5 37t-37.5 136h75q0 -28 1.5 -42t9 -28.5t23 -20t42.5 -5.5q47 0 61 24
t14 83q0 37 -1.5 55.5t-9 37.5t-23 26.5t-42.5 7.5q-67 0 -74 -59h-71z" />
    <glyph glyph-name="Japan1.8106" 
d="M820 509h-75q1 49 -14.5 66t-55.5 17q-51 0 -64.5 -30.5t-14.5 -144.5q10 12 18 18.5t29.5 13t52.5 6.5q26 0 45.5 -6t40 -23t32 -54.5t11.5 -93.5q0 -92 -28.5 -140t-114.5 -48q-46 0 -75 10t-46.5 27t-26 54.5t-10.5 75.5t-2 107q0 48 0.5 79t3 65t7 53.5t12.5 40.5
t19 32t27 20t37 12.5t49 3.5q38 0 65.5 -10.5t42.5 -25.5t23 -38.5t10 -42t2 -44.5zM674 379q-47 0 -61.5 -25t-14.5 -89q0 -59 18.5 -78.5t57.5 -19.5q47 0 61.5 23t14.5 92q0 62 -18.5 79.5t-57.5 17.5zM500 854q128 0 237 -62.5t173 -172t64 -239.5q0 -196 -139 -335
t-335 -139t-335 139t-139 335q0 130 64 239.5t173 172t237 62.5zM500 819q-181 0 -310 -128t-129 -311q0 -119 59 -220t160 -160t220 -59q182 0 310.5 128.5t128.5 310.5q0 183 -129 311t-310 128zM387 337l-75 -32q-26 -11 -37.5 -21t-18 -36t-6.5 -74h224v-78h-298
q-1 104 5.5 152.5t27 74.5t66.5 45l67 27q34 14 47.5 34t13.5 67q0 53 -15.5 74.5t-59.5 21.5q-50 0 -63 -23t-13 -79v-16h-73q-1 39 0.5 62.5t9 52t23 44t44 26.5t70.5 11q78 0 114.5 -33.5t36.5 -127.5q0 -75 -18 -112t-72 -60z" />
    <glyph glyph-name="Japan1.8107" 
d="M387 337l-75 -32q-26 -11 -37.5 -21t-18 -36t-6.5 -74h224v-78h-298q-1 104 5.5 152.5t27 74.5t66.5 45l67 27q34 14 47.5 34t13.5 67q0 53 -15.5 74.5t-59.5 21.5q-50 0 -63 -23t-13 -79v-16h-73q-1 39 0.5 62.5t9 52t23 44t44 26.5t70.5 11q78 0 114.5 -33.5
t36.5 -127.5q0 -75 -18 -112t-72 -60zM513 664h321v-83l-180 -485h-83l188 490h-246v78zM500 854q128 0 237 -62.5t173 -172t64 -239.5q0 -196 -139 -335t-335 -139t-335 139t-139 335q0 130 64 239.5t173 172t237 62.5zM500 819q-181 0 -310 -128t-129 -311q0 -119 59 -220
t160 -160t220 -59q182 0 310.5 128.5t128.5 310.5q0 183 -129 311t-310 128z" />
    <glyph glyph-name="Japan1.8108" 
d="M597 390q-18 8 -29.5 15.5t-25 36.5t-13.5 73q0 88 35 121.5t106 33.5q74 0 111 -31t37 -125q0 -34 -6 -57.5t-19 -37t-21 -18.5t-22 -11q14 -4 23 -9t23.5 -19t22 -43.5t7.5 -71.5q0 -81 -34 -119t-116 -38q-74 0 -114.5 32.5t-40.5 122.5q0 43 7.5 73t22 44t23.5 19
t23 9zM673 593q-21 0 -35 -5.5t-21 -12t-10.5 -20.5t-4 -23t-0.5 -27q0 -17 1.5 -26.5t7.5 -23.5t22 -21t41 -7t40.5 6.5t21.5 21t7.5 25.5t1.5 33q0 19 -1.5 29.5t-7.5 24t-22 20t-41 6.5zM674 352q-49 0 -63.5 -24.5t-14.5 -77.5q0 -41 15.5 -62t62.5 -21q27 0 43.5 7
t23 21.5t8.5 27.5t2 35q0 48 -15 71t-62 23zM500 854q128 0 237 -62.5t173 -172t64 -239.5q0 -196 -139 -335t-335 -139t-335 139t-139 335q0 130 64 239.5t173 172t237 62.5zM500 819q-181 0 -310 -128t-129 -311q0 -119 59 -220t160 -160t220 -59q182 0 310.5 128.5
t128.5 310.5q0 183 -129 311t-310 128zM387 337l-75 -32q-26 -11 -37.5 -21t-18 -36t-6.5 -74h224v-78h-298q-1 104 5.5 152.5t27 74.5t66.5 45l67 27q34 14 47.5 34t13.5 67q0 53 -15.5 74.5t-59.5 21.5q-50 0 -63 -23t-13 -79v-16h-73q-1 39 0.5 62.5t9 52t23 44t44 26.5
t70.5 11q78 0 114.5 -33.5t36.5 -127.5q0 -75 -18 -112t-72 -60z" />
    <glyph glyph-name="Japan1.8109" 
d="M520 251h75q-1 -50 15 -66.5t57 -16.5q55 0 68 29.5t15 145.5q-10 -12 -18 -18.5t-29.5 -13t-51.5 -6.5q-26 0 -46 6t-40.5 23.5t-32 54.5t-11.5 93q0 45 5 75.5t19.5 58t44 41t74.5 13.5q33 0 56.5 -5t41 -13.5t29 -26.5t18 -36t10 -51t4.5 -62.5t1 -78.5q0 -79 -2 -122
t-10.5 -85t-25.5 -60t-45.5 -29t-73.5 -11q-86 0 -116.5 41.5t-30.5 119.5zM387 337l-75 -32q-26 -11 -37.5 -21t-18 -36t-6.5 -74h224v-78h-298q-1 104 5.5 152.5t27 74.5t66.5 45l67 27q34 14 47.5 34t13.5 67q0 53 -15.5 74.5t-59.5 21.5q-50 0 -63 -23t-13 -79v-16h-73
q-1 39 0.5 62.5t9 52t23 44t44 26.5t70.5 11q78 0 114.5 -33.5t36.5 -127.5q0 -75 -18 -112t-72 -60zM672 381q47 0 62 25t15 90q0 59 -18.5 78t-58.5 19q-46 0 -61 -23t-15 -91q0 -62 18.5 -80t57.5 -18zM500 854q128 0 237 -62.5t173 -172t64 -239.5q0 -196 -139 -335
t-335 -139t-335 139t-139 335q0 130 64 239.5t173 172t237 62.5zM500 819q-181 0 -310 -128t-129 -311q0 -119 59 -220t160 -160t220 -59q182 0 310.5 128.5t128.5 310.5q0 183 -129 311t-310 128z" />
    <glyph glyph-name="Japan1.8110" 
d="M674 670q36 0 61.5 -6t43 -23t27 -36t14.5 -56.5t6.5 -73t1.5 -95.5q0 -59 -1.5 -94.5t-6.5 -72.5t-14.5 -56.5t-26.5 -36.5t-42 -23.5t-61 -6.5q-44 0 -72 10t-45 27.5t-25.5 56t-11 80.5t-2.5 116q0 73 2.5 114t10.5 80.5t25 57t44.5 28t71.5 10.5zM674 592
q-56 0 -68 -36.5t-12 -175.5q0 -140 12 -176t68 -36q55 0 67 36t12 176q0 139 -12 175.5t-67 36.5zM500 854q128 0 237 -62.5t173 -172t64 -239.5q0 -196 -139 -335t-335 -139t-335 139t-139 335q0 130 64 239.5t173 172t237 62.5zM500 819q-181 0 -310 -128t-129 -311
q0 -119 59 -220t160 -160t220 -59q182 0 310.5 128.5t128.5 310.5q0 183 -129 311t-310 128zM175 281h76q-1 -28 0 -49t7.5 -35.5t22.5 -22t45 -7.5q41 0 59 20t18 73q0 55 -18.5 73t-72.5 18h-41v74h45q19 0 30.5 1.5t25.5 8.5t20.5 24t6.5 44q0 21 -1.5 33.5t-8 27
t-22 21.5t-40.5 7q-21 0 -36 -6t-22 -13.5t-11 -22.5t-4 -26v-32h-76q0 44 4.5 72t18.5 54.5t45 39t80 12.5q29 0 50 -4.5t45.5 -17.5t38 -45t13.5 -80q0 -34 -4 -56.5t-21 -44.5t-49 -32q15 -3 24.5 -7.5t24 -18t22 -42t7.5 -70.5q0 -89 -35 -125.5t-114 -36.5
q-44 0 -73.5 10.5t-45 24t-23.5 43.5t-9.5 50.5t-1.5 62.5z" />
    <glyph glyph-name="Japan1.8111" 
d="M500 854q128 0 237 -62.5t173 -172t64 -239.5q0 -196 -139 -335t-335 -139t-335 139t-139 335q0 130 64 239.5t173 172t237 62.5zM500 819q-181 0 -310 -128t-129 -311q0 -119 59 -220t160 -160t220 -59q182 0 310.5 128.5t128.5 310.5q0 183 -129 311t-310 128zM191 281
h76q-1 -28 0 -49t7.5 -35.5t22.5 -22t45 -7.5q41 0 59 20t18 73q0 55 -18.5 73t-72.5 18h-41v74h45q19 0 30.5 1.5t25.5 8.5t20.5 24t6.5 44q0 21 -1.5 33.5t-8 27t-22 21.5t-40.5 7q-21 0 -36 -6t-22 -13.5t-11 -22.5t-4 -26v-32h-76q0 44 4.5 72t18.5 54.5t45 39t80 12.5
q29 0 50 -4.5t45.5 -17.5t38 -45t13.5 -80q0 -34 -4 -56.5t-21 -44.5t-49 -32q15 -3 24.5 -7.5t24 -18t22 -42t7.5 -70.5q0 -89 -35 -125.5t-114 -36.5q-44 0 -73.5 10.5t-45 24t-23.5 43.5t-9.5 50.5t-1.5 62.5zM575 664h182v-568h-78v490h-104v78z" />
    <glyph glyph-name="Japan1.8112" 
d="M744 478v-248q0 -71 14 -112h-100q-7 27 -8 61q-24 -40 -65 -53t-130 -13q-36 0 -58.5 1.5t-55 10t-51.5 24t-33 46.5t-14 75q0 156 154 162l198 8q16 1 25 3t17 13.5t8 32.5q0 42 -32 54t-112 12q-76 0 -104.5 -14.5t-30.5 -60.5h-104q1 51 18.5 85t52 51.5t73.5 24
t93 6.5q138 0 191.5 -37.5t53.5 -131.5zM646 314v60q-17 -21 -53 -21l-161 -6q-50 -2 -69 -21.5t-19 -54.5q0 -39 31.5 -53t98.5 -14q172 0 172 110zM192 857h42q-81 -100 -124.5 -223.5t-43.5 -253.5q0 -131 43.5 -254.5t124.5 -222.5h-42q-59 69 -97.5 150t-52 154.5
t-17 108t-3.5 64.5t3.5 64.5t17 108t52 154.5t97.5 150zM766 857h42q59 -69 97.5 -150t52 -154.5t17 -108t3.5 -64.5t-3.5 -64.5t-17 -108t-52 -154.5t-97.5 -150h-42q81 99 124.5 222.5t43.5 254.5q0 130 -43.5 253.5t-124.5 223.5z" />
    <glyph glyph-name="Japan1.8113" 
d="M274 736h103v-228q30 35 69 48t96 13q59 0 102 -14.5t67.5 -37t38.5 -59t18.5 -71.5t4.5 -83t-3.5 -81.5t-17 -71.5t-37 -61t-67.5 -38.5t-106 -15.5q-71 0 -107.5 17t-59.5 47l-5 -56h-96v692zM522 476q-85 0 -115 -38.5t-30 -138.5q0 -98 31.5 -134t114.5 -36
q41 0 68.5 9t43 21.5t23 39t9 49t1.5 62.5q0 89 -28 127.5t-118 38.5zM192 857h42q-81 -100 -124.5 -223.5t-43.5 -253.5q0 -131 43.5 -254.5t124.5 -222.5h-42q-59 69 -97.5 150t-52 154.5t-17 108t-3.5 64.5t3.5 64.5t17 108t52 154.5t97.5 150zM766 857h42
q59 -69 97.5 -150t52 -154.5t17 -108t3.5 -64.5t-3.5 -64.5t-17 -108t-52 -154.5t-97.5 -150h-42q81 99 124.5 222.5t43.5 254.5q0 130 -43.5 253.5t-124.5 223.5z" />
    <glyph glyph-name="Japan1.8114" 
d="M746 451h-103q-1 33 -11.5 53.5t-32.5 30t-43 12t-56 2.5q-47 0 -72 -4t-47 -20.5t-30.5 -50t-8.5 -90.5q0 -102 28.5 -137.5t124.5 -35.5q32 0 50.5 1t40.5 7t33 17t19.5 31.5t9.5 50.5h103q-4 -115 -58.5 -160t-186.5 -45q-155 0 -211.5 55.5t-56.5 211.5q0 151 54 209
t206 58q25 0 41.5 -0.5t45.5 -4.5t48.5 -11t43 -21.5t37.5 -34.5t23.5 -52t8.5 -72zM192 857h42q-81 -100 -124.5 -223.5t-43.5 -253.5q0 -131 43.5 -254.5t124.5 -222.5h-42q-59 69 -97.5 150t-52 154.5t-17 108t-3.5 64.5t3.5 64.5t17 108t52 154.5t97.5 150zM766 857h42
q59 -69 97.5 -150t52 -154.5t17 -108t3.5 -64.5t-3.5 -64.5t-17 -108t-52 -154.5t-97.5 -150h-42q81 99 124.5 222.5t43.5 254.5q0 130 -43.5 253.5t-124.5 223.5z" />
    <glyph glyph-name="Japan1.8115" 
d="M623 736h102v-692h-96l-6 56q-15 -19 -28.5 -30t-50.5 -22.5t-90 -11.5q-71 0 -118 21t-70 61.5t-31 84t-8 104.5q0 132 50.5 197t178.5 65q72 0 108 -16.5t59 -44.5v228zM476 476q-50 0 -80.5 -11.5t-44 -39t-17 -55t-3.5 -78.5q0 -88 27 -126t119 -38q40 0 68 9.5
t43 23.5t23 40.5t10 49.5t2 61q0 93 -32.5 128.5t-114.5 35.5zM766 857h42q59 -69 97.5 -150t52 -154.5t17 -108t3.5 -64.5t-3.5 -64.5t-17 -108t-52 -154.5t-97.5 -150h-42q81 99 124.5 222.5t43.5 254.5q0 130 -43.5 253.5t-124.5 223.5zM192 857h42
q-81 -100 -124.5 -223.5t-43.5 -253.5q0 -131 43.5 -254.5t124.5 -222.5h-42q-59 69 -97.5 150t-52 154.5t-17 108t-3.5 64.5t3.5 64.5t17 108t52 154.5t97.5 150z" />
    <glyph glyph-name="Japan1.8116" 
d="M755 349h-411q0 -27 1 -40t5.5 -32.5t14.5 -29t27.5 -20t45 -14.5t66.5 -4q82 0 110.5 17t33.5 65h106q-5 -92 -60 -135t-183 -43q-83 0 -136 14t-83 47.5t-41 79t-11 117.5q0 37 1.5 62t7 56.5t15.5 52t28.5 42.5t45 34.5t66 20.5t90.5 8q98 0 156.5 -23t85.5 -88
q12 -28 15 -62t4 -125zM344 429h304q-1 31 -6 49.5t-19 37.5t-44.5 27.5t-78.5 8.5q-90 0 -120.5 -28.5t-35.5 -94.5zM192 857h42q-81 -100 -124.5 -223.5t-43.5 -253.5q0 -131 43.5 -254.5t124.5 -222.5h-42q-59 69 -97.5 150t-52 154.5t-17 108t-3.5 64.5t3.5 64.5t17 108
t52 154.5t97.5 150zM766 857h42q59 -69 97.5 -150t52 -154.5t17 -108t3.5 -64.5t-3.5 -64.5t-17 -108t-52 -154.5t-97.5 -150h-42q81 99 124.5 222.5t43.5 254.5q0 130 -43.5 253.5t-124.5 223.5z" />
    <glyph glyph-name="Japan1.8117" 
d="M427 545v28q0 97 55 127.5t188 24.5v-92q-36 1 -66.5 0.5t-51 -15t-20.5 -44.5v-29h138v-97h-138v-422h-105v422h-98v97h98zM192 857h42q-81 -100 -124.5 -223.5t-43.5 -253.5q0 -131 43.5 -254.5t124.5 -222.5h-42q-59 69 -97.5 150t-52 154.5t-17 108t-3.5 64.5
t3.5 64.5t17 108t52 154.5t97.5 150zM766 857h42q59 -69 97.5 -150t52 -154.5t17 -108t3.5 -64.5t-3.5 -64.5t-17 -108t-52 -154.5t-97.5 -150h-42q81 99 124.5 222.5t43.5 254.5q0 130 -43.5 253.5t-124.5 223.5z" />
    <glyph glyph-name="Japan1.8118" 
d="M803 720v-82q-38 -2 -52.5 -7t-24.5 -21q16 -30 16 -65q0 -92 -53 -124.5t-178 -32.5q-116 0 -173 24q-30 -17 -30 -37q0 -30 47 -33l282 -20q46 -3 76.5 -15.5t43.5 -32.5t17.5 -38.5t4.5 -44.5q0 -83 -58.5 -114t-224.5 -31q-154 0 -220.5 26.5t-66.5 102.5
q0 32 11 54.5t20.5 29.5t26.5 16q-54 16 -54 78q0 42 20 66.5t47 28.5q-30 33 -30 103q0 83 56 116t192 33t176 -30q9 15 18 23.5t38 17.5t73 9zM497 613q-35 0 -51.5 -0.5t-39.5 -4t-33 -11t-17.5 -21t-7.5 -34.5q0 -41 32.5 -53.5t121.5 -12.5q77 0 108.5 12.5t31.5 57.5
q0 42 -31 54.5t-114 12.5zM578 245l-210 14q-63 -11 -63 -63q0 -25 12.5 -37t57 -18.5t136.5 -6.5q97 0 133 12.5t36 45.5q0 25 -20.5 37t-81.5 16zM192 857h42q-81 -100 -124.5 -223.5t-43.5 -253.5q0 -131 43.5 -254.5t124.5 -222.5h-42q-59 69 -97.5 150t-52 154.5
t-17 108t-3.5 64.5t3.5 64.5t17 108t52 154.5t97.5 150zM766 857h42q59 -69 97.5 -150t52 -154.5t17 -108t3.5 -64.5t-3.5 -64.5t-17 -108t-52 -154.5t-97.5 -150h-42q81 99 124.5 222.5t43.5 254.5q0 130 -43.5 253.5t-124.5 223.5z" />
    <glyph glyph-name="Japan1.8119" 
d="M260 733h105v-233q49 67 178 67q104 0 154.5 -43t50.5 -136v-348h-105v327q0 22 -3.5 36.5t-15.5 32.5t-41 27t-74 9q-79 0 -111.5 -32t-32.5 -101v-299h-105v693zM192 857h42q-81 -100 -124.5 -223.5t-43.5 -253.5q0 -131 43.5 -254.5t124.5 -222.5h-42
q-59 69 -97.5 150t-52 154.5t-17 108t-3.5 64.5t3.5 64.5t17 108t52 154.5t97.5 150zM766 857h42q59 -69 97.5 -150t52 -154.5t17 -108t3.5 -64.5t-3.5 -64.5t-17 -108t-52 -154.5t-97.5 -150h-42q81 99 124.5 222.5t43.5 254.5q0 130 -43.5 253.5t-124.5 223.5z" />
    <glyph glyph-name="Japan1.8120" 
d="M442 726h116v-112h-116v112zM448 552h104v-519h-104v519zM192 857h42q-81 -100 -124.5 -223.5t-43.5 -253.5q0 -131 43.5 -254.5t124.5 -222.5h-42q-59 69 -97.5 150t-52 154.5t-17 108t-3.5 64.5t3.5 64.5t17 108t52 154.5t97.5 150zM766 857h42q59 -69 97.5 -150
t52 -154.5t17 -108t3.5 -64.5t-3.5 -64.5t-17 -108t-52 -154.5t-97.5 -150h-42q81 99 124.5 222.5t43.5 254.5q0 130 -43.5 253.5t-124.5 223.5z" />
    <glyph glyph-name="Japan1.8121" 
d="M472 767h117v-110h-117v110zM478 590h105v-489q0 -33 -7 -57.5t-24 -39t-32.5 -23t-45.5 -11.5t-49 -3.5t-57 -0.5v96h41t29.5 3t23 10t11.5 19.5t5 32.5v463zM192 857h42q-81 -100 -124.5 -223.5t-43.5 -253.5q0 -131 43.5 -254.5t124.5 -222.5h-42q-59 69 -97.5 150
t-52 154.5t-17 108t-3.5 64.5t3.5 64.5t17 108t52 154.5t97.5 150zM766 857h42q59 -69 97.5 -150t52 -154.5t17 -108t3.5 -64.5t-3.5 -64.5t-17 -108t-52 -154.5t-97.5 -150h-42q81 99 124.5 222.5t43.5 254.5q0 130 -43.5 253.5t-124.5 223.5z" />
    <glyph glyph-name="Japan1.8122" 
d="M362 318l257 234h139l-277 -241l305 -278h-141l-283 271v-271h-104v694h104v-409zM192 857h42q-81 -100 -124.5 -223.5t-43.5 -253.5q0 -131 43.5 -254.5t124.5 -222.5h-42q-59 69 -97.5 150t-52 154.5t-17 108t-3.5 64.5t3.5 64.5t17 108t52 154.5t97.5 150zM766 857h42
q59 -69 97.5 -150t52 -154.5t17 -108t3.5 -64.5t-3.5 -64.5t-17 -108t-52 -154.5t-97.5 -150h-42q81 99 124.5 222.5t43.5 254.5q0 130 -43.5 253.5t-124.5 223.5z" />
    <glyph glyph-name="Japan1.8123" 
d="M449 727h105v-694h-105v694zM192 857h42q-81 -100 -124.5 -223.5t-43.5 -253.5q0 -131 43.5 -254.5t124.5 -222.5h-42q-59 69 -97.5 150t-52 154.5t-17 108t-3.5 64.5t3.5 64.5t17 108t52 154.5t97.5 150zM766 857h42q59 -69 97.5 -150t52 -154.5t17 -108t3.5 -64.5
t-3.5 -64.5t-17 -108t-52 -154.5t-97.5 -150h-42q81 99 124.5 222.5t43.5 254.5q0 130 -43.5 253.5t-124.5 223.5z" />
    <glyph glyph-name="Japan1.8124" 
d="M158 636h102l2 -56q51 64 138 64q94 0 135 -74q18 42 61 59t84 17q85 0 126 -39t41 -119v-370h-105v339q0 92 -86 92q-100 0 -100 -104v-327h-105v330q0 22 -1.5 34.5t-9 30.5t-26.5 27t-49 9q-101 0 -101 -102v-329h-106v518zM192 857h42q-81 -100 -124.5 -223.5
t-43.5 -253.5q0 -131 43.5 -254.5t124.5 -222.5h-42q-59 69 -97.5 150t-52 154.5t-17 108t-3.5 64.5t3.5 64.5t17 108t52 154.5t97.5 150zM766 857h42q59 -69 97.5 -150t52 -154.5t17 -108t3.5 -64.5t-3.5 -64.5t-17 -108t-52 -154.5t-97.5 -150h-42q81 99 124.5 222.5
t43.5 254.5q0 130 -43.5 253.5t-124.5 223.5z" />
    <glyph glyph-name="Japan1.8125" 
d="M260 639h100l5 -59q49 67 178 67q104 0 154.5 -42.5t50.5 -135.5v-348h-105v326q0 22 -3.5 36.5t-15.5 32.5t-41 27t-74 9q-80 0 -112 -31.5t-32 -100.5v-299h-105v518zM192 857h42q-81 -100 -124.5 -223.5t-43.5 -253.5q0 -131 43.5 -254.5t124.5 -222.5h-42
q-59 69 -97.5 150t-52 154.5t-17 108t-3.5 64.5t3.5 64.5t17 108t52 154.5t97.5 150zM766 857h42q59 -69 97.5 -150t52 -154.5t17 -108t3.5 -64.5t-3.5 -64.5t-17 -108t-52 -154.5t-97.5 -150h-42q81 99 124.5 222.5t43.5 254.5q0 130 -43.5 253.5t-124.5 223.5z" />
    <glyph glyph-name="Japan1.8126" 
d="M239 378q0 60 5 99t20 74t43 54.5t74 30.5t113 11q62 0 102 -5.5t74.5 -21t53.5 -44t29 -74t10 -111.5q0 -63 -4.5 -101.5t-18.5 -76t-42 -57t-74.5 -31.5t-115.5 -12q-82 0 -131 10.5t-81.5 41t-44.5 80.5t-12 133zM344 378q0 -55 4 -82.5t20.5 -49.5t47 -28.5
t85.5 -6.5q56 0 86 6.5t46.5 29t20.5 53t4 90.5q0 101 -30.5 130t-126.5 29q-37 0 -62.5 -3t-43.5 -12.5t-28 -20t-15 -32.5t-6.5 -44t-1.5 -59zM192 857h42q-81 -100 -124.5 -223.5t-43.5 -253.5q0 -131 43.5 -254.5t124.5 -222.5h-42q-59 69 -97.5 150t-52 154.5t-17 108
t-3.5 64.5t3.5 64.5t17 108t52 154.5t97.5 150zM766 857h42q59 -69 97.5 -150t52 -154.5t17 -108t3.5 -64.5t-3.5 -64.5t-17 -108t-52 -154.5t-97.5 -150h-42q81 99 124.5 222.5t43.5 254.5q0 130 -43.5 253.5t-124.5 223.5z" />
    <glyph glyph-name="Japan1.8127" 
d="M270 58v636h103l2 -57q15 19 27.5 30t52 22.5t97.5 11.5q125 0 174 -62t49 -204q0 -141 -56.5 -194t-166.5 -53q-57 0 -96 11t-53 22t-28 29v-192h-105zM522 288q85 0 116.5 34t31.5 117q0 95 -33 128.5t-117 33.5q-76 0 -110 -36t-34 -121q0 -90 37 -123t109 -33z
M192 857h42q-81 -100 -124.5 -223.5t-43.5 -253.5q0 -131 43.5 -254.5t124.5 -222.5h-42q-59 69 -97.5 150t-52 154.5t-17 108t-3.5 64.5t3.5 64.5t17 108t52 154.5t97.5 150zM766 857h42q59 -69 97.5 -150t52 -154.5t17 -108t3.5 -64.5t-3.5 -64.5t-17 -108t-52 -154.5
t-97.5 -150h-42q81 99 124.5 222.5t43.5 254.5q0 130 -43.5 253.5t-124.5 223.5z" />
    <glyph glyph-name="Japan1.8128" 
d="M731 694v-636h-105v192q-13 -17 -27 -28.5t-53.5 -22.5t-96.5 -11q-53 0 -91 10.5t-69 37t-46.5 76.5t-15.5 123q0 142 48.5 204t173.5 62q45 0 77 -5.5t52 -17t28.5 -19.5t20.5 -22l1 57h103zM480 283q76 0 111 34.5t35 123.5q0 82 -29 123.5t-116 41.5
q-85 0 -117.5 -34t-32.5 -130q0 -85 28.5 -122t120.5 -37zM766 857h42q59 -69 97.5 -150t52 -154.5t17 -108t3.5 -64.5t-3.5 -64.5t-17 -108t-52 -154.5t-97.5 -150h-42q81 99 124.5 222.5t43.5 254.5q0 130 -43.5 253.5t-124.5 223.5zM192 857h42q-81 -100 -124.5 -223.5
t-43.5 -253.5q0 -131 43.5 -254.5t124.5 -222.5h-42q-59 69 -97.5 150t-52 154.5t-17 108t-3.5 64.5t3.5 64.5t17 108t52 154.5t97.5 150z" />
    <glyph glyph-name="Japan1.8129" 
d="M368 636h99l5 -54q32 43 80.5 52.5t167.5 9.5v-98q-60 2 -73 2q-175 0 -175 -112v-318h-104v518zM192 857h42q-81 -100 -124.5 -223.5t-43.5 -253.5q0 -131 43.5 -254.5t124.5 -222.5h-42q-59 69 -97.5 150t-52 154.5t-17 108t-3.5 64.5t3.5 64.5t17 108t52 154.5
t97.5 150zM766 857h42q59 -69 97.5 -150t52 -154.5t17 -108t3.5 -64.5t-3.5 -64.5t-17 -108t-52 -154.5t-97.5 -150h-42q81 99 124.5 222.5t43.5 254.5q0 130 -43.5 253.5t-124.5 223.5z" />
    <glyph glyph-name="Japan1.8130" 
d="M733 485h-104q-1 14 -4.5 23t-15.5 19.5t-39.5 16t-69.5 5.5q-74 0 -106 -13t-32 -53q0 -20 13 -31t55 -14l186 -17q138 -12 138 -146q0 -43 -15 -74t-37 -48t-57.5 -26t-65.5 -11.5t-72 -2.5q-106 0 -163.5 21.5t-76 58t-19.5 101.5h105q0 -24 3 -35t17 -24.5t47 -18.5
t90 -5q72 0 105.5 14t33.5 51q0 29 -17 40.5t-58 15.5l-193 18q-124 12 -124 132q0 45 15.5 77t37.5 48.5t57.5 26t63 11.5t67.5 2q56 0 97.5 -6.5t66.5 -20t40 -26.5t21.5 -35.5t8 -35.5t1.5 -38zM192 857h42q-81 -100 -124.5 -223.5t-43.5 -253.5q0 -131 43.5 -254.5
t124.5 -222.5h-42q-59 69 -97.5 150t-52 154.5t-17 108t-3.5 64.5t3.5 64.5t17 108t52 154.5t97.5 150zM766 857h42q59 -69 97.5 -150t52 -154.5t17 -108t3.5 -64.5t-3.5 -64.5t-17 -108t-52 -154.5t-97.5 -150h-42q81 99 124.5 222.5t43.5 254.5q0 130 -43.5 253.5
t-124.5 223.5z" />
    <glyph glyph-name="Japan1.8131" 
d="M431 579v124h105v-124h151v-97h-151v-260q0 -47 21 -61.5t100 -14.5q26 0 44 2v-92q-27 -4 -61 -4q-121 0 -165 31t-44 108v291h-123v97h123zM192 857h42q-81 -100 -124.5 -223.5t-43.5 -253.5q0 -131 43.5 -254.5t124.5 -222.5h-42q-59 69 -97.5 150t-52 154.5t-17 108
t-3.5 64.5t3.5 64.5t17 108t52 154.5t97.5 150zM766 857h42q59 -69 97.5 -150t52 -154.5t17 -108t3.5 -64.5t-3.5 -64.5t-17 -108t-52 -154.5t-97.5 -150h-42q81 99 124.5 222.5t43.5 254.5q0 130 -43.5 253.5t-124.5 223.5z" />
    <glyph glyph-name="Japan1.8132" 
d="M744 121h-100l-5 59q-49 -67 -178 -67q-104 0 -154.5 42.5t-50.5 135.5v348h105v-326q0 -22 3.5 -36.5t16 -32.5t41.5 -27t74 -9q79 0 111 31.5t32 101.5v298h105v-518zM192 857h42q-81 -100 -124.5 -223.5t-43.5 -253.5q0 -131 43.5 -254.5t124.5 -222.5h-42
q-59 69 -97.5 150t-52 154.5t-17 108t-3.5 64.5t3.5 64.5t17 108t52 154.5t97.5 150zM766 857h42q59 -69 97.5 -150t52 -154.5t17 -108t3.5 -64.5t-3.5 -64.5t-17 -108t-52 -154.5t-97.5 -150h-42q81 99 124.5 222.5t43.5 254.5q0 130 -43.5 253.5t-124.5 223.5z" />
    <glyph glyph-name="Japan1.8133" 
d="M220 629h116l165 -426l165 426h116l-215 -519h-132zM192 857h42q-81 -100 -124.5 -223.5t-43.5 -253.5q0 -131 43.5 -254.5t124.5 -222.5h-42q-59 69 -97.5 150t-52 154.5t-17 108t-3.5 64.5t3.5 64.5t17 108t52 154.5t97.5 150zM766 857h42q59 -69 97.5 -150t52 -154.5
t17 -108t3.5 -64.5t-3.5 -64.5t-17 -108t-52 -154.5t-97.5 -150h-42q81 99 124.5 222.5t43.5 254.5q0 130 -43.5 253.5t-124.5 223.5z" />
    <glyph glyph-name="Japan1.8134" 
d="M124 626h109l105 -431l88 431h150l86 -431l107 431h109l-138 -518h-152l-89 443l-88 -443h-151zM192 857h42q-81 -100 -124.5 -223.5t-43.5 -253.5q0 -131 43.5 -254.5t124.5 -222.5h-42q-59 69 -97.5 150t-52 154.5t-17 108t-3.5 64.5t3.5 64.5t17 108t52 154.5
t97.5 150zM766 857h42q59 -69 97.5 -150t52 -154.5t17 -108t3.5 -64.5t-3.5 -64.5t-17 -108t-52 -154.5t-97.5 -150h-42q81 99 124.5 222.5t43.5 254.5q0 130 -43.5 253.5t-124.5 223.5z" />
    <glyph glyph-name="Japan1.8135" 
d="M241 639h125l136 -198l139 198h124l-178 -246l192 -272h-126l-151 224l-152 -224h-126l195 274zM192 857h42q-81 -100 -124.5 -223.5t-43.5 -253.5q0 -131 43.5 -254.5t124.5 -222.5h-42q-59 69 -97.5 150t-52 154.5t-17 108t-3.5 64.5t3.5 64.5t17 108t52 154.5
t97.5 150zM766 857h42q59 -69 97.5 -150t52 -154.5t17 -108t3.5 -64.5t-3.5 -64.5t-17 -108t-52 -154.5t-97.5 -150h-42q81 99 124.5 222.5t43.5 254.5q0 130 -43.5 253.5t-124.5 223.5z" />
    <glyph glyph-name="Japan1.8136" 
d="M220 690h118l171 -368l158 368h116l-236 -519q-29 -64 -63 -90t-116 -26q-65 0 -96 6v97q52 -5 89 -5q73 0 91 45l6 15zM192 857h42q-81 -100 -124.5 -223.5t-43.5 -253.5q0 -131 43.5 -254.5t124.5 -222.5h-42q-59 69 -97.5 150t-52 154.5t-17 108t-3.5 64.5t3.5 64.5
t17 108t52 154.5t97.5 150zM766 857h42q59 -69 97.5 -150t52 -154.5t17 -108t3.5 -64.5t-3.5 -64.5t-17 -108t-52 -154.5t-97.5 -150h-42q81 99 124.5 222.5t43.5 254.5q0 130 -43.5 253.5t-124.5 223.5z" />
    <glyph glyph-name="Japan1.8137" 
d="M281 639h446v-95l-317 -328h319v-95h-458v95l318 328h-308v95zM192 857h42q-81 -100 -124.5 -223.5t-43.5 -253.5q0 -131 43.5 -254.5t124.5 -222.5h-42q-59 69 -97.5 150t-52 154.5t-17 108t-3.5 64.5t3.5 64.5t17 108t52 154.5t97.5 150zM766 857h42q59 -69 97.5 -150
t52 -154.5t17 -108t3.5 -64.5t-3.5 -64.5t-17 -108t-52 -154.5t-97.5 -150h-42q81 99 124.5 222.5t43.5 254.5q0 130 -43.5 253.5t-124.5 223.5z" />
    <glyph glyph-name="Japan1.8184" 
d="M810 821l26 -21l-645 -861l-27 20zM795 119l-113 -20q-20 -4 -30 -15.5t-11.5 -23t-1.5 -36.5h249v-71h-330v96q0 100 98 118l108 20q45 8 45 57q0 33 -17.5 47t-61.5 14t-64.5 -11.5t-20.5 -43.5v-26h-83q0 32 1.5 47.5t10 40.5t24.5 37t48 21.5t79 9.5
q94 0 129.5 -31.5t35.5 -100.5q0 -67 -22.5 -93.5t-72.5 -35.5zM175 804h157v-417h-81v341h-76v76z" />
    <glyph glyph-name="Japan1.8185" 
d="M741 380h107v-265h58v-73h-58v-82h-79v82h-226v90zM769 115v188l-145 -188h145zM810 821l26 -21l-645 -861l-27 20zM175 804h157v-417h-81v341h-76v76z" />
    <glyph glyph-name="Japan1.8224" 
d="M500 854q128 0 237 -62.5t173 -172t64 -239.5q0 -196 -139 -335t-335 -139t-335 139t-139 335q0 130 64 239.5t173 172t237 62.5zM500 819q-181 0 -310 -128t-129 -311q0 -119 59 -220t160 -160t220 -59q182 0 310.5 128.5t128.5 310.5q0 183 -129 311t-310 128zM500 678
q37 0 63.5 -6t44 -23t28 -37t15.5 -58t6.5 -75t1.5 -99q0 -74 -2 -114.5t-10.5 -81.5t-25.5 -60t-45.5 -30.5t-72.5 -11.5q-45 0 -74 10t-47 28t-27 57.5t-11.5 83t-2.5 119.5q0 62 1.5 99.5t7 75.5t15.5 58t28 36.5t44 22.5t63 6zM500 599q-57 0 -69.5 -38t-12.5 -181
t13 -181t69 -38t68.5 37.5t12.5 181.5q0 143 -12.5 181t-68.5 38z" />
    <glyph glyph-name="Japan1.8225" 
d="M460 788h462v-96h-70v-596h71v-96h-447v96h64l-130 233l-129 -233h63v-96h-267v96h76l177 304l-167 292h-76v96h267v-96h-62l117 -214l111 214h-60v96zM736 692h-87l-164 -290l184 -306h67v596z" />
    <glyph glyph-name="Japan1.8226" 
d="M385 788h600v-96h-63v-596h65v-96h-586v96h64l-130 233l-128 -233h62v-96h-256v96h65l177 304l-166 292h-65v96h255v-96h-62l117 -214l111 214h-60v96zM619 692h-45l-164 -290l184 -306h25v596zM810 692h-79v-596h79v596z" />
    <glyph glyph-name="Japan1.8227" 
d="M500 691q48 0 79 -11.5t49.5 -31t27.5 -62t11.5 -85.5t2.5 -121t-2.5 -121.5t-11.5 -86t-27.5 -61.5t-49.5 -30.5t-79 -11.5q-40 0 -68 6t-47 24t-29.5 38.5t-16.5 60t-7.5 78.5t-1.5 104t1.5 104t7.5 78.5t16.5 60t29.5 38.5t47 24t68 6zM500 608q-61 0 -74.5 -39.5
t-13.5 -188.5t13.5 -188.5t73.5 -39.5q61 0 74.5 38.5t13.5 189.5q0 150 -13 189t-74 39zM192 857h42q-81 -100 -124.5 -223.5t-43.5 -253.5q0 -131 43.5 -254.5t124.5 -222.5h-42q-59 69 -97.5 150t-52 154.5t-17 108t-3.5 64.5t3.5 64.5t17 108t52 154.5t97.5 150z
M766 857h42q59 -69 97.5 -150t52 -154.5t17 -108t3.5 -64.5t-3.5 -64.5t-17 -108t-52 -154.5t-97.5 -150h-42q81 99 124.5 222.5t43.5 254.5q0 130 -43.5 253.5t-124.5 223.5z" />
    <glyph glyph-name="Japan1.8228" 
d="M741 736l80 94l66 -52l-94 -111q19 -45 27 -106q10 -77 10 -178q0 -114 -13 -183.5t-49.5 -119t-100.5 -69t-167 -19.5q-163 0 -234 54l-87 -101l-66 53l98 115q-41 78 -41 281q0 80 5.5 137t20.5 103.5t38 76t61 49.5t87.5 28t117.5 8q169 0 241 -60zM701 559l-360 -424
q45 -35 165 -35q47 0 78.5 4.5t55.5 18.5t37 32.5t21 54.5t10.5 76.5t2.5 105.5q0 103 -10 167zM300 218l365 429q-22 22 -59 31.5t-108 9.5q-49 0 -80.5 -4t-56.5 -18t-38 -33t-21 -56t-10.5 -79.5t-2.5 -110.5q0 -99 11 -169z" />
    <glyph glyph-name="Japan1.8286" 
d="M500 854q128 0 237 -62.5t173 -172t64 -239.5q0 -196 -139 -335t-335 -139t-335 139t-139 335q0 130 64 239.5t173 172t237 62.5zM555 681h-194v-82h111v-520h83v602z" />
    <glyph glyph-name="Japan1.8287" 
d="M500 854q128 0 237 -62.5t173 -172t64 -239.5q0 -196 -139 -335t-335 -139t-335 139t-139 335q0 130 64 239.5t173 172t237 62.5zM484 300l81 34q58 24 76 63t18 120q0 99 -38 134.5t-122 35.5q-45 0 -75.5 -12t-46.5 -28t-24 -47t-9 -54.5t-1 -65.5h78v17q0 60 13.5 84
t67.5 24q47 0 63 -23.5t16 -78.5q0 -51 -14.5 -71.5t-50.5 -35.5l-71 -29q-37 -15 -56.5 -31t-31.5 -49.5t-14.5 -78.5t-1.5 -129h316v82h-239q0 52 7.5 79.5t19.5 37.5t39 22z" />
    <glyph glyph-name="Japan1.8288" 
d="M500 854q128 0 237 -62.5t173 -172t64 -239.5q0 -196 -139 -335t-335 -139t-335 139t-139 335q0 130 64 239.5t173 172t237 62.5zM420 275h-80q0 -45 1.5 -67t9.5 -53t24.5 -45.5t48 -25.5t78.5 -11q83 0 120.5 38.5t37.5 132.5q0 45 -8 75.5t-23.5 44t-25.5 18.5t-25 8
q46 16 61.5 49.5t15.5 86.5q0 88 -37.5 124.5t-117.5 36.5q-51 0 -84 -13t-48.5 -41t-20.5 -57.5t-5 -76.5h81q0 28 1 42t7.5 31.5t23.5 25t45 7.5q26 0 43 -7.5t23.5 -23t8.5 -28.5t2 -35q0 -29 -7 -47t-21.5 -25t-26.5 -9t-33 -2h-48v-79h44q57 0 76.5 -19t19.5 -77
q0 -57 -19.5 -78t-62.5 -21q-30 0 -47.5 8t-24 24t-8 38t0.5 51z" />
    <glyph glyph-name="Japan1.8289" 
d="M500 854q128 0 237 -62.5t173 -172t64 -239.5q0 -196 -139 -335t-335 -139t-335 139t-139 335q0 130 64 239.5t173 172t237 62.5zM598 681h-110l-182 -374v-97h212v-131h80v131h48v82h-48v389zM380 292l139 296v-296h-139z" />
    <glyph glyph-name="Japan1.8290" 
d="M500 854q128 0 237 -62.5t173 -172t64 -239.5q0 -196 -139 -335t-335 -139t-335 139t-139 335q0 130 64 239.5t173 172t237 62.5zM649 681h-296l-7 -341h75q2 11 4 17.5t9.5 19t24 19t40.5 6.5q23 0 38.5 -6.5t24 -15.5t12.5 -28.5t5 -36t1 -47.5q0 -63 -15 -88.5
t-65 -25.5q-23 0 -38 5t-23.5 11.5t-12.5 22t-5 27t-2 36.5h-79q-1 -106 40 -144.5t119 -38.5q52 0 85.5 14.5t49.5 45t21 63.5t5 84q0 32 -1.5 53.5t-9 52.5t-21.5 49.5t-41.5 32.5t-65.5 14q-59 0 -94 -32l4 149h218v82z" />
    <glyph glyph-name="Japan1.8291" 
d="M500 854q128 0 237 -62.5t173 -172t64 -239.5q0 -196 -139 -335t-335 -139t-335 139t-139 335q0 130 64 239.5t173 172t237 62.5zM576 517h79q0 27 -2 46.5t-10.5 44.5t-24 41t-44.5 27t-70 11q-39 0 -66 -6.5t-46 -24.5t-29 -39t-15.5 -63t-7 -81.5t-1.5 -108.5
q0 -61 1.5 -97.5t7.5 -74t16.5 -56.5t30 -35t47.5 -22t68 -6q39 0 67 10.5t44 27.5t25 44t12 53.5t3 63.5q0 60 -12.5 100t-34.5 57.5t-43 24t-48 6.5q-70 0 -105 -41q2 121 15.5 153.5t68.5 32.5q42 0 58.5 -18t15.5 -70zM500 379q42 0 61.5 -19t19.5 -85
q0 -72 -15.5 -96.5t-64.5 -24.5q-42 0 -61.5 21t-19.5 83q0 69 15.5 95t64.5 26z" />
    <glyph glyph-name="Japan1.8292" 
d="M500 854q128 0 237 -62.5t173 -172t64 -239.5q0 -196 -139 -335t-335 -139t-335 139t-139 335q0 130 64 239.5t173 172t237 62.5zM670 657h-340v-82h261l-200 -520h89l190 514v88z" />
    <glyph glyph-name="Japan1.8293" 
d="M500 854q128 0 237 -62.5t173 -172t64 -239.5q0 -196 -139 -335t-335 -139t-335 139t-139 335q0 130 64 239.5t173 172t237 62.5zM419 391q-13 -4 -20 -7t-20.5 -13.5t-21 -25.5t-13.5 -43t-6 -65q0 -96 43 -130t121 -34q90 0 125 41.5t35 125.5q0 45 -8 75.5t-23 45.5
t-25 20t-25 10q15 6 24 11.5t22 19t19.5 39t6.5 61.5q0 100 -39 132.5t-118 32.5q-76 0 -113 -35.5t-37 -128.5q0 -36 7 -61.5t20.5 -39.5t22 -19.5t23.5 -11.5zM500 606q26 0 42.5 -6.5t23.5 -21t8.5 -26t1.5 -31.5q0 -23 -1.5 -35t-8 -27.5t-23 -22t-43.5 -6.5t-43.5 7.5
t-23 22.5t-8 25t-1.5 28q0 24 1.5 36t8 27.5t23 22.5t43.5 7zM500 350q50 0 66.5 -24t16.5 -76q0 -23 -2 -37t-9.5 -29t-25.5 -22.5t-46 -7.5q-50 0 -66.5 22.5t-16.5 66.5q0 56 15.5 81.5t67.5 25.5z" />
    <glyph glyph-name="Japan1.8294" 
d="M500 854q128 0 237 -62.5t173 -172t64 -239.5q0 -196 -139 -335t-335 -139t-335 139t-139 335q0 130 64 239.5t173 172t237 62.5zM417 243h-79q0 -82 31.5 -126t123.5 -44q34 0 59 6t43 15.5t30 30.5t19 42t10.5 60.5t4.5 75t1 95.5q0 61 -1.5 96.5t-7 72.5t-16.5 56
t-30 35.5t-47 22.5t-69 6q-48 0 -79 -14.5t-46 -44.5t-20 -61.5t-5 -77.5q0 -59 12 -99t34 -58.5t43 -25t48 -6.5q32 0 55 7.5t31 14t19 19.5q-1 -54 -2.5 -82.5t-6 -52.5t-15 -33t-25 -13.5t-39.5 -4.5q-43 0 -60 17.5t-16 70.5zM499 381q-42 0 -61.5 19.5t-19.5 84.5
q0 72 15.5 96.5t64.5 24.5q42 0 62 -20.5t20 -83.5q0 -68 -16 -94.5t-65 -26.5z" />
    <glyph glyph-name="Japan1.8295" 
d="M222 407l-140 285h-48v96h191v-96h-35l87 -175l86 175h-35v96h655v-96h-52v-596h52v-96h-648v96h41l-99 202l-100 -202h42v-96h-202v96h52zM623 96h58v596h-58v-596zM777 96h58v596h-58v-596zM485 96h41v596h-55l-140 -285z" />
    <glyph glyph-name="Japan1.8296" 
d="M241 269l-67 -173h45v-96h-202v96h51l119 312l-109 284h-44v96h187v-96h-37l57 -146l56 146h-37v96h482v-96h-45l66 -601l67 601h-44v96h197v-96h-50l-89 -692h-158l-92 692h-40v-596h65v-96h-356v96h44zM403 692l-109 -285l120 -311h43v596h-54z" />
    <glyph glyph-name="Japan1.8297" 
d="M220 399l-142 293h-44v96h195v-96h-39l87 -177l86 177h-39v96h358v-96h-52l94 -589l94 589h-52v96h217v-96h-56l-117 -692h-164l-125 692h-46l-142 -293l147 -303h56v-96h-217v96h49l-91 188l-92 -188h50v-96h-218v96h56z" />
    <glyph glyph-name="Japan1.8298" 
d="M672 788h122v-116h-122v116zM678 589h110v-589h-110v589zM507 589h124l-155 -280l174 -309h-129l-132 253l-132 -253h-129l173 309l-154 280h124l118 -219z" />
    <glyph glyph-name="Japan1.8299" 
d="M112 589h119l89 -219l89 219h119l-116 -280l135 -309h-123l-104 253l-104 -253h-122l135 309zM574 589h109v-589h-109v589zM569 788h120v-116h-120v116zM747 589h109v-589h-109v589zM741 788h120v-116h-120v116z" />
    <glyph glyph-name="Japan1.8300" 
d="M96 589h113l70 -219l70 219h113l-93 -280l112 -309h-117l-85 253l-85 -253h-117l114 309zM640 788h107v-116h-107v116zM647 589h93v-589h-93v589zM776 788h107v-116h-107v116zM782 589h94v-589h-94v589zM503 788h106v-116h-106v116zM509 589h94v-589h-94v589z" />
    <glyph glyph-name="Japan1.8301" 
d="M853 589h112l-120 -589h-143l-120 589h112l79 -475zM54 589h113l68 -219l67 219h113l-95 -280l114 -309h-117l-82 253l-83 -253h-117l115 309zM460 589h94v-589h-94v589zM453 788h107v-116h-107v116z" />
    <glyph glyph-name="Japan1.8302" 
d="M385 589h119l-132 -280l151 -309h-123l-116 253l-115 -253h-123l150 309l-131 280h119l100 -219zM547 589h113l91 -478l90 478h113l-131 -589h-145z" />
    <glyph glyph-name="Japan1.9780" 
d="M277 811q103 0 133.5 -41t30.5 -164q0 -57 -2.5 -88.5t-11 -62.5t-26 -44.5t-47 -22t-75.5 -8.5q-39 0 -63 3.5t-46 15.5t-34 35t-18.5 60t-6.5 93q0 96 14.5 142.5t48 64t103.5 17.5zM276 738q-55 0 -70 -27.5t-15 -113.5q0 -87 15 -114.5t72 -27.5q54 0 67.5 26
t13.5 126q0 85 -15 108t-68 23zM810 821l26 -21l-645 -861l-27 20zM554 96h82q0 -22 1.5 -32t8 -21.5t23.5 -16t45 -4.5q57 0 78 12t21 47q0 58 -51 58h-69v67h67q3 0 6 0.5t10.5 3t12.5 7t9.5 14.5t4.5 23q0 31 -16 42.5t-63 11.5t-64 -13t-17 -55h-81q0 35 5.5 57.5
t21 43.5t49 31t85.5 10q34 0 57 -3t49.5 -13.5t40.5 -34.5t14 -62q0 -35 -10.5 -56.5t-19 -26.5t-25.5 -12q12 -3 20 -7t20.5 -14.5t19 -31t6.5 -49.5q0 -65 -40 -95t-123 -30q-110 0 -144 33.5t-34 115.5z" />
    <glyph glyph-name="Japan1.9781" 
d="M810 821l26 -21l-645 -861l-27 20zM554 96h82q0 -22 1.5 -32t8 -21.5t23.5 -16t45 -4.5q57 0 78 12t21 47q0 58 -51 58h-69v67h67q3 0 6 0.5t10.5 3t12.5 7t9.5 14.5t4.5 23q0 31 -16 42.5t-63 11.5t-64 -13t-17 -55h-81q0 35 5.5 57.5t21 43.5t49 31t85.5 10q34 0 57 -3
t49.5 -13.5t40.5 -34.5t14 -62q0 -35 -10.5 -56.5t-19 -26.5t-25.5 -12q12 -3 20 -7t20.5 -14.5t19 -31t6.5 -49.5q0 -65 -40 -95t-123 -30q-110 0 -144 33.5t-34 115.5zM175 804h157v-417h-81v341h-76v76z" />
    <glyph glyph-name="Japan1.9782" 
d="M810 821l26 -21l-645 -861l-27 20zM554 96h82q0 -22 1.5 -32t8 -21.5t23.5 -16t45 -4.5q57 0 78 12t21 47q0 58 -51 58h-69v67h67q3 0 6 0.5t10.5 3t12.5 7t9.5 14.5t4.5 23q0 31 -16 42.5t-63 11.5t-64 -13t-17 -55h-81q0 35 5.5 57.5t21 43.5t49 31t85.5 10q34 0 57 -3
t49.5 -13.5t40.5 -34.5t14 -62q0 -35 -10.5 -56.5t-19 -26.5t-25.5 -12q12 -3 20 -7t20.5 -14.5t19 -31t6.5 -49.5q0 -65 -40 -95t-123 -30q-110 0 -144 33.5t-34 115.5zM346 550l-112 -20q-20 -4 -30 -15.5t-11.5 -23t-1.5 -36.5h249v-71h-330v96q0 100 97 118l109 20
q44 8 44 57q0 33 -17 47.5t-61 14.5q-45 0 -65 -11t-20 -44v-27h-83q0 32 1.5 47.5t10 40.5t24.5 37t47.5 21.5t78.5 9.5q95 0 130.5 -31.5t35.5 -99.5t-23 -94.5t-73 -35.5z" />
    <glyph glyph-name="Japan1.9783" 
d="M741 380h107v-265h58v-73h-58v-82h-79v82h-226v90zM769 115v188l-145 -188h145zM810 821l26 -21l-645 -861l-27 20zM106 527h82q0 -22 1.5 -32t8 -21.5t23.5 -16t45 -4.5q57 0 78 12t21 47q0 58 -51 58h-70v68h68q7 0 14 1.5t18 13t11 32.5q0 31 -16.5 42.5t-62.5 11.5
q-47 0 -64 -13t-17 -54h-81q0 34 5 56.5t21 43.5t49 31t85 10q34 0 57 -3t49.5 -13.5t40.5 -34.5t14 -62q0 -35 -10 -56t-19 -26.5t-26 -11.5q17 -6 28 -11.5t24.5 -29.5t13.5 -62q0 -65 -40 -95t-123 -30q-110 0 -144 34t-33 115z" />
    <glyph glyph-name="Japan1.9784" 
d="M810 821l26 -21l-645 -861l-27 20zM570 376h304v-73h-226l-1 -86q33 23 96 23q80 0 114.5 -33t34.5 -106q0 -36 -5 -59t-21 -46.5t-51.5 -35t-92.5 -11.5q-48 0 -81.5 9t-50 20.5t-24.5 32.5t-9 35t-1 38h82q-1 -30 13.5 -45.5t65.5 -15.5q59 0 76 15.5t17 56.5
q0 39 -15 56t-65 17q-46 0 -63 -7.5t-24 -23.5h-75zM175 804h157v-417h-81v341h-76v76z" />
    <glyph glyph-name="Japan1.9785" 
d="M810 821l26 -21l-645 -861l-27 20zM570 376h304v-73h-226l-1 -86q33 23 96 23q80 0 114.5 -33t34.5 -106q0 -36 -5 -59t-21 -46.5t-51.5 -35t-92.5 -11.5q-48 0 -81.5 9t-50 20.5t-24.5 32.5t-9 35t-1 38h82q-1 -30 13.5 -45.5t65.5 -15.5q59 0 76 15.5t17 56.5
q0 39 -15 56t-65 17q-46 0 -63 -7.5t-24 -23.5h-75zM346 550l-112 -20q-20 -4 -30 -15.5t-11.5 -23t-1.5 -36.5h249v-71h-330v96q0 100 97 118l109 20q44 8 44 57q0 33 -17 47.5t-61 14.5q-45 0 -65 -11t-20 -44v-27h-83q0 32 1.5 47.5t10 40.5t24.5 37t47.5 21.5t78.5 9.5
q95 0 130.5 -31.5t35.5 -99.5t-23 -94.5t-73 -35.5z" />
    <glyph glyph-name="Japan1.9786" 
d="M810 821l26 -21l-645 -861l-27 20zM570 376h304v-73h-226l-1 -86q33 23 96 23q80 0 114.5 -33t34.5 -106q0 -36 -5 -59t-21 -46.5t-51.5 -35t-92.5 -11.5q-48 0 -81.5 9t-50 20.5t-24.5 32.5t-9 35t-1 38h82q-1 -30 13.5 -45.5t65.5 -15.5q59 0 76 15.5t17 56.5
q0 39 -15 56t-65 17q-46 0 -63 -7.5t-24 -23.5h-75zM106 527h82q0 -22 1.5 -32t8 -21.5t23.5 -16t45 -4.5q57 0 78 12t21 47q0 58 -51 58h-70v68h68q7 0 14 1.5t18 13t11 32.5q0 31 -16.5 42.5t-62.5 11.5q-47 0 -64 -13t-17 -54h-81q0 34 5 56.5t21 43.5t49 31t85 10
q34 0 57 -3t49.5 -13.5t40.5 -34.5t14 -62q0 -35 -10 -56t-19 -26.5t-26 -11.5q17 -6 28 -11.5t24.5 -29.5t13.5 -62q0 -65 -40 -95t-123 -30q-110 0 -144 34t-33 115z" />
    <glyph glyph-name="Japan1.9787" 
d="M292 811h107v-264h58v-74h-58v-82h-78v82h-227v90zM321 547v187l-146 -187h146zM810 821l26 -21l-645 -861l-27 20zM570 376h304v-73h-226l-1 -86q33 23 96 23q80 0 114.5 -33t34.5 -106q0 -36 -5 -59t-21 -46.5t-51.5 -35t-92.5 -11.5q-48 0 -81.5 9t-50 20.5
t-24.5 32.5t-9 35t-1 38h82q-1 -30 13.5 -45.5t65.5 -15.5q59 0 76 15.5t17 56.5q0 39 -15 56t-65 17q-46 0 -63 -7.5t-24 -23.5h-75z" />
    <glyph glyph-name="Japan1.9788" 
d="M882 258h-80q-1 28 -17.5 38.5t-57.5 10.5q-54 0 -70 -21t-17 -99q11 10 18.5 15t30 10t56.5 5q31 0 51.5 -3.5t44.5 -15t36.5 -40t12.5 -72.5t-12 -72.5t-35.5 -42t-48.5 -18.5t-61 -5q-69 0 -104 14.5t-53 57.5t-18 127q0 100 16.5 150t51 66.5t103.5 16.5q49 0 81 -9
t46.5 -28t19.5 -37.5t6 -47.5zM724 148q-28 0 -45 -5t-24.5 -15t-9.5 -19t-2 -25q0 -36 18 -50t61 -14q54 0 69.5 15t15.5 51q0 39 -19 50.5t-64 11.5zM810 821l26 -21l-645 -861l-27 20zM175 804h157v-417h-81v341h-76v76z" />
    <glyph glyph-name="Japan1.9789" 
d="M882 258h-80q-1 28 -17.5 38.5t-57.5 10.5q-54 0 -70 -21t-17 -99q11 10 18.5 15t30 10t56.5 5q31 0 51.5 -3.5t44.5 -15t36.5 -40t12.5 -72.5t-12 -72.5t-35.5 -42t-48.5 -18.5t-61 -5q-69 0 -104 14.5t-53 57.5t-18 127q0 100 16.5 150t51 66.5t103.5 16.5q49 0 81 -9
t46.5 -28t19.5 -37.5t6 -47.5zM724 148q-28 0 -45 -5t-24.5 -15t-9.5 -19t-2 -25q0 -36 18 -50t61 -14q54 0 69.5 15t15.5 51q0 39 -19 50.5t-64 11.5zM810 821l26 -21l-645 -861l-27 20zM121 807h305v-73h-227l-1 -86q30 23 96 23q81 0 115.5 -32.5t34.5 -106.5
q0 -36 -5 -59t-21 -46.5t-52 -35t-93 -11.5q-48 0 -81 9t-49.5 20.5t-24.5 33t-9 35t-1 38.5h81q0 -15 2 -24.5t9.5 -19t24.5 -14t44 -4.5q58 0 75 15.5t17 56.5q0 40 -14.5 56.5t-64.5 16.5q-47 0 -63.5 -7t-24.5 -24h-75z" />
    <glyph glyph-name="Japan1.9790" 
d="M810 821l26 -21l-645 -861l-27 20zM560 368h328v-74l-181 -345h-94l186 345h-239v74zM175 804h157v-417h-81v341h-76v76z" />
    <glyph glyph-name="Japan1.9791" 
d="M810 821l26 -21l-645 -861l-27 20zM560 368h328v-74l-181 -345h-94l186 345h-239v74zM346 550l-112 -20q-20 -4 -30 -15.5t-11.5 -23t-1.5 -36.5h249v-71h-330v96q0 100 97 118l109 20q44 8 44 57q0 33 -17 47.5t-61 14.5q-45 0 -65 -11t-20 -44v-27h-83q0 32 1.5 47.5
t10 40.5t24.5 37t47.5 21.5t78.5 9.5q95 0 130.5 -31.5t35.5 -99.5t-23 -94.5t-73 -35.5z" />
    <glyph glyph-name="Japan1.9792" 
d="M810 821l26 -21l-645 -861l-27 20zM560 368h328v-74l-181 -345h-94l186 345h-239v74zM106 527h82q0 -22 1.5 -32t8 -21.5t23.5 -16t45 -4.5q57 0 78 12t21 47q0 58 -51 58h-70v68h68q7 0 14 1.5t18 13t11 32.5q0 31 -16.5 42.5t-62.5 11.5q-47 0 -64 -13t-17 -54h-81
q0 34 5 56.5t21 43.5t49 31t85 10q34 0 57 -3t49.5 -13.5t40.5 -34.5t14 -62q0 -35 -10 -56t-19 -26.5t-26 -11.5q17 -6 28 -11.5t24.5 -29.5t13.5 -62q0 -65 -40 -95t-123 -30q-110 0 -144 34t-33 115z" />
    <glyph glyph-name="Japan1.9793" 
d="M292 811h107v-264h58v-74h-58v-82h-78v82h-227v90zM321 547v187l-146 -187h146zM810 821l26 -21l-645 -861l-27 20zM560 368h328v-74l-181 -345h-94l186 345h-239v74z" />
    <glyph glyph-name="Japan1.9794" 
d="M810 821l26 -21l-645 -861l-27 20zM560 368h328v-74l-181 -345h-94l186 345h-239v74zM121 807h305v-73h-227l-1 -86q30 23 96 23q81 0 115.5 -32.5t34.5 -106.5q0 -36 -5 -59t-21 -46.5t-52 -35t-93 -11.5q-48 0 -81 9t-49.5 20.5t-24.5 33t-9 35t-1 38.5h81
q0 -15 2 -24.5t9.5 -19t24.5 -14t44 -4.5q58 0 75 15.5t17 56.5q0 40 -14.5 56.5t-64.5 16.5q-47 0 -63.5 -7t-24.5 -24h-75z" />
    <glyph glyph-name="Japan1.9795" 
d="M434 689h-80q-1 28 -17.5 38.5t-57.5 10.5q-55 0 -71 -20.5t-17 -99.5q11 10 19 15t30 10t57 5q31 0 51.5 -3.5t44.5 -15t36.5 -40t12.5 -72.5t-12 -72.5t-36 -42t-49 -18t-61 -4.5q-68 0 -103 14t-53 57t-18 127q0 100 16.5 150t51 67t103.5 17q49 0 81 -9t46.5 -28
t19.5 -38t6 -48zM276 579q-52 0 -67 -16t-15 -48q0 -37 18.5 -50.5t61.5 -13.5q54 0 69.5 15t15.5 51q0 39 -19 50.5t-64 11.5zM810 821l26 -21l-645 -861l-27 20zM560 368h328v-74l-181 -345h-94l186 345h-239v74z" />
    <glyph glyph-name="Japan1.9796" 
d="M833 172q16 -6 26.5 -12.5t23 -29t12.5 -56.5q0 -64 -36.5 -95t-137.5 -31q-89 0 -128.5 27.5t-39.5 91.5q0 52 18 73.5t47 31.5q-56 25 -56 94q0 31 11 53.5t26 34t39 18t43 8t44 1.5q34 0 58 -3.5t50.5 -14t40.5 -34.5t14 -61q0 -26 -5.5 -44.5t-15.5 -28.5
t-16.5 -14.5t-17.5 -8.5zM725 307q-29 0 -44 -2.5t-26.5 -15.5t-11.5 -38q0 -22 13 -32.5t28.5 -12t50.5 -1.5q24 0 36.5 2.5t23 13.5t10.5 33q0 23 -13.5 35.5t-28 15t-38.5 2.5zM725 137q-19 0 -30 -1t-28 -6t-25.5 -17.5t-8.5 -32.5q0 -31 20.5 -45.5t75.5 -14.5
q48 0 67 13.5t19 47.5q0 31 -18.5 43.5t-71.5 12.5zM810 821l26 -21l-645 -861l-27 20zM175 804h157v-417h-81v341h-76v76z" />
    <glyph glyph-name="Japan1.9797" 
d="M833 172q16 -6 26.5 -12.5t23 -29t12.5 -56.5q0 -64 -36.5 -95t-137.5 -31q-89 0 -128.5 27.5t-39.5 91.5q0 52 18 73.5t47 31.5q-56 25 -56 94q0 31 11 53.5t26 34t39 18t43 8t44 1.5q34 0 58 -3.5t50.5 -14t40.5 -34.5t14 -61q0 -26 -5.5 -44.5t-15.5 -28.5
t-16.5 -14.5t-17.5 -8.5zM725 307q-29 0 -44 -2.5t-26.5 -15.5t-11.5 -38q0 -22 13 -32.5t28.5 -12t50.5 -1.5q24 0 36.5 2.5t23 13.5t10.5 33q0 23 -13.5 35.5t-28 15t-38.5 2.5zM725 137q-19 0 -30 -1t-28 -6t-25.5 -17.5t-8.5 -32.5q0 -31 20.5 -45.5t75.5 -14.5
q48 0 67 13.5t19 47.5q0 31 -18.5 43.5t-71.5 12.5zM810 821l26 -21l-645 -861l-27 20zM106 527h82q0 -22 1.5 -32t8 -21.5t23.5 -16t45 -4.5q57 0 78 12t21 47q0 58 -51 58h-70v68h68q7 0 14 1.5t18 13t11 32.5q0 31 -16.5 42.5t-62.5 11.5q-47 0 -64 -13t-17 -54h-81
q0 34 5 56.5t21 43.5t49 31t85 10q34 0 57 -3t49.5 -13.5t40.5 -34.5t14 -62q0 -35 -10 -56t-19 -26.5t-26 -11.5q17 -6 28 -11.5t24.5 -29.5t13.5 -62q0 -65 -40 -95t-123 -30q-110 0 -144 34t-33 115z" />
    <glyph glyph-name="Japan1.9798" 
d="M833 172q16 -6 26.5 -12.5t23 -29t12.5 -56.5q0 -64 -36.5 -95t-137.5 -31q-89 0 -128.5 27.5t-39.5 91.5q0 52 18 73.5t47 31.5q-56 25 -56 94q0 31 11 53.5t26 34t39 18t43 8t44 1.5q34 0 58 -3.5t50.5 -14t40.5 -34.5t14 -61q0 -26 -5.5 -44.5t-15.5 -28.5
t-16.5 -14.5t-17.5 -8.5zM725 307q-29 0 -44 -2.5t-26.5 -15.5t-11.5 -38q0 -22 13 -32.5t28.5 -12t50.5 -1.5q24 0 36.5 2.5t23 13.5t10.5 33q0 23 -13.5 35.5t-28 15t-38.5 2.5zM725 137q-19 0 -30 -1t-28 -6t-25.5 -17.5t-8.5 -32.5q0 -31 20.5 -45.5t75.5 -14.5
q48 0 67 13.5t19 47.5q0 31 -18.5 43.5t-71.5 12.5zM810 821l26 -21l-645 -861l-27 20zM121 807h305v-73h-227l-1 -86q30 23 96 23q81 0 115.5 -32.5t34.5 -106.5q0 -36 -5 -59t-21 -46.5t-52 -35t-93 -11.5q-48 0 -81 9t-49.5 20.5t-24.5 33t-9 35t-1 38.5h81
q0 -15 2 -24.5t9.5 -19t24.5 -14t44 -4.5q58 0 75 15.5t17 56.5q0 40 -14.5 56.5t-64.5 16.5q-47 0 -63.5 -7t-24.5 -24h-75z" />
    <glyph glyph-name="Japan1.9799" 
d="M833 172q16 -6 26.5 -12.5t23 -29t12.5 -56.5q0 -64 -36.5 -95t-137.5 -31q-89 0 -128.5 27.5t-39.5 91.5q0 52 18 73.5t47 31.5q-56 25 -56 94q0 31 11 53.5t26 34t39 18t43 8t44 1.5q34 0 58 -3.5t50.5 -14t40.5 -34.5t14 -61q0 -26 -5.5 -44.5t-15.5 -28.5
t-16.5 -14.5t-17.5 -8.5zM725 307q-29 0 -44 -2.5t-26.5 -15.5t-11.5 -38q0 -22 13 -32.5t28.5 -12t50.5 -1.5q24 0 36.5 2.5t23 13.5t10.5 33q0 23 -13.5 35.5t-28 15t-38.5 2.5zM725 137q-19 0 -30 -1t-28 -6t-25.5 -17.5t-8.5 -32.5q0 -31 20.5 -45.5t75.5 -14.5
q48 0 67 13.5t19 47.5q0 31 -18.5 43.5t-71.5 12.5zM810 821l26 -21l-645 -861l-27 20zM112 799h328v-74l-182 -345h-93l185 345h-238v74z" />
    <glyph glyph-name="Japan1.9800" 
d="M566 71h80q1 -28 17.5 -38.5t57.5 -10.5q55 0 71 20.5t17 99.5q-11 -10 -19 -15t-30 -10t-57 -5q-31 0 -51.5 3.5t-44.5 15t-36.5 40t-12.5 72.5t12 72.5t36 42t49 18t61 4.5q68 0 103 -14t53 -57t18 -127q0 -100 -16.5 -150t-51 -67t-103.5 -17q-49 0 -81 9t-46.5 28
t-19.5 38t-6 48zM724 181q52 0 67 16t15 48q0 36 -18.5 50t-61.5 14q-54 0 -69.5 -15t-15.5 -51q0 -40 19 -51t64 -11zM810 821l26 -21l-645 -861l-27 20zM175 804h157v-417h-81v341h-76v76z" />
    <glyph glyph-name="Japan1.9801" 
d="M566 71h80q1 -28 17.5 -38.5t57.5 -10.5q55 0 71 20.5t17 99.5q-11 -10 -19 -15t-30 -10t-57 -5q-31 0 -51.5 3.5t-44.5 15t-36.5 40t-12.5 72.5t12 72.5t36 42t49 18t61 4.5q68 0 103 -14t53 -57t18 -127q0 -100 -16.5 -150t-51 -67t-103.5 -17q-49 0 -81 9t-46.5 28
t-19.5 38t-6 48zM724 181q52 0 67 16t15 48q0 36 -18.5 50t-61.5 14q-54 0 -69.5 -15t-15.5 -51q0 -40 19 -51t64 -11zM810 821l26 -21l-645 -861l-27 20zM346 550l-112 -20q-20 -4 -30 -15.5t-11.5 -23t-1.5 -36.5h249v-71h-330v96q0 100 97 118l109 20q44 8 44 57
q0 33 -17 47.5t-61 14.5q-45 0 -65 -11t-20 -44v-27h-83q0 32 1.5 47.5t10 40.5t24.5 37t47.5 21.5t78.5 9.5q95 0 130.5 -31.5t35.5 -99.5t-23 -94.5t-73 -35.5z" />
    <glyph glyph-name="Japan1.9802" 
d="M566 71h80q1 -28 17.5 -38.5t57.5 -10.5q55 0 71 20.5t17 99.5q-11 -10 -19 -15t-30 -10t-57 -5q-31 0 -51.5 3.5t-44.5 15t-36.5 40t-12.5 72.5t12 72.5t36 42t49 18t61 4.5q68 0 103 -14t53 -57t18 -127q0 -100 -16.5 -150t-51 -67t-103.5 -17q-49 0 -81 9t-46.5 28
t-19.5 38t-6 48zM724 181q52 0 67 16t15 48q0 36 -18.5 50t-61.5 14q-54 0 -69.5 -15t-15.5 -51q0 -40 19 -51t64 -11zM292 811h107v-264h58v-74h-58v-82h-78v82h-227v90zM321 547v187l-146 -187h146zM810 821l26 -21l-645 -861l-27 20z" />
    <glyph glyph-name="Japan1.9803" 
d="M566 71h80q1 -28 17.5 -38.5t57.5 -10.5q55 0 71 20.5t17 99.5q-11 -10 -19 -15t-30 -10t-57 -5q-31 0 -51.5 3.5t-44.5 15t-36.5 40t-12.5 72.5t12 72.5t36 42t49 18t61 4.5q68 0 103 -14t53 -57t18 -127q0 -100 -16.5 -150t-51 -67t-103.5 -17q-49 0 -81 9t-46.5 28
t-19.5 38t-6 48zM724 181q52 0 67 16t15 48q0 36 -18.5 50t-61.5 14q-54 0 -69.5 -15t-15.5 -51q0 -40 19 -51t64 -11zM810 821l26 -21l-645 -861l-27 20zM121 807h305v-73h-227l-1 -86q30 23 96 23q81 0 115.5 -32.5t34.5 -106.5q0 -36 -5 -59t-21 -46.5t-52 -35t-93 -11.5
q-48 0 -81 9t-49.5 20.5t-24.5 33t-9 35t-1 38.5h81q0 -15 2 -24.5t9.5 -19t24.5 -14t44 -4.5q58 0 75 15.5t17 56.5q0 40 -14.5 56.5t-64.5 16.5q-47 0 -63.5 -7t-24.5 -24h-75z" />
    <glyph glyph-name="Japan1.9804" 
d="M566 71h80q1 -28 17.5 -38.5t57.5 -10.5q55 0 71 20.5t17 99.5q-11 -10 -19 -15t-30 -10t-57 -5q-31 0 -51.5 3.5t-44.5 15t-36.5 40t-12.5 72.5t12 72.5t36 42t49 18t61 4.5q68 0 103 -14t53 -57t18 -127q0 -100 -16.5 -150t-51 -67t-103.5 -17q-49 0 -81 9t-46.5 28
t-19.5 38t-6 48zM724 181q52 0 67 16t15 48q0 36 -18.5 50t-61.5 14q-54 0 -69.5 -15t-15.5 -51q0 -40 19 -51t64 -11zM810 821l26 -21l-645 -861l-27 20zM112 799h328v-74l-182 -345h-93l185 345h-238v74z" />
    <glyph glyph-name="Japan1.9805" 
d="M385 604q12 -5 19 -9.5t19 -15t18 -29.5t6 -45q0 -64 -36.5 -95t-137.5 -31q-89 0 -128.5 27.5t-39.5 92.5q0 36 11.5 59t23 31t30.5 15q-15 7 -24.5 13t-21 27.5t-11.5 52.5t11 53.5t26 34t39.5 18t43 8t44.5 1.5q34 0 57.5 -3.5t50 -14t40.5 -34.5t14 -61q0 -26 -5 -44
t-15.5 -28.5t-16.5 -14t-17 -8.5zM277 738q-30 0 -45 -2.5t-26 -15.5t-11 -38q0 -17 5.5 -26.5t20 -13.5t27 -5t39.5 -1q23 0 36 2.5t23.5 14t10.5 33.5q0 23 -13.5 35.5t-28 14.5t-38.5 2zM276 568q-18 0 -29 -1t-28 -6t-25.5 -17.5t-8.5 -32.5q0 -30 20.5 -45t74.5 -15
q49 0 68 13.5t19 47.5q0 31 -19 43.5t-72 12.5zM566 71h80q1 -28 17.5 -38.5t57.5 -10.5q55 0 71 20.5t17 99.5q-11 -10 -19 -15t-30 -10t-57 -5q-31 0 -51.5 3.5t-44.5 15t-36.5 40t-12.5 72.5t12 72.5t36 42t49 18t61 4.5q68 0 103 -14t53 -57t18 -127q0 -100 -16.5 -150
t-51 -67t-103.5 -17q-49 0 -81 9t-46.5 28t-19.5 38t-6 48zM724 181q52 0 67 16t15 48q0 36 -18.5 50t-61.5 14q-54 0 -69.5 -15t-15.5 -51q0 -40 19 -51t64 -11zM810 821l26 -21l-645 -861l-27 20z" />
    <glyph glyph-name="Japan1.9806" 
d="M823 380q71 0 90.5 -42.5t19.5 -172.5q0 -128 -19 -171.5t-89 -43.5q-46 0 -68.5 14.5t-34 60.5t-11.5 140q0 92 11 138t33.5 61.5t67.5 15.5zM822 308q-20 0 -25 -25q-5 -22 -5 -117q0 -91 5 -116q6 -25 26 -25q10 0 15 4t8.5 21t4.5 47t1 87q0 59 -4 87t-9 32.5
t-17 4.5zM810 821l26 -21l-645 -861l-27 20zM529 374h129v-418h-75v344h-54v74zM175 804h157v-417h-81v341h-76v76z" />
    <glyph glyph-name="Japan1.9807" 
d="M823 380q71 0 90.5 -42.5t19.5 -172.5q0 -128 -19 -171.5t-89 -43.5q-46 0 -68.5 14.5t-34 60.5t-11.5 140q0 92 11 138t33.5 61.5t67.5 15.5zM822 308q-20 0 -25 -25q-5 -22 -5 -117q0 -91 5 -116q6 -25 26 -25q10 0 15 4t8.5 21t4.5 47t1 87q0 59 -4 87t-9 32.5
t-17 4.5zM810 821l26 -21l-645 -861l-27 20zM529 374h129v-418h-75v344h-54v74zM106 527h82q0 -22 1.5 -32t8 -21.5t23.5 -16t45 -4.5q57 0 78 12t21 47q0 58 -51 58h-70v68h68q7 0 14 1.5t18 13t11 32.5q0 31 -16.5 42.5t-62.5 11.5q-47 0 -64 -13t-17 -54h-81q0 34 5 56.5
t21 43.5t49 31t85 10q34 0 57 -3t49.5 -13.5t40.5 -34.5t14 -62q0 -35 -10 -56t-19 -26.5t-26 -11.5q17 -6 28 -11.5t24.5 -29.5t13.5 -62q0 -65 -40 -95t-123 -30q-110 0 -144 34t-33 115z" />
    <glyph glyph-name="Japan1.9808" 
d="M823 380q71 0 90.5 -42.5t19.5 -172.5q0 -128 -19 -171.5t-89 -43.5q-46 0 -68.5 14.5t-34 60.5t-11.5 140q0 92 11 138t33.5 61.5t67.5 15.5zM822 308q-20 0 -25 -25q-5 -22 -5 -117q0 -91 5 -116q6 -25 26 -25q10 0 15 4t8.5 21t4.5 47t1 87q0 59 -4 87t-9 32.5
t-17 4.5zM810 821l26 -21l-645 -861l-27 20zM529 374h129v-418h-75v344h-54v74zM112 799h328v-74l-182 -345h-93l185 345h-238v74z" />
    <glyph glyph-name="Japan1.9809" 
d="M823 380q71 0 90.5 -42.5t19.5 -172.5q0 -128 -19 -171.5t-89 -43.5q-46 0 -68.5 14.5t-34 60.5t-11.5 140q0 92 11 138t33.5 61.5t67.5 15.5zM822 308q-20 0 -25 -25q-5 -22 -5 -117q0 -91 5 -116q6 -25 26 -25q10 0 15 4t8.5 21t4.5 47t1 87q0 59 -4 87t-9 32.5
t-17 4.5zM118 502h80q1 -28 17.5 -38.5t57.5 -10.5q55 0 70.5 20.5t16.5 99.5q-10 -10 -18.5 -15.5t-30.5 -10t-56 -4.5q-31 0 -51.5 3.5t-44.5 15t-36.5 40t-12.5 72.5q0 83 41 110.5t116 27.5q69 0 104 -14.5t53 -57.5t18 -127q0 -100 -16.5 -150t-51 -66.5t-103.5 -16.5
q-49 0 -81 9t-46.5 28t-19.5 37.5t-6 47.5zM276 612q28 0 45 5t24.5 15t9.5 19t2 25q0 36 -18 50t-61 14q-54 0 -70 -15.5t-16 -50.5q0 -39 19.5 -50.5t64.5 -11.5zM810 821l26 -21l-645 -861l-27 20zM529 374h129v-418h-75v344h-54v74z" />
    <glyph glyph-name="Japan1.9810" 
d="M810 821l26 -21l-645 -861l-27 20zM559 374h128v-418h-75v344h-53v74zM775 374h129v-418h-75v344h-54v74zM175 804h157v-417h-81v341h-76v76z" />
    <glyph glyph-name="Japan1.9811" 
d="M810 821l26 -21l-645 -861l-27 20zM559 374h128v-418h-75v344h-53v74zM775 374h129v-418h-75v344h-54v74zM346 550l-112 -20q-20 -4 -30 -15.5t-11.5 -23t-1.5 -36.5h249v-71h-330v96q0 100 97 118l109 20q44 8 44 57q0 33 -17 47.5t-61 14.5q-45 0 -65 -11t-20 -44v-27
h-83q0 32 1.5 47.5t10 40.5t24.5 37t47.5 21.5t78.5 9.5q95 0 130.5 -31.5t35.5 -99.5t-23 -94.5t-73 -35.5z" />
    <glyph glyph-name="Japan1.9812" 
d="M810 821l26 -21l-645 -861l-27 20zM559 374h128v-418h-75v344h-53v74zM775 374h129v-418h-75v344h-54v74zM106 527h82q0 -22 1.5 -32t8 -21.5t23.5 -16t45 -4.5q57 0 78 12t21 47q0 58 -51 58h-70v68h68q7 0 14 1.5t18 13t11 32.5q0 31 -16.5 42.5t-62.5 11.5
q-47 0 -64 -13t-17 -54h-81q0 34 5 56.5t21 43.5t49 31t85 10q34 0 57 -3t49.5 -13.5t40.5 -34.5t14 -62q0 -35 -10 -56t-19 -26.5t-26 -11.5q17 -6 28 -11.5t24.5 -29.5t13.5 -62q0 -65 -40 -95t-123 -30q-110 0 -144 34t-33 115z" />
    <glyph glyph-name="Japan1.9813" 
d="M292 811h107v-264h58v-74h-58v-82h-78v82h-227v90zM321 547v187l-146 -187h146zM810 821l26 -21l-645 -861l-27 20zM559 374h128v-418h-75v344h-53v74zM775 374h129v-418h-75v344h-54v74z" />
    <glyph glyph-name="Japan1.9814" 
d="M810 821l26 -21l-645 -861l-27 20zM559 374h128v-418h-75v344h-53v74zM775 374h129v-418h-75v344h-54v74zM121 807h305v-73h-227l-1 -86q30 23 96 23q81 0 115.5 -32.5t34.5 -106.5q0 -36 -5 -59t-21 -46.5t-52 -35t-93 -11.5q-48 0 -81 9t-49.5 20.5t-24.5 33t-9 35
t-1 38.5h81q0 -15 2 -24.5t9.5 -19t24.5 -14t44 -4.5q58 0 75 15.5t17 56.5q0 40 -14.5 56.5t-64.5 16.5q-47 0 -63.5 -7t-24.5 -24h-75z" />
    <glyph glyph-name="Japan1.9815" 
d="M434 689h-80q-1 28 -17.5 38.5t-57.5 10.5q-55 0 -71 -20.5t-17 -99.5q11 10 19 15t30 10t57 5q31 0 51.5 -3.5t44.5 -15t36.5 -40t12.5 -72.5t-12 -72.5t-36 -42t-49 -18t-61 -4.5q-68 0 -103 14t-53 57t-18 127q0 100 16.5 150t51 67t103.5 17q49 0 81 -9t46.5 -28
t19.5 -38t6 -48zM276 579q-52 0 -67 -16t-15 -48q0 -37 18.5 -50.5t61.5 -13.5q54 0 69.5 15t15.5 51q0 39 -19 50.5t-64 11.5zM810 821l26 -21l-645 -861l-27 20zM559 374h128v-418h-75v344h-53v74zM775 374h129v-418h-75v344h-54v74z" />
    <glyph glyph-name="Japan1.9816" 
d="M810 821l26 -21l-645 -861l-27 20zM559 374h128v-418h-75v344h-53v74zM775 374h129v-418h-75v344h-54v74zM112 799h328v-74l-182 -345h-93l185 345h-238v74z" />
    <glyph glyph-name="Japan1.9817" 
d="M385 604q12 -5 19 -9.5t19 -15t18 -29.5t6 -45q0 -64 -36.5 -95t-137.5 -31q-89 0 -128.5 27.5t-39.5 92.5q0 36 11.5 59t23 31t30.5 15q-15 7 -24.5 13t-21 27.5t-11.5 52.5t11 53.5t26 34t39.5 18t43 8t44.5 1.5q34 0 57.5 -3.5t50 -14t40.5 -34.5t14 -61q0 -26 -5 -44
t-15.5 -28.5t-16.5 -14t-17 -8.5zM277 738q-30 0 -45 -2.5t-26 -15.5t-11 -38q0 -17 5.5 -26.5t20 -13.5t27 -5t39.5 -1q23 0 36 2.5t23.5 14t10.5 33.5q0 23 -13.5 35.5t-28 14.5t-38.5 2zM276 568q-18 0 -29 -1t-28 -6t-25.5 -17.5t-8.5 -32.5q0 -30 20.5 -45t74.5 -15
q49 0 68 13.5t19 47.5q0 31 -19 43.5t-72 12.5zM810 821l26 -21l-645 -861l-27 20zM559 374h128v-418h-75v344h-53v74zM775 374h129v-418h-75v344h-54v74z" />
    <glyph glyph-name="Japan1.9818" 
d="M118 502h80q1 -28 17.5 -38.5t57.5 -10.5q55 0 70.5 20.5t16.5 99.5q-10 -10 -18.5 -15.5t-30.5 -10t-56 -4.5q-31 0 -51.5 3.5t-44.5 15t-36.5 40t-12.5 72.5q0 83 41 110.5t116 27.5q69 0 104 -14.5t53 -57.5t18 -127q0 -100 -16.5 -150t-51 -66.5t-103.5 -16.5
q-49 0 -81 9t-46.5 28t-19.5 37.5t-6 47.5zM276 612q28 0 45 5t24.5 15t9.5 19t2 25q0 36 -18 50t-61 14q-54 0 -70 -15.5t-16 -50.5q0 -39 19.5 -50.5t64.5 -11.5zM810 821l26 -21l-645 -861l-27 20zM559 374h128v-418h-75v344h-53v74zM775 374h129v-418h-75v344h-54v74z
" />
    <glyph glyph-name="Japan1.9819" 
d="M360 810q71 0 91 -43t20 -172q0 -128 -19 -171.5t-90 -43.5q-45 0 -67.5 14.5t-34 60.5t-11.5 140q0 93 10.5 138.5t33 61t67.5 15.5zM360 738q-20 0 -25 -25q-6 -26 -6 -117t6 -116t26 -25q10 0 14.5 4t8 21.5t4.5 47t1 86.5q0 60 -4 87.5t-8.5 32t-16.5 4.5zM810 821
l26 -21l-645 -861l-27 20zM559 374h128v-418h-75v344h-53v74zM775 374h129v-418h-75v344h-54v74zM67 804h129v-418h-75v344h-54v74z" />
    <glyph glyph-name="Japan1.9820" 
d="M529 374h129v-418h-75v344h-54v74zM710 230v53q0 98 109 98q61 0 87 -24t26 -94q0 -30 -1 -44.5t-6 -34.5t-16.5 -32.5t-31.5 -20.5l-66 -28q-19 -8 -23 -21.5t-5 -54.5h150v-71h-223v101q0 78 60 105l61 27q17 7 22 17t5 32v33q0 40 -33 40q-43 0 -43 -43v-38h-72z
M810 821l26 -21l-645 -861l-27 20zM175 804h157v-417h-81v341h-76v76z" />
    <glyph glyph-name="Japan1.9821" 
d="M529 374h129v-418h-75v344h-54v74zM710 230v53q0 98 109 98q61 0 87 -24t26 -94q0 -30 -1 -44.5t-6 -34.5t-16.5 -32.5t-31.5 -20.5l-66 -28q-19 -8 -23 -21.5t-5 -54.5h150v-71h-223v101q0 78 60 105l61 27q17 7 22 17t5 32v33q0 40 -33 40q-43 0 -43 -43v-38h-72z
M810 821l26 -21l-645 -861l-27 20zM121 807h305v-73h-227l-1 -86q30 23 96 23q81 0 115.5 -32.5t34.5 -106.5q0 -36 -5 -59t-21 -46.5t-52 -35t-93 -11.5q-48 0 -81 9t-49.5 20.5t-24.5 33t-9 35t-1 38.5h81q0 -15 2 -24.5t9.5 -19t24.5 -14t44 -4.5q58 0 75 15.5t17 56.5
q0 40 -14.5 56.5t-64.5 16.5q-47 0 -63.5 -7t-24.5 -24h-75z" />
    <glyph glyph-name="Japan1.9822" 
d="M529 374h129v-418h-75v344h-54v74zM710 230v53q0 98 109 98q61 0 87 -24t26 -94q0 -30 -1 -44.5t-6 -34.5t-16.5 -32.5t-31.5 -20.5l-66 -28q-19 -8 -23 -21.5t-5 -54.5h150v-71h-223v101q0 78 60 105l61 27q17 7 22 17t5 32v33q0 40 -33 40q-43 0 -43 -43v-38h-72z
M810 821l26 -21l-645 -861l-27 20zM112 799h328v-74l-182 -345h-93l185 345h-238v74z" />
    <glyph glyph-name="Japan1.9823" 
d="M529 374h129v-418h-75v344h-54v74zM710 230v53q0 98 109 98q61 0 87 -24t26 -94q0 -30 -1 -44.5t-6 -34.5t-16.5 -32.5t-31.5 -20.5l-66 -28q-19 -8 -23 -21.5t-5 -54.5h150v-71h-223v101q0 78 60 105l61 27q17 7 22 17t5 32v33q0 40 -33 40q-43 0 -43 -43v-38h-72z
M810 821l26 -21l-645 -861l-27 20zM96 804h129v-418h-75v344h-54v74zM313 804h128v-418h-75v344h-53v74z" />
    <glyph glyph-name="Japan1.9824" 
d="M724 380q50 0 64 -43t14 -172q0 -126 -13.5 -170.5t-62.5 -44.5q-19 0 -28 1.5t-21.5 12t-18 32.5t-10 64t-4.5 105t4.5 105t10 63.5t17.5 32.5t21 12.5t27 1.5zM723 308q-12 0 -16 -25q-4 -24 -4 -117q0 -88 4 -116q6 -25 17 -25q10 0 14 16q5 23 5 125q0 53 -1 82
t-4 42.5t-5.5 15.5t-9.5 2zM905 380q50 0 64 -43t14 -172q0 -126 -13.5 -170.5t-62.5 -44.5q-19 0 -28 1.5t-22 12t-18 32.5t-9.5 64t-4.5 105t4.5 105t10 63.5t17.5 32.5t21 12.5t27 1.5zM904 308q-14 0 -16 -25q-4 -28 -4 -117q0 -80 3 -116q3 -25 18 -25q13 0 16 25
t3 116q0 103 -5 126q-3 16 -15 16zM810 821l26 -21l-645 -861l-27 20zM531 374h90v-418h-55v344h-35v74zM175 804h157v-417h-81v341h-76v76z" />
    <glyph glyph-name="Japan1.9825" 
d="M500 812q101 0 133.5 -42.5t32.5 -143.5q0 -93 -32.5 -134.5t-133.5 -41.5q-100 0 -133 41t-33 139q0 99 33.5 140.5t132.5 41.5zM500 744q-49 0 -66.5 -22.5t-17.5 -91.5q0 -64 17 -88.5t69 -24.5q50 0 66 25t16 88q0 71 -18.5 92.5t-65.5 21.5zM65 396h870v-32h-870v32
zM336 77h80q0 -36 14.5 -48.5t70.5 -12.5q20 0 30.5 1t24.5 4.5t20.5 12.5t6.5 24q0 45 -49 45h-63v60h62q46 0 46 38q0 40 -78 40q-50 0 -64 -10t-15 -41h-81q1 21 2 31t5.5 27.5t15 26t27.5 18t45 13.5t67 4q157 0 157 -96q0 -22 -5.5 -37.5t-17 -24.5t-17.5 -12t-18 -7
q13 -3 20 -5.5t18.5 -11t17.5 -25t6 -40.5q0 -33 -12 -54t-36 -31.5t-50.5 -14t-64.5 -3.5q-71 0 -106.5 13.5t-46.5 39t-12 76.5z" />
    <glyph glyph-name="Japan1.9826" 
d="M65 396h870v-32h-870v32zM574 92l-114 -17q-37 -6 -40 -52h237v-68h-317v79q0 93 89 105l111 16q39 6 39 40q0 26 -17 36.5t-64 10.5q-27 0 -43 -4t-23 -14.5t-8 -17.5t-2 -23h-79q0 20 1 31t4.5 28.5t13.5 27.5t26 20.5t42.5 15t63.5 4.5q53 0 87.5 -8t51 -24.5
t22 -34.5t5.5 -45q0 -93 -86 -106zM388 803h166v-345h-80v277h-86v68z" />
    <glyph glyph-name="Japan1.9827" 
d="M65 396h870v-32h-870v32zM336 77h80q0 -36 14.5 -48.5t70.5 -12.5q20 0 30.5 1t24.5 4.5t20.5 12.5t6.5 24q0 45 -49 45h-63v60h62q46 0 46 38q0 40 -78 40q-50 0 -64 -10t-15 -41h-81q1 21 2 31t5.5 27.5t15 26t27.5 18t45 13.5t67 4q157 0 157 -96q0 -22 -5.5 -37.5
t-17 -24.5t-17.5 -12t-18 -7q13 -3 20 -5.5t18.5 -11t17.5 -25t6 -40.5q0 -33 -12 -54t-36 -31.5t-50.5 -14t-64.5 -3.5q-71 0 -106.5 13.5t-46.5 39t-12 76.5zM388 803h166v-345h-80v277h-86v68z" />
    <glyph glyph-name="Japan1.9828" 
d="M65 396h870v-32h-870v32zM336 77h80q0 -36 14.5 -48.5t70.5 -12.5q20 0 30.5 1t24.5 4.5t20.5 12.5t6.5 24q0 45 -49 45h-63v60h62q46 0 46 38q0 40 -78 40q-50 0 -64 -10t-15 -41h-81q1 21 2 31t5.5 27.5t15 26t27.5 18t45 13.5t67 4q157 0 157 -96q0 -22 -5.5 -37.5
t-17 -24.5t-17.5 -12t-18 -7q13 -3 20 -5.5t18.5 -11t17.5 -25t6 -40.5q0 -33 -12 -54t-36 -31.5t-50.5 -14t-64.5 -3.5q-71 0 -106.5 13.5t-46.5 39t-12 76.5zM574 593l-114 -17q-37 -6 -40 -52h237v-68h-317v79q0 93 89 105l111 16q39 6 39 40q0 26 -17 36.5t-64 10.5
q-27 0 -43 -4t-23 -14t-8 -17.5t-2 -22.5h-79q0 24 1 37t9 33t22.5 30.5t45 18.5t73.5 8q101 0 133.5 -28t32.5 -85q0 -93 -86 -106z" />
    <glyph glyph-name="Japan1.9829" 
d="M512 310h105v-213h55v-68h-55v-66h-78v66h-211v84zM539 97v143l-129 -143h129zM65 396h870v-32h-870v32zM388 803h166v-345h-80v277h-86v68z" />
    <glyph glyph-name="Japan1.9830" 
d="M65 396h870v-32h-870v32zM336 578h80q0 -36 14.5 -48.5t70.5 -12.5q20 0 30.5 1t24.5 4.5t20.5 12.5t6.5 24q0 45 -49 45h-63v60h62q46 0 46 38q0 40 -78 40q-50 0 -64 -10t-15 -41h-81q1 25 2.5 37.5t10 31.5t24.5 28t47.5 16.5t77.5 7.5q157 0 157 -96q0 -29 -12 -48
t-21 -23.5t-25 -10.5q16 -3 27 -7.5t23 -23.5t12 -51q0 -43 -23.5 -66.5t-55.5 -29.5t-84 -6q-71 0 -106.5 13.5t-46.5 38.5t-12 76zM512 310h105v-213h55v-68h-55v-66h-78v66h-211v84zM539 97v143l-129 -143h129z" />
    <glyph glyph-name="Japan1.9831" 
d="M65 396h870v-32h-870v32zM356 306h290v-69h-212l-5 -65q33 19 93 19q44 0 74 -10.5t43.5 -30t18.5 -37.5t5 -41q0 -69 -38 -96.5t-125 -27.5q-89 0 -126.5 26t-36.5 90h80q0 -26 19.5 -37t62.5 -11q45 0 64 10t19 44q0 32 -15.5 45.5t-62.5 13.5q-32 0 -49.5 -4.5
t-20.5 -9t-6 -13.5h-78zM388 803h166v-345h-80v277h-86v68z" />
    <glyph glyph-name="Japan1.9832" 
d="M65 396h870v-32h-870v32zM356 306h290v-69h-212l-5 -65q33 19 93 19q44 0 74 -10.5t43.5 -30t18.5 -37.5t5 -41q0 -69 -38 -96.5t-125 -27.5q-89 0 -126.5 26t-36.5 90h80q0 -26 19.5 -37t62.5 -11q45 0 64 10t19 44q0 32 -15.5 45.5t-62.5 13.5q-32 0 -49.5 -4.5
t-20.5 -9t-6 -13.5h-78zM574 593l-114 -17q-37 -6 -40 -52h237v-68h-317v79q0 93 89 105l111 16q39 6 39 40q0 26 -17 36.5t-64 10.5q-27 0 -43 -4t-23 -14t-8 -17.5t-2 -22.5h-79q0 24 1 37t9 33t22.5 30.5t45 18.5t73.5 8q101 0 133.5 -28t32.5 -85q0 -93 -86 -106z" />
    <glyph glyph-name="Japan1.9833" 
d="M65 396h870v-32h-870v32zM356 306h290v-69h-212l-5 -65q33 19 93 19q44 0 74 -10.5t43.5 -30t18.5 -37.5t5 -41q0 -69 -38 -96.5t-125 -27.5q-89 0 -126.5 26t-36.5 90h80q0 -26 19.5 -37t62.5 -11q45 0 64 10t19 44q0 32 -15.5 45.5t-62.5 13.5q-32 0 -49.5 -4.5
t-20.5 -9t-6 -13.5h-78zM336 578h80q0 -36 14.5 -48.5t70.5 -12.5q20 0 30.5 1t24.5 4.5t20.5 12.5t6.5 24q0 45 -49 45h-63v60h62q46 0 46 38q0 40 -78 40q-50 0 -64 -10t-15 -41h-81q1 25 2.5 37.5t10 31.5t24.5 28t47.5 16.5t77.5 7.5q157 0 157 -96q0 -29 -12 -48
t-21 -23.5t-25 -10.5q16 -3 27 -7.5t23 -23.5t12 -51q0 -43 -23.5 -66.5t-55.5 -29.5t-84 -6q-71 0 -106.5 13.5t-46.5 38.5t-12 76z" />
    <glyph glyph-name="Japan1.9834" 
d="M512 812h105v-214h55v-68h-55v-66h-78v66h-211v84zM539 598v143l-129 -143h129zM65 396h870v-32h-870v32zM356 306h290v-69h-212l-5 -65q33 19 93 19q44 0 74 -10.5t43.5 -30t18.5 -37.5t5 -41q0 -69 -38 -96.5t-125 -27.5q-89 0 -126.5 26t-36.5 90h80q0 -26 19.5 -37
t62.5 -11q45 0 64 10t19 44q0 32 -15.5 45.5t-62.5 13.5q-32 0 -49.5 -4.5t-20.5 -9t-6 -13.5h-78z" />
    <glyph glyph-name="Japan1.9835" 
d="M655 201h-79q0 43 -72 43q-26 0 -43 -4t-26 -9t-13.5 -20.5t-5.5 -27t-1 -39.5q9 9 17 14.5t32 10.5t60 5q66 0 103.5 -23t37.5 -86q0 -70 -40 -94t-130 -24q-95 0 -127.5 35.5t-32.5 132.5q0 85 16 127t48.5 56t98.5 14q52 0 84.5 -8.5t47.5 -26t19.5 -33.5t5.5 -43z
M502 110q-42 0 -63.5 -9.5t-21.5 -38.5q0 -22 12.5 -33t25.5 -12.5t39 -1.5q53 0 72 9.5t19 40.5q0 16 -6 26t-20 13.5t-24.5 4.5t-32.5 1zM65 396h870v-32h-870v32zM388 803h166v-345h-80v277h-86v68z" />
    <glyph glyph-name="Japan1.9836" 
d="M655 201h-79q0 43 -72 43q-26 0 -43 -4t-26 -9t-13.5 -20.5t-5.5 -27t-1 -39.5q9 9 17 14.5t32 10.5t60 5q66 0 103.5 -23t37.5 -86q0 -70 -40 -94t-130 -24q-95 0 -127.5 35.5t-32.5 132.5q0 85 16 127t48.5 56t98.5 14q52 0 84.5 -8.5t47.5 -26t19.5 -33.5t5.5 -43z
M502 110q-42 0 -63.5 -9.5t-21.5 -38.5q0 -22 12.5 -33t25.5 -12.5t39 -1.5q53 0 72 9.5t19 40.5q0 16 -6 26t-20 13.5t-24.5 4.5t-32.5 1zM65 396h870v-32h-870v32zM356 807h290v-69h-212l-5 -65q33 19 93 19q44 0 74 -10.5t43.5 -30t18.5 -37.5t5 -41q0 -68 -38 -95.5
t-125 -27.5q-89 0 -126.5 25.5t-36.5 89.5h80q0 -48 82 -48q45 0 64 10t19 44q0 33 -15.5 46t-62.5 13q-32 0 -49.5 -4.5t-20.5 -9t-6 -13.5h-78z" />
    <glyph glyph-name="Japan1.9837" 
d="M65 396h870v-32h-870v32zM336 303h328v-50l-193 -305h-92l188 285h-231v70zM388 803h166v-345h-80v277h-86v68z" />
    <glyph glyph-name="Japan1.9838" 
d="M65 396h870v-32h-870v32zM336 303h328v-50l-193 -305h-92l188 285h-231v70zM574 593l-114 -17q-37 -6 -40 -52h237v-68h-317v79q0 93 89 105l111 16q39 6 39 40q0 26 -17 36.5t-64 10.5q-27 0 -43 -4t-23 -14t-8 -17.5t-2 -22.5h-79q0 24 1 37t9 33t22.5 30.5t45 18.5
t73.5 8q101 0 133.5 -28t32.5 -85q0 -93 -86 -106z" />
    <glyph glyph-name="Japan1.9839" 
d="M65 396h870v-32h-870v32zM336 303h328v-50l-193 -305h-92l188 285h-231v70zM336 578h80q0 -36 14.5 -48.5t70.5 -12.5q20 0 30.5 1t24.5 4.5t20.5 12.5t6.5 24q0 45 -49 45h-63v60h62q46 0 46 38q0 40 -78 40q-50 0 -64 -10t-15 -41h-81q1 25 2.5 37.5t10 31.5t24.5 28
t47.5 16.5t77.5 7.5q157 0 157 -96q0 -29 -12 -48t-21 -23.5t-25 -10.5q16 -3 27 -7.5t23 -23.5t12 -51q0 -43 -23.5 -66.5t-55.5 -29.5t-84 -6q-71 0 -106.5 13.5t-46.5 38.5t-12 76z" />
    <glyph glyph-name="Japan1.9840" 
d="M512 812h105v-214h55v-68h-55v-66h-78v66h-211v84zM539 598v143l-129 -143h129zM65 396h870v-32h-870v32zM336 303h328v-50l-193 -305h-92l188 285h-231v70z" />
    <glyph glyph-name="Japan1.9841" 
d="M65 396h870v-32h-870v32zM336 303h328v-50l-193 -305h-92l188 285h-231v70zM356 807h290v-69h-212l-5 -65q33 19 93 19q44 0 74 -10.5t43.5 -30t18.5 -37.5t5 -41q0 -68 -38 -95.5t-125 -27.5q-89 0 -126.5 25.5t-36.5 89.5h80q0 -48 82 -48q45 0 64 10t19 44
q0 33 -15.5 46t-62.5 13q-32 0 -49.5 -4.5t-20.5 -9t-6 -13.5h-78z" />
    </font>
</defs>
</svg>
