<?xml version="1.0" standalone="no"?>
<!DOCTYPE svg PUBLIC "-//W3C//DTD SVG 1.1//EN" "http://www.w3.org/Graphics/SVG/1.1/DTD/svg11.dtd" >
<svg>
<metadata>
Created by FontForge 20090622 at Fri Feb  3 10:29:38 2017
 By deploy user
</metadata>
<defs>
<font id="ShinGoPr5-Heavy-AlphaNum" horiz-adv-x="1000" vert-adv-y="1000" >
  <font-face 
    font-family="ShinGoPr5-Heavy-AlphaNum"
    font-weight="800"
    font-stretch="normal"
    units-per-em="1000"
    panose-1="2 0 9 3 0 0 0 0 0 0"
    ascent="800"
    descent="-200"
    bbox="10 -97 993 867"
    underline-thickness="50"
    underline-position="-100"
  />
<missing-glyph horiz-adv-x="364" 
d="M33 0v666h265v-666h-265zM66 33h199v600h-199v-600z" />
    <glyph glyph-name=".notdef" horiz-adv-x="364" 
d="M33 0v666h265v-666h-265zM66 33h199v600h-199v-600z" />
    <glyph glyph-name=".null" horiz-adv-x="0" vert-adv-y="0" 
 />
    <glyph glyph-name="nonmarkingreturn" horiz-adv-x="333" 
 />
    <glyph glyph-name="Japan1.7555" 
d="M341 672h225v-584h-119v463h-106v121zM500 854q128 0 237 -62.5t173 -172t64 -239.5q0 -97 -37.5 -185t-101 -151t-151.5 -100.5t-184 -37.5q-196 0 -335 139t-139 335q0 197 139 335.5t335 138.5zM500 819q-181 0 -310 -128t-129 -311q0 -119 59 -220t160 -160t220 -59
q182 0 310.5 128.5t128.5 310.5q0 183 -129.5 311t-309.5 128z" />
    <glyph glyph-name="Japan1.7556" 
d="M500 854q128 0 237 -62.5t173 -172t64 -239.5q0 -196 -139 -335t-335 -139t-335 139t-139 335q0 130 64 239.5t173 172t237 62.5zM500 819q-181 0 -310 -128t-129 -311q0 -119 59 -220t160 -160t220 -59q182 0 310.5 128.5t128.5 310.5q0 183 -129 311t-310 128zM588 334
l-94 -43q-25 -11 -33.5 -27.5t-8.5 -54.5h212v-121h-326q-1 178 10 223.5t73 72.5l86 38q16 7 23 12.5t13.5 21.5t6.5 43q0 32 -9 45t-38 13q-34 0 -42.5 -14.5t-8.5 -63.5v-16h-113q0 33 0.5 48t2 40.5t4.5 36l8 27.5t13 24l20 17t28 13t36.5 6t47.5 3q48 0 76 -5.5
t50.5 -22.5t31.5 -50.5t9 -88.5q0 -85 -13.5 -119.5t-64.5 -57.5z" />
    <glyph glyph-name="Japan1.7557" 
d="M500 854q128 0 237 -62.5t173 -172t64 -239.5q0 -196 -139 -335t-335 -139t-335 139t-139 335q0 130 64 239.5t173 172t237 62.5zM500 819q-181 0 -310 -128t-129 -311q0 -119 59 -220t160 -160t220 -59q182 0 310.5 128.5t128.5 310.5q0 183 -129 311t-310 128zM336 262
v28h118q-2 -56 5 -71.5t41 -15.5q27 0 38 11t11 46q0 48 -11.5 58.5t-47.5 10.5h-51v111h51q31 0 43.5 10.5t12.5 50.5q0 28 -8.5 42t-37.5 14q-32 0 -39 -14t-7 -59h-118q0 33 0.5 48.5t3.5 40.5t9 37t17.5 28t28.5 23t43 12t60 5q41 0 65.5 -4.5t49 -19t36 -47.5t11.5 -85
q0 -55 -15 -85t-68 -48q19 -1 32.5 -5.5t27.5 -18.5t21.5 -44.5t7.5 -76.5q0 -92 -34.5 -127t-124.5 -35q-40 0 -68 4t-47 15t-30.5 23t-17 35t-7 45t-1.5 58z" />
    <glyph glyph-name="Japan1.7558" 
d="M500 854q128 0 237 -62.5t173 -172t64 -239.5q0 -196 -139 -335t-335 -139t-335 139t-139 335q0 130 64 239.5t173 172t237 62.5zM500 819q-181 0 -310 -128t-129 -311q0 -119 59 -220t160 -160t220 -59q182 0 310.5 128.5t128.5 310.5q0 183 -129 311t-310 128zM446 672
h157v-353h35v-121h-35v-110h-118v110h-190v152zM487 521l-87 -202h87v202z" />
    <glyph glyph-name="Japan1.7559" 
d="M500 854q128 0 237 -62.5t173 -172t64 -239.5q0 -196 -139 -335t-335 -139t-335 139t-139 335q0 130 64 239.5t173 172t237 62.5zM500 819q-181 0 -310 -128t-129 -311q0 -119 59 -220t160 -160t220 -59q182 0 310.5 128.5t128.5 310.5q0 183 -129 311t-310 128zM344 672
h313v-121h-197l-4 -85q28 18 75 18q39 0 65.5 -12t40 -28t20.5 -47t8.5 -53.5t1.5 -61.5q0 -56 -4.5 -87.5t-21 -60t-51 -40.5t-91.5 -12q-55 0 -88.5 10.5t-50.5 37t-22 58t-5 86.5h118q-1 -43 6.5 -57t42.5 -14q31 0 40 13.5t9 62.5q0 56 -7 73.5t-40 17.5q-27 0 -38 -10
t-13 -31h-114z" />
    <glyph glyph-name="Japan1.7560" 
d="M500 854q128 0 237 -62.5t173 -172t64 -239.5q0 -196 -139 -335t-335 -139t-335 139t-139 335q0 130 64 239.5t173 172t237 62.5zM500 819q-181 0 -310 -128t-129 -311q0 -119 59 -220t160 -160t220 -59q182 0 310.5 128.5t128.5 310.5q0 183 -129 311t-310 128zM662 502
h-116q1 35 -8.5 45.5t-37.5 10.5q-32 0 -41 -20t-8 -95q37 22 87 22q74 0 101 -43t27 -139q0 -55 -4.5 -86t-20.5 -60.5t-51 -42t-93 -12.5q-25 0 -44 1.5t-34.5 7l-27.5 10t-21 17t-14.5 21t-9.5 29.5l-6.5 35t-3.5 44.5t-1 50.5v61v71.5t1.5 59t3.5 51t6 40t10 34l15.5 24
t21 19l28 11t36 8t44.5 1.5q89 0 125 -34.5t36 -141.5zM501 347q-31 0 -39.5 -16.5t-8.5 -58.5q0 -43 9.5 -56.5t39.5 -13.5q15 0 24.5 4t14.5 8.5t7.5 17t3 21.5t0.5 30q0 38 -10 51t-41 13z" />
    <glyph glyph-name="Japan1.7561" 
d="M500 854q128 0 237 -62.5t173 -172t64 -239.5q0 -196 -139 -335t-335 -139t-335 139t-139 335q0 130 64 239.5t173 172t237 62.5zM500 819q-181 0 -310 -128t-129 -311q0 -119 59 -220t160 -160t220 -59q182 0 310.5 128.5t128.5 310.5q0 183 -129 311t-310 128zM329 672
h345v-122l-175 -462h-132l184 463h-222v121z" />
    <glyph glyph-name="Japan1.7562" 
d="M409 390q-37 16 -52 44.5t-15 83.5q0 95 34.5 127.5t115.5 32.5q45 0 70.5 -4t50 -19t35 -49t10.5 -89q0 -62 -16.5 -87.5t-50.5 -39.5q18 -6 27.5 -11.5t22.5 -20t19 -42t6 -69.5q0 -91 -35 -128t-127 -37q-43 0 -70.5 5.5t-52 21.5t-36 49t-11.5 85q0 54 11 85.5
t25 42.5t39 19zM500 558q-21 0 -30.5 -8t-11.5 -18t-2 -31q0 -15 1 -23t5 -17t13 -12.5t25 -3.5t25 3.5t13 12.5t5 17t1 23q0 31 -7.5 44t-36.5 13zM500 328q-32 0 -41 -15t-9 -55q0 -30 10 -43t40 -13q32 0 41 14.5t9 50.5q0 33 -10 47t-40 14zM500 854q128 0 237 -62.5
t173 -172t64 -239.5q0 -196 -139 -335t-335 -139t-335 139t-139 335q0 130 64 239.5t173 172t237 62.5zM500 819q-181 0 -310 -128t-129 -311q0 -119 59 -220t160 -160t220 -59q182 0 310.5 128.5t128.5 310.5q0 183 -129 311t-310 128z" />
    <glyph glyph-name="Japan1.7563" 
d="M500 854q128 0 237 -62.5t173 -172t64 -239.5q0 -196 -139 -335t-335 -139t-335 139t-139 335q0 130 64 239.5t173 172t237 62.5zM500 819q-181 0 -310 -128t-129 -311q0 -119 59 -220t160 -160t220 -59q182 0 310.5 128.5t128.5 310.5q0 183 -129 311t-310 128zM333 258
h116q-1 -35 9 -45.5t42 -10.5q34 0 42.5 20t8.5 95q-36 -23 -86 -23q-76 0 -103 43t-27 139q0 45 2.5 73t12.5 55.5t28.5 41.5t50 23t78.5 9q24 0 43 -1.5t34.5 -7t27 -10t20.5 -17.5l14.5 -21.5t9.5 -29.5l6.5 -34.5t3.5 -43.5t1 -50v-60q0 -180 -12 -230q-16 -63 -68 -81
q-32 -10 -89 -10q-46 0 -74.5 6t-50.5 24.5t-31 53.5t-9 92zM501 413q17 0 27 4.5t14 16.5t5 22t1 31q0 44 -9.5 57t-39.5 13q-33 0 -41 -16t-8 -63q0 -39 10 -52t41 -13z" />
    <glyph glyph-name="Japan1.7564" 
d="M640 670q96 0 127 -35q29 -34 32 -143q1 -32 1 -112q0 -164 -11 -209q-15 -57 -66 -72q-28 -9 -77 -9q-100 0 -132 33q-30 32 -34 137q-1 33 -1 120q0 165 11 209q15 56 64 72q31 9 86 9zM640 552q-30 0 -37 -11q-10 -17 -10 -127v-34q0 -137 8 -156q15 -16 40 -16
q29 0 35 12q10 17 10 135v25q0 136 -8 156q-14 15 -38 16zM500 854q128 0 237 -62.5t173 -172t64 -239.5q0 -196 -139 -335t-335 -139t-335 139t-139 335q0 130 64 239.5t173 172t237 62.5zM500 819q-181 0 -310 -128t-129 -311q0 -119 59 -220t160 -160t220 -59
q182 0 310.5 128.5t128.5 310.5q0 183 -129 311t-310 128zM191 546v118h218v-568h-115v450h-103z" />
    <glyph glyph-name="Japan1.7565" 
d="M500 854q128 0 237 -62.5t173 -172t64 -239.5q0 -196 -139 -335t-335 -139t-335 139t-139 335q0 130 64 239.5t173 172t237 62.5zM500 819q-181 0 -310 -128t-129 -311q0 -119 59 -220t160 -160t220 -59q182 0 310.5 128.5t128.5 310.5q0 183 -129 311t-310 128zM194 664
h218v-568h-115v450h-103v118zM542 664h218v-568h-115v450h-103v118z" />
    <glyph glyph-name="Japan1.7566" 
d="M500 854q128 0 237 -62.5t173 -172t64 -239.5q0 -196 -139 -335t-335 -139t-335 139t-139 335q0 130 64 239.5t173 172t237 62.5zM500 819q-181 0 -310 -128t-129 -311q0 -119 59 -220t160 -160t220 -59q182 0 310.5 128.5t128.5 310.5q0 183 -129 311t-310 128zM191 546
v118h218v-568h-115v450h-103zM717 336l-91 -42q-25 -11 -33 -27t-7 -53h206v-118h-317q-2 64 0 109.5t4 74.5t12 49t24.5 31.5t40.5 23.5l83 37q15 7 22 12t13 20.5t6 42.5q0 31 -8.5 43.5t-36.5 12.5q-33 0 -41 -13.5t-8 -62.5v-15h-110q0 41 0.5 59t3 46.5t8.5 40t17 27
t27.5 21.5t41 10.5t57.5 4.5q47 0 74.5 -5.5t49 -22.5t30 -49.5t8.5 -85.5q0 -82 -13 -115t-63 -56z" />
    <glyph glyph-name="Japan1.7567" 
d="M191 546v118h218v-568h-115v450h-103zM478 292h115q-1 -55 5.5 -69.5t39.5 -14.5q26 0 37 11t11 44q0 25 -2.5 39t-11.5 20.5t-16.5 7.5t-26.5 1h-51v107h51q30 0 42 11t12 49q0 27 -8.5 40.5t-36.5 13.5q-17 0 -26 -3t-13.5 -13.5t-5 -20.5t-0.5 -34h-114q0 32 0.5 47
t3.5 39.5t8.5 36t16.5 27t28 22.5t42 12t58 5q39 0 63.5 -4.5t48 -19t34.5 -46t11 -81.5q0 -54 -14.5 -83.5t-66.5 -46.5q40 -2 63.5 -29.5t23.5 -111.5q0 -89 -33 -123.5t-122 -34.5q-58 0 -91.5 9t-50 33.5t-20.5 52.5t-4 81v26zM500 854q128 0 237 -62.5t173 -172
t64 -239.5q0 -196 -139 -335t-335 -139t-335 139t-139 335q0 130 64 239.5t173 172t237 62.5zM500 819q-181 0 -310 -128t-129 -311q0 -119 59 -220t160 -160t220 -59q182 0 310.5 128.5t128.5 310.5q0 183 -129 311t-310 128z" />
    <glyph glyph-name="Japan1.7568" 
d="M622 664h152v-343h34v-118h-34v-107h-114v107h-185v147zM661 517l-83 -196h83v196zM500 854q128 0 237 -62.5t173 -172t64 -239.5q0 -196 -139 -335t-335 -139t-335 139t-139 335q0 130 64 239.5t173 172t237 62.5zM500 819q-181 0 -310 -128t-129 -311q0 -119 59 -220
t160 -160t220 -59q182 0 310.5 128.5t128.5 310.5q0 183 -129 311t-310 128zM191 546v118h218v-568h-115v450h-103z" />
    <glyph glyph-name="Japan1.7569" 
d="M191 546v118h218v-568h-115v450h-103zM489 664h303v-118h-191l-3 -83q26 18 72 18q27 0 48 -6t35 -15t23.5 -25.5t14.5 -30t7.5 -37.5t3 -39.5t0.5 -42.5q0 -43 -2.5 -69.5t-11.5 -53t-26.5 -40.5t-48 -23t-74.5 -9q-54 0 -86.5 10.5t-48.5 36.5t-21 56.5t-5 83.5h114
q0 -42 6 -53q9 -16 42 -16q31 0 39.5 13t8.5 61q0 30 -0.5 42t-5 25t-14 17t-26.5 4q-27 0 -37 -10t-12 -30h-111zM500 854q128 0 237 -62.5t173 -172t64 -239.5q0 -196 -139 -335t-335 -139t-335 139t-139 335q0 130 64 239.5t173 172t237 62.5zM500 819q-181 0 -310 -128
t-129 -311q0 -119 59 -220t160 -160t220 -59q182 0 310.5 128.5t128.5 310.5q0 183 -129 311t-310 128z" />
    <glyph glyph-name="Japan1.7570" 
d="M794 498h-112q0 35 -9.5 45t-36.5 10q-31 0 -39.5 -19t-7.5 -93q35 22 84 22q73 0 99 -42t26 -135q0 -54 -4 -84t-20 -59t-50 -41t-90 -12q-98 0 -129 40q-26 36 -29 147v83q0 174 13 223q15 61 69 78q30 9 80 9q85 0 120.5 -33.5t35.5 -138.5zM637 348q-30 0 -38 -16
t-8 -57t9.5 -54t38.5 -13q33 0 40.5 16t7.5 62q0 37 -10 49.5t-40 12.5zM500 854q128 0 237 -62.5t173 -172t64 -239.5q0 -196 -139 -335t-335 -139t-335 139t-139 335q0 130 64 239.5t173 172t237 62.5zM500 819q-181 0 -310 -128t-129 -311q0 -119 59 -220t160 -160
t220 -59q182 0 310.5 128.5t128.5 310.5q0 183 -129 311t-310 128zM191 546v118h218v-568h-115v450h-103z" />
    <glyph glyph-name="Japan1.7571" 
d="M500 854q128 0 237 -62.5t173 -172t64 -239.5q0 -196 -139 -335t-335 -139t-335 139t-139 335q0 130 64 239.5t173 172t237 62.5zM500 819q-181 0 -310 -128t-129 -311q0 -119 59 -220t160 -160t220 -59q182 0 310.5 128.5t128.5 310.5q0 183 -129 311t-310 128zM191 546
v118h218v-568h-115v450h-103zM479 664h323v-119l-170 -449h-128l178 450h-203v118z" />
    <glyph glyph-name="Japan1.7572" 
d="M556 390q-35 16 -50 43t-15 81q0 93 34 124.5t112 31.5q44 0 68.5 -4t48.5 -18.5t34.5 -47.5t10.5 -87q0 -58 -16 -83.5t-49 -39.5q18 -7 27 -12t21.5 -19.5t18 -41t5.5 -67.5q0 -89 -34 -124.5t-123 -35.5q-86 0 -125.5 30.5t-39.5 126.5q0 75 17.5 102.5t54.5 40.5z
M645 552q-29 0 -36 -12.5t-7 -42.5q0 -19 1.5 -28.5t11.5 -17t30 -7.5q28 0 35.5 12.5t7.5 40.5q0 31 -7.5 43t-35.5 12zM645 330q-31 0 -39.5 -14.5t-8.5 -53.5q0 -30 10 -42t38 -12q31 0 39.5 13.5t8.5 49.5q0 33 -9.5 46t-38.5 13zM500 854q128 0 237 -62.5t173 -172
t64 -239.5q0 -196 -139 -335t-335 -139t-335 139t-139 335q0 130 64 239.5t173 172t237 62.5zM500 819q-181 0 -310 -128t-129 -311q0 -119 59 -220t160 -160t220 -59q182 0 310.5 128.5t128.5 310.5q0 183 -129 311t-310 128zM191 546v118h218v-568h-115v450h-103z" />
    <glyph glyph-name="Japan1.7573" 
d="M478 262h113q-1 -34 8.5 -44.5t40.5 -10.5q33 0 41.5 20t7.5 92q-35 -22 -83 -22q-73 0 -99.5 42t-26.5 134q0 55 4.5 86t21 59.5t50.5 40t91 11.5q23 0 41.5 -1.5t33.5 -7t26 -10t20 -17l14.5 -20.5t9.5 -28.5t6 -34t3 -42.5t1 -48.5v-58.5q0 -175 -12 -224
q-16 -62 -68 -78q-30 -10 -84 -10q-89 0 -124.5 33t-35.5 139zM191 546v118h218v-568h-115v450h-103zM641 412q22 0 32.5 10.5t12 22.5t1.5 39q0 42 -9.5 55t-38.5 13q-31 0 -39.5 -15.5t-8.5 -61.5q0 -38 10 -50.5t40 -12.5zM500 854q128 0 237 -62.5t173 -172t64 -239.5
q0 -196 -139 -335t-335 -139t-335 139t-139 335q0 130 64 239.5t173 172t237 62.5zM500 819q-181 0 -310 -128t-129 -311q0 -119 59 -220t160 -160t220 -59q182 0 310.5 128.5t128.5 310.5q0 183 -129 311t-310 128z" />
    <glyph glyph-name="Japan1.7574" 
d="M676 670q96 0 127 -35q29 -34 32 -143q1 -32 1 -112q0 -164 -11 -209q-15 -57 -66 -72q-28 -9 -77 -9q-100 0 -132 33q-30 32 -34 137q-1 33 -1 120q0 165 11 209q15 56 64 72q31 9 86 9zM676 552q-30 0 -37 -11q-10 -17 -10 -127v-34q0 -137 8 -156q15 -16 40 -16
q29 0 35 12q10 17 10 135v25q0 136 -8 156q-14 15 -38 16zM500 854q128 0 237 -62.5t173 -172t64 -239.5q0 -196 -139 -335t-335 -139t-335 139t-139 335q0 130 64 239.5t173 172t237 62.5zM500 819q-181 0 -310 -128t-129 -311q0 -119 59 -220t160 -160t220 -59
q182 0 310.5 128.5t128.5 310.5q0 183 -129 311t-310 128zM413 336l-92 -42q-24 -11 -32 -27t-8 -53h206v-118h-316q-2 171 9 216t71 72l83 37q16 7 23 12t13 20.5t6 42.5q0 31 -9 43.5t-37 12.5q-33 0 -41 -13.5t-8 -62.5v-15h-109q0 41 0.5 59t3 46.5t8.5 40t16.5 27
t27.5 21.5t41 10.5t57 4.5q47 0 74.5 -5.5t49.5 -22.5t30.5 -49.5t8.5 -85.5q0 -82 -13 -115t-63 -56z" />
    <glyph glyph-name="Japan1.7575" 
d="M325 788h350v-141h-85v-506h85v-141h-350v141h85v506h-85v141z" />
    <glyph glyph-name="Japan1.7576" 
d="M171 788h658v-141h-77v-506h77v-141h-658v141h76v506h-76v141zM574 647h-148v-506h148v506z" />
    <glyph glyph-name="Japan1.7577" 
d="M104 788h792v-141h-75v-506h75v-141h-792v141h75v506h-75v141zM418 647h-74v-506h74v506zM656 647h-74v-506h74v506z" />
    <glyph glyph-name="Japan1.7578" 
d="M29 788h547v-141h-65l101 -444l95 444h-64v141h328v-141h-72l-169 -647h-235l-175 647h-40v-506h74v-141h-325v141h72v506h-72v141z" />
    <glyph glyph-name="Japan1.7579" 
d="M86 788h353v-141h-78l139 -464l139 464h-78v141h353v-141h-77l-220 -647h-234l-220 647h-77v141z" />
    <glyph glyph-name="Japan1.7580" 
d="M424 788h547v-141h-72v-506h72v-141h-325v141h74v506h-40l-175 -647h-235l-169 647h-72v141h328v-141h-64l95 -444l101 444h-65v141z" />
    <glyph glyph-name="Japan1.7581" 
d="M12 788h257v-141h-40l64 -496l66 496h-40v141h669v-141h-46v-506h46v-141h-473v141h45v506h-32l-119 -647h-233l-116 647h-48v141zM773 647h-45v-506h45v506z" />
    <glyph glyph-name="Japan1.7582" 
d="M13 788h212v-141h-28l53 -524l52 524h-28v141h713v-141h-42v-506h42v-141h-561v141h42v506h-24l-87 -647h-218l-84 647h-42v141zM640 647h-37v-506h37v506zM811 647h-38v-506h38v506z" />
    <glyph glyph-name="Japan1.7583" 
d="M61 788h528v-141h-36l59 -123l62 123h-37v141h304v-141h-76l-141 -248l148 -258h71v-141h-303v141h40l-71 141l-74 -141h41v-141h-519v141h71v506h-67v141zM362 647h-61v-506h42l156 260z" />
    <glyph glyph-name="Japan1.7584" 
d="M148 788h320v-141h-46l78 -135l79 135h-47v141h321v-141h-74l-160 -246l168 -260h79v-141h-327v141h47l-86 150l-86 -150h45v-141h-325v141h79l168 260l-160 246h-73v141z" />
    <glyph glyph-name="Japan1.8061" 
d="M142 394q0 85 5.5 142.5t20.5 105t38.5 75.5t64.5 46.5t93.5 25.5t128.5 7q83 0 138.5 -6.5t98.5 -26t66.5 -46t38 -76t19 -107t4.5 -147.5q0 -84 -5.5 -141.5t-21 -103.5t-39 -73.5t-63.5 -45.5t-90.5 -24.5t-123.5 -6.5q-83 0 -133 4t-96.5 19t-70.5 40.5t-42.5 72
t-24.5 109.5t-6 157zM500 632q-37 0 -55.5 -0.5t-41.5 -4.5t-32.5 -8.5t-21.5 -18.5t-15 -28.5t-7 -43.5t-4.5 -58.5t-0.5 -78.5t0.5 -78t5 -57.5t7 -42.5t16 -27.5t22.5 -18t34 -8.5t44 -4h59q43 0 65.5 1.5t44.5 9.5t30.5 20t16 39t9 59.5t1.5 87.5q0 170 -15 209
q-12 33 -48.5 42t-113.5 9zM887 184h106v-184h-106v184z" />
    <glyph glyph-name="Japan1.8062" 
d="M887 184h106v-184h-106v184zM282 788h343v-788h-181v624h-162v164z" />
    <glyph glyph-name="Japan1.8063" 
d="M887 184h106v-184h-106v184zM652 293l-244 -30q-45 -5 -64.5 -19t-19.5 -55v-25h529v-164h-707v157q0 24 0.5 38t4 42.5t10.5 48t21.5 44.5t34.5 41.5t52 30t72 18.5l255 30q49 6 67.5 21.5t18.5 62.5q0 56 -32 77t-139 21q-43 0 -70.5 -1.5t-47.5 -8t-30.5 -13
t-16.5 -22.5t-7 -30.5t-2 -43.5h-177q0 34 1 54.5t4.5 48.5t10 45t18 38.5t28.5 34t42.5 26t58.5 20.5t76.5 11.5t97.5 4.5q45 0 76 -1t68.5 -4.5t62.5 -11.5t52.5 -20t44.5 -31t31.5 -44.5t21 -60.5t6.5 -79q0 -130 -62 -185q-63 -56 -146 -66z" />
    <glyph glyph-name="Japan1.8064" 
d="M142 281h180q0 -32 1 -49.5t9 -33.5t18.5 -22.5t36 -11.5t54.5 -6t81 -1q27 0 40.5 0.5t36 3t34.5 8t25.5 15t19 25.5t5.5 38q0 24 -7.5 41t-17 25.5t-27 13t-28 5t-28.5 0.5h-157v142h157q17 0 26.5 0.5t25 4.5t23.5 11.5t14.5 22.5t6.5 37q0 24 -8 39.5t-19.5 24
t-37.5 12.5t-47 4.5t-64 0.5q-39 0 -66.5 -2.5t-45 -10t-27 -14t-14 -21.5t-5 -25t-0.5 -32h-178q2 85 17.5 136t57 82t104 41.5t168.5 10.5q121 0 183 -13.5t99 -48.5q61 -57 61 -159q0 -127 -95 -163q19 -7 32.5 -15t34 -28t31.5 -56t11 -85q0 -61 -18.5 -105t-47.5 -69
t-76 -39.5t-93 -18.5t-110 -4q-101 0 -167 9.5t-109 28t-64.5 55t-28.5 80.5t-7 116zM887 184h106v-184h-106v184z" />
    <glyph glyph-name="Japan1.8065" 
d="M887 184h106v-184h-106v184zM506 788h252v-477h92v-164h-92v-147h-180v147h-456v174zM578 311v336l-272 -336h272z" />
    <glyph glyph-name="Japan1.8066" 
d="M178 788h646v-164h-481l-5 -144q32 25 78 37.5t148 12.5q60 0 101 -5.5t79.5 -22t61 -46.5t36 -79.5t13.5 -119.5q0 -73 -14 -119.5t-51.5 -81t-105.5 -49.5t-174 -15q-112 0 -178.5 10.5t-110.5 41t-60.5 80.5t-17.5 135h180q-1 -31 2.5 -47t19.5 -30.5t50 -20t93 -5.5
q120 0 153.5 17t33.5 85q0 35 -4.5 53t-21 34t-51 21.5t-94.5 5.5q-46 0 -78.5 -3.5t-49.5 -7.5t-27 -11.5t-12.5 -12.5t-4.5 -14h-166zM887 184h106v-184h-106v184z" />
    <glyph glyph-name="Japan1.8067" 
d="M887 184h106v-184h-106v184zM837 557h-179q3 41 -23.5 60t-112.5 19q-50 0 -78.5 -3t-53 -13t-36 -31t-17.5 -53.5t-6 -84.5q20 18 35.5 27.5t63.5 19.5t121 10q50 0 87.5 -4.5t79 -19.5t67.5 -41.5t43.5 -74t17.5 -113.5q0 -184 -115 -236q-61 -27 -200 -27h-23
q-80 0 -132.5 5.5t-94.5 22.5t-65 41.5t-38 69.5t-19.5 99.5t-4.5 137.5q0 70 2 116.5t8 93t16.5 75t29.5 56t45 42t64 26t85.5 15.5t110.5 4q83 0 136.5 -8.5t98.5 -33.5t66 -73.5t21 -123.5zM503 352q-107 0 -139 -20.5t-32 -85.5q0 -63 36.5 -78.5t147.5 -15.5
q96 0 124.5 18.5t28.5 80.5t-34 81.5t-132 19.5z" />
    <glyph glyph-name="Japan1.8068" 
d="M887 184h106v-184h-106v184zM148 788h704v-165l-358 -623h-214l377 624h-509v164z" />
    <glyph glyph-name="Japan1.8069" 
d="M247 408q-95 40 -95 163q0 130 79 177.5t256 47.5q74 0 124 -4t98.5 -17.5t76.5 -37.5t45 -65t17 -100q0 -124 -95 -164q56 -14 82 -67.5t26 -121.5q0 -60 -20 -103t-50 -67t-79 -37t-92.5 -16.5t-105.5 -3.5q-38 0 -61 0.5t-58.5 2.5t-58 6t-52.5 12t-48.5 19t-39 28.5
t-31.5 39t-18.5 51.5t-7.5 66q0 70 25.5 123t82.5 68zM500 639q-79 0 -116 -9t-46 -24.5t-9 -49.5q0 -51 33.5 -65t149.5 -14q72 0 105.5 8t43.5 24.5t10 51.5q0 32 -10.5 47t-47.5 23t-113 8zM500 335q-116 0 -150.5 -16t-34.5 -79q0 -56 35.5 -72.5t149.5 -16.5
q117 0 151 17.5t34 77.5q0 59 -37 74t-148 15zM887 184h106v-184h-106v184z" />
    <glyph glyph-name="Japan1.8070" 
d="M887 184h106v-184h-106v184zM163 231h179q-3 -41 23.5 -60t112.5 -19q50 0 78.5 3t53 13t36 31t17.5 53.5t6 84.5q-20 -18 -35.5 -27.5t-63.5 -19.5t-121 -10q-50 0 -87.5 4.5t-79 19.5t-67.5 41.5t-43.5 74t-17.5 113.5q0 185 116 236q60 27 199 27h22q80 0 132.5 -5.5
t94.5 -22.5t65 -41.5t38 -69t20 -99t5 -138.5q0 -55 -1 -94.5t-4.5 -80t-9.5 -67.5t-16.5 -54.5t-24.5 -44.5t-35 -33.5t-46 -25.5t-59 -16t-74 -9.5t-91 -2.5q-82 0 -136 8.5t-99 33.5t-66 73.5t-21 123.5zM497 436q107 0 139 20.5t32 85.5q0 63 -36.5 78.5t-147.5 15.5
q-96 0 -125 -18.5t-29 -80.5t34.5 -81.5t132.5 -19.5z" />
    <glyph glyph-name="Japan1.8071" 
d="M192 857h42q-81 -100 -124.5 -223.5t-43.5 -253.5q0 -131 43.5 -254.5t124.5 -222.5h-42q-59 69 -97.5 150t-52 154.5t-17 108t-3.5 64.5t3.5 64.5t17 108t52 154.5t97.5 150zM766 857h42q59 -69 97.5 -150t52 -154.5t17 -108t3.5 -64.5t-3.5 -64.5t-17 -108t-52 -154.5
t-97.5 -150h-42q81 99 124.5 222.5t43.5 254.5q0 130 -43.5 253.5t-124.5 223.5zM364 684h235v-608h-124v482h-111v126z" />
    <glyph glyph-name="Japan1.8072" 
d="M192 857h42q-81 -100 -124.5 -223.5t-43.5 -253.5q0 -131 43.5 -254.5t124.5 -222.5h-42q-59 69 -97.5 150t-52 154.5t-17 108t-3.5 64.5t3.5 64.5t17 108t52 154.5t97.5 150zM766 857h42q59 -69 97.5 -150t52 -154.5t17 -108t3.5 -64.5t-3.5 -64.5t-17 -108t-52 -154.5
t-97.5 -150h-42q81 99 124.5 222.5t43.5 254.5q0 130 -43.5 253.5t-124.5 223.5zM594 332l-98 -45q-26 -12 -34.5 -28.5t-8.5 -56.5h221v-126h-340q-1 179 9 221q10 49 51 73q11 7 27 14l89 40q17 8 24 13t13.5 22t6.5 45q0 33 -9 46.5t-39 13.5q-37 0 -45 -15t-8 -65v-17
h-118q1 87 2.5 109.5t9.5 42.5q27 72 155 72q50 0 79.5 -6t53 -24t32.5 -53t9 -92q0 -87 -14 -123t-68 -61z" />
    <glyph glyph-name="Japan1.8073" 
d="M192 857h42q-81 -100 -124.5 -223.5t-43.5 -253.5q0 -131 43.5 -254.5t124.5 -222.5h-42q-59 69 -97.5 150t-52 154.5t-17 108t-3.5 64.5t3.5 64.5t17 108t52 154.5t97.5 150zM766 857h42q59 -69 97.5 -150t52 -154.5t17 -108t3.5 -64.5t-3.5 -64.5t-17 -108t-52 -154.5
t-97.5 -150h-42q81 99 124.5 222.5t43.5 254.5q0 130 -43.5 253.5t-124.5 223.5zM333 258v28h123q-1 -59 6 -75t42 -16q29 0 40 12.5t11 47.5q0 27 -2.5 41.5t-12 21.5t-18 8t-28.5 1h-54v115h54q33 0 45.5 11.5t12.5 53.5q0 29 -9 43t-39 14q-34 0 -41 -14.5t-7 -61.5h-123
q0 27 0.5 39.5t2 35t4.5 33t8.5 27t14 24.5t21 18t29.5 14.5t39 8t50 3.5q43 0 69.5 -5t51.5 -21t36.5 -50t11.5 -87q0 -38 -4.5 -59.5t-24 -44t-58.5 -35.5q19 0 33 -5t29 -19t23 -45.5t8 -79.5q0 -96 -35 -133.5t-131 -37.5q-42 0 -71 4.5t-49 15.5t-31.5 24t-17.5 37
t-7.5 47t-1.5 61z" />
    <glyph glyph-name="Japan1.8074" 
d="M465 684h163v-368h36v-126h-36v-114h-123v114h-198v158zM507 527l-90 -211h90v211zM192 857h42q-81 -100 -124.5 -223.5t-43.5 -253.5q0 -131 43.5 -254.5t124.5 -222.5h-42q-59 69 -97.5 150t-52 154.5t-17 108t-3.5 64.5t3.5 64.5t17 108t52 154.5t97.5 150zM766 857
h42q59 -69 97.5 -150t52 -154.5t17 -108t3.5 -64.5t-3.5 -64.5t-17 -108t-52 -154.5t-97.5 -150h-42q81 99 124.5 222.5t43.5 254.5q0 130 -43.5 253.5t-124.5 223.5z" />
    <glyph glyph-name="Japan1.8075" 
d="M192 857h42q-81 -100 -124.5 -223.5t-43.5 -253.5q0 -131 43.5 -254.5t124.5 -222.5h-42q-59 69 -97.5 150t-52 154.5t-17 108t-3.5 64.5t3.5 64.5t17 108t52 154.5t97.5 150zM766 857h42q59 -69 97.5 -150t52 -154.5t17 -108t3.5 -64.5t-3.5 -64.5t-17 -108t-52 -154.5
t-97.5 -150h-42q81 99 124.5 222.5t43.5 254.5q0 130 -43.5 253.5t-124.5 223.5zM343 684h325v-126h-205l-3 -89q29 20 78 20q40 0 68 -13t42 -30t21.5 -50t8.5 -55t1 -63q0 -58 -5 -91t-22 -63t-52.5 -42.5t-94.5 -12.5q-58 0 -93 11t-52.5 38.5t-23 60.5t-5.5 90h123
q0 -25 1 -35t5.5 -21t15.5 -14.5t30 -3.5q32 0 41 14.5t9 66.5q0 31 -1 43.5t-5.5 27t-14.5 19t-28 4.5q-27 0 -39 -10.5t-14 -32.5h-119z" />
    <glyph glyph-name="Japan1.8076" 
d="M673 507h-120q0 37 -10 47.5t-39 10.5q-33 0 -42.5 -20t-8.5 -100q39 24 90 24q78 0 106.5 -45t28.5 -144q0 -39 -2 -64t-8 -51.5t-17.5 -42t-31 -29t-49 -19t-69.5 -5.5q-103 0 -136 42q-29 37 -32 152q-1 29 -1 94v74.5t1.5 61.5t3.5 53.5t6.5 42t10.5 35.5t16 25
t22 20.5t29.5 12t38 8t46.5 1.5q93 0 130.5 -36.5t36.5 -147.5zM505 345q-32 0 -40.5 -16.5t-8.5 -61.5q0 -44 10 -58t41 -14q15 0 25 4t15 9t7.5 17.5t3 22t0.5 30.5q0 41 -10.5 54t-42.5 13zM192 857h42q-81 -100 -124.5 -223.5t-43.5 -253.5q0 -131 43.5 -254.5
t124.5 -222.5h-42q-59 69 -97.5 150t-52 154.5t-17 108t-3.5 64.5t3.5 64.5t17 108t52 154.5t97.5 150zM766 857h42q59 -69 97.5 -150t52 -154.5t17 -108t3.5 -64.5t-3.5 -64.5t-17 -108t-52 -154.5t-97.5 -150h-42q81 99 124.5 222.5t43.5 254.5q0 130 -43.5 253.5
t-124.5 223.5z" />
    <glyph glyph-name="Japan1.8077" 
d="M192 857h42q-81 -100 -124.5 -223.5t-43.5 -253.5q0 -131 43.5 -254.5t124.5 -222.5h-42q-59 69 -97.5 150t-52 154.5t-17 108t-3.5 64.5t3.5 64.5t17 108t52 154.5t97.5 150zM766 857h42q59 -69 97.5 -150t52 -154.5t17 -108t3.5 -64.5t-3.5 -64.5t-17 -108t-52 -154.5
t-97.5 -150h-42q81 99 124.5 222.5t43.5 254.5q0 130 -43.5 253.5t-124.5 223.5zM326 684h359v-127l-183 -481h-138l192 482h-230v126z" />
    <glyph glyph-name="Japan1.8078" 
d="M410 390q-38 17 -54 45.5t-16 88.5q0 55 10 89t33.5 51t50 22t71.5 5q34 0 56 -2.5t45 -12t35.5 -27.5t20.5 -49.5t8 -77.5q0 -63 -17 -89.5t-53 -42.5q25 -9 38.5 -17.5t26.5 -42t13 -90.5q0 -95 -37 -133t-131 -38q-45 0 -73.5 5.5t-54.5 22t-38 51t-12 89.5
q0 81 19 110t59 43zM505 565q-30 0 -38 -13t-8 -46q0 -21 2 -31.5t12.5 -18.5t31.5 -8q31 0 38.5 13.5t7.5 43.5q0 23 -2 33.5t-12.5 18.5t-31.5 8zM505 326q-33 0 -42.5 -15.5t-9.5 -56.5q0 -32 10.5 -45.5t41.5 -13.5q34 0 43 14.5t9 52.5q0 36 -10 50t-42 14zM192 857h42
q-81 -100 -124.5 -223.5t-43.5 -253.5q0 -131 43.5 -254.5t124.5 -222.5h-42q-59 69 -97.5 150t-52 154.5t-17 108t-3.5 64.5t3.5 64.5t17 108t52 154.5t97.5 150zM766 857h42q59 -69 97.5 -150t52 -154.5t17 -108t3.5 -64.5t-3.5 -64.5t-17 -108t-52 -154.5t-97.5 -150h-42
q81 99 124.5 222.5t43.5 254.5q0 130 -43.5 253.5t-124.5 223.5z" />
    <glyph glyph-name="Japan1.8079" 
d="M331 253h120q0 -36 10 -47t43 -11q37 0 45.5 21t8.5 98q-38 -23 -90 -23q-79 0 -107 45t-28 143q0 48 3 76.5t13 57.5t29 44t52.5 24.5t82.5 9.5q31 0 54.5 -2.5t41 -12t29 -17.5t19.5 -30t12 -37t6 -52t2.5 -60.5t0.5 -76.5q0 -185 -12 -237q-16 -66 -70 -85
q-33 -12 -94 -12q-49 0 -78 6.5t-52 26t-32 56t-9 95.5zM506 414q32 0 40.5 17t8.5 62q0 44 -10 57.5t-41 13.5q-36 0 -44 -17.5t-8 -65.5q0 -40 10.5 -53.5t43.5 -13.5zM192 857h42q-81 -100 -124.5 -223.5t-43.5 -253.5q0 -131 43.5 -254.5t124.5 -222.5h-42
q-59 69 -97.5 150t-52 154.5t-17 108t-3.5 64.5t3.5 64.5t17 108t52 154.5t97.5 150zM766 857h42q59 -69 97.5 -150t52 -154.5t17 -108t3.5 -64.5t-3.5 -64.5t-17 -108t-52 -154.5t-97.5 -150h-42q81 99 124.5 222.5t43.5 254.5q0 130 -43.5 253.5t-124.5 223.5z" />
    <glyph glyph-name="Japan1.8080" 
d="M659 682q100 0 132 -36q30 -35 34 -145q1 -34 1 -121q0 -170 -12 -216q-15 -60 -66 -76q-30 -10 -83 -10q-102 0 -135 34q-32 32 -36 137q-2 36 -2 131q0 170 12 217q14 59 65 75q31 10 90 10zM659 559q-30 0 -37 -11q-11 -17 -11 -129v-39q0 -141 8 -161q6 -17 30 -18
h12q29 0 36 13q10 17 10 136v30q0 141 -8 162q-15 16 -40 17zM192 857h42q-81 -100 -124.5 -223.5t-43.5 -253.5q0 -131 43.5 -254.5t124.5 -222.5h-42q-59 69 -97.5 150t-52 154.5t-17 108t-3.5 64.5t3.5 64.5t17 108t52 154.5t97.5 150zM766 857h42q59 -69 97.5 -150
t52 -154.5t17 -108t3.5 -64.5t-3.5 -64.5t-17 -108t-52 -154.5t-97.5 -150h-42q81 99 124.5 222.5t43.5 254.5q0 130 -43.5 253.5t-124.5 223.5zM174 676h227v-592h-120v469h-107v123z" />
    <glyph glyph-name="Japan1.8081" 
d="M192 857h42q-81 -100 -124.5 -223.5t-43.5 -253.5q0 -131 43.5 -254.5t124.5 -222.5h-42q-59 69 -97.5 150t-52 154.5t-17 108t-3.5 64.5t3.5 64.5t17 108t52 154.5t97.5 150zM766 857h42q59 -69 97.5 -150t52 -154.5t17 -108t3.5 -64.5t-3.5 -64.5t-17 -108t-52 -154.5
t-97.5 -150h-42q81 99 124.5 222.5t43.5 254.5q0 130 -43.5 253.5t-124.5 223.5zM177 676h228v-592h-121v469h-107v123zM554 676h228v-592h-120v469h-108v123z" />
    <glyph glyph-name="Japan1.8082" 
d="M192 857h42q-81 -100 -124.5 -223.5t-43.5 -253.5q0 -131 43.5 -254.5t124.5 -222.5h-42q-59 69 -97.5 150t-52 154.5t-17 108t-3.5 64.5t3.5 64.5t17 108t52 154.5t97.5 150zM766 857h42q59 -69 97.5 -150t52 -154.5t17 -108t3.5 -64.5t-3.5 -64.5t-17 -108t-52 -154.5
t-97.5 -150h-42q81 99 124.5 222.5t43.5 254.5q0 130 -43.5 253.5t-124.5 223.5zM166 676h227v-592h-120v469h-107v123zM734 334l-95 -44q-25 -11 -33.5 -27t-8.5 -56h215v-123h-330q-2 66 0 114t4 78t12.5 50.5t25.5 33t42 24.5l86 39q17 8 24 13t13.5 21t6.5 43
q0 33 -9 46t-39 13q-36 0 -43.5 -14.5t-7.5 -64.5v-16h-114q1 85 2.5 106.5t8.5 41.5q26 70 150 70q49 0 78 -5.5t51.5 -23.5t31.5 -51.5t9 -89.5q0 -84 -13.5 -119t-66.5 -59z" />
    <glyph glyph-name="Japan1.8083" 
d="M192 857h42q-81 -100 -124.5 -223.5t-43.5 -253.5q0 -131 43.5 -254.5t124.5 -222.5h-42q-59 69 -97.5 150t-52 154.5t-17 108t-3.5 64.5t3.5 64.5t17 108t52 154.5t97.5 150zM766 857h42q59 -69 97.5 -150t52 -154.5t17 -108t3.5 -64.5t-3.5 -64.5t-17 -108t-52 -154.5
t-97.5 -150h-42q81 99 124.5 222.5t43.5 254.5q0 130 -43.5 253.5t-124.5 223.5zM167 676h228v-592h-120v469h-108v123zM482 261v28h119q-1 -57 6 -72.5t41 -15.5q28 0 39 11.5t11 45.5q0 26 -2.5 41t-11.5 21.5t-17.5 7.5t-27.5 1h-53v112h53q32 0 44 11t12 51q0 28 -9 42
t-38 14q-33 0 -39.5 -14t-6.5 -60h-119q0 33 0.5 49t3.5 41.5t9 37.5t17.5 28t29 23t43.5 12.5t61 5.5q41 0 67 -5t50 -20t35 -48t11 -85q0 -37 -4.5 -58.5t-23.5 -43t-56 -33.5q19 -1 33 -6t28 -19t21.5 -44.5t7.5 -76.5q0 -93 -34 -129t-127 -36q-40 0 -68.5 4t-48 15
t-30.5 23.5t-17 35.5t-7.5 45.5t-1.5 59.5z" />
    <glyph glyph-name="Japan1.8084" 
d="M623 676h158v-358h35v-122h-35v-112h-119v112h-193v153zM663 523l-87 -205h87v205zM192 857h42q-81 -100 -124.5 -223.5t-43.5 -253.5q0 -131 43.5 -254.5t124.5 -222.5h-42q-59 69 -97.5 150t-52 154.5t-17 108t-3.5 64.5t3.5 64.5t17 108t52 154.5t97.5 150zM766 857
h42q59 -69 97.5 -150t52 -154.5t17 -108t3.5 -64.5t-3.5 -64.5t-17 -108t-52 -154.5t-97.5 -150h-42q81 99 124.5 222.5t43.5 254.5q0 130 -43.5 253.5t-124.5 223.5zM164 676h228v-592h-121v469h-107v123z" />
    <glyph glyph-name="Japan1.8085" 
d="M167 676h228v-592h-121v469h-107v123zM492 676h316v-123h-199l-4 -87q27 19 76 19q33 0 57.5 -7t39 -23.5t23 -32t12 -43.5t4.5 -46t1 -52q0 -45 -2.5 -72t-12 -55t-27.5 -42.5t-49.5 -24t-77.5 -9.5q-56 0 -90.5 11t-51.5 37.5t-22 58.5t-5 87h120q-1 -44 6.5 -57.5
t43.5 -13.5q32 0 40.5 14t8.5 64q0 55 -7 73t-40 18q-28 0 -39 -10t-13 -32h-116zM192 857h42q-81 -100 -124.5 -223.5t-43.5 -253.5q0 -131 43.5 -254.5t124.5 -222.5h-42q-59 69 -97.5 150t-52 154.5t-17 108t-3.5 64.5t3.5 64.5t17 108t52 154.5t97.5 150zM766 857h42
q59 -69 97.5 -150t52 -154.5t17 -108t3.5 -64.5t-3.5 -64.5t-17 -108t-52 -154.5t-97.5 -150h-42q81 99 124.5 222.5t43.5 254.5q0 130 -43.5 253.5t-124.5 223.5z" />
    <glyph glyph-name="Japan1.8086" 
d="M812 503h-117q1 36 -8.5 46.5t-37.5 10.5q-33 0 -42 -19t-8 -97q37 22 87 22q77 0 104 -44t27 -139q0 -45 -2.5 -72.5t-12 -56t-28 -43t-50.5 -24t-79 -9.5q-100 0 -132 41q-28 36 -30 149q-1 27 -1 90q0 180 12 230q15 65 68 83q32 11 88 11q90 0 126.5 -35.5
t35.5 -143.5zM649 346q-31 0 -39.5 -16.5t-8.5 -58.5q0 -44 9.5 -57.5t40.5 -13.5q18 0 28.5 4.5t15 17t5.5 23.5t1 35q0 40 -10.5 53t-41.5 13zM192 857h42q-81 -100 -124.5 -223.5t-43.5 -253.5q0 -131 43.5 -254.5t124.5 -222.5h-42q-59 69 -97.5 150t-52 154.5t-17 108
t-3.5 64.5t3.5 64.5t17 108t52 154.5t97.5 150zM766 857h42q59 -69 97.5 -150t52 -154.5t17 -108t3.5 -64.5t-3.5 -64.5t-17 -108t-52 -154.5t-97.5 -150h-42q81 99 124.5 222.5t43.5 254.5q0 130 -43.5 253.5t-124.5 223.5zM167 676h228v-592h-120v469h-108v123z" />
    <glyph glyph-name="Japan1.8087" 
d="M192 857h42q-81 -100 -124.5 -223.5t-43.5 -253.5q0 -131 43.5 -254.5t124.5 -222.5h-42q-59 69 -97.5 150t-52 154.5t-17 108t-3.5 64.5t3.5 64.5t17 108t52 154.5t97.5 150zM766 857h42q59 -69 97.5 -150t52 -154.5t17 -108t3.5 -64.5t-3.5 -64.5t-17 -108t-52 -154.5
t-97.5 -150h-42q81 99 124.5 222.5t43.5 254.5q0 130 -43.5 253.5t-124.5 223.5zM167 676h228v-592h-120v469h-108v123zM472 676h348v-124l-177 -468h-133l186 469h-224v123z" />
    <glyph glyph-name="Japan1.8088" 
d="M554 390q-37 16 -52.5 44t-15.5 86q0 53 10 86t32.5 49.5t48.5 21.5t69 5q42 0 67 -4.5t48.5 -20t34 -50t10.5 -89.5q0 -61 -16.5 -87t-50.5 -41q15 -5 22 -8.5t19.5 -14t18 -24t10.5 -39t5 -60.5q0 -92 -36 -129t-128 -37q-43 0 -71 5.5t-53 21.5t-36.5 49.5t-11.5 86.5
q0 55 11.5 87.5t25.5 42.5t39 19zM646 560q-29 0 -37 -13t-8 -45q0 -20 2 -30t12 -18t31 -8q29 0 37 13t8 42q0 33 -8 46t-37 13zM646 328q-32 0 -41 -15t-9 -55q0 -32 10 -45t40 -13q32 0 41 14.5t9 51.5q0 34 -9.5 48t-40.5 14zM192 857h42q-81 -100 -124.5 -223.5
t-43.5 -253.5q0 -131 43.5 -254.5t124.5 -222.5h-42q-59 69 -97.5 150t-52 154.5t-17 108t-3.5 64.5t3.5 64.5t17 108t52 154.5t97.5 150zM766 857h42q59 -69 97.5 -150t52 -154.5t17 -108t3.5 -64.5t-3.5 -64.5t-17 -108t-52 -154.5t-97.5 -150h-42q81 99 124.5 222.5
t43.5 254.5q0 130 -43.5 253.5t-124.5 223.5zM167 676h228v-592h-120v469h-108v123z" />
    <glyph glyph-name="Japan1.8089" 
d="M481 257h116q0 -36 10 -46.5t42 -10.5q35 0 43 20t8 96q-39 -23 -87 -23q-76 0 -103.5 44t-27.5 140q0 58 5 90.5t22 61.5t53 41t95 12q99 0 130 -43q27 -36 29 -152q1 -25 1 -85q0 -181 -12 -231q-16 -64 -69 -82q-32 -11 -90 -11q-93 0 -129 34.5t-36 144.5zM167 676
h228v-592h-120v469h-108v123zM650 413q31 0 39.5 16.5t8.5 60.5q0 42 -9.5 55.5t-40.5 13.5q-15 0 -24.5 -4t-14.5 -8.5t-7.5 -17t-3 -21.5t-0.5 -30q0 -39 10.5 -52t41.5 -13zM192 857h42q-81 -100 -124.5 -223.5t-43.5 -253.5q0 -131 43.5 -254.5t124.5 -222.5h-42
q-59 69 -97.5 150t-52 154.5t-17 108t-3.5 64.5t3.5 64.5t17 108t52 154.5t97.5 150zM766 857h42q59 -69 97.5 -150t52 -154.5t17 -108t3.5 -64.5t-3.5 -64.5t-17 -108t-52 -154.5t-97.5 -150h-42q81 99 124.5 222.5t43.5 254.5q0 130 -43.5 253.5t-124.5 223.5z" />
    <glyph glyph-name="Japan1.8090" 
d="M697 682q100 0 132 -36q30 -34 34 -145q1 -34 1 -121v-68t-1 -55.5t-3 -49t-6 -38t-10 -32t-15 -22.5t-20.5 -18t-27 -10t-34.5 -7.5t-44 -1.5q-102 0 -135 34q-32 32 -36 137q-2 36 -2 131q0 170 12 216q14 59 65 76q32 10 90 10zM697 559q-30 0 -37 -11
q-11 -17 -11 -129v-39q0 -140 8 -161q6 -17 30 -18h11q29 0 37 13q10 17 10 134v32q0 141 -8 161q-15 17 -40 18zM192 857h42q-81 -100 -124.5 -223.5t-43.5 -253.5q0 -131 43.5 -254.5t124.5 -222.5h-42q-59 69 -97.5 150t-52 154.5t-17 108t-3.5 64.5t3.5 64.5t17 108
t52 154.5t97.5 150zM766 857h42q59 -69 97.5 -150t52 -154.5t17 -108t3.5 -64.5t-3.5 -64.5t-17 -108t-52 -154.5t-97.5 -150h-42q81 99 124.5 222.5t43.5 254.5q0 130 -43.5 253.5t-124.5 223.5zM399 334l-95 -44q-25 -11 -33.5 -27t-8.5 -56h215v-123h-330q-2 66 0 114
t4 78t12.5 50.5t25.5 33t42 24.5l86 39q16 7 23 12.5t13.5 21.5t6.5 43q0 33 -8.5 46t-38.5 13q-36 0 -43.5 -14.5t-7.5 -64.5v-16h-114q1 85 2.5 106.5t8.5 41.5q26 70 150 70q49 0 77.5 -5.5t51 -23.5t31.5 -51.5t9 -89.5q0 -85 -13.5 -119.5t-65.5 -58.5z" />
    <glyph glyph-name="Japan1.8091" 
d="M553 546v118h219v-568h-116v450h-103zM436 336l-92 -42q-24 -11 -32 -27t-8 -53h206v-118h-317q-1 172 10 216.5t71 71.5l83 37q16 7 23 12t13 20.5t6 42.5q0 31 -9 43.5t-37 12.5q-33 0 -41 -13.5t-8 -62.5v-15h-110q0 32 0.5 46.5t2 39t4 35t7.5 27t13 23.5l19.5 16.5
t27 12.5t35.5 6t46 3q47 0 74.5 -5.5t49.5 -22.5t30.5 -49.5t8.5 -85.5q0 -82 -13 -115t-63 -56zM500 854q128 0 237 -62.5t173 -172t64 -239.5q0 -196 -139 -335t-335 -139t-335 139t-139 335q0 130 64 239.5t173 172t237 62.5zM500 819q-181 0 -310 -128t-129 -311
q0 -119 59 -220t160 -160t220 -59q182 0 310.5 128.5t128.5 310.5q0 183 -129 311t-310 128z" />
    <glyph glyph-name="Japan1.8092" 
d="M415 788h170v-145h-170v145zM416 589h168v-589h-168v589z" />
    <glyph glyph-name="Japan1.8093" 
d="M564 788h168v-145h-168v145zM566 589h164v-589h-164v589zM268 788h168v-145h-168v145zM270 589h164v-589h-164v589z" />
    <glyph glyph-name="Japan1.8094" 
d="M186 788h163v-145h-163v145zM187 589h160v-589h-160v589zM419 788h162v-145h-162v145zM420 589h160v-589h-160v589zM651 788h163v-145h-163v145zM653 589h160v-589h-160v589z" />
    <glyph glyph-name="Japan1.8095" 
d="M333 589h178l67 -232l46 -189l47 189l67 232h177l-186 -589h-209zM121 788h170v-145h-170v145zM123 589h166v-589h-166v589z" />
    <glyph glyph-name="Japan1.8096" 
d="M171 589h182l147 -430l147 430h182l-225 -589h-208z" />
    <glyph glyph-name="Japan1.8097" 
d="M489 589h178l-187 -589h-209l-186 589h177l67 -232l47 -189l46 189zM709 788h170v-145h-170v145zM711 589h166v-589h-166v589z" />
    <glyph glyph-name="Japan1.8098" 
d="M565 788h163v-145h-163v145zM566 589h160v-589h-160v589zM769 788h163v-145h-163v145zM771 589h160v-589h-160v589zM28 589h172l48 -209l36 -210l36 210l47 209h172l-152 -589h-207z" />
    <glyph glyph-name="Japan1.8099" 
d="M488 788h132v-145h-132v145zM489 589h130v-589h-130v589zM649 788h133v-145h-133v145zM651 589h129v-589h-129v589zM811 788h133v-145h-133v145zM813 589h129v-589h-129v589zM26 589h162l31 -175l28 -241l29 241l31 175h162l-118 -589h-208z" />
    <glyph glyph-name="Japan1.8100" 
d="M335 589h187l94 -195l94 195h187l-146 -281l160 -308h-188l-107 227l-108 -227h-188l161 308zM122 788h169v-145h-169v145zM123 589h167v-589h-167v589z" />
    <glyph glyph-name="Japan1.8101" 
d="M193 589h195l113 -201l111 201h195l-168 -282l185 -307h-195l-128 230l-130 -230h-195l190 311z" />
    <glyph glyph-name="Japan1.8102" 
d="M500 854q128 0 237 -62.5t173 -172t64 -239.5q0 -196 -139 -335t-335 -139t-335 139t-139 335q0 130 64 239.5t173 172t237 62.5zM500 819q-181 0 -310 -128t-129 -311q0 -119 59 -220t160 -160t220 -59q182 0 310.5 128.5t128.5 310.5q0 183 -129 311t-310 128zM413 336
l-92 -42q-24 -11 -32 -27t-8 -53h206v-118h-316q-2 171 9 216t71 72l83 37q16 7 23 12t13 20.5t6 42.5q0 31 -9 43.5t-37 12.5q-33 0 -41 -13.5t-8 -62.5v-15h-109q0 41 0.5 59t3 46.5t8.5 40t16.5 27t27.5 21.5t41 10.5t57 4.5q47 0 74.5 -5.5t49.5 -22.5t30.5 -49.5
t8.5 -85.5q0 -82 -13 -115t-63 -56zM756 336l-91 -42q-25 -11 -32.5 -26.5t-7.5 -53.5h206v-118h-317q-1 172 10 216.5t71 71.5l83 37q16 7 23 12t13 20.5t6 42.5q0 31 -9 43.5t-37 12.5q-33 0 -41 -13.5t-8 -62.5v-15h-110q0 32 0.5 46.5t2 39t4 35t7.5 27t13 23.5
l19.5 16.5t27 12.5t35.5 6t46 3q47 0 74.5 -5.5t49.5 -22.5t30.5 -49.5t8.5 -85.5q0 -82 -13 -114.5t-64 -56.5z" />
    <glyph glyph-name="Japan1.8103" 
d="M500 854q128 0 237 -62.5t173 -172t64 -239.5q0 -196 -139 -335t-335 -139t-335 139t-139 335q0 130 64 239.5t173 172t237 62.5zM500 819q-181 0 -310 -128t-129 -311q0 -119 59 -220t160 -160t220 -59q182 0 310.5 128.5t128.5 310.5q0 183 -129 311t-310 128zM517 292
h115q-1 -55 5.5 -69.5t39.5 -14.5q26 0 37 11t11 44q0 25 -2.5 39t-11.5 20.5t-16.5 7.5t-26.5 1h-51v107h51q30 0 42 11t12 49q0 27 -8.5 40.5t-36.5 13.5q-17 0 -26 -3t-13.5 -13.5t-5 -20.5t-0.5 -34h-114q0 32 0.5 47t3.5 39.5t8.5 36t16.5 27t28 22.5t42 12t58 5
q39 0 63.5 -4.5t48 -19t34.5 -46t11 -81.5q0 -54 -14.5 -83.5t-66.5 -46.5q40 -2 63.5 -29.5t23.5 -111.5q0 -89 -33 -123.5t-122 -34.5q-58 0 -91.5 9t-50 33.5t-20.5 52.5t-4 81v26zM413 336l-92 -42q-24 -11 -32 -27t-8 -53h206v-118h-316q-2 171 9 216t71 72l83 37
q16 7 23 12t13 20.5t6 42.5q0 31 -9 43.5t-37 12.5q-33 0 -41 -13.5t-8 -62.5v-15h-109q0 41 0.5 59t3 46.5t8.5 40t16.5 27t27.5 21.5t41 10.5t57 4.5q47 0 74.5 -5.5t49.5 -22.5t30.5 -49.5t8.5 -85.5q0 -82 -13 -115t-63 -56z" />
    <glyph glyph-name="Japan1.8104" 
d="M660 664h152v-343h33v-118h-33v-107h-115v107h-185v147zM699 517l-84 -196h84v196zM414 336l-91 -42q-25 -11 -33 -27t-7 -53h206v-118h-317q-1 172 10 216.5t71 71.5l83 37q15 7 22 12t13 20.5t6 42.5q0 31 -8.5 43.5t-36.5 12.5q-33 0 -41 -13.5t-8 -62.5v-15h-110
q0 31 0.5 46.5t1.5 39t4 34.5t8 27.5t13 23.5l19.5 16.5t27 13t35.5 6t46 2.5q47 0 74.5 -5.5t49.5 -22.5t30.5 -49.5t8.5 -85.5q0 -82 -13 -114.5t-64 -56.5zM500 854q128 0 237 -62.5t173 -172t64 -239.5q0 -196 -139 -335t-335 -139t-335 139t-139 335q0 130 64 239.5
t173 172t237 62.5zM500 819q-181 0 -310 -128t-129 -311q0 -119 59 -220t160 -160t220 -59q182 0 310.5 128.5t128.5 310.5q0 183 -129 311t-310 128z" />
    <glyph glyph-name="Japan1.8105" 
d="M526 664h304v-118h-191l-4 -83q27 18 73 18q37 0 63 -11.5t39.5 -27.5t20.5 -46t8 -51.5t1 -59.5q0 -43 -2.5 -69.5t-11.5 -53t-27 -40.5t-48 -23t-75 -9q-53 0 -85.5 10.5t-49 36t-21.5 56.5t-5 84h115q0 -24 0.5 -32.5t5 -19.5t14.5 -14t28 -3q31 0 39 13t8 61
q0 30 -0.5 42t-5 25t-14 17t-26.5 4q-26 0 -36 -10t-13 -30h-111zM414 336l-91 -42q-25 -11 -33 -27t-7 -53h206v-118h-317q-1 172 10 216.5t71 71.5l83 37q15 7 22 12t13 20.5t6 42.5q0 31 -8.5 43.5t-36.5 12.5q-33 0 -41 -13.5t-8 -62.5v-15h-110q0 31 0.5 46.5t1.5 39
t4 34.5t8 27.5t13 23.5l19.5 16.5t27 13t35.5 6t46 2.5q47 0 74.5 -5.5t49.5 -22.5t30.5 -49.5t8.5 -85.5q0 -82 -13 -114.5t-64 -56.5zM500 854q128 0 237 -62.5t173 -172t64 -239.5q0 -196 -139 -335t-335 -139t-335 139t-139 335q0 130 64 239.5t173 172t237 62.5z
M500 819q-181 0 -310 -128t-129 -311q0 -119 59 -220t160 -160t220 -59q182 0 310.5 128.5t128.5 310.5q0 183 -129 311t-310 128z" />
    <glyph glyph-name="Japan1.8106" 
d="M838 498h-112q0 35 -9.5 45t-36.5 10q-31 0 -39.5 -19t-7.5 -93q35 22 84 22q73 0 99 -42t26 -135q0 -54 -4 -84t-20 -59t-50 -41t-90 -12q-98 0 -129 40q-26 36 -29 147v83q0 174 13 223q15 61 69 78q30 9 80 9q85 0 120.5 -33.5t35.5 -138.5zM681 348q-30 0 -38 -16
t-8 -57t9.5 -54t38.5 -13q33 0 40.5 16t7.5 62q0 37 -10 49.5t-40 12.5zM500 854q128 0 237 -62.5t173 -172t64 -239.5q0 -196 -139 -335t-335 -139t-335 139t-139 335q0 130 64 239.5t173 172t237 62.5zM500 819q-181 0 -310 -128t-129 -311q0 -119 59 -220t160 -160
t220 -59q182 0 310.5 128.5t128.5 310.5q0 183 -129 311t-310 128zM413 336l-92 -42q-24 -11 -32 -27t-8 -53h206v-118h-316q-2 171 9 216t71 72l83 37q16 7 23 12t13 20.5t6 42.5q0 31 -9 43.5t-37 12.5q-33 0 -41 -13.5t-8 -62.5v-15h-109q0 41 0.5 59t3 46.5t8.5 40
t16.5 27t27.5 21.5t41 10.5t57 4.5q47 0 74.5 -5.5t49.5 -22.5t30.5 -49.5t8.5 -85.5q0 -82 -13 -115t-63 -56z" />
    <glyph glyph-name="Japan1.8107" 
d="M508 664h323v-119l-170 -449h-128l178 450h-203v118zM413 336l-92 -42q-24 -11 -32 -27t-8 -53h206v-118h-316q-2 171 9 216t71 72l83 37q16 7 23 12t13 20.5t6 42.5q0 31 -9 43.5t-37 12.5q-33 0 -41 -13.5t-8 -62.5v-15h-109q0 41 0.5 59t3 46.5t8.5 40t16.5 27
t27.5 21.5t41 10.5t57 4.5q47 0 74.5 -5.5t49.5 -22.5t30.5 -49.5t8.5 -85.5q0 -82 -13 -115t-63 -56zM500 854q128 0 237 -62.5t173 -172t64 -239.5q0 -196 -139 -335t-335 -139t-335 139t-139 335q0 130 64 239.5t173 172t237 62.5zM500 819q-181 0 -310 -128t-129 -311
q0 -119 59 -220t160 -160t220 -59q182 0 310.5 128.5t128.5 310.5q0 183 -129 311t-310 128z" />
    <glyph glyph-name="Japan1.8108" 
d="M593 390q-35 15 -50 42.5t-15 81.5q0 93 34 124.5t112 31.5q44 0 68.5 -4t48.5 -18.5t34.5 -47.5t10.5 -87q0 -58 -16.5 -83.5t-49.5 -39.5q18 -7 27.5 -12t22 -19.5t18 -41t5.5 -67.5q0 -89 -34.5 -124.5t-122.5 -35.5q-86 0 -126 30.5t-40 126.5q0 74 17.5 102t55.5 41
zM682 552q-29 0 -36 -12.5t-7 -42.5q0 -19 1.5 -28.5t11.5 -17t30 -7.5q28 0 35.5 12.5t7.5 40.5q0 31 -7.5 43t-35.5 12zM682 330q-31 0 -40 -14.5t-9 -53.5q0 -30 10 -42t39 -12q31 0 39.5 13.5t8.5 49.5q0 33 -9.5 46t-38.5 13zM500 854q128 0 237 -62.5t173 -172
t64 -239.5q0 -196 -139 -335t-335 -139t-335 139t-139 335q0 130 64 239.5t173 172t237 62.5zM500 819q-181 0 -310 -128t-129 -311q0 -119 59 -220t160 -160t220 -59q182 0 310.5 128.5t128.5 310.5q0 183 -129 311t-310 128zM411 336l-91 -42q-25 -11 -33 -27t-7 -53h206
v-118h-317q-2 64 0 109.5t4 74.5t12 49t24.5 31.5t40.5 23.5l83 37q15 7 22 12t13 20.5t6 42.5q0 31 -8.5 43.5t-36.5 12.5q-33 0 -41.5 -14t-8.5 -62v-15h-109q0 41 0.5 59t3 46.5t8.5 40t17 27t27.5 21.5t41 10.5t57.5 4.5q47 0 74.5 -5.5t49 -22.5t30 -49.5t8.5 -85.5
q0 -82 -13 -115t-63 -56z" />
    <glyph glyph-name="Japan1.8109" 
d="M518 262h112q-1 -34 8.5 -44.5t40.5 -10.5q33 0 41.5 20t7.5 92q-35 -22 -83 -22q-73 0 -99.5 42t-26.5 134q0 55 4.5 86t21 59.5t50.5 40t91 11.5q23 0 41.5 -1.5t33.5 -7t26 -10t20 -17l14.5 -20.5t9.5 -28.5t6 -34t3 -42.5t1 -48.5v-58.5q0 -175 -12 -224
q-16 -62 -68 -78q-30 -10 -84 -10q-89 0 -124 33t-35 139zM680 412q22 0 32.5 10.5t12 22.5t1.5 39q0 42 -9.5 55t-38.5 13q-31 0 -39.5 -16t-8.5 -61q0 -38 10 -50.5t40 -12.5zM413 336l-92 -42q-24 -11 -32 -27t-8 -53h206v-118h-316q-2 171 9 216t71 72l83 37q16 7 23 12
t13 20.5t6 42.5q0 31 -9 43.5t-37 12.5q-33 0 -41 -13.5t-8 -62.5v-15h-109q0 41 0.5 59t3 46.5t8.5 40t16.5 27t27.5 21.5t41 10.5t57 4.5q47 0 74.5 -5.5t49.5 -22.5t30.5 -49.5t8.5 -85.5q0 -82 -13 -115t-63 -56zM500 854q128 0 237 -62.5t173 -172t64 -239.5
q0 -196 -139 -335t-335 -139t-335 139t-139 335q0 130 64 239.5t173 172t237 62.5zM500 819q-181 0 -310 -128t-129 -311q0 -119 59 -220t160 -160t220 -59q182 0 310.5 128.5t128.5 310.5q0 183 -129 311t-310 128z" />
    <glyph glyph-name="Japan1.8110" 
d="M682 670q96 0 127 -35q29 -34 32 -143q1 -32 1 -112q0 -165 -12 -210q-15 -57 -65 -72q-28 -8 -76 -8q-100 0 -132 33q-30 32 -34 137q-1 33 -1 120q0 166 12 210q14 56 64 71q30 9 84 9zM682 552q-29 0 -36 -11q-10 -17 -10 -129v-32q0 -137 8 -156q15 -16 40 -16
q28 0 35 12q9 17 9 137v23q0 136 -8 156q-14 15 -38 16zM500 854q128 0 237 -62.5t173 -172t64 -239.5q0 -196 -139 -335t-335 -139t-335 139t-139 335q0 130 64 239.5t173 172t237 62.5zM500 819q-181 0 -310 -128t-129 -311q0 -119 59 -220t160 -160t220 -59
q182 0 310.5 128.5t128.5 310.5q0 183 -129 311t-310 128zM161 266v26h114q-1 -54 5.5 -69t39.5 -15q26 0 37 11t11 44q0 25 -2.5 39t-11.5 20.5t-16.5 7.5t-26.5 1h-50v107h50q31 0 42.5 10.5t11.5 49.5q0 27 -8.5 40.5t-35.5 13.5q-32 0 -39 -13.5t-6 -57.5h-115
q0 31 0.5 46.5t3.5 39.5t9 36t17 27.5t28 22.5t42 12t58 5q39 0 63 -4.5t47.5 -19t34.5 -46t11 -81.5q0 -54 -14.5 -83.5t-65.5 -46.5q40 -2 63 -29.5t23 -111.5q0 -89 -32.5 -123.5t-121.5 -34.5q-58 0 -91.5 9t-50 33.5t-20.5 52.5t-4 81z" />
    <glyph glyph-name="Japan1.8111" 
d="M500 854q128 0 237 -62.5t173 -172t64 -239.5q0 -196 -139 -335t-335 -139t-335 139t-139 335q0 130 64 239.5t173 172t237 62.5zM500 819q-181 0 -310 -128t-129 -311q0 -119 59 -220t160 -160t220 -59q182 0 310.5 128.5t128.5 310.5q0 183 -129 311t-310 128zM553 546
v118h219v-568h-116v450h-103zM185 266v26h115q-2 -54 5 -69t40 -15q26 0 36.5 11t10.5 44q0 25 -2.5 39t-11.5 20.5t-16.5 7.5t-26.5 1h-50v107h50q31 0 42.5 10.5t11.5 49.5q0 27 -8 40.5t-36 13.5q-17 0 -26 -3t-13.5 -13.5t-5 -20.5t-0.5 -34h-115q0 32 0.5 46.5
t3.5 39.5t9 36.5t17 27t28 22.5t42 12t58 5q39 0 63.5 -4.5t48 -19t34.5 -46t11 -81.5q0 -54 -15 -83.5t-66 -46.5q40 -2 63 -29.5t23 -111.5q0 -89 -32.5 -123.5t-121.5 -34.5q-58 0 -91.5 9t-50 33.5t-20.5 52.5t-4 81z" />
    <glyph glyph-name="Japan1.8112" 
d="M767 476v-230q0 -71 11 -126h-146q-1 6 -5 48q-14 -20 -30 -31.5t-43 -16.5t-48 -6t-67 -1q-37 0 -59 1t-51.5 6t-46.5 15.5t-33.5 28.5t-23.5 46.5t-7 67.5q0 34 4 56.5t17 49t43.5 41.5t77.5 18l226 15q33 3 33 24q0 20 -24.5 25t-75.5 5q-86 0 -108 -7.5t-23 -32.5
h-152q1 102 55.5 138.5t200.5 36.5q38 0 58 -0.5t54.5 -3.5t53 -9.5t42.5 -18.5t36.5 -30t21.5 -45.5t9 -63.5zM622 314v35q-14 -19 -53 -22l-152 -10q-50 -4 -50 -35q0 -11 3.5 -16.5t29 -11.5t76.5 -6q146 0 146 66zM192 857h42q-81 -100 -124.5 -223.5t-43.5 -253.5
q0 -131 43.5 -254.5t124.5 -222.5h-42q-59 69 -97.5 150t-52 154.5t-17 108t-3.5 64.5t3.5 64.5t17 108t52 154.5t97.5 150zM766 857h42q59 -69 97.5 -150t52 -154.5t17 -108t3.5 -64.5t-3.5 -64.5t-17 -108t-52 -154.5t-97.5 -150h-42q81 99 124.5 222.5t43.5 254.5
q0 130 -43.5 253.5t-124.5 223.5z" />
    <glyph glyph-name="Japan1.8113" 
d="M242 727h157v-216q54 49 165 49q62 0 106 -14.5t67 -35.5t35.5 -58t15.5 -67.5t3 -78.5q0 -40 -1.5 -66t-6.5 -58.5t-14.5 -53t-27 -42t-43 -33.5t-62.5 -19.5t-85 -7.5q-56 0 -92.5 12.5t-65.5 45.5l-4 -51h-147v694zM515 419q-75 0 -97 -25t-22 -112q0 -72 23.5 -93.5
t95.5 -21.5q30 0 50.5 2.5t34 11t20.5 16t10.5 28t4 34.5t0.5 47q0 65 -22 89t-98 24zM192 857h42q-81 -100 -124.5 -223.5t-43.5 -253.5q0 -131 43.5 -254.5t124.5 -222.5h-42q-59 69 -97.5 150t-52 154.5t-17 108t-3.5 64.5t3.5 64.5t17 108t52 154.5t97.5 150zM766 857
h42q59 -69 97.5 -150t52 -154.5t17 -108t3.5 -64.5t-3.5 -64.5t-17 -108t-52 -154.5t-97.5 -150h-42q81 99 124.5 222.5t43.5 254.5q0 130 -43.5 253.5t-124.5 223.5z" />
    <glyph glyph-name="Japan1.8114" 
d="M773 439h-155q0 28 -15 42t-33.5 16.5t-56.5 2.5q-36 0 -53 -0.5t-35.5 -5.5t-24.5 -11.5t-12 -22.5t-7 -35t-1 -53q0 -71 18.5 -92t95.5 -21q34 0 48.5 0.5t33.5 4t26 11.5t12 21.5t6 35.5h156q0 -46 -4.5 -75.5t-20 -59.5t-43 -46.5t-75.5 -27t-117 -10.5
q-91 0 -143 9.5t-88 38.5t-48.5 77.5t-12.5 131.5q0 65 4 103t18.5 75.5t43 56.5t77.5 30.5t122 11.5q61 0 101.5 -4t78.5 -16.5t59 -35t33 -60.5t12 -92zM192 857h42q-81 -100 -124.5 -223.5t-43.5 -253.5q0 -131 43.5 -254.5t124.5 -222.5h-42q-59 69 -97.5 150t-52 154.5
t-17 108t-3.5 64.5t3.5 64.5t17 108t52 154.5t97.5 150zM766 857h42q59 -69 97.5 -150t52 -154.5t17 -108t3.5 -64.5t-3.5 -64.5t-17 -108t-52 -154.5t-97.5 -150h-42q81 99 124.5 222.5t43.5 254.5q0 130 -43.5 253.5t-124.5 223.5z" />
    <glyph glyph-name="Japan1.8115" 
d="M758 727v-694h-147l-4 51q-29 -33 -65.5 -45.5t-92.5 -12.5q-64 0 -109 13.5t-70.5 35t-39.5 59.5t-17.5 74t-3.5 91q0 35 1 56.5t5.5 52.5t13 50t25.5 40.5t40.5 33.5t59.5 20t82 8q111 0 165 -49v216h157zM485 419q-30 0 -50.5 -3t-34 -12t-20.5 -17t-10.5 -27t-4 -32
t-0.5 -42q0 -38 3.5 -58t16.5 -35.5t38.5 -20.5t70.5 -5q73 0 91.5 27t18.5 98q0 80 -24 103.5t-95 23.5zM192 857h42q-81 -100 -124.5 -223.5t-43.5 -253.5q0 -131 43.5 -254.5t124.5 -222.5h-42q-59 69 -97.5 150t-52 154.5t-17 108t-3.5 64.5t3.5 64.5t17 108t52 154.5
t97.5 150zM766 857h42q59 -69 97.5 -150t52 -154.5t17 -108t3.5 -64.5t-3.5 -64.5t-17 -108t-52 -154.5t-97.5 -150h-42q81 99 124.5 222.5t43.5 254.5q0 130 -43.5 253.5t-124.5 223.5z" />
    <glyph glyph-name="Japan1.8116" 
d="M779 335h-403q1 -33 8.5 -47.5t33.5 -23t81 -8.5q74 0 95.5 9.5t24.5 37.5h159q-3 -106 -61 -148t-203 -42q-94 0 -150.5 12t-88.5 43.5t-43 76t-11 119.5q0 40 1 65.5t5 56t11.5 49t20.5 39t32.5 32.5t46.5 22t63.5 14.5t83.5 4.5q126 0 185.5 -19t88.5 -82
q13 -27 15.5 -62.5t4.5 -148.5zM376 446h244q-9 34 -31 46t-83 12q-71 0 -97 -11t-33 -47zM192 857h42q-81 -100 -124.5 -223.5t-43.5 -253.5q0 -131 43.5 -254.5t124.5 -222.5h-42q-59 69 -97.5 150t-52 154.5t-17 108t-3.5 64.5t3.5 64.5t17 108t52 154.5t97.5 150z
M766 857h42q59 -69 97.5 -150t52 -154.5t17 -108t3.5 -64.5t-3.5 -64.5t-17 -108t-52 -154.5t-97.5 -150h-42q81 99 124.5 222.5t43.5 254.5q0 130 -43.5 253.5t-124.5 223.5z" />
    <glyph glyph-name="Japan1.8117" 
d="M685 733v-137q-86 2 -108.5 -4.5t-22.5 -38.5h131v-147h-131v-373h-157v373h-82v147h82q0 82 25 125t103 52q80 10 160 3zM192 857h42q-81 -100 -124.5 -223.5t-43.5 -253.5q0 -131 43.5 -254.5t124.5 -222.5h-42q-59 69 -97.5 150t-52 154.5t-17 108t-3.5 64.5t3.5 64.5
t17 108t52 154.5t97.5 150zM766 857h42q59 -69 97.5 -150t52 -154.5t17 -108t3.5 -64.5t-3.5 -64.5t-17 -108t-52 -154.5t-97.5 -150h-42q81 99 124.5 222.5t43.5 254.5q0 130 -43.5 253.5t-124.5 223.5z" />
    <glyph glyph-name="Japan1.8118" 
d="M827 732v-116q-56 0 -70 -17q10 -21 10 -57q0 -58 -18 -88.5t-72 -46t-159 -15.5q-101 0 -165 18q-19 -12 -19 -24q0 -18 31 -21l301 -23q82 -6 109 -38t27 -103q0 -60 -22.5 -89.5t-88.5 -44.5t-198 -15q-173 0 -237 27t-64 101q0 70 50 93q-48 16 -48 75q0 37 15 68.5
t47 42.5q-28 30 -28 101q0 92 58 120t210 28q146 0 187 -23q37 54 144 47zM500 581q-83 0 -106 -4.5t-23 -27.5q0 -10 4 -14.5t19 -8.5t43.5 -5t80.5 -1q68 0 84 6q17 6 17 24q0 20 -21 25.5t-98 5.5zM610 232l-241 17q-32 -5 -32 -36q0 -16 13 -22q22 -10 169 -10
q62 0 91 2.5t37.5 7.5t8.5 16q0 21 -46 25zM192 857h42q-81 -100 -124.5 -223.5t-43.5 -253.5q0 -131 43.5 -254.5t124.5 -222.5h-42q-59 69 -97.5 150t-52 154.5t-17 108t-3.5 64.5t3.5 64.5t17 108t52 154.5t97.5 150zM766 857h42q59 -69 97.5 -150t52 -154.5t17 -108
t3.5 -64.5t-3.5 -64.5t-17 -108t-52 -154.5t-97.5 -150h-42q81 99 124.5 222.5t43.5 254.5q0 130 -43.5 253.5t-124.5 223.5z" />
    <glyph glyph-name="Japan1.8119" 
d="M228 727h158v-221q26 31 66.5 42.5t111.5 11.5q109 0 158 -40t49 -141v-346h-158v313q0 44 -27.5 56.5t-81.5 12.5q-65 0 -91.5 -17.5t-26.5 -70.5v-294h-158v694zM192 857h42q-81 -100 -124.5 -223.5t-43.5 -253.5q0 -131 43.5 -254.5t124.5 -222.5h-42
q-59 69 -97.5 150t-52 154.5t-17 108t-3.5 64.5t3.5 64.5t17 108t52 154.5t97.5 150zM766 857h42q59 -69 97.5 -150t52 -154.5t17 -108t3.5 -64.5t-3.5 -64.5t-17 -108t-52 -154.5t-97.5 -150h-42q81 99 124.5 222.5t43.5 254.5q0 130 -43.5 253.5t-124.5 223.5z" />
    <glyph glyph-name="Japan1.8120" 
d="M420 727h160v-139h-160v139zM421 553h157v-520h-157v520zM192 857h42q-81 -100 -124.5 -223.5t-43.5 -253.5q0 -131 43.5 -254.5t124.5 -222.5h-42q-59 69 -97.5 150t-52 154.5t-17 108t-3.5 64.5t3.5 64.5t17 108t52 154.5t97.5 150zM766 857h42q59 -69 97.5 -150
t52 -154.5t17 -108t3.5 -64.5t-3.5 -64.5t-17 -108t-52 -154.5t-97.5 -150h-42q81 99 124.5 222.5t43.5 254.5q0 130 -43.5 253.5t-124.5 223.5z" />
    <glyph glyph-name="Japan1.8121" 
d="M465 786h160v-139h-160v139zM467 612h157v-503q0 -100 -83 -129q-22 -8 -61.5 -9.5t-152.5 -1.5v147q95 -1 117.5 6.5t22.5 44.5v445zM192 857h42q-81 -100 -124.5 -223.5t-43.5 -253.5q0 -131 43.5 -254.5t124.5 -222.5h-42q-59 69 -97.5 150t-52 154.5t-17 108
t-3.5 64.5t3.5 64.5t17 108t52 154.5t97.5 150zM766 857h42q59 -69 97.5 -150t52 -154.5t17 -108t3.5 -64.5t-3.5 -64.5t-17 -108t-52 -154.5t-97.5 -150h-42q81 99 124.5 222.5t43.5 254.5q0 130 -43.5 253.5t-124.5 223.5z" />
    <glyph glyph-name="Japan1.8122" 
d="M390 321l203 232h196l-226 -241l251 -279h-197l-227 270v-270h-156v694h156v-406zM192 857h42q-81 -100 -124.5 -223.5t-43.5 -253.5q0 -131 43.5 -254.5t124.5 -222.5h-42q-59 69 -97.5 150t-52 154.5t-17 108t-3.5 64.5t3.5 64.5t17 108t52 154.5t97.5 150zM766 857h42
q59 -69 97.5 -150t52 -154.5t17 -108t3.5 -64.5t-3.5 -64.5t-17 -108t-52 -154.5t-97.5 -150h-42q81 99 124.5 222.5t43.5 254.5q0 130 -43.5 253.5t-124.5 223.5z" />
    <glyph glyph-name="Japan1.8123" 
d="M421 727h158v-694h-158v694zM192 857h42q-81 -100 -124.5 -223.5t-43.5 -253.5q0 -131 43.5 -254.5t124.5 -222.5h-42q-59 69 -97.5 150t-52 154.5t-17 108t-3.5 64.5t3.5 64.5t17 108t52 154.5t97.5 150zM766 857h42q59 -69 97.5 -150t52 -154.5t17 -108t3.5 -64.5
t-3.5 -64.5t-17 -108t-52 -154.5t-97.5 -150h-42q81 99 124.5 222.5t43.5 254.5q0 130 -43.5 253.5t-124.5 223.5z" />
    <glyph glyph-name="Japan1.8124" 
d="M131 640h149l3 -55q51 62 144 62q43 0 71.5 -11.5t37.5 -22t24 -32.5q39 66 145 66q22 0 42.5 -3t43.5 -12.5t39.5 -25t27.5 -43.5t11 -64v-379h-156v337q0 18 -9 30t-22.5 16.5t-20.5 5.5t-12 1q-15 0 -28.5 -3.5t-28 -20.5t-14.5 -45v-321h-156v330q0 59 -64 59
q-25 0 -41 -7.5t-21.5 -21.5t-7 -23.5t-1.5 -24.5v-312h-156v520zM192 857h42q-81 -100 -124.5 -223.5t-43.5 -253.5q0 -131 43.5 -254.5t124.5 -222.5h-42q-59 69 -97.5 150t-52 154.5t-17 108t-3.5 64.5t3.5 64.5t17 108t52 154.5t97.5 150zM766 857h42q59 -69 97.5 -150
t52 -154.5t17 -108t3.5 -64.5t-3.5 -64.5t-17 -108t-52 -154.5t-97.5 -150h-42q81 99 124.5 222.5t43.5 254.5q0 130 -43.5 253.5t-124.5 223.5z" />
    <glyph glyph-name="Japan1.8125" 
d="M228 640h152l3 -51q27 33 65 45.5t116 12.5q110 0 158.5 -40t48.5 -141v-346h-158v313q0 19 -6.5 32.5t-15 20.5t-24.5 10.5t-29 4.5t-34 1q-64 0 -91 -17t-27 -71v-294h-158v520zM192 857h42q-81 -100 -124.5 -223.5t-43.5 -253.5q0 -131 43.5 -254.5t124.5 -222.5h-42
q-59 69 -97.5 150t-52 154.5t-17 108t-3.5 64.5t3.5 64.5t17 108t52 154.5t97.5 150zM766 857h42q59 -69 97.5 -150t52 -154.5t17 -108t3.5 -64.5t-3.5 -64.5t-17 -108t-52 -154.5t-97.5 -150h-42q81 99 124.5 222.5t43.5 254.5q0 130 -43.5 253.5t-124.5 223.5z" />
    <glyph glyph-name="Japan1.8126" 
d="M500 647q56 0 91 -2.5t70 -11.5t54.5 -26t36 -46t22.5 -70.5t6 -100.5q0 -57 -3.5 -95.5t-14.5 -72t-28.5 -52.5t-48 -33t-71 -19t-98.5 -5q-51 0 -82 1.5t-66.5 6.5t-55 15.5t-40 28.5t-30.5 45t-16 65.5t-6 89.5q0 93 9.5 144.5t42 84.5t84 43t144.5 10zM377 378
q0 -85 19 -104.5t105 -19.5q84 0 102.5 20.5t18.5 111.5q0 30 -1.5 49.5t-8.5 33.5t-13.5 21t-24 11t-33 4.5t-46.5 0.5q-44 0 -65.5 -3.5t-34.5 -19.5t-15.5 -37.5t-2.5 -67.5zM192 857h42q-81 -100 -124.5 -223.5t-43.5 -253.5q0 -131 43.5 -254.5t124.5 -222.5h-42
q-59 69 -97.5 150t-52 154.5t-17 108t-3.5 64.5t3.5 64.5t17 108t52 154.5t97.5 150zM766 857h42q59 -69 97.5 -150t52 -154.5t17 -108t3.5 -64.5t-3.5 -64.5t-17 -108t-52 -154.5t-97.5 -150h-42q81 99 124.5 222.5t43.5 254.5q0 130 -43.5 253.5t-124.5 223.5z" />
    <glyph glyph-name="Japan1.8127" 
d="M248 693h152l4 -49q16 18 28.5 27t50.5 19.5t94 10.5q70 0 115 -15.5t68.5 -50t32 -76.5t8.5 -107q0 -71 -8.5 -116t-32.5 -82t-71.5 -53.5t-122.5 -16.5q-107 0 -161 51v-178h-157v636zM523 564q-75 0 -96.5 -25t-21.5 -104q0 -72 23 -93.5t96 -21.5q79 0 99.5 24
t20.5 97q0 81 -24.5 102t-96.5 21zM192 857h42q-81 -100 -124.5 -223.5t-43.5 -253.5q0 -131 43.5 -254.5t124.5 -222.5h-42q-59 69 -97.5 150t-52 154.5t-17 108t-3.5 64.5t3.5 64.5t17 108t52 154.5t97.5 150zM766 857h42q59 -69 97.5 -150t52 -154.5t17 -108t3.5 -64.5
t-3.5 -64.5t-17 -108t-52 -154.5t-97.5 -150h-42q81 99 124.5 222.5t43.5 254.5q0 130 -43.5 253.5t-124.5 223.5z" />
    <glyph glyph-name="Japan1.8128" 
d="M752 693v-636h-157v178q-54 -51 -162 -51q-72 0 -117.5 15t-71.5 49.5t-35.5 80.5t-9.5 118q0 65 7.5 106.5t30 78t68.5 53t118 16.5q56 0 93.5 -10t50 -19.5t29.5 -27.5l3 49h153zM477 564q-75 0 -98 -22.5t-23 -105.5q0 -69 22 -92.5t98 -23.5q75 0 97 22.5t22 97.5
q0 77 -22.5 100.5t-95.5 23.5zM192 857h42q-81 -100 -124.5 -223.5t-43.5 -253.5q0 -131 43.5 -254.5t124.5 -222.5h-42q-59 69 -97.5 150t-52 154.5t-17 108t-3.5 64.5t3.5 64.5t17 108t52 154.5t97.5 150zM766 857h42q59 -69 97.5 -150t52 -154.5t17 -108t3.5 -64.5
t-3.5 -64.5t-17 -108t-52 -154.5t-97.5 -150h-42q81 99 124.5 222.5t43.5 254.5q0 130 -43.5 253.5t-124.5 223.5z" />
    <glyph glyph-name="Japan1.8129" 
d="M332 640h152l5 -51q28 42 74 50.5t166 6.5v-145q-29 3 -72 3q-27 0 -47 -1t-44 -6t-40 -13.5t-26.5 -24.5t-10.5 -38v-301h-157v520zM192 857h42q-81 -100 -124.5 -223.5t-43.5 -253.5q0 -131 43.5 -254.5t124.5 -222.5h-42q-59 69 -97.5 150t-52 154.5t-17 108
t-3.5 64.5t3.5 64.5t17 108t52 154.5t97.5 150zM766 857h42q59 -69 97.5 -150t52 -154.5t17 -108t3.5 -64.5t-3.5 -64.5t-17 -108t-52 -154.5t-97.5 -150h-42q81 99 124.5 222.5t43.5 254.5q0 130 -43.5 253.5t-124.5 223.5z" />
    <glyph glyph-name="Japan1.8130" 
d="M760 473h-155q0 21 -11 28q-18 12 -111 12q-67 0 -86 -7t-19 -26q0 -24 38 -27l222 -17q72 -6 106.5 -37.5t34.5 -116.5q0 -46 -12.5 -77t-32.5 -49.5t-58.5 -28t-77.5 -12t-102 -2.5q-91 0 -142.5 7.5t-82 31t-40 57.5t-9.5 95h154q-1 -26 4.5 -36t32 -16t90.5 -6
q76 0 98.5 9.5t22.5 31.5q0 28 -43 32l-230 20q-127 11 -127 144q0 96 60.5 130t200.5 34q45 0 81 -2.5t63.5 -5.5t47.5 -11.5l34 -14.5t23.5 -20t14 -23t7 -29t3.5 -31.5t1 -36.5zM192 857h42q-81 -100 -124.5 -223.5t-43.5 -253.5q0 -131 43.5 -254.5t124.5 -222.5h-42
q-59 69 -97.5 150t-52 154.5t-17 108t-3.5 64.5t3.5 64.5t17 108t52 154.5t97.5 150zM766 857h42q59 -69 97.5 -150t52 -154.5t17 -108t3.5 -64.5t-3.5 -64.5t-17 -108t-52 -154.5t-97.5 -150h-42q81 99 124.5 222.5t43.5 254.5q0 130 -43.5 253.5t-124.5 223.5z" />
    <glyph glyph-name="Japan1.8131" 
d="M390 574v124h157v-124h159v-142h-159v-194q0 -34 17 -43.5t73 -9.5q43 0 73 1v-136q-33 -4 -78 -4q-144 0 -193 29.5t-49 113.5v243h-110v142h110zM192 857h42q-81 -100 -124.5 -223.5t-43.5 -253.5q0 -131 43.5 -254.5t124.5 -222.5h-42q-59 69 -97.5 150t-52 154.5
t-17 108t-3.5 64.5t3.5 64.5t17 108t52 154.5t97.5 150zM766 857h42q59 -69 97.5 -150t52 -154.5t17 -108t3.5 -64.5t-3.5 -64.5t-17 -108t-52 -154.5t-97.5 -150h-42q81 99 124.5 222.5t43.5 254.5q0 130 -43.5 253.5t-124.5 223.5z" />
    <glyph glyph-name="Japan1.8132" 
d="M771 120h-153l-2 51q-27 -33 -65 -45.5t-116 -12.5q-110 0 -158.5 40.5t-48.5 140.5v346h158v-313q0 -19 6.5 -32.5t15 -20.5t24.5 -10.5t29 -4.5t34 -1q65 0 91.5 17.5t26.5 70.5v294h158v-520zM192 857h42q-81 -100 -124.5 -223.5t-43.5 -253.5q0 -131 43.5 -254.5
t124.5 -222.5h-42q-59 69 -97.5 150t-52 154.5t-17 108t-3.5 64.5t3.5 64.5t17 108t52 154.5t97.5 150zM766 857h42q59 -69 97.5 -150t52 -154.5t17 -108t3.5 -64.5t-3.5 -64.5t-17 -108t-52 -154.5t-97.5 -150h-42q81 99 124.5 222.5t43.5 254.5q0 130 -43.5 253.5
t-124.5 223.5z" />
    <glyph glyph-name="Japan1.8133" 
d="M196 638h171l135 -380l134 380h172l-209 -520h-195zM192 857h42q-81 -100 -124.5 -223.5t-43.5 -253.5q0 -131 43.5 -254.5t124.5 -222.5h-42q-59 69 -97.5 150t-52 154.5t-17 108t-3.5 64.5t3.5 64.5t17 108t52 154.5t97.5 150zM766 857h42q59 -69 97.5 -150t52 -154.5
t17 -108t3.5 -64.5t-3.5 -64.5t-17 -108t-52 -154.5t-97.5 -150h-42q81 99 124.5 222.5t43.5 254.5q0 130 -43.5 253.5t-124.5 223.5z" />
    <glyph glyph-name="Japan1.8134" 
d="M118 632h163l76 -400l33 400h221l38 -400l71 400h163l-122 -520h-222l-39 422l-38 -422h-222zM192 857h42q-81 -100 -124.5 -223.5t-43.5 -253.5q0 -131 43.5 -254.5t124.5 -222.5h-42q-59 69 -97.5 150t-52 154.5t-17 108t-3.5 64.5t3.5 64.5t17 108t52 154.5t97.5 150z
M766 857h42q59 -69 97.5 -150t52 -154.5t17 -108t3.5 -64.5t-3.5 -64.5t-17 -108t-52 -154.5t-97.5 -150h-42q81 99 124.5 222.5t43.5 254.5q0 130 -43.5 253.5t-124.5 223.5z" />
    <glyph glyph-name="Japan1.8135" 
d="M219 640h185l98 -178l103 178h185l-160 -249l171 -271h-185l-114 203l-117 -203h-185l176 274zM192 857h42q-81 -100 -124.5 -223.5t-43.5 -253.5q0 -131 43.5 -254.5t124.5 -222.5h-42q-59 69 -97.5 150t-52 154.5t-17 108t-3.5 64.5t3.5 64.5t17 108t52 154.5t97.5 150
zM766 857h42q59 -69 97.5 -150t52 -154.5t17 -108t3.5 -64.5t-3.5 -64.5t-17 -108t-52 -154.5t-97.5 -150h-42q81 99 124.5 222.5t43.5 254.5q0 130 -43.5 253.5t-124.5 223.5z" />
    <glyph glyph-name="Japan1.8136" 
d="M198 691h178l131 -290l121 290h175l-247 -522q-23 -47 -41.5 -68.5t-61 -34t-119.5 -12.5q-58 0 -91 5v133q54 -5 93 -5q42 0 59 8.5t28 32.5l10 22zM192 857h42q-81 -100 -124.5 -223.5t-43.5 -253.5q0 -131 43.5 -254.5t124.5 -222.5h-42q-59 69 -97.5 150t-52 154.5
t-17 108t-3.5 64.5t3.5 64.5t17 108t52 154.5t97.5 150zM766 857h42q59 -69 97.5 -150t52 -154.5t17 -108t3.5 -64.5t-3.5 -64.5t-17 -108t-52 -154.5t-97.5 -150h-42q81 99 124.5 222.5t43.5 254.5q0 130 -43.5 253.5t-124.5 223.5z" />
    <glyph glyph-name="Japan1.8137" 
d="M252 640h501v-138l-293 -244h298v-138h-515v138l297 244h-288v138zM192 857h42q-81 -100 -124.5 -223.5t-43.5 -253.5q0 -131 43.5 -254.5t124.5 -222.5h-42q-59 69 -97.5 150t-52 154.5t-17 108t-3.5 64.5t3.5 64.5t17 108t52 154.5t97.5 150zM766 857h42
q59 -69 97.5 -150t52 -154.5t17 -108t3.5 -64.5t-3.5 -64.5t-17 -108t-52 -154.5t-97.5 -150h-42q81 99 124.5 222.5t43.5 254.5q0 130 -43.5 253.5t-124.5 223.5z" />
    <glyph glyph-name="Japan1.8184" 
d="M810 821l26 -21l-645 -861l-27 20zM809 107l-115 -17q-25 -3 -25 -31v-9h240v-98h-353v124q0 89 103 107l103 18q34 6 34 39q0 24 -12 31t-44 7q-36 0 -51 -6.5t-15 -29.5v-21h-114l1.5 40t4 34t10 30.5t19.5 22.5t31.5 18.5t46.5 10t65 4.5q98 0 135 -31.5t37 -103.5
q0 -75 -24 -103.5t-77 -35.5zM144 805h190v-420h-111v317h-79v103z" />
    <glyph glyph-name="Japan1.8185" 
d="M726 381h143v-250h55v-103h-55v-70h-108v70h-220v120zM761 131v136l-102 -136h102zM810 821l26 -21l-645 -861l-27 20zM144 805h190v-420h-111v317h-79v103z" />
    <glyph glyph-name="Japan1.8224" 
d="M500 854q128 0 237 -62.5t173 -172t64 -239.5q0 -196 -139 -335t-335 -139t-335 139t-139 335q0 130 64 239.5t173 172t237 62.5zM500 819q-181 0 -310 -128t-129 -311q0 -119 59 -220t160 -160t220 -59q182 0 310.5 128.5t128.5 310.5q0 183 -129 311t-310 128zM501 678
q25 0 44.5 -1t36 -7l28 -10t21 -17.5l15 -21.5t10 -31.5t6.5 -37.5t3 -48.5t1 -55.5v-68q0 -168 -12 -214q-15 -59 -66 -75q-29 -9 -81 -9q-102 0 -134 33q-31 33 -36 138q-1 35 -1 127q0 169 12 215q14 57 65 73q31 10 88 10zM501 557q-30 0 -37 -11q-11 -16 -11 -125v-41
q0 -144 6 -158q9 -19 43 -19q29 0 36 12q10 17 10 135v30q0 140 -8 160q-15 16 -39 17z" />
    <glyph glyph-name="Japan1.8225" 
d="M411 788h528v-141h-67v-506h71v-141h-519v141h41l-74 141l-71 -141h40v-141h-303v141h71l148 258l-141 248h-76v141h304v-141h-37l62 -123l59 123h-36v141zM699 647h-61l-137 -246l156 -260h42v506z" />
    <glyph glyph-name="Japan1.8226" 
d="M313 0v141h34l-61 141l-59 -141h33v-141h-238v141h47l122 258l-116 248h-50v141h238v-141h-31l51 -123l49 123h-30v141h676v-141h-46v-506h46v-141h-665zM376 401l129 -260h45v506h-60zM763 647h-47v-506h47v506z" />
    <glyph glyph-name="Japan1.8227" 
d="M505 691q102 0 135 -37q32 -35 36 -146q1 -36 1 -128q0 -174 -12 -222q-15 -62 -67 -79q-31 -10 -86 -10q-105 0 -139 34q-34 33 -38 139q-2 38 -2 138q0 175 12 222q15 61 66 78q32 11 94 11zM505 565q-30 0 -38 -12q-11 -17 -11 -131v-42q0 -150 6 -165q9 -20 45 -20
q30 0 37 13q11 18 11 137v35q0 144 -8 166q-6 18 -31 19h-11zM192 857h42q-81 -100 -124.5 -223.5t-43.5 -253.5q0 -131 43.5 -254.5t124.5 -222.5h-42q-59 69 -97.5 150t-52 154.5t-17 108t-3.5 64.5t3.5 64.5t17 108t52 154.5t97.5 150zM766 857h42q59 -69 97.5 -150
t52 -154.5t17 -108t3.5 -64.5t-3.5 -64.5t-17 -108t-52 -154.5t-97.5 -150h-42q81 99 124.5 222.5t43.5 254.5q0 130 -43.5 253.5t-124.5 223.5z" />
    <glyph glyph-name="Japan1.8228" 
d="M732 763l88 104l98 -82l-94 -112q34 -76 34 -282q0 -101 -8.5 -165.5t-29 -113t-61 -73t-97.5 -36t-146 -11.5q-181 0 -245 27l-91 -107l-98 82l97 116q-37 74 -37 293q0 83 6 141t22 103.5t40 73t65 45t92.5 24t125.5 6.5q167 0 239 -33zM325 282l288 341q-29 9 -127 9
q-43 0 -66 -1.5t-44.5 -11.5t-29.5 -22t-15 -44t-8 -66.5t-1 -99.5q0 -59 3 -105zM674 495l-282 -333q32 -7 115 -7q44 0 66.5 1.5t45 9.5t31.5 19.5t16.5 38.5t9 59t1.5 88q0 20 -1.5 69t-1.5 55z" />
    <glyph glyph-name="Japan1.8286" 
d="M500 854q128 0 237 -62.5t173 -172t64 -239.5q0 -196 -139 -335t-335 -139t-335 139t-139 335q0 130 64 239.5t173 172t237 62.5zM575 681h-232v-125h109v-477h123v602z" />
    <glyph glyph-name="Japan1.8287" 
d="M500 854q128 0 237 -62.5t173 -172t64 -239.5q0 -196 -139 -335t-335 -139t-335 139t-139 335q0 130 64 239.5t173 172t237 62.5zM494 288l97 45q54 25 67.5 60t13.5 122q0 107 -37 139.5t-135 32.5q-127 0 -154 -70q-7 -20 -8.5 -42.5t-2.5 -109.5h116v18q0 50 8.5 64.5
t43.5 14.5q30 0 39.5 -13t9.5 -47q0 -27 -6.5 -43.5t-13.5 -21.5t-24 -13l-88 -40q-53 -24 -68 -58q-18 -38 -18 -168v-79h336v125h-219q0 39 8.5 55.5t34.5 28.5z" />
    <glyph glyph-name="Japan1.8288" 
d="M500 854q128 0 237 -62.5t173 -172t64 -239.5q0 -196 -139 -335t-335 -139t-335 139t-139 335q0 130 64 239.5t173 172t237 62.5zM329 287v-29q0 -44 2.5 -69.5t12 -51t28.5 -37.5t51 -19.5t81 -7.5q96 0 130.5 36.5t34.5 131.5q0 48 -8 79.5t-23 45t-28.5 18.5t-32.5 5
q55 19 70.5 49.5t15.5 87.5q0 53 -11.5 86.5t-36.5 49t-51 20.5t-68 5q-27 0 -49.5 -3.5t-39 -8t-29 -14.5t-21 -18t-14 -24t-8.5 -26.5t-4.5 -32.5t-1.5 -34.5v-38.5h122q0 25 0.5 35.5t5 22t14.5 14.5t28 3q29 0 38 -14.5t9 -42.5q0 -41 -13 -52t-45 -11h-53v-114h53
q20 0 28.5 -1t17.5 -8t12 -21.5t3 -41.5q0 -36 -12 -47t-39 -11q-35 0 -42 15.5t-6 73.5h-121z" />
    <glyph glyph-name="Japan1.8289" 
d="M500 854q128 0 237 -62.5t173 -172t64 -239.5q0 -196 -139 -335t-335 -139t-335 139t-139 335q0 130 64 239.5t173 172t237 62.5zM635 681h-161l-156 -332v-157h196v-113h121v113h36v125h-36v364zM427 317l88 208v-208h-88z" />
    <glyph glyph-name="Japan1.8290" 
d="M500 854q128 0 237 -62.5t173 -172t64 -239.5q0 -196 -139 -335t-335 -139t-335 139t-139 335q0 130 64 239.5t173 172t237 62.5zM661 681h-322l-7 -354h118q2 23 14 33t38 10q33 0 40.5 -18t7.5 -76q0 -51 -8.5 -64.5t-41.5 -13.5q-19 0 -29.5 3t-15 14t-5.5 21t-1 34
h-121q0 -56 5 -88.5t22.5 -59.5t52.5 -38t92 -11q58 0 93.5 12.5t52 42.5t21.5 62.5t5 88.5q0 41 -1 63t-8.5 54.5t-21.5 49t-41.5 29t-67.5 12.5q-49 0 -77 -19l4 88h202v125z" />
    <glyph glyph-name="Japan1.8291" 
d="M500 854q128 0 237 -62.5t173 -172t64 -239.5q0 -196 -139 -335t-335 -139t-335 139t-139 335q0 130 64 239.5t173 172t237 62.5zM546 505h119q1 111 -36.5 146.5t-128.5 35.5q-102 0 -135 -42q-32 -38 -36 -160q-1 -37 -1 -126q0 -158 12 -202q16 -59 70 -75
q31 -9 85 -9q48 0 80.5 9.5t51 24.5t28.5 43.5t12.5 56.5t2.5 74q0 98 -27.5 142.5t-105.5 44.5q-50 0 -89 -23q-1 78 8 98t42 20q29 0 39 -10.5t9 -47.5zM499 346q32 0 42 -13.5t10 -52.5q0 -26 -1 -37t-5.5 -24t-15 -17.5t-28.5 -4.5q-31 0 -41 14t-10 58q0 43 8.5 60
t40.5 17z" />
    <glyph glyph-name="Japan1.8292" 
d="M500 854q128 0 237 -62.5t173 -172t64 -239.5q0 -196 -139 -335t-335 -139t-335 139t-139 335q0 130 64 239.5t173 172t237 62.5zM684 681h-355v-125h228l-190 -477h137l180 476v126z" />
    <glyph glyph-name="Japan1.8293" 
d="M500 854q128 0 237 -62.5t173 -172t64 -239.5q0 -196 -139 -335t-335 -139t-335 139t-139 335q0 130 64 239.5t173 172t237 62.5zM406 390q-19 -7 -30 -14t-23.5 -22.5t-18 -44t-5.5 -70.5q0 -54 12 -88t37.5 -50.5t53.5 -22t73 -5.5q94 0 130.5 37.5t36.5 131.5
q0 43 -6 71.5t-19 43.5t-23 21t-29 12q34 15 51.5 41.5t17.5 89.5q0 46 -8 77.5t-21 49t-37 26.5t-46 11.5t-59 2.5q-85 0 -120.5 -34t-35.5 -131q0 -59 16 -87.5t53 -45.5zM500 563q30 0 38 -13t8 -46q0 -16 -1 -23.5t-5 -16.5t-14 -12.5t-26 -3.5q-30 0 -37.5 12.5
t-7.5 43.5q0 32 8 45.5t37 13.5zM501 327q31 0 41 -14.5t10 -48.5q0 -38 -9.5 -52.5t-41.5 -14.5q-31 0 -41.5 13.5t-10.5 44.5q0 41 9 56.5t43 15.5z" />
    <glyph glyph-name="Japan1.8294" 
d="M500 854q128 0 237 -62.5t173 -172t64 -239.5q0 -196 -139 -335t-335 -139t-335 139t-139 335q0 130 64 239.5t173 172t237 62.5zM449 255h-119q0 -59 9 -95t31.5 -55t51.5 -25.5t77 -6.5q103 0 137 41q32 38 36 157q1 38 1 133q0 155 -12 200q-16 58 -71 74q-30 9 -79 9
q-61 0 -97.5 -12t-54 -41.5t-22.5 -62.5t-5 -92q0 -98 27.5 -142.5t105.5 -44.5q51 0 89 23q0 -77 -8.5 -97.5t-44.5 -20.5q-33 0 -43 10.5t-9 47.5zM502 414q-31 0 -41.5 13t-10.5 54q0 48 8.5 64.5t42.5 16.5q30 0 40 -13.5t10 -57.5q0 -43 -8.5 -60t-40.5 -17z" />
    <glyph glyph-name="Japan1.8295" 
d="M989 788v-141h-27v-506h27v-141h-708v141h33l-59 125l-57 -125h33v-141h-220v141h36l132 258l-127 248h-39v141h220v-141h-29l48 -107l47 107h-29v141h719zM657 647h-38v-506h38v506zM485 141v506h-34l-123 -246l137 -260h20zM828 647h-38v-506h38v506z" />
    <glyph glyph-name="Japan1.8296" 
d="M754 788v-141h-24l48 -436l45 436h-25v141h192v-141h-33l-94 -647h-170l-97 647h-22v-506h43v-141h-354v141h26l-51 117l-48 -117h25v-141h-203v141h33l117 258l-112 248h-40v141h207v-141h-27l46 -115l43 115h-27v141h502zM451 647h-32l-108 -246l122 -260h18v506z" />
    <glyph glyph-name="Japan1.8297" 
d="M707 788v-141h-38l60 -496l63 496h-38v141h234v-141h-35l-117 -647h-209l-119 647h-50l-110 -246l122 -260h31v-141h-213v141h33l-59 125l-56 -125h32v-141h-226v141h45l116 258l-114 248h-47v141h226v-141h-29l51 -119l49 119h-29v141h427z" />
    <glyph glyph-name="Japan1.8298" 
d="M478 589h187l-146 -281l161 -308h-188l-108 227l-107 -227h-188l160 308l-146 281h187l94 -195zM709 788h169v-145h-169v145zM710 589h167v-589h-167v589z" />
    <glyph glyph-name="Japan1.8299" 
d="M562 788h163v-145h-163v145zM564 589h159v-589h-159v589zM768 788h163v-145h-163v145zM770 589h159v-589h-159v589zM354 589h167l-116 -281l125 -308h-168l-84 227l-83 -227h-168l124 308l-116 281h167l76 -195z" />
    <glyph glyph-name="Japan1.8300" 
d="M488 788h132v-145h-132v145zM489 589h130v-589h-130v589zM650 788h132v-145h-132v145zM651 589h130v-589h-130v589zM812 788h132v-145h-132v145zM813 589h130v-589h-130v589zM291 589h164l-104 -281l113 -308h-165l-62 227l-61 -227h-165l112 308l-105 281h164l55 -195z
" />
    <glyph glyph-name="Japan1.8301" 
d="M448 788h133v-145h-133v145zM449 589h131v-589h-131v589zM263 589h160l-85 -281l92 -308h-160l-48 227l-47 -227h-161l92 308l-85 281h160l41 -195zM605 589h154l34 -421l37 421h155l-83 -589h-218z" />
    <glyph glyph-name="Japan1.8302" 
d="M517 589h181l52 -419l54 419h183l-142 -589h-191zM316 589h177l-114 -281l123 -308h-179l-64 227l-62 -227h-179l122 308l-114 281h177l56 -195z" />
    <glyph glyph-name="Japan1.9780" 
d="M269 811q47 0 77 -6t50 -18.5t30 -38.5t13.5 -57.5t3.5 -84.5q0 -43 -1 -66.5t-4 -52t-10 -42.5t-19 -29.5t-30.5 -21.5t-44 -10.5t-61.5 -4.5q-55 0 -83.5 5t-54 25.5t-35 62.5t-9.5 115q0 76 7.5 118.5t29.5 67t53 31.5t88 7zM269 709q-46 0 -55.5 -21.5t-9.5 -99.5
q0 -64 10 -84t57 -20q18 0 26.5 2t16.5 7t10.5 20.5t4 37t1.5 61.5q0 66 -10 81.5t-51 15.5zM810 821l26 -21l-645 -861l-27 20zM553 102h112q0 -36 8.5 -44.5t51.5 -8.5q47 0 61 8t14 33q0 34 -30 34h-66v91h62q26 0 26 33q0 20 -11 26.5t-52 6.5q-39 0 -48 -9t-9 -38h-112
q-1 37 3.5 60t20 45.5t51 33t91.5 10.5q36 0 59.5 -1.5t48.5 -8.5t38.5 -19t22.5 -33.5t9 -52.5q0 -74 -51 -94q12 -5 18.5 -8.5t18 -14.5t17.5 -30t6 -46q0 -72 -42.5 -100t-131.5 -28q-66 0 -105 8.5t-56.5 31t-21 46t-3.5 69.5z" />
    <glyph glyph-name="Japan1.9781" 
d="M810 821l26 -21l-645 -861l-27 20zM553 102h112q0 -36 8.5 -44.5t51.5 -8.5q47 0 61 8t14 33q0 34 -30 34h-66v91h62q26 0 26 33q0 20 -11 26.5t-52 6.5q-39 0 -48 -9t-9 -38h-112q-1 37 3.5 60t20 45.5t51 33t91.5 10.5q36 0 59.5 -1.5t48.5 -8.5t38.5 -19t22.5 -33.5
t9 -52.5q0 -74 -51 -94q12 -5 18.5 -8.5t18 -14.5t17.5 -30t6 -46q0 -72 -42.5 -100t-131.5 -28q-66 0 -105 8.5t-56.5 31t-21 46t-3.5 69.5zM144 805h190v-420h-111v317h-79v103z" />
    <glyph glyph-name="Japan1.9782" 
d="M810 821l26 -21l-645 -861l-27 20zM553 102h112q0 -36 8.5 -44.5t51.5 -8.5q47 0 61 8t14 33q0 34 -30 34h-66v91h62q26 0 26 33q0 20 -11 26.5t-52 6.5q-39 0 -48 -9t-9 -38h-112q-1 37 3.5 60t20 45.5t51 33t91.5 10.5q36 0 59.5 -1.5t48.5 -8.5t38.5 -19t22.5 -33.5
t9 -52.5q0 -74 -51 -94q12 -5 18.5 -8.5t18 -14.5t17.5 -30t6 -46q0 -72 -42.5 -100t-131.5 -28q-66 0 -105 8.5t-56.5 31t-21 46t-3.5 69.5zM344 537l-115 -17q-25 -3 -25 -30v-10h239v-98h-353v124q0 88 103 107l103 18q35 6 35 39q0 24 -12 31t-44 7q-36 0 -51 -6.5
t-15 -29.5v-21h-115q0 24 1 35t3 30.5t7 28.5t13 22t21.5 19t31.5 13t43.5 9.5t58.5 2.5q98 0 134.5 -31.5t36.5 -103.5q0 -75 -23.5 -103.5t-76.5 -35.5z" />
    <glyph glyph-name="Japan1.9783" 
d="M726 381h143v-250h55v-103h-55v-70h-108v70h-220v120zM761 131v136l-102 -136h102zM810 821l26 -21l-645 -861l-27 20zM87 532h113q0 -35 8.5 -44t50.5 -9q47 0 61.5 8t14.5 33q0 34 -30 34h-67v91h62q26 0 26 33q0 20 -11 26.5t-52 6.5q-38 0 -47.5 -9t-9.5 -38h-112
q0 30 2 49t11.5 40t27 33t49 19.5t77.5 7.5q36 0 59.5 -1.5t48.5 -8.5t38.5 -19t22.5 -33.5t9 -52.5q0 -74 -51 -94q12 -5 18.5 -8.5t18 -14.5t17.5 -30t6 -46q0 -72 -42.5 -100t-131.5 -28q-53 0 -88.5 7t-55 17t-29.5 32t-12 42t-2 57z" />
    <glyph glyph-name="Japan1.9784" 
d="M810 821l26 -21l-645 -861l-27 20zM571 378h322v-101h-218l-2 -50q29 16 94 16q80 0 112 -33.5t32 -103.5q0 -25 -1.5 -41t-6.5 -36.5t-17 -32.5t-31 -24t-50 -17.5t-73 -5.5q-50 0 -85 8.5t-53 20.5t-27.5 33t-11 37.5t-1.5 43.5h114q0 -24 10.5 -32t53.5 -8
q41 0 52.5 9t11.5 39t-10.5 38t-49.5 8q-37 0 -50 -3.5t-16 -17.5h-104zM144 805h190v-420h-111v317h-79v103z" />
    <glyph glyph-name="Japan1.9785" 
d="M810 821l26 -21l-645 -861l-27 20zM571 378h322v-101h-218l-2 -50q29 16 94 16q80 0 112 -33.5t32 -103.5q0 -25 -1.5 -41t-6.5 -36.5t-17 -32.5t-31 -24t-50 -17.5t-73 -5.5q-50 0 -85 8.5t-53 20.5t-27.5 33t-11 37.5t-1.5 43.5h114q0 -24 10.5 -32t53.5 -8
q41 0 52.5 9t11.5 39t-10.5 38t-49.5 8q-37 0 -50 -3.5t-16 -17.5h-104zM344 537l-115 -17q-25 -3 -25 -30v-10h239v-98h-353v124q0 88 103 107l103 18q35 6 35 39q0 24 -12 31t-44 7q-36 0 -51 -6.5t-15 -29.5v-21h-115q0 24 1 35t3 30.5t7 28.5t13 22t21.5 19t31.5 13
t43.5 9.5t58.5 2.5q98 0 134.5 -31.5t36.5 -103.5q0 -75 -23.5 -103.5t-76.5 -35.5z" />
    <glyph glyph-name="Japan1.9786" 
d="M810 821l26 -21l-645 -861l-27 20zM571 378h322v-101h-218l-2 -50q29 16 94 16q80 0 112 -33.5t32 -103.5q0 -25 -1.5 -41t-6.5 -36.5t-17 -32.5t-31 -24t-50 -17.5t-73 -5.5q-50 0 -85 8.5t-53 20.5t-27.5 33t-11 37.5t-1.5 43.5h114q0 -24 10.5 -32t53.5 -8
q41 0 52.5 9t11.5 39t-10.5 38t-49.5 8q-37 0 -50 -3.5t-16 -17.5h-104zM87 532h113q0 -35 8.5 -44t50.5 -9q47 0 61.5 8t14.5 33q0 34 -30 34h-67v91h62q26 0 26 33q0 20 -11 26.5t-52 6.5q-38 0 -47.5 -9t-9.5 -38h-112q0 30 2 49t11.5 40t27 33t49 19.5t77.5 7.5
q36 0 59.5 -1.5t48.5 -8.5t38.5 -19t22.5 -33.5t9 -52.5q0 -74 -51 -94q12 -5 18.5 -8.5t18 -14.5t17.5 -30t6 -46q0 -72 -42.5 -100t-131.5 -28q-53 0 -88.5 7t-55 17t-29.5 32t-12 42t-2 57z" />
    <glyph glyph-name="Japan1.9787" 
d="M260 811h144v-250h55v-103h-55v-70h-108v70h-220v120zM296 561v136l-102 -136h102zM810 821l26 -21l-645 -861l-27 20zM571 378h322v-101h-218l-2 -50q29 16 94 16q80 0 112 -33.5t32 -103.5q0 -25 -1.5 -41t-6.5 -36.5t-17 -32.5t-31 -24t-50 -17.5t-73 -5.5
q-50 0 -85 8.5t-53 20.5t-27.5 33t-11 37.5t-1.5 43.5h114q0 -24 10.5 -32t53.5 -8q41 0 52.5 9t11.5 39t-10.5 38t-49.5 8q-37 0 -50 -3.5t-16 -17.5h-104z" />
    <glyph glyph-name="Japan1.9788" 
d="M900 248h-111q0 20 -10.5 26.5t-41.5 6.5q-45 0 -55.5 -13.5t-10.5 -64.5q38 19 92 19q32 0 52.5 -3.5t44 -15.5t35.5 -41t12 -74q0 -79 -36 -109.5t-131 -30.5q-43 0 -66.5 2.5t-49 12.5t-38 30t-20.5 56t-8 91q0 169 41 206q40 36 145 36q32 0 56.5 -4t41 -9t27.5 -16
t17 -19.5t9 -26t3.5 -27.5t1.5 -32zM732 124q-35 0 -47 -7t-12 -31t13.5 -30.5t42.5 -6.5q43 0 54.5 7.5t11.5 31.5q0 25 -13 30.5t-50 5.5zM810 821l26 -21l-645 -861l-27 20zM144 805h190v-420h-111v317h-79v103z" />
    <glyph glyph-name="Japan1.9789" 
d="M900 248h-111q0 20 -10.5 26.5t-41.5 6.5q-45 0 -55.5 -13.5t-10.5 -64.5q38 19 92 19q32 0 52.5 -3.5t44 -15.5t35.5 -41t12 -74q0 -79 -36 -109.5t-131 -30.5q-43 0 -66.5 2.5t-49 12.5t-38 30t-20.5 56t-8 91q0 169 41 206q40 36 145 36q32 0 56.5 -4t41 -9t27.5 -16
t17 -19.5t9 -26t3.5 -27.5t1.5 -32zM732 124q-35 0 -47 -7t-12 -31t13.5 -30.5t42.5 -6.5q43 0 54.5 7.5t11.5 31.5q0 25 -13 30.5t-50 5.5zM810 821l26 -21l-645 -861l-27 20zM106 808h322v-101h-218l-2 -50q29 16 94 16q80 0 112 -33.5t32 -103.5q0 -25 -1.5 -41
t-6.5 -36.5t-17 -32.5t-31.5 -24t-50.5 -17.5t-73 -5.5q-50 0 -84.5 8.5t-52.5 20.5t-27.5 33t-11 37.5t-1.5 43.5h114q0 -25 10 -32.5t54 -7.5q41 0 52.5 9t11.5 39t-11 38t-49 8t-50.5 -3.5t-16.5 -17.5h-103z" />
    <glyph glyph-name="Japan1.9790" 
d="M810 821l26 -21l-645 -861l-27 20zM560 370h346v-102l-164 -319h-129l168 319h-221v102zM144 805h190v-420h-111v317h-79v103z" />
    <glyph glyph-name="Japan1.9791" 
d="M810 821l26 -21l-645 -861l-27 20zM560 370h346v-102l-164 -319h-129l168 319h-221v102zM344 537l-115 -17q-25 -3 -25 -30v-10h239v-98h-353v124q0 88 103 107l103 18q35 6 35 39q0 24 -12 31t-44 7q-36 0 -51 -6.5t-15 -29.5v-21h-115q0 24 1 35t3 30.5t7 28.5t13 22
t21.5 19t31.5 13t43.5 9.5t58.5 2.5q98 0 134.5 -31.5t36.5 -103.5q0 -75 -23.5 -103.5t-76.5 -35.5z" />
    <glyph glyph-name="Japan1.9792" 
d="M810 821l26 -21l-645 -861l-27 20zM560 370h346v-102l-164 -319h-129l168 319h-221v102zM87 532h113q0 -35 8.5 -44t50.5 -9q47 0 61.5 8t14.5 33q0 34 -30 34h-67v91h62q26 0 26 33q0 20 -11 26.5t-52 6.5q-38 0 -47.5 -9t-9.5 -38h-112q0 30 2 49t11.5 40t27 33
t49 19.5t77.5 7.5q36 0 59.5 -1.5t48.5 -8.5t38.5 -19t22.5 -33.5t9 -52.5q0 -74 -51 -94q12 -5 18.5 -8.5t18 -14.5t17.5 -30t6 -46q0 -72 -42.5 -100t-131.5 -28q-53 0 -88.5 7t-55 17t-29.5 32t-12 42t-2 57z" />
    <glyph glyph-name="Japan1.9793" 
d="M260 811h144v-250h55v-103h-55v-70h-108v70h-220v120zM296 561v136l-102 -136h102zM810 821l26 -21l-645 -861l-27 20zM560 370h346v-102l-164 -319h-129l168 319h-221v102z" />
    <glyph glyph-name="Japan1.9794" 
d="M810 821l26 -21l-645 -861l-27 20zM560 370h346v-102l-164 -319h-129l168 319h-221v102zM106 808h322v-101h-218l-2 -50q29 16 94 16q80 0 112 -33.5t32 -103.5q0 -25 -1.5 -41t-6.5 -36.5t-17 -32.5t-31.5 -24t-50.5 -17.5t-73 -5.5q-50 0 -84.5 8.5t-52.5 20.5
t-27.5 33t-11 37.5t-1.5 43.5h114q0 -25 10 -32.5t54 -7.5q41 0 52.5 9t11.5 39t-11 38t-49 8t-50.5 -3.5t-16.5 -17.5h-103z" />
    <glyph glyph-name="Japan1.9795" 
d="M435 679h-112q1 19 -10 25.5t-41 6.5q-45 0 -56 -13.5t-11 -64.5q40 19 93 19q32 0 52.5 -3.5t44 -15t35.5 -40.5t12 -74q0 -80 -36.5 -110.5t-130.5 -30.5q-36 0 -56.5 1.5t-44.5 7.5t-36.5 18.5t-24.5 33.5t-16.5 53.5t-4.5 78.5q0 167 42 205q38 36 145 36
q37 0 64.5 -4t44 -14t26 -19t14 -28t5.5 -31t2 -37zM266 554q-35 0 -46.5 -7t-11.5 -31t13.5 -30.5t42.5 -6.5q43 0 54.5 8t11.5 32t-13 29.5t-51 5.5zM810 821l26 -21l-645 -861l-27 20zM560 370h346v-102l-164 -319h-129l168 319h-221v102z" />
    <glyph glyph-name="Japan1.9796" 
d="M858 173q16 -7 25.5 -13.5t20.5 -28t11 -53.5q0 -18 -1 -28.5t-6 -28.5t-17 -28.5t-32 -22t-54 -17t-79 -5.5q-96 0 -135.5 28t-39.5 92q0 29 5 49.5t16.5 31t18.5 15t21 9.5q-16 7 -25 13.5t-19.5 28t-10.5 53.5q0 67 42.5 90.5t128.5 23.5q36 0 60.5 -2t49.5 -8.5
t39 -19t23 -33t9 -50.5q0 -76 -51 -96zM734 280q-38 0 -50.5 -6.5t-12.5 -25.5t13 -25t55 -6q33 0 44.5 7t11.5 25q0 19 -15 25t-46 6zM734 125q-36 0 -52.5 -7t-16.5 -31q0 -21 14 -29.5t57 -8.5q40 0 53 8t13 30t-13.5 30t-54.5 8zM810 821l26 -21l-645 -861l-27 20z
M144 805h190v-420h-111v317h-79v103z" />
    <glyph glyph-name="Japan1.9797" 
d="M858 173q16 -7 25.5 -13.5t20.5 -28t11 -53.5q0 -18 -1 -28.5t-6 -28.5t-17 -28.5t-32 -22t-54 -17t-79 -5.5q-96 0 -135.5 28t-39.5 92q0 29 5 49.5t16.5 31t18.5 15t21 9.5q-16 7 -25 13.5t-19.5 28t-10.5 53.5q0 67 42.5 90.5t128.5 23.5q36 0 60.5 -2t49.5 -8.5
t39 -19t23 -33t9 -50.5q0 -76 -51 -96zM734 280q-38 0 -50.5 -6.5t-12.5 -25.5t13 -25t55 -6q33 0 44.5 7t11.5 25q0 19 -15 25t-46 6zM734 125q-36 0 -52.5 -7t-16.5 -31q0 -21 14 -29.5t57 -8.5q40 0 53 8t13 30t-13.5 30t-54.5 8zM810 821l26 -21l-645 -861l-27 20z
M87 532h113q0 -35 8.5 -44t50.5 -9q47 0 61.5 8t14.5 33q0 34 -30 34h-67v91h62q26 0 26 33q0 20 -11 26.5t-52 6.5q-38 0 -47.5 -9t-9.5 -38h-112q0 30 2 49t11.5 40t27 33t49 19.5t77.5 7.5q36 0 59.5 -1.5t48.5 -8.5t38.5 -19t22.5 -33.5t9 -52.5q0 -74 -51 -94
q12 -5 18.5 -8.5t18 -14.5t17.5 -30t6 -46q0 -72 -42.5 -100t-131.5 -28q-53 0 -88.5 7t-55 17t-29.5 32t-12 42t-2 57z" />
    <glyph glyph-name="Japan1.9798" 
d="M858 173q16 -7 25.5 -13.5t20.5 -28t11 -53.5q0 -18 -1 -28.5t-6 -28.5t-17 -28.5t-32 -22t-54 -17t-79 -5.5q-96 0 -135.5 28t-39.5 92q0 29 5 49.5t16.5 31t18.5 15t21 9.5q-16 7 -25 13.5t-19.5 28t-10.5 53.5q0 67 42.5 90.5t128.5 23.5q36 0 60.5 -2t49.5 -8.5
t39 -19t23 -33t9 -50.5q0 -76 -51 -96zM734 280q-38 0 -50.5 -6.5t-12.5 -25.5t13 -25t55 -6q33 0 44.5 7t11.5 25q0 19 -15 25t-46 6zM734 125q-36 0 -52.5 -7t-16.5 -31q0 -21 14 -29.5t57 -8.5q40 0 53 8t13 30t-13.5 30t-54.5 8zM810 821l26 -21l-645 -861l-27 20z
M106 808h322v-101h-218l-2 -50q29 16 94 16q80 0 112 -33.5t32 -103.5q0 -25 -1.5 -41t-6.5 -36.5t-17 -32.5t-31.5 -24t-50.5 -17.5t-73 -5.5q-50 0 -84.5 8.5t-52.5 20.5t-27.5 33t-11 37.5t-1.5 43.5h114q0 -25 10 -32.5t54 -7.5q41 0 52.5 9t11.5 39t-11 38t-49 8
t-50.5 -3.5t-16.5 -17.5h-103z" />
    <glyph glyph-name="Japan1.9799" 
d="M858 173q16 -7 25.5 -13.5t20.5 -28t11 -53.5q0 -18 -1 -28.5t-6 -28.5t-17 -28.5t-32 -22t-54 -17t-79 -5.5q-96 0 -135.5 28t-39.5 92q0 29 5 49.5t16.5 31t18.5 15t21 9.5q-16 7 -25 13.5t-19.5 28t-10.5 53.5q0 67 42.5 90.5t128.5 23.5q36 0 60.5 -2t49.5 -8.5
t39 -19t23 -33t9 -50.5q0 -76 -51 -96zM734 280q-38 0 -50.5 -6.5t-12.5 -25.5t13 -25t55 -6q33 0 44.5 7t11.5 25q0 19 -15 25t-46 6zM734 125q-36 0 -52.5 -7t-16.5 -31q0 -21 14 -29.5t57 -8.5q40 0 53 8t13 30t-13.5 30t-54.5 8zM810 821l26 -21l-645 -861l-27 20z
M94 800h346v-102l-163 -319h-129l168 319h-222v102z" />
    <glyph glyph-name="Japan1.9800" 
d="M565 81h112q-1 -19 10 -25.5t41 -6.5q45 0 56 13.5t11 64.5q-40 -19 -93 -19q-35 0 -57 4t-44 17.5t-32.5 42.5t-10.5 74q0 80 39.5 108t127.5 28q43 0 66.5 -2.5t49 -12.5t38 -30.5t20.5 -56.5t8 -91q0 -168 -41 -205q-38 -36 -145 -36q-45 0 -75 7.5t-45.5 16.5
t-23.5 30t-9.5 35t-2.5 44zM734 206h6q19 0 27.5 1t16.5 10t8 27q0 24 -13.5 30.5t-42.5 6.5q-43 0 -54.5 -8t-11.5 -32t13 -29.5t51 -5.5zM810 821l26 -21l-645 -861l-27 20zM144 805h190v-420h-111v317h-79v103z" />
    <glyph glyph-name="Japan1.9801" 
d="M565 81h112q-1 -19 10 -25.5t41 -6.5q45 0 56 13.5t11 64.5q-40 -19 -93 -19q-35 0 -57 4t-44 17.5t-32.5 42.5t-10.5 74q0 80 39.5 108t127.5 28q43 0 66.5 -2.5t49 -12.5t38 -30.5t20.5 -56.5t8 -91q0 -168 -41 -205q-38 -36 -145 -36q-45 0 -75 7.5t-45.5 16.5
t-23.5 30t-9.5 35t-2.5 44zM734 206q39 0 48 9q10 8 10 29q0 24 -13.5 30.5t-42.5 6.5q-43 0 -54.5 -8t-11.5 -32t13 -29.5t51 -5.5zM810 821l26 -21l-645 -861l-27 20zM344 537l-115 -17q-25 -3 -25 -30v-10h239v-98h-353v124q0 88 103 107l103 18q35 6 35 39q0 24 -12 31
t-44 7q-36 0 -51 -6.5t-15 -29.5v-21h-115q0 24 1 35t3 30.5t7 28.5t13 22t21.5 19t31.5 13t43.5 9.5t58.5 2.5q98 0 134.5 -31.5t36.5 -103.5q0 -75 -23.5 -103.5t-76.5 -35.5z" />
    <glyph glyph-name="Japan1.9802" 
d="M260 811h144v-250h55v-103h-55v-70h-108v70h-220v120zM296 561v136l-102 -136h102zM565 81h112q-1 -19 10 -25.5t41 -6.5q45 0 56 13.5t11 64.5q-40 -19 -93 -19q-35 0 -57 4t-44 17.5t-32.5 42.5t-10.5 74q0 80 39.5 108t127.5 28q43 0 66.5 -2.5t49 -12.5t38 -30.5
t20.5 -56.5t8 -91q0 -168 -41 -205q-38 -36 -145 -36q-45 0 -75 7.5t-45.5 16.5t-23.5 30t-9.5 35t-2.5 44zM734 206h8.5h9t8 0.5t8 1t7 2t6 3l4.5 4.5t4 7t2 9t1 11q0 24 -13.5 30.5t-42.5 6.5q-43 0 -54.5 -8t-11.5 -32t13 -29.5t51 -5.5zM810 821l26 -21l-645 -861
l-27 20z" />
    <glyph glyph-name="Japan1.9803" 
d="M565 81h112q-1 -19 10 -25.5t41 -6.5q45 0 56 13.5t11 64.5q-40 -19 -93 -19q-35 0 -57 4t-44 17.5t-32.5 42.5t-10.5 74q0 80 39.5 108t127.5 28q43 0 66.5 -2.5t49 -12.5t38 -30.5t20.5 -56.5t8 -91q0 -168 -41 -205q-38 -36 -145 -36q-45 0 -75 7.5t-45.5 16.5
t-23.5 30t-9.5 35t-2.5 44zM734 206q39 0 48 9q10 8 10 29q0 24 -13.5 30.5t-42.5 6.5q-43 0 -54.5 -8t-11.5 -32t13 -29.5t51 -5.5zM810 821l26 -21l-645 -861l-27 20zM106 808h322v-101h-218l-2 -50q29 16 94 16q80 0 112 -33.5t32 -103.5q0 -25 -1.5 -41t-6.5 -36.5
t-17 -32.5t-31.5 -24t-50.5 -17.5t-73 -5.5q-50 0 -84.5 8.5t-52.5 20.5t-27.5 33t-11 37.5t-1.5 43.5h114q0 -25 10 -32.5t54 -7.5q41 0 52.5 9t11.5 39t-11 38t-49 8t-50.5 -3.5t-16.5 -17.5h-103z" />
    <glyph glyph-name="Japan1.9804" 
d="M565 81h112q-1 -19 10 -25.5t41 -6.5q45 0 56 13.5t11 64.5q-40 -19 -93 -19q-35 0 -57 4t-44 17.5t-32.5 42.5t-10.5 74q0 80 39.5 108t127.5 28q43 0 66.5 -2.5t49 -12.5t38 -30.5t20.5 -56.5t8 -91q0 -168 -41 -205q-38 -36 -145 -36q-45 0 -75 7.5t-45.5 16.5
t-23.5 30t-9.5 35t-2.5 44zM734 206q39 0 49 9q9 9 9 29q0 24 -13.5 30.5t-42.5 6.5q-43 0 -54.5 -8t-11.5 -32t13 -29.5t51 -5.5zM810 821l26 -21l-645 -861l-27 20zM94 800h346v-102l-163 -319h-129l168 319h-222v102z" />
    <glyph glyph-name="Japan1.9805" 
d="M393 603q16 -8 25 -14t20 -27.5t11 -53.5q0 -18 -1 -28.5t-6 -28.5t-17 -28.5t-32 -22t-54 -17t-79 -5.5q-96 0 -135.5 28.5t-39.5 91.5q0 38 11.5 62t22 30.5t28.5 12.5q-16 7 -25 13.5t-19.5 28t-10.5 54.5q0 66 42.5 89.5t128.5 23.5q46 0 74.5 -3.5t55 -15
t38.5 -34.5t12 -60q0 -75 -50 -96zM269 710q-38 0 -51 -6.5t-13 -25.5t13 -25t55 -6q33 0 44.5 7t11.5 26q0 18 -14.5 24t-45.5 6zM268 555q-36 0 -52 -7t-16 -31q0 -21 14 -29.5t57 -8.5q40 0 52.5 8t12.5 31q0 22 -13 29.5t-55 7.5zM565 81h112q-1 -19 10 -25.5t41 -6.5
q45 0 56 13.5t11 64.5q-40 -19 -93 -19q-35 0 -57 4t-44 17.5t-32.5 42.5t-10.5 74q0 80 39.5 108t127.5 28q43 0 66.5 -2.5t49 -12.5t38 -30.5t20.5 -56.5t8 -91q0 -168 -41 -205q-38 -36 -145 -36q-45 0 -75 7.5t-45.5 16.5t-23.5 30t-9.5 35t-2.5 44zM734 206q39 0 48 9
q10 8 10 29q0 24 -13.5 30.5t-42.5 6.5q-43 0 -54.5 -8t-11.5 -32t13 -29.5t51 -5.5zM810 821l26 -21l-645 -861l-27 20z" />
    <glyph glyph-name="Japan1.9806" 
d="M833 381q77 0 96.5 -41.5t19.5 -174.5q0 -131 -18.5 -173.5t-94.5 -42.5q-38 0 -58 5.5t-36.5 27.5t-22 65t-5.5 118q0 96 12 142.5t35 60t72 13.5zM833 278q-15 0 -20 -17q-4 -18 -4 -95t4 -94q5 -18 20 -18t18 19.5t3 111.5q0 69 -5 83q-4 10 -16 10zM810 821l26 -21
l-645 -861l-27 20zM521 375h162v-420h-102v322h-60v98zM144 805h190v-420h-111v317h-79v103z" />
    <glyph glyph-name="Japan1.9807" 
d="M833 381q77 0 96.5 -41.5t19.5 -174.5q0 -131 -18.5 -173.5t-94.5 -42.5q-38 0 -58 5.5t-36.5 27.5t-22 65t-5.5 118q0 96 12 142.5t35 60t72 13.5zM833 278q-15 0 -20 -17q-4 -18 -4 -95t4 -94q5 -18 20 -18t18 19.5t3 111.5q0 69 -5 83q-4 10 -16 10zM810 821l26 -21
l-645 -861l-27 20zM521 375h162v-420h-102v322h-60v98zM87 532h113q0 -35 8.5 -44t50.5 -9q47 0 61.5 8t14.5 33q0 34 -30 34h-67v91h62q26 0 26 33q0 20 -11 26.5t-52 6.5q-38 0 -47.5 -9t-9.5 -38h-112q0 30 2 49t11.5 40t27 33t49 19.5t77.5 7.5q36 0 59.5 -1.5
t48.5 -8.5t38.5 -19t22.5 -33.5t9 -52.5q0 -74 -51 -94q12 -5 18.5 -8.5t18 -14.5t17.5 -30t6 -46q0 -72 -42.5 -100t-131.5 -28q-53 0 -88.5 7t-55 17t-29.5 32t-12 42t-2 57z" />
    <glyph glyph-name="Japan1.9808" 
d="M833 381q77 0 96.5 -41.5t19.5 -174.5q0 -131 -18.5 -173.5t-94.5 -42.5q-38 0 -58 5.5t-36.5 27.5t-22 65t-5.5 118q0 96 12 142.5t35 60t72 13.5zM833 278q-15 0 -20 -17q-4 -18 -4 -95t4 -94q5 -18 20 -18t18 19.5t3 111.5q0 69 -5 83q-4 10 -16 10zM810 821l26 -21
l-645 -861l-27 20zM521 375h162v-420h-102v322h-60v98zM94 800h346v-102l-163 -319h-129l168 319h-222v102z" />
    <glyph glyph-name="Japan1.9809" 
d="M833 381q77 0 96.5 -41.5t19.5 -174.5q0 -131 -18.5 -173.5t-94.5 -42.5q-38 0 -58 5.5t-36.5 27.5t-22 65t-5.5 118q0 96 12 142.5t35 60t72 13.5zM833 278q-15 0 -20 -17q-4 -18 -4 -95t4 -94q5 -18 20 -18t18 19.5t3 111.5q0 69 -5 83q-4 10 -16 10zM100 512h111
q0 -20 10.5 -26.5t41.5 -6.5q45 0 55.5 13.5t10.5 64.5q-38 -19 -93 -19q-35 0 -57 4.5t-43.5 17.5t-32 42t-10.5 74q0 80 39.5 108t127.5 28q43 0 66.5 -2.5t49 -12.5t38 -30t20.5 -56t8 -91q0 -169 -41 -206q-40 -36 -145 -36q-32 0 -56.5 4t-41 9t-27.5 16t-17 19.5
t-9 26t-3.5 27.5t-1.5 32zM268 636q35 0 47 7t12 31t-13.5 30.5t-42.5 6.5q-43 0 -54.5 -8t-11.5 -32t13 -29.5t50 -5.5zM810 821l26 -21l-645 -861l-27 20zM521 375h162v-420h-102v322h-60v98z" />
    <glyph glyph-name="Japan1.9810" 
d="M810 821l26 -21l-645 -861l-27 20zM549 375h161v-420h-102v322h-59v98zM768 375h162v-420h-102v322h-60v98zM144 805h190v-420h-111v317h-79v103z" />
    <glyph glyph-name="Japan1.9811" 
d="M810 821l26 -21l-645 -861l-27 20zM549 375h161v-420h-102v322h-59v98zM768 375h162v-420h-102v322h-60v98zM344 537l-115 -17q-25 -3 -25 -30v-10h239v-98h-353v124q0 88 103 107l103 18q35 6 35 39q0 24 -12 31t-44 7q-36 0 -51 -6.5t-15 -29.5v-21h-115q0 24 1 35
t3 30.5t7 28.5t13 22t21.5 19t31.5 13t43.5 9.5t58.5 2.5q98 0 134.5 -31.5t36.5 -103.5q0 -75 -23.5 -103.5t-76.5 -35.5z" />
    <glyph glyph-name="Japan1.9812" 
d="M810 821l26 -21l-645 -861l-27 20zM549 375h161v-420h-102v322h-59v98zM768 375h162v-420h-102v322h-60v98zM87 532h113q0 -35 8.5 -44t50.5 -9q47 0 61.5 8t14.5 33q0 34 -30 34h-67v91h62q26 0 26 33q0 20 -11 26.5t-52 6.5q-38 0 -47.5 -9t-9.5 -38h-112q0 30 2 49
t11.5 40t27 33t49 19.5t77.5 7.5q36 0 59.5 -1.5t48.5 -8.5t38.5 -19t22.5 -33.5t9 -52.5q0 -74 -51 -94q12 -5 18.5 -8.5t18 -14.5t17.5 -30t6 -46q0 -72 -42.5 -100t-131.5 -28q-53 0 -88.5 7t-55 17t-29.5 32t-12 42t-2 57z" />
    <glyph glyph-name="Japan1.9813" 
d="M260 811h144v-250h55v-103h-55v-70h-108v70h-220v120zM296 561v136l-102 -136h102zM810 821l26 -21l-645 -861l-27 20zM549 375h161v-420h-102v322h-59v98zM768 375h162v-420h-102v322h-60v98z" />
    <glyph glyph-name="Japan1.9814" 
d="M810 821l26 -21l-645 -861l-27 20zM549 375h161v-420h-102v322h-59v98zM768 375h162v-420h-102v322h-60v98zM106 808h322v-101h-218l-2 -50q29 16 94 16q80 0 112 -33.5t32 -103.5q0 -25 -1.5 -41t-6.5 -36.5t-17 -32.5t-31.5 -24t-50.5 -17.5t-73 -5.5q-50 0 -84.5 8.5
t-52.5 20.5t-27.5 33t-11 37.5t-1.5 43.5h114q0 -25 10 -32.5t54 -7.5q41 0 52.5 9t11.5 39t-11 38t-49 8t-50.5 -3.5t-16.5 -17.5h-103z" />
    <glyph glyph-name="Japan1.9815" 
d="M435 679h-112q1 19 -10 25.5t-41 6.5q-45 0 -56 -13.5t-11 -64.5q40 19 93 19q32 0 52.5 -3.5t44 -15t35.5 -40.5t12 -74q0 -80 -36.5 -110.5t-130.5 -30.5q-36 0 -56.5 1.5t-44.5 7.5t-36.5 18.5t-24.5 33.5t-16.5 53.5t-4.5 78.5q0 167 42 205q38 36 145 36
q37 0 64.5 -4t44 -14t26 -19t14 -28t5.5 -31t2 -37zM266 554q-35 0 -46.5 -7t-11.5 -31t13.5 -30.5t42.5 -6.5q43 0 54.5 8t11.5 32t-13 29.5t-51 5.5zM810 821l26 -21l-645 -861l-27 20zM549 375h161v-420h-102v322h-59v98zM768 375h162v-420h-102v322h-60v98z" />
    <glyph glyph-name="Japan1.9816" 
d="M810 821l26 -21l-645 -861l-27 20zM549 375h161v-420h-102v322h-59v98zM768 375h162v-420h-102v322h-60v98zM94 800h346v-102l-163 -319h-129l168 319h-222v102z" />
    <glyph glyph-name="Japan1.9817" 
d="M393 603q16 -8 25 -14t20 -27.5t11 -53.5q0 -18 -1 -28.5t-6 -28.5t-17 -28.5t-32 -22t-54 -17t-79 -5.5q-96 0 -135.5 28.5t-39.5 91.5q0 38 11.5 62t22 30.5t28.5 12.5q-16 7 -25 13.5t-19.5 28t-10.5 54.5q0 66 42.5 89.5t128.5 23.5q46 0 74.5 -3.5t55 -15
t38.5 -34.5t12 -60q0 -75 -50 -96zM269 710q-38 0 -51 -6.5t-13 -25.5t13 -25t55 -6q33 0 44.5 7t11.5 26q0 18 -14.5 24t-45.5 6zM268 555q-36 0 -52 -7t-16 -31q0 -21 14 -29.5t57 -8.5q40 0 52.5 8t12.5 31q0 22 -13 29.5t-55 7.5zM810 821l26 -21l-645 -861l-27 20z
M549 375h161v-420h-102v322h-59v98zM768 375h162v-420h-102v322h-60v98z" />
    <glyph glyph-name="Japan1.9818" 
d="M100 512h111q0 -20 10.5 -26.5t41.5 -6.5q45 0 55.5 13.5t10.5 64.5q-38 -19 -93 -19q-35 0 -57 4.5t-43.5 17.5t-32 42t-10.5 74q0 80 39.5 108t127.5 28q43 0 66.5 -2.5t49 -12.5t38 -30t20.5 -56t8 -91q0 -169 -41 -206q-40 -36 -145 -36q-32 0 -56.5 4t-41 9
t-27.5 16t-17 19.5t-9 26t-3.5 27.5t-1.5 32zM268 636q35 0 47 7t12 31t-13.5 30.5t-42.5 6.5q-43 0 -54.5 -8t-11.5 -32t13 -29.5t50 -5.5zM810 821l26 -21l-645 -861l-27 20zM549 375h161v-420h-102v322h-59v98zM768 375h162v-420h-102v322h-60v98z" />
    <glyph glyph-name="Japan1.9819" 
d="M362 811q77 0 97 -41.5t20 -174.5q0 -130 -19 -173t-94 -43q-38 0 -58 5.5t-36.5 27.5t-22 65t-5.5 118q0 96 12 142.5t35 60t71 13.5zM362 709q-14 0 -19 -18q-4 -18 -4 -94q0 -77 4 -95q5 -18 20 -18t18 20t3 111q0 69 -5 83q-4 11 -17 11zM810 821l26 -21l-645 -861
l-27 20zM549 375h161v-420h-102v322h-59v98zM768 375h162v-420h-102v322h-60v98zM51 805h162v-420h-102v323h-60v97z" />
    <glyph glyph-name="Japan1.9820" 
d="M715 224v73q0 85 110 85q66 0 93.5 -22t27.5 -88q0 -75 -7.5 -103t-40.5 -43l-69 -30q-12 -5 -14.5 -13.5t-3.5 -30.5h135v-97h-231v126q0 68 53 94l57 27q15 7 18.5 12.5t3.5 23.5v24q0 22 -17 22q-21 0 -21 -21v-39h-94zM521 375h162v-420h-102v322h-60v98zM810 821
l26 -21l-645 -861l-27 20zM144 805h190v-420h-111v317h-79v103z" />
    <glyph glyph-name="Japan1.9821" 
d="M715 224v73q0 85 110 85q66 0 93.5 -22t27.5 -88q0 -75 -7.5 -103t-40.5 -43l-69 -30q-12 -5 -14.5 -13.5t-3.5 -30.5h135v-97h-231v126q0 68 53 94l57 27q15 7 18.5 12.5t3.5 23.5v24q0 22 -17 22q-21 0 -21 -21v-39h-94zM521 375h162v-420h-102v322h-60v98zM810 821
l26 -21l-645 -861l-27 20zM106 808h322v-101h-218l-2 -50q29 16 94 16q80 0 112 -33.5t32 -103.5q0 -25 -1.5 -41t-6.5 -36.5t-17 -32.5t-31.5 -24t-50.5 -17.5t-73 -5.5q-50 0 -84.5 8.5t-52.5 20.5t-27.5 33t-11 37.5t-1.5 43.5h114q0 -25 10 -32.5t54 -7.5q41 0 52.5 9
t11.5 39t-11 38t-49 8t-50.5 -3.5t-16.5 -17.5h-103z" />
    <glyph glyph-name="Japan1.9822" 
d="M715 224v73q0 85 110 85q66 0 93.5 -22t27.5 -88q0 -75 -7.5 -103t-40.5 -43l-69 -30q-12 -5 -14.5 -13.5t-3.5 -30.5h135v-97h-231v126q0 68 53 94l57 27q15 7 18.5 12.5t3.5 23.5v24q0 22 -17 22q-21 0 -21 -21v-39h-94zM521 375h162v-420h-102v322h-60v98zM810 821
l26 -21l-645 -861l-27 20zM94 800h346v-102l-163 -319h-129l168 319h-222v102z" />
    <glyph glyph-name="Japan1.9823" 
d="M715 224v73q0 85 110 85q66 0 93.5 -22t27.5 -88q0 -75 -7.5 -103t-40.5 -43l-69 -30q-12 -5 -14.5 -13.5t-3.5 -30.5h135v-97h-231v126q0 68 53 94l57 27q15 7 18.5 12.5t3.5 23.5v24q0 22 -17 22q-21 0 -21 -21v-39h-94zM521 375h162v-420h-102v322h-60v98zM810 821
l26 -21l-645 -861l-27 20zM70 805h162v-420h-103v323h-59v97zM290 805h161v-420h-102v323h-59v97z" />
    <glyph glyph-name="Japan1.9824" 
d="M727 381q53 0 66 -42t13 -174q0 -129 -12.5 -172.5t-63.5 -43.5q-34 0 -50 12.5t-24.5 58.5t-8.5 145q0 97 8 143.5t23.5 59.5t48.5 13zM727 278q-5 0 -9 -6.5t-4 -10.5q-2 -28 -2 -95q0 -78 2 -94q4 -18 14 -18q7 0 10 11q3 15 3 101q0 44 -0.5 65t-2.5 32.5t-4 13
t-7 1.5zM904 381q53 0 66 -42t13 -174q0 -129 -12.5 -172.5t-63.5 -43.5q-35 0 -51 12.5t-24.5 59t-8.5 144.5q0 97 8 143t24 59.5t49 13.5zM904 278q-11 0 -13 -17q-3 -19 -3 -95q0 -70 3 -94q4 -18 13 -18q7 0 10 11q4 17 4 119q0 68 -4 84q-3 10 -10 10zM810 821l26 -21
l-645 -861l-27 20zM521 375h109v-420h-70v322h-39v98zM144 805h190v-420h-111v317h-79v103z" />
    <glyph glyph-name="Japan1.9825" 
d="M500 721q-38 0 -49 -17.5t-11 -74.5t11 -74.5t50 -17.5q37 0 47.5 18t10.5 70q0 60 -11 78t-48 18zM65 396h870v-32h-870v32zM329 630q0 111 31.5 146t136.5 35q59 0 92 -7t52.5 -30t24.5 -55t5 -93q0 -108 -31.5 -142.5t-131.5 -34.5q-60 0 -90 5t-53 24t-29.5 53.5
t-6.5 98.5zM328 82h110q0 -30 8.5 -36.5t53.5 -6.5q23 0 33 1t18.5 8t8.5 22q0 25 -32 25h-56v76h56q27 0 27 24q0 14 -10.5 19.5t-44.5 5.5q-36 0 -46 -6t-11 -29h-111q0 29 3 46t12.5 34.5t28.5 26t51.5 14t81.5 5.5q33 0 54.5 -2.5t48.5 -10.5t41 -28.5t14 -52.5
q0 -21 -5.5 -36.5t-15.5 -25t-16.5 -13.5t-17.5 -8q60 -17 60 -82q0 -61 -44 -82t-134 -21q-59 0 -93 6.5t-49.5 26t-19.5 39t-4 61.5z" />
    <glyph glyph-name="Japan1.9826" 
d="M65 396h870v-32h-870v32zM573 90l-101 -13q-26 -3 -28 -32h222v-90h-334v104q0 48 24 70t69 28l96 13q20 3 27 8.5t7 17.5q0 16 -11 20.5t-43 4.5q-26 0 -38.5 -5t-15 -11.5t-3.5 -20.5h-109q0 23 1 35t5 29.5t14 26.5t26.5 18.5t44 13.5t65.5 4q108 0 142.5 -23.5
t34.5 -92.5q0 -14 -0.5 -22.5t-5.5 -24t-14.5 -25.5t-28.5 -20t-46 -13zM365 804h207v-348h-113v256h-94v92z" />
    <glyph glyph-name="Japan1.9827" 
d="M65 396h870v-32h-870v32zM328 82h110q0 -30 8.5 -36.5t53.5 -6.5q23 0 33 1t18.5 8t8.5 22q0 25 -32 25h-56v76h56q27 0 27 24q0 14 -10.5 19.5t-44.5 5.5q-36 0 -46 -6t-11 -29h-111q0 29 3 46t12.5 34.5t28.5 26t51.5 14t81.5 5.5q33 0 54.5 -2.5t48.5 -10.5t41 -28.5
t14 -52.5q0 -21 -5.5 -36.5t-15.5 -25t-16.5 -13.5t-17.5 -8q60 -17 60 -82q0 -61 -44 -82t-134 -21q-59 0 -93 6.5t-49.5 26t-19.5 39t-4 61.5zM365 804h207v-348h-113v256h-94v92z" />
    <glyph glyph-name="Japan1.9828" 
d="M65 396h870v-32h-870v32zM328 82h110q0 -30 8.5 -36.5t53.5 -6.5q23 0 33 1t18.5 8t8.5 22q0 25 -32 25h-56v76h56q27 0 27 24q0 14 -10.5 19.5t-44.5 5.5q-36 0 -46 -6t-11 -29h-111q0 29 3 46t12.5 34.5t28.5 26t51.5 14t81.5 5.5q33 0 54.5 -2.5t48.5 -10.5t41 -28.5
t14 -52.5q0 -21 -5.5 -36.5t-15.5 -25t-16.5 -13.5t-17.5 -8q60 -17 60 -82q0 -61 -44 -82t-134 -21q-59 0 -93 6.5t-49.5 26t-19.5 39t-4 61.5zM573 589l-101 -13q-25 -3 -28 -31h222v-91h-334v105q0 48 24 70t69 28l96 12q20 2 27 8t7 19q0 15 -11 19.5t-43 4.5
q-26 0 -38.5 -5t-15 -11.5t-3.5 -20.5h-109q0 23 1 35t5 30t14 27t26.5 18.5t44 13.5t65.5 4q107 0 142 -24t35 -93q0 -14 -0.5 -22.5t-5.5 -24t-14.5 -25.5t-28.5 -20t-46 -13z" />
    <glyph glyph-name="Japan1.9829" 
d="M491 311h141v-200h46v-92h-46v-54h-111v54h-199v112zM521 111v103l-90 -103h90zM65 396h870v-32h-870v32zM365 804h207v-348h-113v256h-94v92z" />
    <glyph glyph-name="Japan1.9830" 
d="M65 396h870v-32h-870v32zM328 581h110q0 -29 8.5 -35.5t53.5 -6.5q23 0 33 1t18.5 8t8.5 21q0 26 -32 26h-56v75h56q27 0 27 24q0 14 -10.5 19.5t-44.5 5.5q-36 0 -46 -5.5t-11 -28.5h-111q0 29 3 46t12.5 34.5t28.5 26t51.5 14t81.5 5.5q32 0 54.5 -2.5t49 -11t40.5 -29
t14 -52.5q0 -21 -5.5 -36t-15.5 -24.5t-16.5 -13.5t-17.5 -8q60 -17 60 -83q0 -61 -44 -81.5t-134 -20.5q-48 0 -78.5 5.5t-48.5 13.5t-26 26.5t-10.5 36t-2.5 50.5zM491 311h141v-200h46v-92h-46v-54h-111v54h-199v112zM521 111v103l-90 -103h90z" />
    <glyph glyph-name="Japan1.9831" 
d="M65 396h870v-32h-870v32zM348 307h307v-92h-200l-5 -43q31 15 87 15q38 0 65 -9.5t40 -21.5t20 -30.5t8 -28t1 -23.5q0 -74 -40 -99.5t-133 -25.5q-42 0 -68.5 3.5t-52.5 14.5t-37.5 35.5t-10.5 63.5h112q-1 -17 13.5 -22.5t51.5 -5.5q32 0 42.5 7.5t10.5 27.5
q0 21 -10 28t-44 7q-53 0 -57 -14h-107zM365 804h207v-348h-113v256h-94v92z" />
    <glyph glyph-name="Japan1.9832" 
d="M65 396h870v-32h-870v32zM348 307h307v-92h-200l-5 -43q31 15 87 15q38 0 65 -9.5t40 -21.5t20 -30.5t8 -28t1 -23.5q0 -74 -40 -99.5t-133 -25.5q-42 0 -68.5 3.5t-52.5 14.5t-37.5 35.5t-10.5 63.5h112q-1 -17 13.5 -22.5t51.5 -5.5q32 0 42.5 7.5t10.5 27.5
q0 21 -10 28t-44 7q-53 0 -57 -14h-107zM573 589l-101 -13q-25 -3 -28 -31h222v-91h-334v105q0 48 24 70t69 28l96 12q20 2 27 8t7 19q0 15 -11 19.5t-43 4.5q-26 0 -38.5 -5t-15 -11.5t-3.5 -20.5h-109q0 23 1 35t5 30t14 27t26.5 18.5t44 13.5t65.5 4q107 0 142 -24
t35 -93q0 -14 -0.5 -22.5t-5.5 -24t-14.5 -25.5t-28.5 -20t-46 -13z" />
    <glyph glyph-name="Japan1.9833" 
d="M65 396h870v-32h-870v32zM348 307h307v-92h-200l-5 -43q31 15 87 15q38 0 65 -9.5t40 -21.5t20 -30.5t8 -28t1 -23.5q0 -74 -40 -99.5t-133 -25.5q-42 0 -68.5 3.5t-52.5 14.5t-37.5 35.5t-10.5 63.5h112q-1 -17 13.5 -22.5t51.5 -5.5q32 0 42.5 7.5t10.5 27.5
q0 21 -10 28t-44 7q-53 0 -57 -14h-107zM328 581h110q0 -29 8.5 -35.5t53.5 -6.5q23 0 33 1t18.5 8t8.5 21q0 26 -32 26h-56v75h56q27 0 27 24q0 14 -10.5 19.5t-44.5 5.5q-36 0 -46 -5.5t-11 -28.5h-111q0 29 3 46t12.5 34.5t28.5 26t51.5 14t81.5 5.5q32 0 54.5 -2.5
t49 -11t40.5 -29t14 -52.5q0 -21 -5.5 -36t-15.5 -24.5t-16.5 -13.5t-17.5 -8q60 -17 60 -83q0 -61 -44 -81.5t-134 -20.5q-48 0 -78.5 5.5t-48.5 13.5t-26 26.5t-10.5 36t-2.5 50.5z" />
    <glyph glyph-name="Japan1.9834" 
d="M491 811h141v-201h46v-91h-46v-55h-111v55h-199v111zM521 610v103l-90 -103h90zM65 396h870v-32h-870v32zM348 307h307v-92h-200l-5 -43q31 15 87 15q38 0 65 -9.5t40 -21.5t20 -30.5t8 -28t1 -23.5q0 -74 -40 -99.5t-133 -25.5q-42 0 -68.5 3.5t-52.5 14.5t-37.5 35.5
t-10.5 63.5h112q-1 -17 13.5 -22.5t51.5 -5.5q32 0 42.5 7.5t10.5 27.5q0 21 -10 28t-44 7q-53 0 -57 -14h-107z" />
    <glyph glyph-name="Japan1.9835" 
d="M663 193h-110q1 18 -10.5 23.5t-40.5 5.5q-44 0 -53.5 -12t-9.5 -63q29 22 101 22q62 0 96.5 -21t34.5 -81q0 -75 -37 -97t-133 -22q-105 0 -138.5 31t-33.5 135q0 68 6.5 105.5t27.5 59.5t50.5 28t84.5 6q69 0 104 -12.5t46.5 -36t14.5 -71.5zM65 396h870v-32h-870v32z
M501 87q-36 0 -48.5 -5t-12.5 -20q0 -16 12 -20t46 -4q39 0 51.5 4.5t12.5 19.5q0 17 -12.5 21t-48.5 4zM365 804h207v-348h-113v256h-94v92z" />
    <glyph glyph-name="Japan1.9836" 
d="M65 396h870v-32h-870v32zM663 193h-110q1 18 -10.5 23.5t-40.5 5.5q-44 0 -53.5 -12t-9.5 -63q29 22 101 22q62 0 96.5 -21t34.5 -81q0 -75 -37 -97t-133 -22q-105 0 -138.5 31t-33.5 135q0 68 6.5 105.5t27.5 59.5t50.5 28t84.5 6q69 0 104 -12.5t46.5 -36t14.5 -71.5z
M501 87q-36 0 -48.5 -5t-12.5 -20q0 -16 12 -20t46 -4q39 0 51.5 4.5t12.5 19.5q0 17 -12.5 21t-48.5 4zM348 806h307v-91h-200l-5 -44q31 15 87 15q38 0 65 -9.5t40 -21.5t20 -30.5t8 -28t1 -23.5q0 -74 -40 -99t-133 -25q-42 0 -68.5 3.5t-52.5 14.5t-37.5 35t-10.5 63
h112q-1 -17 13.5 -22.5t51.5 -5.5q32 0 42.5 7.5t10.5 27.5q0 21 -10.5 28.5t-43.5 7.5q-53 0 -57 -15h-107z" />
    <glyph glyph-name="Japan1.9837" 
d="M65 396h870v-32h-870v32zM331 304h338v-84l-165 -271h-124l168 262h-217v93zM365 804h207v-348h-113v256h-94v92z" />
    <glyph glyph-name="Japan1.9838" 
d="M65 396h870v-32h-870v32zM331 304h338v-84l-165 -271h-124l168 262h-217v93zM573 589l-101 -13q-25 -3 -28 -31h222v-91h-334v105q0 48 24 70t69 28l96 12q20 2 27 8t7 19q0 15 -11 19.5t-43 4.5q-26 0 -38.5 -5t-15 -11.5t-3.5 -20.5h-109q0 23 1 35t5 30t14 27
t26.5 18.5t44 13.5t65.5 4q107 0 142 -24t35 -93q0 -14 -0.5 -22.5t-5.5 -24t-14.5 -25.5t-28.5 -20t-46 -13z" />
    <glyph glyph-name="Japan1.9839" 
d="M65 396h870v-32h-870v32zM331 304h338v-84l-165 -271h-124l168 262h-217v93zM328 581h110q0 -29 8.5 -35.5t53.5 -6.5q23 0 33 1t18.5 8t8.5 21q0 26 -32 26h-56v75h56q27 0 27 24q0 14 -10.5 19.5t-44.5 5.5q-36 0 -46 -5.5t-11 -28.5h-111q0 29 3 46t12.5 34.5t28.5 26
t51.5 14t81.5 5.5q32 0 54.5 -2.5t49 -11t40.5 -29t14 -52.5q0 -21 -5.5 -36t-15.5 -24.5t-16.5 -13.5t-17.5 -8q60 -17 60 -83q0 -61 -44 -81.5t-134 -20.5q-48 0 -78.5 5.5t-48.5 13.5t-26 26.5t-10.5 36t-2.5 50.5z" />
    <glyph glyph-name="Japan1.9840" 
d="M491 811h141v-201h46v-91h-46v-55h-111v55h-199v111zM521 610v103l-90 -103h90zM65 396h870v-32h-870v32zM331 304h338v-84l-165 -271h-124l168 262h-217v93z" />
    <glyph glyph-name="Japan1.9841" 
d="M65 396h870v-32h-870v32zM331 304h338v-84l-165 -271h-124l168 262h-217v93zM348 806h307v-91h-200l-5 -44q31 15 87 15q38 0 65 -9.5t40 -21.5t20 -30.5t8 -28t1 -23.5q0 -74 -40 -99t-133 -25q-42 0 -68.5 3.5t-52.5 14.5t-37.5 35t-10.5 63h112q-1 -17 13.5 -22.5
t51.5 -5.5q32 0 42.5 7.5t10.5 27.5q0 21 -10.5 28.5t-43.5 7.5q-53 0 -57 -15h-107z" />
    <glyph glyph-name="Japan1.9842" 
d="M501 586q-37 0 -49 -4.5t-12 -19.5q0 -17 12 -21t46 -4q39 0 51.5 4.5t12.5 20.5t-12.5 20t-48.5 4zM65 396h870v-32h-870v32zM663 692h-110q1 18 -10.5 23.5t-40.5 5.5q-44 0 -53.5 -12t-9.5 -62q29 22 101 22q62 0 96.5 -21.5t34.5 -81.5q0 -75 -37 -97t-133 -22
q-105 0 -138.5 31t-33.5 135q0 68 6.5 106t27.5 59.5t50 27.5t85 6q101 0 131 -24.5t34 -95.5zM331 304h338v-84l-165 -271h-124l168 262h-217v93z" />
    <glyph glyph-name="Japan1.9843" 
d="M500 221q-45 0 -54.5 -4t-9.5 -19t9 -18t53 -3q46 0 56 3.5t10 20.5q0 8 -2.5 11.5t-16.5 6t-45 2.5zM361 138q-28 20 -28 66q0 64 41 85.5t121 21.5q41 0 67 -3t52.5 -13t39.5 -32.5t13 -57.5q0 -40 -28 -68q33 -26 33 -79q0 -36 -13.5 -59.5t-40.5 -33.5t-51.5 -13
t-62.5 -3q-25 0 -39.5 0.5t-39 3.5t-38.5 9.5t-29.5 18t-23 30.5t-7.5 45q0 56 34 82zM500 94q-49 0 -59.5 -4t-10.5 -25q0 -15 11 -20t59 -5q49 0 59.5 5t10.5 23q0 19 -10.5 22.5t-59.5 3.5zM65 396h870v-32h-870v32zM365 804h207v-348h-113v256h-94v92z" />
    </font>
</defs>
</svg>
