<?xml version="1.0" standalone="no"?>
<!DOCTYPE svg PUBLIC "-//W3C//DTD SVG 1.1//EN" "http://www.w3.org/Graphics/SVG/1.1/DTD/svg11.dtd" >
<svg>
<metadata>
Created by FontForge 20090622 at Fri Feb  3 10:22:14 2017
 By deploy user
</metadata>
<defs>
<font id="ShinGoPr5-Regular-AlphaNum" horiz-adv-x="1000" vert-adv-y="1000" >
  <font-face 
    font-family="ShinGoPr5-Regular-AlphaNum"
    font-weight="400"
    font-stretch="normal"
    units-per-em="1000"
    panose-1="2 0 5 3 0 0 0 0 0 0"
    ascent="800"
    descent="-200"
    bbox="18 -97 983 857"
    underline-thickness="50"
    underline-position="-100"
  />
<missing-glyph horiz-adv-x="364" 
d="M33 0v666h265v-666h-265zM66 33h199v600h-199v-600z" />
    <glyph glyph-name=".notdef" horiz-adv-x="364" 
d="M33 0v666h265v-666h-265zM66 33h199v600h-199v-600z" />
    <glyph glyph-name=".null" horiz-adv-x="0" vert-adv-y="0" 
 />
    <glyph glyph-name="nonmarkingreturn" horiz-adv-x="333" 
 />
    <glyph glyph-name="Japan1.7555" 
d="M500 854q128 0 237 -62.5t173 -172t64 -239.5q0 -196 -139 -335t-335 -139t-335 139t-139 335q0 130 64 239.5t173 172t237 62.5zM500 819q-181 0 -310 -128t-129 -311q0 -119 59 -220t160 -160t220 -59q182 0 310.5 128.5t128.5 310.5q0 183 -129 311t-310 128zM369 672
h175v-584h-67v520h-108v64z" />
    <glyph glyph-name="Japan1.7556" 
d="M500 854q128 0 237 -62.5t173 -172t64 -239.5q0 -196 -139 -335t-335 -139t-335 139t-139 335q0 130 64 239.5t173 172t237 62.5zM500 819q-181 0 -310 -128t-129 -311q0 -119 59 -220t160 -160t220 -59q182 0 310.5 128.5t128.5 310.5q0 183 -129 311t-310 128zM564 335
l-76 -29q-31 -12 -45.5 -25t-21.5 -42.5t-7 -86.5h248v-64h-313q-1 108 8 157.5t30.5 73t73.5 43.5l65 25q27 10 39.5 18.5t23 32t10.5 63.5q0 63 -18 88.5t-73 25.5q-33 0 -52.5 -8.5t-27.5 -29.5t-9.5 -39.5t-1.5 -55.5h-65q0 39 1.5 60t9.5 51t23.5 45.5t46.5 27.5t76 12
q85 0 120.5 -39t35.5 -126q0 -81 -21 -118t-80 -60z" />
    <glyph glyph-name="Japan1.7557" 
d="M500 854q128 0 237 -62.5t173 -172t64 -239.5q0 -196 -139 -335t-335 -139t-335 139t-139 335q0 130 64 239.5t173 172t237 62.5zM500 819q-181 0 -310 -128t-129 -311q0 -119 59 -220t160 -160t220 -59q182 0 310.5 128.5t128.5 310.5q0 183 -129 311t-310 128zM348 274
h65q-2 -72 14 -100.5t80 -28.5q51 0 71.5 25t20.5 84q0 30 -6.5 51t-15 31.5t-26 15.5t-29 6t-33.5 1h-40v61h45q58 0 80 16.5t22 80.5q0 48 -18 73t-70 25q-26 0 -44 -6.5t-27 -15.5t-13.5 -26.5t-5.5 -30t-1 -36.5h-66q0 31 2.5 53.5t11.5 47.5t24.5 40.5t44.5 26t70 10.5
q82 0 119 -36.5t37 -119.5q0 -51 -16 -84t-60 -47q16 -5 26.5 -10.5t25 -19.5t22 -43t7.5 -71q0 -93 -40 -129t-117 -36q-55 0 -89.5 14t-49 43.5t-18.5 58.5t-3 76z" />
    <glyph glyph-name="Japan1.7558" 
d="M500 854q128 0 237 -62.5t173 -172t64 -239.5q0 -196 -139 -335t-335 -139t-335 139t-139 335q0 130 64 239.5t173 172t237 62.5zM500 819q-181 0 -310 -128t-129 -311q0 -119 59 -220t160 -160t220 -59q182 0 310.5 128.5t128.5 310.5q0 183 -129 311t-310 128zM502 672
h93v-387h53v-63h-53v-134h-66v134h-221v73zM530 600l-159 -315h159v315z" />
    <glyph glyph-name="Japan1.7559" 
d="M500 854q128 0 237 -62.5t173 -172t64 -239.5q0 -196 -139 -335t-335 -139t-335 139t-139 335q0 130 64 239.5t173 172t237 62.5zM500 819q-181 0 -310 -128t-129 -311q0 -119 59 -220t160 -160t220 -59q182 0 310.5 128.5t128.5 310.5q0 183 -129 311t-310 128zM360 672
h291v-64h-227l-4 -167q42 35 102 35q84 0 112 -49t28 -142q0 -109 -32 -156t-125 -47q-81 0 -120 37.5t-39 135.5h66q-2 -58 16 -84t76 -26q55 0 73 27.5t18 98.5q0 82 -15 113t-70 31q-30 0 -50.5 -7t-29.5 -20.5t-11.5 -21.5t-4.5 -20h-61z" />
    <glyph glyph-name="Japan1.7560" 
d="M500 854q128 0 237 -62.5t173 -172t64 -239.5q0 -196 -139 -335t-335 -139t-335 139t-139 335q0 130 64 239.5t173 172t237 62.5zM500 819q-181 0 -310 -128t-129 -311q0 -119 59 -220t160 -160t220 -59q182 0 310.5 128.5t128.5 310.5q0 183 -129 311t-310 128zM655 519
h-65q1 52 -17 74.5t-70 22.5q-59 0 -76.5 -38.5t-18.5 -169.5q32 47 110 47q38 0 65 -11.5t42 -28.5t23.5 -42.5t10.5 -47t2 -49.5q0 -32 -1.5 -52t-9.5 -50.5t-23 -47.5t-45.5 -30.5t-73.5 -13.5q-34 0 -59.5 6t-43 15.5t-29 29t-18.5 37.5t-10 51.5t-4 60.5t-1 74
q0 67 1.5 106t7 80.5t15.5 63t28.5 40t45 25.5t64.5 7q49 0 81 -14.5t46 -40.5t18.5 -49.5t4.5 -54.5zM502 393q-54 0 -73 -32t-19 -101q0 -70 24 -93t71 -23q53 0 72 28.5t19 105.5q0 67 -22 91t-72 24z" />
    <glyph glyph-name="Japan1.7561" 
d="M500 854q128 0 237 -62.5t173 -172t64 -239.5q0 -196 -139 -335t-335 -139t-335 139t-139 335q0 130 64 239.5t173 172t237 62.5zM500 819q-181 0 -310 -128t-129 -311q0 -119 59 -220t160 -160t220 -59q182 0 310.5 128.5t128.5 310.5q0 183 -129 311t-310 128zM330 672
h339v-71l-196 -513h-74l205 520h-274v64z" />
    <glyph glyph-name="Japan1.7562" 
d="M577 391q15 -4 25 -9t25.5 -19.5t24 -45.5t8.5 -76q0 -83 -39 -121t-122 -38q-89 0 -124.5 41.5t-35.5 119.5q0 44 8.5 74.5t24 45t26 20t24.5 8.5q-14 5 -22.5 10.5t-23 19t-22 39t-7.5 60.5q0 51 13 84.5t37.5 48.5t48 20t56.5 5q72 0 111 -34.5t39 -123.5
q0 -35 -7.5 -60.5t-22 -39t-23 -19t-22.5 -10.5zM499 615q-54 0 -71 -26t-17 -73q0 -19 2.5 -32t10 -28.5t27 -24t48.5 -8.5q30 0 49.5 8.5t27.5 24.5t10 29t2 32q0 47 -17.5 72.5t-71.5 25.5zM499 359q-57 0 -76 -27.5t-19 -84.5q0 -49 18.5 -75.5t76.5 -26.5q32 0 52 8.5
t29 25.5t11.5 32t2.5 39q0 57 -20 83t-75 26zM500 854q128 0 237 -62.5t173 -172t64 -239.5q0 -196 -139 -335t-335 -139t-335 139t-139 335q0 130 64 239.5t173 172t237 62.5zM500 819q-181 0 -310 -128t-129 -311q0 -119 59 -220t160 -160t220 -59q182 0 310.5 128.5
t128.5 310.5q0 183 -129 311t-310 128z" />
    <glyph glyph-name="Japan1.7563" 
d="M500 854q128 0 237 -62.5t173 -172t64 -239.5q0 -196 -139 -335t-335 -139t-335 139t-139 335q0 130 64 239.5t173 172t237 62.5zM500 819q-181 0 -310 -128t-129 -311q0 -119 59 -220t160 -160t220 -59q182 0 310.5 128.5t128.5 310.5q0 183 -129 311t-310 128zM349 241
h65q-1 -52 16.5 -74.5t69.5 -22.5q41 0 60.5 16.5t27 58.5t8.5 133q-35 -47 -110 -47q-38 0 -65 11.5t-42 28.5t-23.5 42.5t-10.5 47t-2 49.5q0 32 1.5 52t9.5 50.5t23 47.5t45 30.5t73 13.5q34 0 59.5 -6t43 -15.5t29.5 -29t19 -38t10 -51.5t4 -61t1 -74q0 -66 -1.5 -105.5
t-7 -80.5t-15.5 -62.5t-28.5 -40t-45 -25.5t-64.5 -7q-154 0 -150 159zM502 367q54 0 72.5 31.5t18.5 101.5t-23.5 93t-70.5 23q-53 0 -72 -28.5t-19 -105.5q0 -67 21.5 -91t72.5 -24z" />
    <glyph glyph-name="Japan1.7564" 
d="M483 380q0 70 3 113t12 80.5t26.5 56.5t45.5 29.5t71 10.5t71 -10.5t45.5 -29t26.5 -56t12 -81t3 -113.5t-3 -113.5t-12 -81t-27 -56t-46 -29t-70 -10.5q-43 0 -71 10.5t-45.5 29t-26.5 56t-12 81t-3 113.5zM735 380q0 145 -16.5 186.5t-79.5 41.5q-61 0 -77 -43
t-16 -185q-1 -144 16 -186t80 -42q61 0 77 43t16 185zM500 854q128 0 237 -62.5t173 -172t64 -239.5q0 -196 -139 -335t-335 -139t-335 139t-139 335q0 130 64 239.5t173 172t237 62.5zM500 819q-181 0 -310 -128t-129 -311q0 -119 59 -220t160 -160t220 -59
q182 0 310.5 128.5t128.5 310.5q0 183 -129 311t-310 128zM197 664h170v-568h-65v506h-105v62z" />
    <glyph glyph-name="Japan1.7565" 
d="M500 854q128 0 237 -62.5t173 -172t64 -239.5q0 -196 -139 -335t-335 -139t-335 139t-139 335q0 130 64 239.5t173 172t237 62.5zM500 819q-181 0 -310 -128t-129 -311q0 -119 59 -220t160 -160t220 -59q182 0 310.5 128.5t128.5 310.5q0 183 -129 311t-310 128zM201 664
h170v-568h-65v506h-105v62zM557 664h170v-568h-65v506h-105v62z" />
    <glyph glyph-name="Japan1.7566" 
d="M500 854q128 0 237 -62.5t173 -172t64 -239.5q0 -196 -139 -335t-335 -139t-335 139t-139 335q0 130 64 239.5t173 172t237 62.5zM500 819q-181 0 -310 -128t-129 -311q0 -119 59 -220t160 -160t220 -59q182 0 310.5 128.5t128.5 310.5q0 183 -129 311t-310 128zM201 664
h170v-568h-65v506h-105v62zM699 336l-73 -28q-31 -12 -44.5 -24t-20.5 -41t-7 -85h241v-62h-304q-1 105 7.5 153t29.5 70t72 43l63 25q21 8 30 13t20.5 17t16 31.5t4.5 49.5q0 60 -18 85t-71 25q-55 0 -71.5 -27t-16.5 -88v-14h-63q0 27 0.5 42t3.5 38t8.5 36.5t17 29.5
t27.5 24.5t40 14.5t56 6q82 0 116 -38t34 -123q0 -80 -21 -116t-77 -57z" />
    <glyph glyph-name="Japan1.7567" 
d="M500 854q128 0 237 -62.5t173 -172t64 -239.5q0 -196 -139 -335t-335 -139t-335 139t-139 335q0 130 64 239.5t173 172t237 62.5zM500 819q-181 0 -310 -128t-129 -311q0 -119 59 -220t160 -160t220 -59q182 0 310.5 128.5t128.5 310.5q0 183 -129 311t-310 128zM201 664
h170v-568h-65v506h-105v62zM489 277h64q-2 -71 13 -98t77 -27q49 0 69.5 23.5t20.5 81.5q0 37 -8 59.5t-26 31t-32 10.5t-41 2h-39v59h44q57 0 78 16t21 78q0 46 -17 70.5t-68 24.5q-32 0 -51 -8t-26.5 -26.5t-9.5 -33.5t-2 -44h-64q0 39 4.5 65.5t18.5 53.5t45.5 41
t80.5 14q79 0 115.5 -36t36.5 -116q0 -50 -16 -82t-58 -45q17 -6 26 -10.5t23.5 -19t21.5 -42t7 -68.5q0 -89 -38.5 -125t-114.5 -36q-53 0 -86.5 13.5t-47.5 42.5t-18 57t-3 74z" />
    <glyph glyph-name="Japan1.7568" 
d="M669 664h90v-376h52v-61h-52v-131h-63v131h-215v70zM696 593l-154 -305h154v305zM500 854q128 0 237 -62.5t173 -172t64 -239.5q0 -196 -139 -335t-335 -139t-335 139t-139 335q0 130 64 239.5t173 172t237 62.5zM500 819q-181 0 -310 -128t-129 -311q0 -119 59 -220
t160 -160t220 -59q182 0 310.5 128.5t128.5 310.5q0 183 -129 311t-310 128zM201 664h170v-568h-65v506h-105v62z" />
    <glyph glyph-name="Japan1.7569" 
d="M500 854q128 0 237 -62.5t173 -172t64 -239.5q0 -196 -139 -335t-335 -139t-335 139t-139 335q0 130 64 239.5t173 172t237 62.5zM500 819q-181 0 -310 -128t-129 -311q0 -119 59 -220t160 -160t220 -59q182 0 310.5 128.5t128.5 310.5q0 183 -129 311t-310 128zM201 664
h170v-568h-65v506h-105v62zM503 664h282v-62h-219l-5 -163q41 34 100 34q43 0 71 -14t41.5 -41.5t18 -57.5t4.5 -73q0 -105 -31 -151t-121 -46q-78 0 -116.5 36.5t-37.5 132.5h64q-1 -57 16 -82t73 -25q55 0 72 27.5t17 98.5q0 77 -15.5 106.5t-67.5 29.5q-87 0 -93 -67h-60
z" />
    <glyph glyph-name="Japan1.7570" 
d="M792 515h-63q0 51 -17 72.5t-67 21.5q-40 0 -58.5 -15.5t-26 -57t-8.5 -128.5q33 45 107 45q45 0 74.5 -15.5t42.5 -44t17 -54t4 -60.5q0 -32 -1 -50.5t-9 -48.5t-22 -46.5t-43.5 -30t-71.5 -13.5q-46 0 -76 11.5t-47 29t-25.5 55.5t-10.5 72.5t-2 98.5q0 78 2 121
t10.5 86t25.5 62.5t46 31.5t74 12q147 0 145 -155zM643 393q-53 0 -71 -31t-18 -98t23 -90t69 -23q52 0 70 27.5t18 102.5q0 65 -21 88.5t-70 23.5zM500 854q128 0 237 -62.5t173 -172t64 -239.5q0 -196 -139 -335t-335 -139t-335 139t-139 335q0 130 64 239.5t173 172
t237 62.5zM500 819q-181 0 -310 -128t-129 -311q0 -119 59 -220t160 -160t220 -59q182 0 310.5 128.5t128.5 310.5q0 183 -129 311t-310 128zM201 664h170v-568h-65v506h-105v62z" />
    <glyph glyph-name="Japan1.7571" 
d="M500 854q128 0 237 -62.5t173 -172t64 -239.5q0 -196 -139 -335t-335 -139t-335 139t-139 335q0 130 64 239.5t173 172t237 62.5zM939 380q0 181 -128 310t-311 129q-182 0 -310.5 -128.5t-128.5 -310.5q0 -119 59 -220t160 -160t220 -59q183 0 311 129t128 310zM201 664
h170v-568h-65v506h-105v62zM483 602v62h330v-69l-191 -499h-72l200 506h-267z" />
    <glyph glyph-name="Japan1.7572" 
d="M719 391q15 -4 24.5 -9t24.5 -19.5t23 -44.5t8 -73q0 -80 -37.5 -117.5t-118.5 -37.5q-87 0 -121.5 41t-34.5 116q0 43 8.5 72.5t24 43.5t24.5 19t24 9q-13 5 -21.5 10t-22.5 18t-21.5 38t-7.5 59q0 50 12.5 82.5t36.5 47t47 19.5t55 5q69 0 107 -33.5t38 -120.5
q0 -34 -7.5 -59t-22 -38t-22 -18t-20.5 -10zM643 608q-52 0 -69 -25t-17 -71q0 -18 2 -30.5t10 -28t26.5 -23.5t47.5 -8q30 0 48.5 8t26 24t9.5 28t2 31q0 45 -17 70t-69 25zM643 360q-56 0 -74 -27t-18 -83q0 -46 18 -72t74 -26q31 0 51 8t28.5 24.5t11 31t2.5 37.5
q0 56 -19.5 81.5t-73.5 25.5zM500 854q128 0 237 -62.5t173 -172t64 -239.5q0 -196 -139 -335t-335 -139t-335 139t-139 335q0 130 64 239.5t173 172t237 62.5zM500 819q-181 0 -310 -128t-129 -311q0 -119 59 -220t160 -160t220 -59q182 0 310.5 128.5t128.5 310.5
q0 183 -129 311t-310 128zM201 664h170v-568h-65v506h-105v62z" />
    <glyph glyph-name="Japan1.7573" 
d="M494 245h64q-1 -50 16 -72t68 -22q40 0 58.5 15.5t26 57t8.5 128.5q-39 -45 -108 -45q-45 0 -74.5 15.5t-42 44t-17 54t-4.5 60.5q0 31 1 50.5t9 49t22.5 46.5t44 30t71.5 13q46 0 76 -11.5t47 -29t25.5 -55.5t10.5 -72.5t2 -98.5q0 -55 -1 -89.5t-4.5 -71.5t-10 -58
t-18 -41.5t-28.5 -30.5t-40.5 -16t-55.5 -6q-39 0 -67 10.5t-43 25.5t-23.5 38t-10.5 40.5t-2 40.5zM643 367q52 0 70.5 31t18.5 98q0 68 -23 90.5t-68 22.5q-52 0 -70.5 -28t-18.5 -102q0 -65 21 -88.5t70 -23.5zM500 854q128 0 237 -62.5t173 -172t64 -239.5
q0 -196 -139 -335t-335 -139t-335 139t-139 335q0 130 64 239.5t173 172t237 62.5zM500 819q-181 0 -310 -128t-129 -311q0 -119 59 -220t160 -160t220 -59q182 0 310.5 128.5t128.5 310.5q0 183 -129 311t-310 128zM201 664h170v-568h-65v506h-105v62z" />
    <glyph glyph-name="Japan1.7574" 
d="M500 854q128 0 237 -62.5t173 -172t64 -239.5q0 -196 -139 -335t-335 -139t-335 139t-139 335q0 130 64 239.5t173 172t237 62.5zM500 819q-181 0 -310 -128t-129 -311q0 -119 59 -220t160 -160t220 -59q182 0 310.5 128.5t128.5 310.5q0 183 -129 311t-310 128zM521 380
q0 70 3 113t12 80.5t26.5 56.5t45.5 29.5t71 10.5t71 -10.5t45.5 -29t26.5 -56t12 -81t3 -113.5t-3 -113.5t-12 -81t-26.5 -56t-45.5 -29t-71 -10.5t-71 10.5t-45.5 29t-26.5 56t-12 81t-3 113.5zM773 380q0 145 -16.5 186.5t-78.5 41.5q-61 0 -77 -43t-16 -185
q0 -145 16.5 -186.5t79.5 -41.5q60 0 76 43t16 185zM383 336l-73 -28q-31 -12 -44.5 -24t-20.5 -41t-7 -85h241v-62h-304q-1 105 7.5 153t29.5 70t72 43l63 25q21 8 30 13t20.5 17t16 31.5t4.5 49.5q0 60 -18 85t-71 25q-55 0 -71.5 -27t-16.5 -88v-14h-63q0 27 0.5 42
t3.5 38t8.5 36.5t17 29.5t27.5 24.5t40 14.5t56 6q82 0 116 -38t34 -123q0 -80 -21 -116t-77 -57z" />
    <glyph glyph-name="Japan1.7575" 
d="M369 788h262v-80h-83v-628h83v-80h-262v80h83v628h-83v80z" />
    <glyph glyph-name="Japan1.7576" 
d="M229 788h542v-80h-77v-628h77v-80h-542v80h77v628h-77v80zM600 708h-200v-628h200v628z" />
    <glyph glyph-name="Japan1.7577" 
d="M157 788h686v-80h-78v-628h78v-80h-686v80h78v628h-78v80zM455 708h-131v-628h131v628zM676 708h-131v-628h131v628z" />
    <glyph glyph-name="Japan1.7578" 
d="M67 788h412v-80h-76l174 -615l173 615h-77v80h260v-80h-82l-210 -708h-127l-212 708h-64v-628h78v-80h-249v80h76v628h-76v80z" />
    <glyph glyph-name="Japan1.7579" 
d="M820 708l-251 -708h-138l-251 708h-78v80h265v-80h-80l213 -631l213 631h-80v80h265v-80h-78z" />
    <glyph glyph-name="Japan1.7580" 
d="M521 788h412v-80h-76v-628h76v-80h-249v80h78v628h-64l-212 -708h-126l-211 708h-82v80h260v-80h-77l173 -615l174 615h-76v80z" />
    <glyph glyph-name="Japan1.7581" 
d="M22 788h240v-80h-73l147 -631l151 631h-71v80h562v-80h-70v-628h70v-80h-410v80h66v628h-53l-181 -708h-128l-177 708h-73v80zM818 708h-94v-628h94v628z" />
    <glyph glyph-name="Japan1.7582" 
d="M18 788h192v-80h-52l129 -640l128 640h-52v80h619v-80h-56v-628h56v-80h-492v80h58v628h-47l-155 -708h-123l-151 708h-54v80zM697 708h-68v-628h68v628zM845 708h-68v-628h68v628z" />
    <glyph glyph-name="Japan1.7583" 
d="M85 788h437v-80h-69l133 -251l135 251h-72v80h254v-80h-77l-173 -306l185 -322h78v-80h-254v80h71l-148 270l-153 -270h73v-80h-421v80h73v628h-72v80zM347 708h-97v-628h77l192 323z" />
    <glyph glyph-name="Japan1.7584" 
d="M676 80l-176 274l-176 -274h70v-80h-258v80h79l217 327l-201 301h-74v80h257v-80h-74l160 -249l160 249h-74v80h257v-80h-74l-201 -301l217 -327h79v-80h-258v80h70z" />
    <glyph glyph-name="Japan1.8061" 
d="M177 394q0 164 32 250.5t99 119t192 32.5q75 0 126.5 -11t91 -37t61.5 -73t33 -116t11 -170q0 -121 -16 -196.5t-55.5 -121t-98.5 -62.5t-153 -17t-152 16.5t-98 61.5t-56.5 122.5t-16.5 201.5zM499 710q-73 0 -114 -11.5t-67.5 -48t-35 -95.5t-8.5 -163t9 -163t37 -94.5
t69 -46t115 -10.5q56 0 92.5 8t63 27t40.5 56t20 88.5t6 131.5q0 72 -4 121.5t-15 86t-26.5 58t-43 34.5t-59 17t-79.5 4zM853 112h104v-112h-104v112z" />
    <glyph glyph-name="Japan1.8062" 
d="M335 788h247v-788h-97v701h-150v87zM853 112h104v-112h-104v112z" />
    <glyph glyph-name="Japan1.8063" 
d="M853 112h104v-112h-104v112zM600 318l-177 -31q-36 -6 -55 -12.5t-41.5 -24t-32.5 -52t-10 -88.5v-23h530v-87h-626v57q0 160 43.5 226t161.5 86l179 31q77 13 112.5 45t35.5 107q0 83 -44 120.5t-158 37.5q-128 0 -174.5 -39.5t-46.5 -141.5h-96q1 145 71.5 206
t237.5 61q39 0 67.5 -2.5t67.5 -9.5t66.5 -23.5t53 -41.5t38.5 -67t13 -96q0 -113 -50 -160q-64 -60 -166 -78z" />
    <glyph glyph-name="Japan1.8064" 
d="M853 112h104v-112h-104v112zM184 265h97q0 -20 -0.5 -39.5t4 -38t11.5 -35t23.5 -30t39.5 -23.5t59 -15.5t83 -5.5q54 0 88.5 4.5t67 19t48 44.5t15.5 77q0 15 -0.5 24.5t-4 26t-9.5 28t-19 24.5t-30.5 21.5t-44.5 14t-62 5.5h-118v81h119q26 0 40.5 1t40.5 7.5t40.5 19
t26 38t11.5 61.5q0 77 -47.5 106t-145.5 29q-73 0 -119.5 -12t-67 -36.5t-27 -48t-6.5 -61.5h-97q4 86 31 137t95.5 79t187.5 28q27 0 43.5 -0.5t50.5 -4.5t57 -11.5t52 -23t46.5 -37.5t30 -56.5t12.5 -78.5q0 -141 -117 -174q126 -43 126 -189q0 -46 -11.5 -82t-29 -59.5
t-44.5 -40.5t-52 -26t-58 -14t-55.5 -6t-51.5 -1q-186 0 -257.5 61t-71.5 212z" />
    <glyph glyph-name="Japan1.8065" 
d="M581 788h133v-518h136v-86h-136v-184h-95v184h-469v107zM619 270v436l-375 -436h375zM853 112h104v-112h-104v112z" />
    <glyph glyph-name="Japan1.8066" 
d="M853 112h104v-112h-104v112zM215 788h567v-87h-476l-6 -238q20 18 37 29t68 23.5t120 12.5q48 0 85.5 -5.5t77 -22.5t66 -45.5t43 -77.5t16.5 -115q0 -67 -14 -114t-48 -83.5t-97 -54.5t-156 -18q-175 0 -242 60t-71 188h97q0 -23 1 -34.5t5 -31.5t12 -31t23.5 -25.5
t38.5 -21.5t57.5 -12.5t79.5 -5.5q118 0 168.5 37.5t50.5 136.5q0 46 -6.5 76t-26.5 58.5t-62.5 42.5t-109.5 14q-58 0 -98 -7t-63 -21t-34 -27t-21 -33h-90z" />
    <glyph glyph-name="Japan1.8067" 
d="M853 112h104v-112h-104v112zM803 574h-96q1 31 -5.5 52.5t-25 42t-59.5 31t-104 10.5q-146 0 -185 -65q-49 -80 -45 -245q66 95 242 95q58 0 104.5 -9.5t91.5 -34.5t70 -76t25 -126q0 -67 -19 -115.5t-47.5 -75.5t-72 -42.5t-81.5 -19.5t-87 -4q-125 0 -193 35
t-98.5 118.5t-30.5 237.5q0 79 8.5 141t22 105.5t37.5 74t49 48.5t61.5 28t69.5 13t80 3q25 0 41.5 -0.5t50 -5t56.5 -12t52 -24t46.5 -39.5t30 -59t11.5 -82zM505 411q-59 0 -101 -11.5t-63.5 -28t-34 -42.5t-15 -46t-2.5 -47q0 -42 14 -72.5t34.5 -47t52 -26t56.5 -11.5
t58 -2q124 0 170 38t46 135q0 42 -12 72.5t-30.5 47.5t-49 26.5t-57.5 12t-66 2.5z" />
    <glyph glyph-name="Japan1.8068" 
d="M180 788h642v-90l-397 -698h-118l416 701h-543v87zM853 112h104v-112h-104v112z" />
    <glyph glyph-name="Japan1.8069" 
d="M690 412q44 -13 73.5 -41t40.5 -63t14 -55t3 -40q0 -66 -25 -111.5t-72 -68.5t-100 -32t-124 -9q-74 0 -129.5 10t-100 34t-68 69t-23.5 109q0 13 1 25.5t8 41.5t19 51.5t39 45.5t64 34q-57 19 -85 67.5t-28 107.5q0 48 14 84.5t41 58.5t55 36.5t67 20t65.5 7.5t60.5 2
q29 0 52 -1t56 -6t58 -13t52 -23.5t44 -37t28.5 -54.5t11.5 -74q0 -59 -28 -107.5t-84 -67.5zM500 712q-65 0 -107.5 -9t-64 -28t-29.5 -41t-8 -54q0 -36 14.5 -62t34.5 -39.5t52.5 -20.5t56 -8.5t58.5 -1.5q98 0 149.5 29.5t51.5 106.5q0 67 -46 97.5t-162 30.5zM500 77
q131 0 179 33.5t48 112.5q0 84 -55 115t-172 31q-124 0 -175.5 -33t-51.5 -115q0 -80 49.5 -112t177.5 -32zM853 112h104v-112h-104v112z" />
    <glyph glyph-name="Japan1.8070" 
d="M853 112h104v-112h-104v112zM182 224h96q0 -21 0.5 -32t4.5 -29.5t11.5 -28.5t23 -22.5t37.5 -19t56 -11t78 -4.5q102 0 145 21.5t62 73.5q32 85 26 220q-19 -27 -38 -44t-71.5 -34t-128.5 -17q-22 0 -39 1t-49 6t-56.5 13.5t-54 27t-48.5 43.5t-32 64.5t-13 89.5
q0 67 22 116.5t52.5 75t76.5 40.5t80 18.5t77 3.5q184 0 251 -84t67 -313q0 -103 -13.5 -175t-37.5 -117.5t-66 -71t-90 -34.5t-119 -9q-164 0 -236.5 49.5t-73.5 182.5zM501 380q67 0 111.5 12.5t66 37.5t29 53t7.5 69q0 45 -16.5 77t-37.5 47.5t-55 24t-53 9.5t-48 1
q-121 0 -169.5 -37t-48.5 -134q0 -83 47 -121.5t167 -38.5z" />
    <glyph glyph-name="Japan1.8071" 
d="M192 857h42q-81 -100 -124.5 -223.5t-43.5 -253.5q0 -131 43.5 -254.5t124.5 -222.5h-42q-59 69 -97.5 150t-52 154.5t-17 108t-3.5 64.5t3.5 64.5t17 108t52 154.5t97.5 150zM766 857h42q59 -69 97.5 -150t52 -154.5t17 -108t3.5 -64.5t-3.5 -64.5t-17 -108t-52 -154.5
t-97.5 -150h-42q81 99 124.5 222.5t43.5 254.5q0 130 -43.5 253.5t-124.5 223.5zM368 684h182v-608h-70v542h-112v66z" />
    <glyph glyph-name="Japan1.8072" 
d="M192 857h42q-81 -100 -124.5 -223.5t-43.5 -253.5q0 -131 43.5 -254.5t124.5 -222.5h-42q-59 69 -97.5 150t-52 154.5t-17 108t-3.5 64.5t3.5 64.5t17 108t52 154.5t97.5 150zM766 857h42q59 -69 97.5 -150t52 -154.5t17 -108t3.5 -64.5t-3.5 -64.5t-17 -108t-52 -154.5
t-97.5 -150h-42q81 99 124.5 222.5t43.5 254.5q0 130 -43.5 253.5t-124.5 223.5zM561 333l-78 -30q-33 -13 -47.5 -26t-22.5 -44t-8 -91h259v-66h-327q-1 113 9 165.5t32 75t77 44.5l67 27q22 9 31.5 14t22.5 17.5t17.5 33.5t4.5 53q0 65 -19 92t-76 27q-27 0 -45.5 -7.5
t-28.5 -17t-14.5 -30.5t-5.5 -36.5t-1 -46.5h-67q0 39 1.5 63.5t10.5 54.5t25.5 46.5t48 28t77.5 11.5q89 0 125.5 -40.5t36.5 -132.5q0 -84 -22 -123t-83 -62z" />
    <glyph glyph-name="Japan1.8073" 
d="M192 857h42q-81 -100 -124.5 -223.5t-43.5 -253.5q0 -131 43.5 -254.5t124.5 -222.5h-42q-59 69 -97.5 150t-52 154.5t-17 108t-3.5 64.5t3.5 64.5t17 108t52 154.5t97.5 150zM766 857h42q59 -69 97.5 -150t52 -154.5t17 -108t3.5 -64.5t-3.5 -64.5t-17 -108t-52 -154.5
t-97.5 -150h-42q81 99 124.5 222.5t43.5 254.5q0 130 -43.5 253.5t-124.5 223.5zM336 270h69q-2 -76 14.5 -105.5t82.5 -29.5q53 0 74.5 26t21.5 87q0 39 -8.5 63t-28 33.5t-34 11.5t-43.5 2h-42v64h47q61 0 83 17t22 83q0 50 -18 76t-73 26q-27 0 -45.5 -7t-28 -15.5
t-14.5 -27.5t-6 -31t-1 -38h-68q0 42 5 70.5t20 57.5t49 43.5t86 14.5q85 0 123.5 -38.5t38.5 -124.5q0 -55 -17 -88.5t-62 -48.5q17 -5 27 -10.5t25.5 -20t23.5 -44.5t8 -74q0 -100 -43.5 -136.5t-121.5 -36.5q-56 0 -91 14t-51 44t-20.5 61.5t-3.5 81.5z" />
    <glyph glyph-name="Japan1.8074" 
d="M493 684h97v-403h55v-65h-55v-140h-68v140h-230v75zM522 609l-165 -328h165v328zM192 857h42q-81 -100 -124.5 -223.5t-43.5 -253.5q0 -131 43.5 -254.5t124.5 -222.5h-42q-59 69 -97.5 150t-52 154.5t-17 108t-3.5 64.5t3.5 64.5t17 108t52 154.5t97.5 150zM766 857h42
q59 -69 97.5 -150t52 -154.5t17 -108t3.5 -64.5t-3.5 -64.5t-17 -108t-52 -154.5t-97.5 -150h-42q81 99 124.5 222.5t43.5 254.5q0 130 -43.5 253.5t-124.5 223.5z" />
    <glyph glyph-name="Japan1.8075" 
d="M192 857h42q-81 -100 -124.5 -223.5t-43.5 -253.5q0 -131 43.5 -254.5t124.5 -222.5h-42q-59 69 -97.5 150t-52 154.5t-17 108t-3.5 64.5t3.5 64.5t17 108t52 154.5t97.5 150zM766 857h42q59 -69 97.5 -150t52 -154.5t17 -108t3.5 -64.5t-3.5 -64.5t-17 -108t-52 -154.5
t-97.5 -150h-42q81 99 124.5 222.5t43.5 254.5q0 130 -43.5 253.5t-124.5 223.5zM349 684h304v-66h-236l-5 -175q41 37 107 37q46 0 75.5 -14.5t44.5 -44t20 -62t5 -79.5q0 -112 -33 -161.5t-130 -49.5q-85 0 -125.5 40t-39.5 141h68q-2 -61 17 -88t78 -27t77.5 30t18.5 107
q0 82 -17 113.5t-72 31.5q-32 0 -53 -7.5t-30 -21t-12 -22.5t-5 -22h-64z" />
    <glyph glyph-name="Japan1.8076" 
d="M660 525h-68q0 55 -18.5 77.5t-72.5 22.5q-62 0 -79.5 -40.5t-19.5 -174.5q39 48 115 48q39 0 68 -12t44 -29.5t24 -44.5t11 -49t2 -51q0 -33 -1.5 -54t-10 -52.5t-24 -50t-47 -32.5t-76.5 -14q-41 0 -70 7t-48 25t-30 37.5t-16 57.5t-6.5 70.5t-1.5 90.5q0 59 1 95
t4.5 76t10.5 62t19 44.5t30 33t43.5 17t59.5 6.5q159 0 157 -166zM500 394q-56 0 -75.5 -33.5t-19.5 -105.5q0 -73 24.5 -97t73.5 -24q55 0 75 29.5t20 110.5q0 70 -23 95t-75 25zM192 857h42q-81 -100 -124.5 -223.5t-43.5 -253.5q0 -131 43.5 -254.5t124.5 -222.5h-42
q-59 69 -97.5 150t-52 154.5t-17 108t-3.5 64.5t3.5 64.5t17 108t52 154.5t97.5 150zM766 857h42q59 -69 97.5 -150t52 -154.5t17 -108t3.5 -64.5t-3.5 -64.5t-17 -108t-52 -154.5t-97.5 -150h-42q81 99 124.5 222.5t43.5 254.5q0 130 -43.5 253.5t-124.5 223.5z" />
    <glyph glyph-name="Japan1.8077" 
d="M192 857h42q-81 -100 -124.5 -223.5t-43.5 -253.5q0 -131 43.5 -254.5t124.5 -222.5h-42q-59 69 -97.5 150t-52 154.5t-17 108t-3.5 64.5t3.5 64.5t17 108t52 154.5t97.5 150zM766 857h42q59 -69 97.5 -150t52 -154.5t17 -108t3.5 -64.5t-3.5 -64.5t-17 -108t-52 -154.5
t-97.5 -150h-42q81 99 124.5 222.5t43.5 254.5q0 130 -43.5 253.5t-124.5 223.5zM323 684h354v-73l-205 -535h-77l214 542h-286v66z" />
    <glyph glyph-name="Japan1.8078" 
d="M581 392q17 -5 27 -10t26.5 -20.5t25 -47.5t8.5 -79q0 -86 -41 -126t-127 -40q-93 0 -130 43t-37 125q0 132 86 155q-14 5 -23 10.5t-24 19.5t-23 40.5t-8 63.5q0 53 13.5 87.5t38.5 50.5t50 21.5t60 5.5q75 0 115.5 -36.5t40.5 -128.5q0 -37 -8 -63.5t-23 -40.5
t-24 -19.5t-23 -10.5zM500 625q-57 0 -74.5 -27.5t-17.5 -76.5q0 -15 1 -25.5t6 -25t14 -23.5t27.5 -15.5t43.5 -6.5q32 0 52.5 9t28 26.5t9.5 30t2 32.5q0 48 -17.5 75t-74.5 27zM500 359q-60 0 -79.5 -29.5t-19.5 -88.5q0 -50 19.5 -78t79.5 -28q33 0 54.5 8.5t30.5 26
t11.5 33.5t2.5 41q0 60 -20.5 87.5t-78.5 27.5zM192 857h42q-81 -100 -124.5 -223.5t-43.5 -253.5q0 -131 43.5 -254.5t124.5 -222.5h-42q-59 69 -97.5 150t-52 154.5t-17 108t-3.5 64.5t3.5 64.5t17 108t52 154.5t97.5 150zM766 857h42q59 -69 97.5 -150t52 -154.5t17 -108
t3.5 -64.5t-3.5 -64.5t-17 -108t-52 -154.5t-97.5 -150h-42q81 99 124.5 222.5t43.5 254.5q0 130 -43.5 253.5t-124.5 223.5z" />
    <glyph glyph-name="Japan1.8079" 
d="M340 235h68q0 -55 18.5 -77.5t72.5 -22.5q62 0 79.5 40t19.5 175q-39 -48 -115 -48q-39 0 -68 12t-44 29.5t-24 44.5t-11 49t-2 51q0 34 1.5 54.5t9.5 52.5t24 50t47.5 32t76.5 14q41 0 70 -7t48 -25t30 -37.5t16 -57.5t6.5 -70.5t1.5 -90.5q0 -69 -1.5 -109.5t-7 -83.5
t-16.5 -65.5t-29.5 -42t-46.5 -26.5t-68 -7q-159 0 -156 166zM500 366q56 0 75.5 33.5t19.5 105.5q0 73 -24.5 97t-73.5 24q-55 0 -75 -29.5t-20 -109.5q0 -71 23 -96t75 -25zM192 857h42q-81 -100 -124.5 -223.5t-43.5 -253.5q0 -131 43.5 -254.5t124.5 -222.5h-42
q-59 69 -97.5 150t-52 154.5t-17 108t-3.5 64.5t3.5 64.5t17 108t52 154.5t97.5 150zM766 857h42q59 -69 97.5 -150t52 -154.5t17 -108t3.5 -64.5t-3.5 -64.5t-17 -108t-52 -154.5t-97.5 -150h-42q81 99 124.5 222.5t43.5 254.5q0 130 -43.5 253.5t-124.5 223.5z" />
    <glyph glyph-name="Japan1.8080" 
d="M479 380q0 73 3 118t12.5 84t28.5 59t48 30.5t73 10.5t73 -10.5t48 -30t28.5 -58.5t12.5 -84.5t3 -118.5t-3 -118.5t-12.5 -84.5t-28.5 -58.5t-48 -30t-73 -10.5t-73 10.5t-48 30t-28.5 58.5t-12.5 84.5t-3 118.5zM742 380q0 151 -17 194t-82 43q-63 0 -80 -44.5
t-17 -192.5q0 -151 17.5 -194t82.5 -43q63 0 79.5 44t16.5 193zM192 857h42q-81 -100 -124.5 -223.5t-43.5 -253.5q0 -131 43.5 -254.5t124.5 -222.5h-42q-59 69 -97.5 150t-52 154.5t-17 108t-3.5 64.5t3.5 64.5t17 108t52 154.5t97.5 150zM766 857h42q59 -69 97.5 -150
t52 -154.5t17 -108t3.5 -64.5t-3.5 -64.5t-17 -108t-52 -154.5t-97.5 -150h-42q81 99 124.5 222.5t43.5 254.5q0 130 -43.5 253.5t-124.5 223.5zM194 676h177v-592h-67v527h-110v65z" />
    <glyph glyph-name="Japan1.8081" 
d="M192 857h42q-81 -100 -124.5 -223.5t-43.5 -253.5q0 -131 43.5 -254.5t124.5 -222.5h-42q-59 69 -97.5 150t-52 154.5t-17 108t-3.5 64.5t3.5 64.5t17 108t52 154.5t97.5 150zM766 857h42q59 -69 97.5 -150t52 -154.5t17 -108t3.5 -64.5t-3.5 -64.5t-17 -108t-52 -154.5
t-97.5 -150h-42q81 99 124.5 222.5t43.5 254.5q0 130 -43.5 253.5t-124.5 223.5zM564 676h177v-592h-68v527h-109v65zM194 676h177v-592h-67v527h-110v65z" />
    <glyph glyph-name="Japan1.8082" 
d="M192 857h42q-81 -100 -124.5 -223.5t-43.5 -253.5q0 -131 43.5 -254.5t124.5 -222.5h-42q-59 69 -97.5 150t-52 154.5t-17 108t-3.5 64.5t3.5 64.5t17 108t52 154.5t97.5 150zM766 857h42q59 -69 97.5 -150t52 -154.5t17 -108t3.5 -64.5t-3.5 -64.5t-17 -108t-52 -154.5
t-97.5 -150h-42q81 99 124.5 222.5t43.5 254.5q0 130 -43.5 253.5t-124.5 223.5zM178 676h176v-592h-67v527h-109v65zM710 334l-76 -28q-47 -17 -61.5 -45t-14.5 -112h252v-65h-317q-1 83 2.5 129t18.5 76.5t34 43t59 28.5l66 26q20 8 30.5 14t22 18t16 32.5t4.5 50.5
q0 63 -18.5 89t-73.5 26q-33 0 -52.5 -8.5t-28 -29t-10 -39.5t-1.5 -56h-66q0 38 1.5 62t10.5 52.5t25 45t47 27.5t75 11q86 0 121.5 -39.5t35.5 -128.5q0 -83 -21.5 -120.5t-80.5 -59.5z" />
    <glyph glyph-name="Japan1.8083" 
d="M192 857h42q-81 -100 -124.5 -223.5t-43.5 -253.5q0 -131 43.5 -254.5t124.5 -222.5h-42q-59 69 -97.5 150t-52 154.5t-17 108t-3.5 64.5t3.5 64.5t17 108t52 154.5t97.5 150zM766 857h42q59 -69 97.5 -150t52 -154.5t17 -108t3.5 -64.5t-3.5 -64.5t-17 -108t-52 -154.5
t-97.5 -150h-42q81 99 124.5 222.5t43.5 254.5q0 130 -43.5 253.5t-124.5 223.5zM178 676h176v-592h-67v527h-109v65zM492 273h66q-2 -73 14.5 -101.5t80.5 -28.5q50 0 71.5 24.5t21.5 84.5q0 26 -4 45t-13 30.5t-17 18t-23.5 9.5t-25 3.5t-28.5 0.5h-41v62h46q59 0 81 16.5
t22 80.5q0 49 -18 74t-71 25q-33 0 -53 -8t-28 -27.5t-9.5 -34.5t-1.5 -46h-67q0 41 4.5 68t19 55.5t47.5 43t84 14.5q83 0 120.5 -37.5t37.5 -120.5q0 -54 -17 -86.5t-60 -46.5q16 -5 26.5 -10.5t25.5 -20t22.5 -43.5t7.5 -71q0 -96 -41.5 -132t-118.5 -36q-45 0 -76 10.5
t-48 26.5t-25.5 44t-10.5 52t-1 62z" />
    <glyph glyph-name="Japan1.8084" 
d="M675 676h94v-392h54v-63h-54v-137h-66v137h-223v73zM703 602l-160 -318h160v318zM192 857h42q-81 -100 -124.5 -223.5t-43.5 -253.5q0 -131 43.5 -254.5t124.5 -222.5h-42q-59 69 -97.5 150t-52 154.5t-17 108t-3.5 64.5t3.5 64.5t17 108t52 154.5t97.5 150zM766 857h42
q59 -69 97.5 -150t52 -154.5t17 -108t3.5 -64.5t-3.5 -64.5t-17 -108t-52 -154.5t-97.5 -150h-42q81 99 124.5 222.5t43.5 254.5q0 130 -43.5 253.5t-124.5 223.5zM178 676h176v-592h-67v527h-109v65z" />
    <glyph glyph-name="Japan1.8085" 
d="M192 857h42q-81 -100 -124.5 -223.5t-43.5 -253.5q0 -131 43.5 -254.5t124.5 -222.5h-42q-59 69 -97.5 150t-52 154.5t-17 108t-3.5 64.5t3.5 64.5t17 108t52 154.5t97.5 150zM766 857h42q59 -69 97.5 -150t52 -154.5t17 -108t3.5 -64.5t-3.5 -64.5t-17 -108t-52 -154.5
t-97.5 -150h-42q81 99 124.5 222.5t43.5 254.5q0 130 -43.5 253.5t-124.5 223.5zM178 676h176v-592h-67v527h-109v65zM506 676h295v-65h-229l-5 -170q13 11 22 17t31 12.5t51 6.5q45 0 74 -14t43 -43t19 -60t5 -77q0 -109 -32.5 -157t-126.5 -48q-82 0 -121.5 38.5
t-38.5 137.5h67q-2 -60 16 -85.5t76 -25.5q55 0 74 27.5t19 99.5q0 82 -15.5 114t-71.5 32q-30 0 -50.5 -7.5t-29.5 -20.5t-12 -21.5t-5 -20.5h-61z" />
    <glyph glyph-name="Japan1.8086" 
d="M808 521h-67q1 52 -16.5 74.5t-70.5 22.5q-60 0 -78 -39t-19 -170q11 13 19 20.5t33.5 17t59.5 9.5q38 0 65.5 -11.5t42 -28t23 -42.5t11 -48t2.5 -51q0 -33 -1 -53t-9.5 -51t-23.5 -48.5t-45.5 -31t-74.5 -13.5q-34 0 -59.5 6t-43.5 15.5t-30 29t-18.5 38t-10 52
t-4.5 62t-1 75.5q0 68 1.5 108t7 81.5t16 63.5t28.5 40.5t45 25.5t66 7q154 0 152 -161zM653 394q-55 0 -74 -32.5t-19 -102.5q0 -71 24 -94.5t72 -23.5q53 0 72 29t19 107q0 68 -22 92.5t-72 24.5zM192 857h42q-81 -100 -124.5 -223.5t-43.5 -253.5q0 -131 43.5 -254.5
t124.5 -222.5h-42q-59 69 -97.5 150t-52 154.5t-17 108t-3.5 64.5t3.5 64.5t17 108t52 154.5t97.5 150zM766 857h42q59 -69 97.5 -150t52 -154.5t17 -108t3.5 -64.5t-3.5 -64.5t-17 -108t-52 -154.5t-97.5 -150h-42q81 99 124.5 222.5t43.5 254.5q0 130 -43.5 253.5
t-124.5 223.5zM178 676h176v-592h-67v527h-109v65z" />
    <glyph glyph-name="Japan1.8087" 
d="M192 857h42q-81 -100 -124.5 -223.5t-43.5 -253.5q0 -131 43.5 -254.5t124.5 -222.5h-42q-59 69 -97.5 150t-52 154.5t-17 108t-3.5 64.5t3.5 64.5t17 108t52 154.5t97.5 150zM766 857h42q59 -69 97.5 -150t52 -154.5t17 -108t3.5 -64.5t-3.5 -64.5t-17 -108t-52 -154.5
t-97.5 -150h-42q81 99 124.5 222.5t43.5 254.5q0 130 -43.5 253.5t-124.5 223.5zM178 676h176v-592h-67v527h-109v65zM481 676h343v-72l-199 -520h-74l208 527h-278v65z" />
    <glyph glyph-name="Japan1.8088" 
d="M731 391q15 -4 25.5 -9t26 -20t24 -46t8.5 -77q0 -81 -39 -121t-123 -40q-92 0 -127.5 43t-35.5 121q0 126 84 149q-14 5 -23 10.5t-23.5 19.5t-22 39.5t-7.5 61.5q0 51 13 85t37.5 49t49 20.5t57.5 5.5q73 0 112.5 -35.5t39.5 -124.5q0 -36 -8 -61.5t-22.5 -39.5
t-23 -19.5t-22.5 -10.5zM653 618q-55 0 -72.5 -26t-17.5 -75q0 -19 2.5 -32t10 -29t27.5 -24.5t50 -8.5t49.5 8.5t27.5 25.5t10 30t2 32q0 47 -17.5 73t-71.5 26zM653 359q-59 0 -78 -28.5t-19 -85.5q0 -23 3 -38.5t12 -31.5t29.5 -24.5t51.5 -8.5q32 0 53 8.5t30 26
t11.5 33t2.5 38.5q0 57 -20 84t-76 27zM192 857h42q-81 -100 -124.5 -223.5t-43.5 -253.5q0 -131 43.5 -254.5t124.5 -222.5h-42q-59 69 -97.5 150t-52 154.5t-17 108t-3.5 64.5t3.5 64.5t17 108t52 154.5t97.5 150zM766 857h42q59 -69 97.5 -150t52 -154.5t17 -108
t3.5 -64.5t-3.5 -64.5t-17 -108t-52 -154.5t-97.5 -150h-42q81 99 124.5 222.5t43.5 254.5q0 130 -43.5 253.5t-124.5 223.5zM178 676h176v-592h-67v527h-109v65z" />
    <glyph glyph-name="Japan1.8089" 
d="M496 239h66q-1 -52 17 -74.5t71 -22.5q59 0 77 38.5t19 170.5q-36 -47 -112 -47q-38 0 -65.5 11.5t-42 28t-23 42.5t-11 48t-2.5 51q0 32 1 52t9.5 51t23.5 48.5t45.5 31.5t74.5 14q40 0 68.5 -6.5t47 -24.5t29 -37t15.5 -55.5t6.5 -68t1.5 -87.5q0 -67 -1.5 -107
t-7 -81.5t-16 -63.5t-29 -40.5t-45.5 -25.5t-66 -7q-47 0 -79 14t-47 39.5t-20 50.5t-5 57zM651 366q54 0 73 32.5t19 102.5q0 71 -24 94.5t-71 23.5q-54 0 -73 -29t-19 -107q0 -68 22 -92.5t73 -24.5zM192 857h42q-81 -100 -124.5 -223.5t-43.5 -253.5q0 -131 43.5 -254.5
t124.5 -222.5h-42q-59 69 -97.5 150t-52 154.5t-17 108t-3.5 64.5t3.5 64.5t17 108t52 154.5t97.5 150zM766 857h42q59 -69 97.5 -150t52 -154.5t17 -108t3.5 -64.5t-3.5 -64.5t-17 -108t-52 -154.5t-97.5 -150h-42q81 99 124.5 222.5t43.5 254.5q0 130 -43.5 253.5
t-124.5 223.5zM178 676h176v-592h-67v527h-109v65z" />
    <glyph glyph-name="Japan1.8090" 
d="M520 380q0 73 3 117.5t12.5 84t28 59t48 30.5t73.5 11t73.5 -11t48 -30.5t28 -58.5t12.5 -84t3 -118t-3 -118t-12.5 -84t-28 -58.5t-48 -30.5t-73.5 -11t-73.5 11t-48 30.5t-28 58.5t-12.5 84t-3 118zM783 380q0 151 -17 194t-83 43q-63 0 -79.5 -44.5t-16.5 -192.5
q0 -151 17 -194t82 -43q64 0 80.5 44.5t16.5 192.5zM192 857h42q-81 -100 -124.5 -223.5t-43.5 -253.5q0 -131 43.5 -254.5t124.5 -222.5h-42q-59 69 -97.5 150t-52 154.5t-17 108t-3.5 64.5t3.5 64.5t17 108t52 154.5t97.5 150zM766 857h42q59 -69 97.5 -150t52 -154.5
t17 -108t3.5 -64.5t-3.5 -64.5t-17 -108t-52 -154.5t-97.5 -150h-42q81 99 124.5 222.5t43.5 254.5q0 130 -43.5 253.5t-124.5 223.5zM373 334l-76 -28q-46 -17 -61 -45t-15 -112h252v-65h-317q-2 110 8 162t32 74t74 42l66 25q27 10 39.5 18.5t23 32.5t10.5 65
q0 62 -18.5 88t-73.5 26q-33 0 -52.5 -8.5t-28 -29.5t-10 -40t-1.5 -55h-66q0 38 1.5 62t10.5 52.5t25 45t47 27.5t75 11q86 0 121.5 -39.5t35.5 -128.5q0 -83 -21.5 -120.5t-80.5 -59.5z" />
    <glyph glyph-name="Japan1.8091" 
d="M500 854q128 0 237 -62.5t173 -172t64 -239.5q0 -196 -139 -335t-335 -139t-335 139t-139 335q0 130 64 239.5t173 172t237 62.5zM500 819q-181 0 -310 -128t-129 -311q0 -119 59 -220t160 -160t220 -59q182 0 310.5 128.5t128.5 310.5q0 183 -129 311t-310 128zM407 336
l-73 -28q-31 -12 -44.5 -24t-20.5 -41t-7 -85h241v-62h-304q-1 105 7.5 153t29.5 70t72 43l63 25q21 8 30 13t20.5 17t16 31.5t4.5 49.5q0 60 -18 85t-71 25q-55 0 -71.5 -27t-16.5 -88v-14h-63q0 27 0.5 42t3.5 38t8.5 36.5t17 29.5t27.5 24.5t40 14.5t56 6q82 0 116 -38
t34 -123q0 -80 -21 -116t-77 -57zM585 664h170v-568h-65v506h-105v62z" />
    <glyph glyph-name="Japan1.8092" 
d="M455 589h90v-589h-90v589zM447 788h106v-105h-106v105z" />
    <glyph glyph-name="Japan1.8093" 
d="M316 788h106v-105h-106v105zM325 589h89v-589h-89v589zM578 788h106v-105h-106v105zM586 589h89v-589h-89v589z" />
    <glyph glyph-name="Japan1.8094" 
d="M244 788h104v-105h-104v105zM252 589h87v-589h-87v589zM448 788h104v-105h-104v105zM456 589h88v-589h-88v589zM652 788h104v-105h-104v105zM661 589h87v-589h-87v589z" />
    <glyph glyph-name="Japan1.8095" 
d="M848 589l-178 -589h-121l-179 589h95l144 -506l145 506h94zM206 788h106v-105h-106v105zM214 589h90v-589h-90v589z" />
    <glyph glyph-name="Japan1.8096" 
d="M763 589l-207 -589h-112l-207 589h99l164 -504l164 504h99z" />
    <glyph glyph-name="Japan1.8097" 
d="M331 0l-179 589h95l102 -358l42 -148l144 506h95l-179 -589h-120zM688 788h106v-105h-106v105zM696 589h90v-589h-90v589z" />
    <glyph glyph-name="Japan1.8098" 
d="M540 589l-158 -589h-117l-157 589h92l88 -350l36 -154l35 154l88 350h93zM579 788h105v-105h-105v105zM588 589h87v-589h-87v589zM737 788h104v-105h-104v105zM745 589h88v-589h-88v589z" />
    <glyph glyph-name="Japan1.8099" 
d="M482 589l-139 -589h-111l-139 589h91l77 -348l27 -153l26 153l78 348h90zM509 788h95v-105h-95v105zM517 589h79v-589h-79v589zM639 788h95v-105h-95v105zM647 589h79v-589h-79v589zM768 788h95v-105h-95v105zM776 589h79v-589h-79v589z" />
    <glyph glyph-name="Japan1.8100" 
d="M743 0l-142 264l-143 -264h-105l180 310l-159 279h101l126 -229l126 229h101l-159 -279l179 -310h-105zM201 788h107v-105h-107v105zM209 589h91v-589h-91v589z" />
    <glyph glyph-name="Japan1.8101" 
d="M651 0l-151 264l-151 -264h-109l191 311l-173 278h107l135 -235l135 235h107l-173 -278l191 -311h-109z" />
    <glyph glyph-name="Japan1.8102" 
d="M500 854q128 0 237 -62.5t173 -172t64 -239.5q0 -196 -139 -335t-335 -139t-335 139t-139 335q0 130 64 239.5t173 172t237 62.5zM500 819q-181 0 -310 -128t-129 -311q0 -119 59 -220t160 -160t220 -59q182 0 310.5 128.5t128.5 310.5q0 183 -129 311t-310 128zM383 336
l-73 -28q-31 -12 -44.5 -24t-20.5 -41t-7 -85h241v-62h-304q-1 105 7.5 153t29.5 70t72 43l63 25q21 8 30 13t20.5 17t16 31.5t4.5 49.5q0 60 -18 85t-71 25q-55 0 -71.5 -27t-16.5 -88v-14h-63q0 27 0.5 42t3.5 38t8.5 36.5t17 29.5t27.5 24.5t40 14.5t56 6q82 0 116 -38
t34 -123q0 -80 -21 -116t-77 -57zM727 336l-73 -28q-31 -12 -44.5 -24t-20.5 -41t-7 -85h241v-62h-304q-1 105 7.5 153t29.5 70t72 43l63 25q21 8 30 13t20.5 17t16 31.5t4.5 49.5q0 60 -18 85t-71 25q-55 0 -71.5 -27t-16.5 -88v-14h-63q0 27 0.5 42t3.5 38t8.5 36.5
t17 29.5t27.5 24.5t40 14.5t56 6q82 0 116 -38t34 -123q0 -80 -21 -116t-77 -57z" />
    <glyph glyph-name="Japan1.8103" 
d="M500 854q128 0 237 -62.5t173 -172t64 -239.5q0 -196 -139 -335t-335 -139t-335 139t-139 335q0 130 64 239.5t173 172t237 62.5zM500 819q-181 0 -310 -128t-129 -311q0 -119 59 -220t160 -160t220 -59q182 0 310.5 128.5t128.5 310.5q0 183 -129 311t-310 128zM383 336
l-73 -28q-31 -12 -44.5 -24t-20.5 -41t-7 -85h241v-62h-304q-1 105 7.5 153t29.5 70t72 43l63 25q21 8 30 13t20.5 17t16 31.5t4.5 49.5q0 60 -18 85t-71 25q-55 0 -71.5 -27t-16.5 -88v-14h-63q0 27 0.5 42t3.5 38t8.5 36.5t17 29.5t27.5 24.5t40 14.5t56 6q82 0 116 -38
t34 -123q0 -80 -21 -116t-77 -57zM517 277h64q-2 -71 13 -98t77 -27q49 0 69.5 23.5t20.5 81.5q0 37 -8 59.5t-26 31t-32 10.5t-41 2h-39v59h44q57 0 78 16t21 78q0 46 -17 70.5t-68 24.5q-32 0 -51 -8t-26.5 -26.5t-9.5 -33.5t-2 -44h-64q0 39 4.5 65.5t18.5 53.5t45.5 41
t80.5 14q79 0 115.5 -36t36.5 -116q0 -50 -16 -82t-58 -45q17 -6 26 -10.5t23.5 -19t21.5 -42t7 -68.5q0 -89 -38.5 -125t-114.5 -36q-53 0 -86.5 13.5t-47.5 42.5t-18 57t-3 74z" />
    <glyph glyph-name="Japan1.8104" 
d="M701 664h90v-376h52v-61h-52v-131h-63v131h-215v70zM728 593l-154 -305h154v305zM500 854q128 0 237 -62.5t173 -172t64 -239.5q0 -196 -139 -335t-335 -139t-335 139t-139 335q0 130 64 239.5t173 172t237 62.5zM500 819q-181 0 -310 -128t-129 -311q0 -119 59 -220
t160 -160t220 -59q182 0 310.5 128.5t128.5 310.5q0 183 -129 311t-310 128zM383 336l-73 -28q-31 -12 -44.5 -24t-20.5 -41t-7 -85h241v-62h-304q-1 105 7.5 153t29.5 70t72 43l63 25q21 8 30 13t20.5 17t16 31.5t4.5 49.5q0 60 -18 85t-71 25q-55 0 -71.5 -27t-16.5 -88
v-14h-63q0 27 0.5 42t3.5 38t8.5 36.5t17 29.5t27.5 24.5t40 14.5t56 6q82 0 116 -38t34 -123q0 -80 -21 -116t-77 -57z" />
    <glyph glyph-name="Japan1.8105" 
d="M500 854q128 0 237 -62.5t173 -172t64 -239.5q0 -196 -139 -335t-335 -139t-335 139t-139 335q0 130 64 239.5t173 172t237 62.5zM500 819q-181 0 -310 -128t-129 -311q0 -119 59 -220t160 -160t220 -59q182 0 310.5 128.5t128.5 310.5q0 183 -129 311t-310 128zM383 336
l-73 -28q-31 -12 -44.5 -24t-20.5 -41t-7 -85h241v-62h-304q-1 105 7.5 153t29.5 70t72 43l63 25q21 8 30 13t20.5 17t16 31.5t4.5 49.5q0 60 -18 85t-71 25q-55 0 -71.5 -27t-16.5 -88v-14h-63q0 27 0.5 42t3.5 38t8.5 36.5t17 29.5t27.5 24.5t40 14.5t56 6q82 0 116 -38
t34 -123q0 -80 -21 -116t-77 -57zM531 664h282v-62h-219l-5 -163q41 34 100 34q43 0 71 -14t41.5 -41.5t18 -57.5t4.5 -73q0 -105 -31 -151t-121 -46q-78 0 -116.5 36.5t-37.5 132.5h64q-1 -57 16 -82t73 -25q55 0 72 27.5t17 98.5q0 77 -15.5 106.5t-67.5 29.5
q-87 0 -93 -67h-60z" />
    <glyph glyph-name="Japan1.8106" 
d="M820 515h-63q0 51 -17 72.5t-67 21.5q-40 0 -58.5 -15.5t-26 -57t-8.5 -128.5q33 45 107 45q45 0 74.5 -15.5t42.5 -44t17 -54t4 -60.5q0 -32 -1 -50.5t-9 -48.5t-22 -46.5t-43.5 -30t-71.5 -13.5q-46 0 -76 11.5t-47 29t-25.5 55.5t-10.5 72.5t-2 98.5q0 78 2 121
t10.5 86t25.5 62.5t46 31.5t74 12q147 0 145 -155zM671 393q-53 0 -71 -31t-18 -98t23 -90t69 -23q52 0 70 27.5t18 102.5q0 65 -21 88.5t-70 23.5zM500 854q128 0 237 -62.5t173 -172t64 -239.5q0 -196 -139 -335t-335 -139t-335 139t-139 335q0 130 64 239.5t173 172
t237 62.5zM500 819q-181 0 -310 -128t-129 -311q0 -119 59 -220t160 -160t220 -59q182 0 310.5 128.5t128.5 310.5q0 183 -129 311t-310 128zM383 336l-73 -28q-31 -12 -44.5 -24t-20.5 -41t-7 -85h241v-62h-304q-1 105 7.5 153t29.5 70t72 43l63 25q21 8 30 13t20.5 17
t16 31.5t4.5 49.5q0 60 -18 85t-71 25q-55 0 -71.5 -27t-16.5 -88v-14h-63q0 27 0.5 42t3.5 38t8.5 36.5t17 29.5t27.5 24.5t40 14.5t56 6q82 0 116 -38t34 -123q0 -80 -21 -116t-77 -57z" />
    <glyph glyph-name="Japan1.8107" 
d="M381 336l-73 -28q-45 -17 -59 -43t-14 -107h242v-62h-305q0 80 3 122.5t16.5 72.5t32.5 42.5t58 28.5l63 25q27 11 38.5 18.5t21.5 30.5t10 62q0 60 -17.5 85t-70.5 25q-56 0 -72.5 -27t-16.5 -88v-14h-63q0 27 0.5 42t3.5 38t8.5 36.5t17 29.5t27.5 24.5t40 14.5t56 6
q83 0 117 -38t34 -123q0 -80 -21 -116t-77 -57zM504 664h329v-69l-190 -499h-72l200 506h-267v62zM500 854q128 0 237 -62.5t173 -172t64 -239.5q0 -196 -139 -335t-335 -139t-335 139t-139 335q0 130 64 239.5t173 172t237 62.5zM500 819q-181 0 -310 -128t-129 -311
q0 -119 59 -220t160 -160t220 -59q182 0 310.5 128.5t128.5 310.5q0 183 -129 311t-310 128z" />
    <glyph glyph-name="Japan1.8108" 
d="M747 391q15 -4 24.5 -9t24.5 -19.5t23 -44.5t8 -73q0 -80 -37.5 -117.5t-118.5 -37.5q-87 0 -121.5 41t-34.5 116q0 43 8.5 72.5t24 43.5t24.5 19t24 9q-13 5 -21.5 10t-22.5 18t-21.5 38t-7.5 59q0 50 12.5 82.5t36.5 47t47 19.5t55 5q69 0 107 -33.5t38 -120.5
q0 -34 -7.5 -59t-22 -38t-22 -18t-20.5 -10zM671 608q-52 0 -69 -25t-17 -71q0 -18 2 -30.5t10 -28t26.5 -23.5t47.5 -8q30 0 48.5 8t26 24t9.5 28t2 31q0 45 -17 70t-69 25zM671 360q-56 0 -74 -27t-18 -83q0 -46 18 -72t74 -26q31 0 51 8t28.5 24.5t11 31t2.5 37.5
q0 56 -19.5 81.5t-73.5 25.5zM500 854q128 0 237 -62.5t173 -172t64 -239.5q0 -196 -139 -335t-335 -139t-335 139t-139 335q0 130 64 239.5t173 172t237 62.5zM500 819q-181 0 -310 -128t-129 -311q0 -119 59 -220t160 -160t220 -59q182 0 310.5 128.5t128.5 310.5
q0 183 -129 311t-310 128zM383 336l-73 -28q-31 -12 -44.5 -24t-20.5 -41t-7 -85h241v-62h-304q-1 105 7.5 153t29.5 70t72 43l63 25q21 8 30 13t20.5 17t16 31.5t4.5 49.5q0 60 -18 85t-71 25q-55 0 -71.5 -27t-16.5 -88v-14h-63q0 27 0.5 42t3.5 38t8.5 36.5t17 29.5
t27.5 24.5t40 14.5t56 6q82 0 116 -38t34 -123q0 -80 -21 -116t-77 -57z" />
    <glyph glyph-name="Japan1.8109" 
d="M522 245h64q-1 -50 16 -72t68 -22q40 0 58.5 15.5t26 57t8.5 128.5q-39 -45 -108 -45q-45 0 -74.5 15.5t-42 44t-17 54t-4.5 60.5q0 31 1 50.5t9 49t22.5 46.5t44 30t71.5 13q46 0 76 -11.5t47 -29t25.5 -55.5t10.5 -72.5t2 -98.5q0 -55 -1 -89.5t-4.5 -71.5t-10 -58
t-18 -41.5t-28.5 -30.5t-40.5 -16t-55.5 -6q-39 0 -67 10.5t-43 25.5t-23.5 38t-10.5 40.5t-2 40.5zM383 336l-73 -28q-31 -12 -44.5 -24t-20.5 -41t-7 -85h241v-62h-304q-1 105 7.5 153t29.5 70t72 43l63 25q21 8 30 13t20.5 17t16 31.5t4.5 49.5q0 60 -18 85t-71 25
q-55 0 -71.5 -27t-16.5 -88v-14h-63q0 27 0.5 42t3.5 38t8.5 36.5t17 29.5t27.5 24.5t40 14.5t56 6q82 0 116 -38t34 -123q0 -80 -21 -116t-77 -57zM671 367q52 0 70.5 31t18.5 98q0 68 -23 90.5t-68 22.5q-52 0 -70.5 -28t-18.5 -102q0 -65 21 -88.5t70 -23.5zM500 854
q128 0 237 -62.5t173 -172t64 -239.5q0 -196 -139 -335t-335 -139t-335 139t-139 335q0 130 64 239.5t173 172t237 62.5zM500 819q-181 0 -310 -128t-129 -311q0 -119 59 -220t160 -160t220 -59q182 0 310.5 128.5t128.5 310.5q0 183 -129 311t-310 128z" />
    <glyph glyph-name="Japan1.8110" 
d="M500 854q128 0 237 -62.5t173 -172t64 -239.5q0 -196 -139 -335t-335 -139t-335 139t-139 335q0 130 64 239.5t173 172t237 62.5zM500 819q-181 0 -310 -128t-129 -311q0 -119 59 -220t160 -160t220 -59q182 0 310.5 128.5t128.5 310.5q0 183 -129 311t-310 128zM521 380
q0 70 3 113t12 80.5t26.5 56.5t45.5 29.5t71 10.5t71 -10.5t45.5 -29t26.5 -56t12 -81t3 -113.5t-3 -113.5t-12 -81t-26.5 -56t-45.5 -29t-71 -10.5t-71 10.5t-45.5 29t-26.5 56t-12 81t-3 113.5zM585 380q0 -145 16.5 -186.5t79.5 -41.5q60 0 76 43t16 185
q0 145 -16.5 186.5t-78.5 41.5q-61 0 -77 -43t-16 -185zM173 277h64q-2 -71 13 -98t77 -27q49 0 69.5 23.5t20.5 81.5q0 37 -8 59.5t-26 31t-32 10.5t-41 2h-39v59h44q57 0 78 16t21 78q0 46 -17 70.5t-68 24.5q-32 0 -51 -8t-26.5 -26.5t-9.5 -33.5t-2 -44h-64
q0 39 4.5 65.5t18.5 53.5t45.5 41t80.5 14q79 0 115.5 -36t36.5 -116q0 -50 -16 -82t-58 -45q17 -6 26 -10.5t23.5 -19t21.5 -42t7 -68.5q0 -89 -38.5 -125t-114.5 -36q-53 0 -86.5 13.5t-47.5 42.5t-18 57t-3 74z" />
    <glyph glyph-name="Japan1.8111" 
d="M500 854q128 0 237 -62.5t173 -172t64 -239.5q0 -196 -139 -335t-335 -139t-335 139t-139 335q0 130 64 239.5t173 172t237 62.5zM500 819q-181 0 -310 -128t-129 -311q0 -119 59 -220t160 -160t220 -59q182 0 310.5 128.5t128.5 310.5q0 183 -129 311t-310 128zM193 277
h64q-2 -71 13 -98t77 -27q49 0 69.5 23.5t20.5 81.5q0 37 -8 59.5t-26 31t-32 10.5t-41 2h-39v59h44q57 0 78 16t21 78q0 46 -17 70.5t-68 24.5q-32 0 -51 -8t-26.5 -26.5t-9.5 -33.5t-2 -44h-64q0 39 4.5 65.5t18.5 53.5t45.5 41t80.5 14q79 0 115.5 -36t36.5 -116
q0 -50 -16 -82t-58 -45q17 -6 26 -10.5t23.5 -19t21.5 -42t7 -68.5q0 -89 -38.5 -125t-114.5 -36q-53 0 -86.5 13.5t-47.5 42.5t-18 57t-3 74zM585 664h170v-568h-65v506h-105v62z" />
    <glyph glyph-name="Japan1.8112" 
d="M735 480v-254q0 -70 15 -108h-83q-7 26 -9 66q-22 -38 -62 -54t-132 -16q-34 0 -55 1t-54.5 9.5t-53 23.5t-34.5 46t-15 75q0 84 46 120t112 39l189 7q15 0 22 1.5t16.5 6.5t13.5 17t4 32q0 48 -32.5 64t-120.5 16q-78 0 -110 -17t-34 -71h-86q1 87 57 125.5t171 38.5
q77 0 126 -12t71.5 -37t30 -51.5t7.5 -67.5zM655 315v69q-16 -20 -53 -20l-164 -6q-34 -1 -56 -9.5t-31.5 -23t-12.5 -27t-3 -30.5q0 -47 36 -63.5t103 -16.5q26 0 45.5 1.5t46.5 9t45 20t31 37.5t13 59zM192 857h42q-81 -100 -124.5 -223.5t-43.5 -253.5
q0 -131 43.5 -254.5t124.5 -222.5h-42q-59 69 -97.5 150t-52 154.5t-17 108t-3.5 64.5t3.5 64.5t17 108t52 154.5t97.5 150zM766 857h42q59 -69 97.5 -150t52 -154.5t17 -108t3.5 -64.5t-3.5 -64.5t-17 -108t-52 -154.5t-97.5 -150h-42q81 99 124.5 222.5t43.5 254.5
q0 130 -43.5 253.5t-124.5 223.5z" />
    <glyph glyph-name="Japan1.8113" 
d="M276 739h84v-231q28 36 67 50t103 14q129 0 178 -65.5t49 -200.5q0 -63 -8.5 -107t-32 -83t-70 -58t-116.5 -19q-74 0 -111 18t-61 49l-5 -58h-77v691zM515 498q-89 0 -122 -44t-33 -150t34.5 -148t121.5 -42q53 0 85.5 13t47 42.5t18.5 58t4 78.5t-4.5 79.5t-19.5 58
t-47.5 41.5t-84.5 13zM192 857h42q-81 -100 -124.5 -223.5t-43.5 -253.5q0 -131 43.5 -254.5t124.5 -222.5h-42q-59 69 -97.5 150t-52 154.5t-17 108t-3.5 64.5t3.5 64.5t17 108t52 154.5t97.5 150zM766 857h42q59 -69 97.5 -150t52 -154.5t17 -108t3.5 -64.5t-3.5 -64.5
t-17 -108t-52 -154.5t-97.5 -150h-42q81 99 124.5 222.5t43.5 254.5q0 130 -43.5 253.5t-124.5 223.5z" />
    <glyph glyph-name="Japan1.8114" 
d="M192 857h42q-81 -100 -124.5 -223.5t-43.5 -253.5q0 -131 43.5 -254.5t124.5 -222.5h-42q-59 69 -97.5 150t-52 154.5t-17 108t-3.5 64.5t3.5 64.5t17 108t52 154.5t97.5 150zM766 857h42q59 -69 97.5 -150t52 -154.5t17 -108t3.5 -64.5t-3.5 -64.5t-17 -108t-52 -154.5
t-97.5 -150h-42q81 99 124.5 222.5t43.5 254.5q0 130 -43.5 253.5t-124.5 223.5zM738 456h-84q-1 30 -9.5 51t-21.5 32.5t-34.5 18t-41.5 8.5t-49 2q-47 0 -73.5 -5t-50.5 -23.5t-34 -56.5t-10 -100q0 -110 33 -150t133 -40q85 0 122.5 22.5t40.5 98.5h84
q-4 -113 -59.5 -156.5t-179.5 -43.5q-145 0 -202.5 56.5t-57.5 210.5q0 149 55 207.5t199 58.5q22 0 36 -0.5t42.5 -4t47.5 -10.5t43 -21t38 -33.5t24 -51t9 -70.5z" />
    <glyph glyph-name="Japan1.8115" 
d="M636 739h84v-691h-77l-6 58q-15 -20 -31 -32.5t-53 -23.5t-89 -11q-122 0 -173.5 64t-51.5 205q0 142 53.5 203t173.5 61q74 0 110.5 -17t59.5 -48v232zM480 498q-36 0 -62.5 -6t-43.5 -20.5t-27 -29.5t-14.5 -41t-6 -47.5t-1.5 -55.5q0 -48 5 -77.5t20.5 -56t47.5 -38.5
t83 -12q50 0 82 13.5t47.5 42t20.5 59.5t5 78q0 103 -33.5 147t-122.5 44zM192 857h42q-81 -100 -124.5 -223.5t-43.5 -253.5q0 -131 43.5 -254.5t124.5 -222.5h-42q-59 69 -97.5 150t-52 154.5t-17 108t-3.5 64.5t3.5 64.5t17 108t52 154.5t97.5 150zM766 857h42
q59 -69 97.5 -150t52 -154.5t17 -108t3.5 -64.5t-3.5 -64.5t-17 -108t-52 -154.5t-97.5 -150h-42q81 99 124.5 222.5t43.5 254.5q0 130 -43.5 253.5t-124.5 223.5z" />
    <glyph glyph-name="Japan1.8116" 
d="M746 355h-414q0 -46 4.5 -70t20.5 -48.5t52 -34.5t97 -10t92.5 10t43.5 29t16 56h88q-7 -89 -62.5 -131t-173.5 -42q-80 0 -132 15.5t-80.5 49.5t-39.5 79.5t-11 114.5q0 49 3 80t16.5 72t39 65t74 41t117.5 17q45 0 81 -5.5t61.5 -18.5t44 -26.5t30 -35.5t18.5 -40
t10 -46.5t3.5 -47.5t0.5 -50v-23zM332 424h327q-1 23 -2.5 34.5t-5 30.5t-10 28.5t-18 21.5t-27.5 18t-40.5 10t-56.5 4q-89 0 -126 -31t-41 -116zM192 857h42q-81 -100 -124.5 -223.5t-43.5 -253.5q0 -131 43.5 -254.5t124.5 -222.5h-42q-59 69 -97.5 150t-52 154.5
t-17 108t-3.5 64.5t3.5 64.5t17 108t52 154.5t97.5 150zM766 857h42q59 -69 97.5 -150t52 -154.5t17 -108t3.5 -64.5t-3.5 -64.5t-17 -108t-52 -154.5t-97.5 -150h-42q81 99 124.5 222.5t43.5 254.5q0 130 -43.5 253.5t-124.5 223.5z" />
    <glyph glyph-name="Japan1.8117" 
d="M438 544v35q0 92 55 120.5t171 23.5v-75q-68 4 -103.5 -8.5t-35.5 -57.5v-38h139v-79h-139v-441h-87v441h-103v79h103zM192 857h42q-81 -100 -124.5 -223.5t-43.5 -253.5q0 -131 43.5 -254.5t124.5 -222.5h-42q-59 69 -97.5 150t-52 154.5t-17 108t-3.5 64.5t3.5 64.5
t17 108t52 154.5t97.5 150zM766 857h42q59 -69 97.5 -150t52 -154.5t17 -108t3.5 -64.5t-3.5 -64.5t-17 -108t-52 -154.5t-97.5 -150h-42q81 99 124.5 222.5t43.5 254.5q0 130 -43.5 253.5t-124.5 223.5z" />
    <glyph glyph-name="Japan1.8118" 
d="M796 721v-70q-39 -2 -54.5 -7.5t-25.5 -24.5q18 -30 18 -67q0 -95 -54.5 -128t-170.5 -33q-126 0 -175 27q-34 -20 -34 -42q0 -34 53 -38l274 -18q49 -3 80.5 -16.5t44 -35t16.5 -38t4 -38.5q0 -81 -58.5 -112.5t-215.5 -31.5q-147 0 -214.5 27t-67.5 103q0 32 12.5 55.5
t22.5 30.5t27 16q-29 9 -42.5 31.5t-13.5 48.5q0 39 20 62.5t49 26.5q-32 35 -32 103q0 79 54.5 115t186.5 36t172 -34q9 15 17.5 23.5t36.5 18.5t70 10zM497 630q-86 0 -121.5 -17t-35.5 -71q0 -47 37.5 -62t120.5 -15q85 0 119.5 16t34.5 68q0 48 -33.5 64.5t-121.5 16.5z
M567 255l-198 12q-74 -13 -74 -72q0 -28 13.5 -42.5t60 -22.5t139.5 -8q105 0 143.5 16t38.5 53q0 30 -24.5 45t-98.5 19zM192 857h42q-81 -100 -124.5 -223.5t-43.5 -253.5q0 -131 43.5 -254.5t124.5 -222.5h-42q-59 69 -97.5 150t-52 154.5t-17 108t-3.5 64.5t3.5 64.5
t17 108t52 154.5t97.5 150zM766 857h42q59 -69 97.5 -150t52 -154.5t17 -108t3.5 -64.5t-3.5 -64.5t-17 -108t-52 -154.5t-97.5 -150h-42q81 99 124.5 222.5t43.5 254.5q0 130 -43.5 253.5t-124.5 223.5z" />
    <glyph glyph-name="Japan1.8119" 
d="M192 857h42q-81 -100 -124.5 -223.5t-43.5 -253.5q0 -131 43.5 -254.5t124.5 -222.5h-42q-59 69 -97.5 150t-52 154.5t-17 108t-3.5 64.5t3.5 64.5t17 108t52 154.5t97.5 150zM766 857h42q59 -69 97.5 -150t52 -154.5t17 -108t3.5 -64.5t-3.5 -64.5t-17 -108t-52 -154.5
t-97.5 -150h-42q81 99 124.5 222.5t43.5 254.5q0 130 -43.5 253.5t-124.5 223.5zM262 736h85v-238q51 72 182 72q201 0 201 -178v-349h-85v332q0 17 -1 27.5t-8.5 30t-21.5 31t-43 20.5t-70 9q-88 0 -121 -39t-33 -111v-300h-85v693z" />
    <glyph glyph-name="Japan1.8120" 
d="M192 857h42q-81 -100 -124.5 -223.5t-43.5 -253.5q0 -131 43.5 -254.5t124.5 -222.5h-42q-59 69 -97.5 150t-52 154.5t-17 108t-3.5 64.5t3.5 64.5t17 108t52 154.5t97.5 150zM766 857h42q59 -69 97.5 -150t52 -154.5t17 -108t3.5 -64.5t-3.5 -64.5t-17 -108t-52 -154.5
t-97.5 -150h-42q81 99 124.5 222.5t43.5 254.5q0 130 -43.5 253.5t-124.5 223.5zM458 552h84v-518h-84v518zM450 727h100v-100h-100v100z" />
    <glyph glyph-name="Japan1.8121" 
d="M192 857h42q-81 -100 -124.5 -223.5t-43.5 -253.5q0 -131 43.5 -254.5t124.5 -222.5h-42q-59 69 -97.5 150t-52 154.5t-17 108t-3.5 64.5t3.5 64.5t17 108t52 154.5t97.5 150zM766 857h42q59 -69 97.5 -150t52 -154.5t17 -108t3.5 -64.5t-3.5 -64.5t-17 -108t-52 -154.5
t-97.5 -150h-42q81 99 124.5 222.5t43.5 254.5q0 130 -43.5 253.5t-124.5 223.5zM474 762h101v-100h-101v100zM482 583h85v-484q0 -33 -7 -57t-22 -38t-29.5 -22.5t-40 -11.5t-40.5 -3.5t-44 -0.5v78q29 0 41.5 0.5t28.5 6.5t22 21t6 41v470z" />
    <glyph glyph-name="Japan1.8122" 
d="M392 321l230 232h110l-250 -241l278 -278h-111l-257 269v-269h-85v692h85v-405zM192 857h42q-81 -100 -124.5 -223.5t-43.5 -253.5q0 -131 43.5 -254.5t124.5 -222.5h-42q-59 69 -97.5 150t-52 154.5t-17 108t-3.5 64.5t3.5 64.5t17 108t52 154.5t97.5 150zM766 857h42
q59 -69 97.5 -150t52 -154.5t17 -108t3.5 -64.5t-3.5 -64.5t-17 -108t-52 -154.5t-97.5 -150h-42q81 99 124.5 222.5t43.5 254.5q0 130 -43.5 253.5t-124.5 223.5z" />
    <glyph glyph-name="Japan1.8123" 
d="M458 726h84v-692h-84v692zM192 857h42q-81 -100 -124.5 -223.5t-43.5 -253.5q0 -131 43.5 -254.5t124.5 -222.5h-42q-59 69 -97.5 150t-52 154.5t-17 108t-3.5 64.5t3.5 64.5t17 108t52 154.5t97.5 150zM766 857h42q59 -69 97.5 -150t52 -154.5t17 -108t3.5 -64.5
t-3.5 -64.5t-17 -108t-52 -154.5t-97.5 -150h-42q81 99 124.5 222.5t43.5 254.5q0 130 -43.5 253.5t-124.5 223.5z" />
    <glyph glyph-name="Japan1.8124" 
d="M164 636h81l3 -57q58 64 144 64q9 0 20.5 -1.5t34.5 -8t44.5 -24.5t35.5 -45q24 44 69.5 61.5t85.5 17.5q63 0 108.5 -36.5t45.5 -124.5v-365h-84v343q0 107 -88 107q-34 0 -58.5 -10.5t-36.5 -23.5t-18 -32.5t-7 -29t-1 -22.5v-332h-84v333q0 117 -89 117q-9 0 -18 -0.5
t-30 -6.5t-35.5 -17t-26.5 -34t-12 -54v-338h-84v519zM192 857h42q-81 -100 -124.5 -223.5t-43.5 -253.5q0 -131 43.5 -254.5t124.5 -222.5h-42q-59 69 -97.5 150t-52 154.5t-17 108t-3.5 64.5t3.5 64.5t17 108t52 154.5t97.5 150zM766 857h42q59 -69 97.5 -150t52 -154.5
t17 -108t3.5 -64.5t-3.5 -64.5t-17 -108t-52 -154.5t-97.5 -150h-42q81 99 124.5 222.5t43.5 254.5q0 130 -43.5 253.5t-124.5 223.5z" />
    <glyph glyph-name="Japan1.8125" 
d="M289 636h81l4 -65q49 72 175 72q198 0 198 -174v-352h-85v333q0 18 -1 29t-8 30t-20.5 30t-41.5 19.5t-68 8.5t-69.5 -10.5t-44.5 -25t-23 -37.5t-10 -39.5t-2 -38.5v-299h-85v519zM192 857h42q-81 -100 -124.5 -223.5t-43.5 -253.5q0 -131 43.5 -254.5t124.5 -222.5h-42
q-59 69 -97.5 150t-52 154.5t-17 108t-3.5 64.5t3.5 64.5t17 108t52 154.5t97.5 150zM766 857h42q59 -69 97.5 -150t52 -154.5t17 -108t3.5 -64.5t-3.5 -64.5t-17 -108t-52 -154.5t-97.5 -150h-42q81 99 124.5 222.5t43.5 254.5q0 130 -43.5 253.5t-124.5 223.5z" />
    <glyph glyph-name="Japan1.8126" 
d="M251 380q0 75 9 121t35.5 81.5t76 50t128.5 14.5q57 0 98.5 -7.5t68.5 -25t43.5 -38.5t25 -56t11 -68t2.5 -84q0 -145 -53 -200t-196 -55q-81 0 -131 15.5t-75.5 52t-34 81t-8.5 118.5zM664 380q0 57 -4.5 87.5t-21.5 56t-49.5 34.5t-88.5 9q-47 0 -77.5 -8t-48 -20.5
t-26 -40.5t-10.5 -54t-2 -76q0 -103 31.5 -139t132.5 -36q57 0 90 9.5t49 35.5t20.5 56t4.5 86zM192 857h42q-81 -100 -124.5 -223.5t-43.5 -253.5q0 -131 43.5 -254.5t124.5 -222.5h-42q-59 69 -97.5 150t-52 154.5t-17 108t-3.5 64.5t3.5 64.5t17 108t52 154.5t97.5 150z
M766 857h42q59 -69 97.5 -150t52 -154.5t17 -108t3.5 -64.5t-3.5 -64.5t-17 -108t-52 -154.5t-97.5 -150h-42q81 99 124.5 222.5t43.5 254.5q0 130 -43.5 253.5t-124.5 223.5z" />
    <glyph glyph-name="Japan1.8127" 
d="M285 698h81l2 -60q11 14 19.5 22.5t28 21t51.5 18.5t76 6q123 0 171.5 -61.5t48.5 -200.5q0 -135 -52.5 -193t-164.5 -58q-58 0 -98 13t-52.5 24.5t-26.5 30.5v-200h-84v637zM523 631q-87 0 -120 -44.5t-33 -137.5q0 -57 11.5 -94.5t34.5 -55.5t48 -24.5t61 -6.5
q91 0 121.5 42.5t30.5 134.5q0 105 -32.5 145.5t-121.5 40.5zM192 857h42q-81 -100 -124.5 -223.5t-43.5 -253.5q0 -131 43.5 -254.5t124.5 -222.5h-42q-59 69 -97.5 150t-52 154.5t-17 108t-3.5 64.5t3.5 64.5t17 108t52 154.5t97.5 150zM766 857h42q59 -69 97.5 -150
t52 -154.5t17 -108t3.5 -64.5t-3.5 -64.5t-17 -108t-52 -154.5t-97.5 -150h-42q81 99 124.5 222.5t43.5 254.5q0 130 -43.5 253.5t-124.5 223.5z" />
    <glyph glyph-name="Japan1.8128" 
d="M635 698h81v-637h-84v200q-12 -17 -24.5 -28.5t-49.5 -24.5t-89 -13q-54 0 -90.5 8t-71.5 32t-52.5 76t-17.5 133q0 141 49 200.5t173 59.5q79 0 114.5 -17t59.5 -49zM478 628q-88 0 -121.5 -39.5t-33.5 -143.5q0 -97 33.5 -136t121.5 -39q79 0 116 39.5t37 139.5
q0 96 -35.5 137.5t-117.5 41.5zM192 857h42q-81 -100 -124.5 -223.5t-43.5 -253.5q0 -131 43.5 -254.5t124.5 -222.5h-42q-59 69 -97.5 150t-52 154.5t-17 108t-3.5 64.5t3.5 64.5t17 108t52 154.5t97.5 150zM766 857h42q59 -69 97.5 -150t52 -154.5t17 -108t3.5 -64.5
t-3.5 -64.5t-17 -108t-52 -154.5t-97.5 -150h-42q81 99 124.5 222.5t43.5 254.5q0 130 -43.5 253.5t-124.5 223.5z" />
    <glyph glyph-name="Japan1.8129" 
d="M409 635h80l3 -56q31 41 76.5 53t118.5 10v-80q-76 2 -99 -4q-44 -12 -69 -42t-25 -75v-325h-85v519zM192 857h42q-81 -100 -124.5 -223.5t-43.5 -253.5q0 -131 43.5 -254.5t124.5 -222.5h-42q-59 69 -97.5 150t-52 154.5t-17 108t-3.5 64.5t3.5 64.5t17 108t52 154.5
t97.5 150zM766 857h42q59 -69 97.5 -150t52 -154.5t17 -108t3.5 -64.5t-3.5 -64.5t-17 -108t-52 -154.5t-97.5 -150h-42q81 99 124.5 222.5t43.5 254.5q0 130 -43.5 253.5t-124.5 223.5z" />
    <glyph glyph-name="Japan1.8130" 
d="M723 489h-85q0 16 -2.5 26t-13.5 25.5t-40 23.5t-75 8q-88 0 -122.5 -16t-34.5 -64q0 -32 17.5 -45t62.5 -18l178 -19q62 -7 97 -38t35 -101q0 -43 -16 -74t-38 -47t-57.5 -24.5t-62 -10.5t-63.5 -2q-77 0 -126.5 12t-74 37.5t-33 54.5t-9.5 74h85q0 -28 3 -41.5
t17.5 -30.5t51.5 -24t98 -7q82 0 111.5 21t29.5 61q0 39 -19.5 52t-66.5 18l-176 19q-123 14 -123 129q0 38 11 67t32.5 45.5t41.5 26.5t50.5 14t46 5t40.5 1q61 0 105 -9.5t67.5 -23t37 -36.5t17 -42t3.5 -47zM192 857h42q-81 -100 -124.5 -223.5t-43.5 -253.5
q0 -131 43.5 -254.5t124.5 -222.5h-42q-59 69 -97.5 150t-52 154.5t-17 108t-3.5 64.5t3.5 64.5t17 108t52 154.5t97.5 150zM766 857h42q59 -69 97.5 -150t52 -154.5t17 -108t3.5 -64.5t-3.5 -64.5t-17 -108t-52 -154.5t-97.5 -150h-42q81 99 124.5 222.5t43.5 254.5
q0 130 -43.5 253.5t-124.5 223.5z" />
    <glyph glyph-name="Japan1.8131" 
d="M421 580v124h85v-124h145v-78h-145v-284q0 -26 2 -38t11.5 -25t32 -17.5t61.5 -4.5q33 0 56 3v-80q-42 -3 -62 -3q-111 0 -148.5 32t-37.5 105v312h-120v78h120zM192 857h42q-81 -100 -124.5 -223.5t-43.5 -253.5q0 -131 43.5 -254.5t124.5 -222.5h-42q-59 69 -97.5 150
t-52 154.5t-17 108t-3.5 64.5t3.5 64.5t17 108t52 154.5t97.5 150zM766 857h42q59 -69 97.5 -150t52 -154.5t17 -108t3.5 -64.5t-3.5 -64.5t-17 -108t-52 -154.5t-97.5 -150h-42q81 99 124.5 222.5t43.5 254.5q0 130 -43.5 253.5t-124.5 223.5z" />
    <glyph glyph-name="Japan1.8132" 
d="M271 640h85v-332q0 -18 1 -29t8 -30.5t20.5 -30t41.5 -19.5t67 -9q78 0 114 36t36 111v303h85v-520h-81l-4 65q-49 -72 -173 -72q-200 0 -200 176v351zM192 857h42q-81 -100 -124.5 -223.5t-43.5 -253.5q0 -131 43.5 -254.5t124.5 -222.5h-42q-59 69 -97.5 150t-52 154.5
t-17 108t-3.5 64.5t3.5 64.5t17 108t52 154.5t97.5 150zM766 857h42q59 -69 97.5 -150t52 -154.5t17 -108t3.5 -64.5t-3.5 -64.5t-17 -108t-52 -154.5t-97.5 -150h-42q81 99 124.5 222.5t43.5 254.5q0 130 -43.5 253.5t-124.5 223.5z" />
    <glyph glyph-name="Japan1.8133" 
d="M744 630l-190 -519h-108l-190 519h94l150 -444l151 444h93zM192 857h42q-81 -100 -124.5 -223.5t-43.5 -253.5q0 -131 43.5 -254.5t124.5 -222.5h-42q-59 69 -97.5 150t-52 154.5t-17 108t-3.5 64.5t3.5 64.5t17 108t52 154.5t97.5 150zM766 857h42q59 -69 97.5 -150
t52 -154.5t17 -108t3.5 -64.5t-3.5 -64.5t-17 -108t-52 -154.5t-97.5 -150h-42q81 99 124.5 222.5t43.5 254.5q0 130 -43.5 253.5t-124.5 223.5z" />
    <glyph glyph-name="Japan1.8134" 
d="M500 553l-102 -447h-123l-139 519h88l114 -452l103 452h118l103 -452l114 452h88l-139 -519h-123zM192 857h42q-81 -100 -124.5 -223.5t-43.5 -253.5q0 -131 43.5 -254.5t124.5 -222.5h-42q-59 69 -97.5 150t-52 154.5t-17 108t-3.5 64.5t3.5 64.5t17 108t52 154.5
t97.5 150zM766 857h42q59 -69 97.5 -150t52 -154.5t17 -108t3.5 -64.5t-3.5 -64.5t-17 -108t-52 -154.5t-97.5 -150h-42q81 99 124.5 222.5t43.5 254.5q0 130 -43.5 253.5t-124.5 223.5z" />
    <glyph glyph-name="Japan1.8135" 
d="M638 121l-138 233l-138 -233h-103l177 274l-161 244h102l123 -206l123 206h102l-161 -244l178 -274h-104zM192 857h42q-81 -100 -124.5 -223.5t-43.5 -253.5q0 -131 43.5 -254.5t124.5 -222.5h-42q-59 69 -97.5 150t-52 154.5t-17 108t-3.5 64.5t3.5 64.5t17 108
t52 154.5t97.5 150zM766 857h42q59 -69 97.5 -150t52 -154.5t17 -108t3.5 -64.5t-3.5 -64.5t-17 -108t-52 -154.5t-97.5 -150h-42q81 99 124.5 222.5t43.5 254.5q0 130 -43.5 253.5t-124.5 223.5z" />
    <glyph glyph-name="Japan1.8136" 
d="M259 685h94l155 -408l139 408h94l-200 -521q-27 -69 -64 -92.5t-100 -23.5q-42 0 -75 6v76q52 -6 76 -6q58 0 82 53l7 15zM192 857h42q-81 -100 -124.5 -223.5t-43.5 -253.5q0 -131 43.5 -254.5t124.5 -222.5h-42q-59 69 -97.5 150t-52 154.5t-17 108t-3.5 64.5t3.5 64.5
t17 108t52 154.5t97.5 150zM766 857h42q59 -69 97.5 -150t52 -154.5t17 -108t3.5 -64.5t-3.5 -64.5t-17 -108t-52 -154.5t-97.5 -150h-42q81 99 124.5 222.5t43.5 254.5q0 130 -43.5 253.5t-124.5 223.5z" />
    <glyph glyph-name="Japan1.8137" 
d="M286 639h436v-73l-328 -371h329v-74h-446v73l328 371h-319v74zM192 857h42q-81 -100 -124.5 -223.5t-43.5 -253.5q0 -131 43.5 -254.5t124.5 -222.5h-42q-59 69 -97.5 150t-52 154.5t-17 108t-3.5 64.5t3.5 64.5t17 108t52 154.5t97.5 150zM766 857h42q59 -69 97.5 -150
t52 -154.5t17 -108t3.5 -64.5t-3.5 -64.5t-17 -108t-52 -154.5t-97.5 -150h-42q81 99 124.5 222.5t43.5 254.5q0 130 -43.5 253.5t-124.5 223.5z" />
    <glyph glyph-name="Japan1.8184" 
d="M810 821l26 -21l-645 -861l-27 20zM187 803h144v-416h-69v350h-75v66zM789 123l-112 -21q-24 -4 -35.5 -18.5t-13 -28t-1.5 -41.5h252v-60h-321v85q0 104 96 122l110 21q48 9 48 64q0 35 -18.5 52.5t-67.5 17.5t-71 -13.5t-22 -48.5v-28h-71q0 21 0.5 31.5t3.5 30t9 29.5
t17 24t27.5 21t42 12t57.5 5q94 0 128.5 -31.5t34.5 -97.5q0 -65 -22 -91.5t-71 -35.5z" />
    <glyph glyph-name="Japan1.8185" 
d="M739 371h93v-270h59v-63h-59v-86h-67v86h-229v80zM765 101v207l-162 -207h162zM810 821l26 -21l-645 -861l-27 20zM187 803h144v-416h-69v350h-75v66z" />
    <glyph glyph-name="Japan1.8224" 
d="M337 380q0 72 3 116.5t12.5 83t27.5 58t47 30t73 10.5t73 -10.5t47 -29.5t27.5 -58t12.5 -83t3 -117t-3 -117t-12.5 -83t-27.5 -58t-47 -29.5t-73 -10.5t-73 10.5t-47 29.5t-27.5 58t-12.5 83t-3 117zM597 380q0 150 -17 192.5t-82 42.5q-62 0 -78.5 -44t-16.5 -191
q0 -150 17 -192.5t82 -42.5q62 0 78.5 44t16.5 191zM500 854q128 0 237 -62.5t173 -172t64 -239.5q0 -196 -139 -335t-335 -139t-335 139t-139 335q0 130 64 239.5t173 172t237 62.5zM500 819q-181 0 -310 -128t-129 -311q0 -119 59 -220t160 -160t220 -59
q182 0 310.5 128.5t128.5 310.5q0 183 -129 311t-310 128z" />
    <glyph glyph-name="Japan1.8225" 
d="M478 788h437v-80h-72v-628h73v-80h-421v80h73l-153 270l-148 -270h71v-80h-254v80h78l185 322l-173 306h-77v80h254v-80h-72l135 -251l133 251h-69v80zM750 708h-97l-172 -305l192 -323h77v628z" />
    <glyph glyph-name="Japan1.8226" 
d="M481 80l-143 245l-143 -245h67v-80h-240v80h73l193 330l-173 298h-74v80h241v-80h-67l123 -212l124 212h-67v80h583v-80h-70v-628h70v-80h-564v80h67zM388 410l193 -330h53v628h-72zM818 708h-94v-628h94v628z" />
    <glyph glyph-name="Japan1.8227" 
d="M330 380q0 75 3.5 121.5t13 87t29 60.5t49.5 31t75 11t75 -11t49.5 -31t29 -60t13 -87t3.5 -122t-3.5 -122t-13 -87t-29 -60t-49.5 -31t-75 -11t-75 11t-49.5 31t-29 60t-13 87t-3.5 122zM601 380q0 153 -17.5 198.5t-83.5 45.5t-83.5 -45.5t-17.5 -198.5
q0 -154 17.5 -199.5t83.5 -45.5t83.5 45.5t17.5 199.5zM192 857h42q-81 -100 -124.5 -223.5t-43.5 -253.5q0 -131 43.5 -254.5t124.5 -222.5h-42q-59 69 -97.5 150t-52 154.5t-17 108t-3.5 64.5t3.5 64.5t17 108t52 154.5t97.5 150zM766 857h42q59 -69 97.5 -150t52 -154.5
t17 -108t3.5 -64.5t-3.5 -64.5t-17 -108t-52 -154.5t-97.5 -150h-42q81 99 124.5 222.5t43.5 254.5q0 130 -43.5 253.5t-124.5 223.5z" />
    <glyph glyph-name="Japan1.8228" 
d="M745 725l79 92l53 -43l-93 -108q39 -88 39 -276q0 -160 -31 -245t-98.5 -119t-193.5 -34q-84 0 -141 13.5t-97 50.5l-85 -99l-54 44l97 113q-43 87 -43 280q0 123 16 200.5t56.5 122.5t98.5 62t152 17q51 0 87 -3.5t82 -20t76 -47.5zM291 196l391 456q-21 31 -64 44.5
t-121 13.5q-48 0 -80.5 -5t-59 -19t-41.5 -35.5t-25 -59t-13.5 -84t-3.5 -115.5q0 -125 17 -196zM711 581l-388 -453q46 -50 176 -50q95 0 141 23t66 88t20 200q0 127 -15 192z" />
    <glyph glyph-name="Japan1.8286" 
d="M500 854q128 0 237 -62.5t173 -172t64 -239.5q0 -196 -139 -335t-335 -139t-335 139t-139 335q0 130 64 239.5t173 172t237 62.5zM548 681h-180v-66h111v-536h69v602z" />
    <glyph glyph-name="Japan1.8287" 
d="M500 854q128 0 237 -62.5t173 -172t64 -239.5q0 -196 -139 -335t-335 -139t-335 139t-139 335q0 130 64 239.5t173 172t237 62.5zM482 304l77 30q60 23 82 61.5t22 120.5q0 91 -36 131t-124 40q-45 0 -76.5 -11.5t-48 -27.5t-25.5 -45.5t-10.5 -54t-1.5 -63.5h67
q0 39 2 58.5t10.5 40.5t28.5 29.5t53 8.5q56 0 75 -26.5t19 -90.5q0 -42 -11 -66.5t-23.5 -32.5t-40.5 -19l-67 -26q-40 -16 -59.5 -28.5t-34.5 -43.5t-19 -78t-3 -132h323v66h-256q-1 84 14 112t63 47z" />
    <glyph glyph-name="Japan1.8288" 
d="M500 854q128 0 237 -62.5t173 -172t64 -239.5q0 -196 -139 -335t-335 -139t-335 139t-139 335q0 130 64 239.5t173 172t237 62.5zM404 271h-67q-1 -49 3.5 -80t20 -60.5t50.5 -43.5t91 -14q81 0 121 38.5t40 131.5q0 43 -8 73t-23 44.5t-25 20t-26 10.5q78 25 78 135
q0 85 -38.5 123t-122.5 38q-53 0 -86.5 -15t-48 -44.5t-19 -56.5t-4.5 -68h68q0 31 2 47t10 35.5t28.5 28t53.5 8.5q55 0 72.5 -26t17.5 -75q0 -65 -22 -82t-82 -17h-47v-63h42q29 0 43.5 -2t33.5 -11.5t27.5 -33t8.5 -62.5q0 -63 -22 -87.5t-74 -24.5q-35 0 -55.5 7.5
t-29 27.5t-10.5 39.5t-1 58.5z" />
    <glyph glyph-name="Japan1.8289" 
d="M500 854q128 0 237 -62.5t173 -172t64 -239.5q0 -196 -139 -335t-335 -139t-335 139t-139 335q0 130 64 239.5t173 172t237 62.5zM586 681h-96l-199 -389v-74h227v-139h68v139h54v64h-54v399zM355 282l164 324v-324h-164z" />
    <glyph glyph-name="Japan1.8290" 
d="M500 854q128 0 237 -62.5t173 -172t64 -239.5q0 -196 -139 -335t-335 -139t-335 139t-139 335q0 130 64 239.5t173 172t237 62.5zM652 681h-300l-7 -336h62q2 12 5 20.5t12 22t30 21t52 7.5q57 0 72.5 -32.5t15.5 -115.5q0 -74 -19 -102t-75 -28q-59 0 -77.5 26t-16.5 87
h-68q-1 -102 40 -140t123 -38q95 0 128.5 48t33.5 160q0 97 -29 147.5t-115 50.5q-30 0 -52.5 -7t-31 -12.5t-22.5 -17.5l5 173h234v66z" />
    <glyph glyph-name="Japan1.8291" 
d="M500 854q128 0 237 -62.5t173 -172t64 -239.5q0 -196 -139 -335t-335 -139t-335 139t-139 335q0 130 64 239.5t173 172t237 62.5zM591 523h67q4 164 -154 164q-47 0 -77.5 -12.5t-49 -33.5t-27 -66.5t-11 -91t-2.5 -127.5q0 -48 1 -76t4 -63t10 -53.5t19 -38.5
t30.5 -29.5t44.5 -16t61 -6.5q44 0 75 13.5t47 31.5t24 49t9.5 51.5t1.5 54.5q0 29 -2 50.5t-10.5 48t-23.5 44t-43.5 29.5t-67.5 12q-78 0 -114 -48q2 134 19.5 174t79.5 40q54 0 72 -23.5t17 -76.5zM501 394q52 0 74 -25.5t22 -93.5q0 -79 -19 -108.5t-74 -29.5
q-49 0 -73.5 24t-24.5 95q0 72 19.5 105t75.5 33z" />
    <glyph glyph-name="Japan1.8292" 
d="M500 854q128 0 237 -62.5t173 -172t64 -239.5q0 -196 -139 -335t-335 -139t-335 139t-139 335q0 130 64 239.5t173 172t237 62.5zM673 681h-349v-66h283l-212 -536h76l202 529v73z" />
    <glyph glyph-name="Japan1.8293" 
d="M500 854q128 0 237 -62.5t173 -172t64 -239.5q0 -196 -139 -335t-335 -139t-335 139t-139 335q0 130 64 239.5t173 172t237 62.5zM580 392q14 5 23 10.5t23.5 19.5t22.5 40t8 62q0 53 -13.5 87.5t-38.5 50t-49.5 20.5t-58.5 5q-74 0 -114 -35.5t-40 -127.5
q0 -105 77 -132q-12 -3 -19 -6t-21.5 -13.5t-23 -25.5t-15.5 -44t-7 -66q0 -85 40 -124.5t126 -39.5q92 0 129 43t37 123q0 130 -86 153zM500 138q-33 0 -54 8.5t-30 26t-11.5 33t-2.5 40.5q0 61 21.5 87t78.5 26q59 0 77.5 -29.5t18.5 -87.5q0 -49 -19 -76.5t-79 -27.5z
M500 424q-32 0 -52 9t-27.5 26.5t-9.5 29.5t-2 32q0 48 17.5 74.5t73.5 26.5q30 0 49.5 -8t28 -24t11 -31.5t2.5 -38.5q0 -19 -2 -32t-10 -30t-28 -25.5t-51 -8.5z" />
    <glyph glyph-name="Japan1.8294" 
d="M500 854q128 0 237 -62.5t173 -172t64 -239.5q0 -196 -139 -335t-335 -139t-335 139t-139 335q0 130 64 239.5t173 172t237 62.5zM408 237h-67q0 -34 5.5 -60t21 -51.5t47.5 -39t80 -13.5q30 0 52.5 4t40 14.5t29.5 22.5t20.5 35t13.5 44.5t7.5 58.5t3 69.5t0.5 84.5
q0 56 -1 87t-6.5 68t-16 56.5t-29.5 37.5t-47.5 25t-69.5 7q-44 0 -75 -13.5t-47 -31.5t-24 -49t-9.5 -52t-1.5 -54q0 -37 4.5 -64.5t18.5 -57.5t45 -46t79 -16q78 0 114 48q-1 -94 -10 -138.5t-28.5 -60t-60.5 -15.5q-54 0 -72 23t-17 77zM498 366q-53 0 -74.5 26t-21.5 95
q0 79 20 107.5t74 28.5q48 0 72.5 -23.5t24.5 -96.5q0 -71 -19.5 -104t-75.5 -33z" />
    <glyph glyph-name="Japan1.8295" 
d="M363 0v80h49l-125 245l-125 -245h48v-80h-192v80h54l170 333l-151 295h-54v80h193v-80h-49l106 -208l106 208h-49v80h638v-80h-56v-628h56v-80h-619zM696 708h-68v-628h68v628zM482 708l-150 -295l169 -333h47v628h-66zM845 708h-68v-628h68v628z" />
    <glyph glyph-name="Japan1.8296" 
d="M609 80v-80h-319v80h51l-91 230l-91 -230h51v-80h-192v80h54l135 338l-116 290h-54v80h193v-80h-52l72 -182l72 182h-52v80h463v-80h-51l80 -640l79 640h-51v80h192v-80h-54l-102 -708h-129l-102 708h-44v-628h58zM471 80v628h-62l-116 -290l135 -338h43z" />
    <glyph glyph-name="Japan1.8297" 
d="M485 80h54v-80h-192v80h49l-117 242l-117 -242h48v-80h-192v80h54l162 334l-143 294h-54v80h193v-80h-49l98 -202l98 202h-49v80h339v-80h-55l115 -615l114 615h-54v80h195v-80h-54l-138 -708h-126l-138 708h-60l-142 -294z" />
    <glyph glyph-name="Japan1.8298" 
d="M542 0l-143 264l-142 -264h-105l179 310l-159 279h101l126 -229l126 229h101l-159 -279l180 -310h-105zM692 788h106v-105h-106v105zM700 589h91v-589h-91v589z" />
    <glyph glyph-name="Japan1.8299" 
d="M437 589h96l-149 -279l169 -310h-101l-135 263l-135 -263h-101l170 310l-150 279h96l120 -228zM593 788h104v-105h-104v105zM601 589h88v-589h-88v589zM750 788h105v-105h-105v105zM759 589h88v-589h-88v589z" />
    <glyph glyph-name="Japan1.8300" 
d="M380 589h92l-131 -279l151 -310h-96l-118 263l-119 -263h-96l151 310l-131 279h92l103 -228zM519 788h95v-105h-95v105zM527 589h79v-589h-79v589zM649 788h95v-105h-95v105zM657 589h79v-589h-79v589zM779 788h95v-105h-95v105zM787 589h79v-589h-79v589z" />
    <glyph glyph-name="Japan1.8301" 
d="M959 589l-132 -589h-112l-133 589h89l100 -501l99 501h89zM319 589h90l-110 -279l131 -310h-95l-100 263l-99 -263h-95l131 310l-111 279h90l84 -228zM461 788h95v-105h-95v105zM469 589h79v-589h-79v589z" />
    <glyph glyph-name="Japan1.8302" 
d="M546 589h90l113 -506l113 506h89l-143 -589h-119zM403 589h95l-149 -279l169 -310h-99l-135 263l-135 -263h-100l169 310l-149 279h95l120 -228z" />
    <glyph glyph-name="Japan1.9780" 
d="M277 810q100 0 130 -41.5t30 -161.5q0 -56 -2.5 -87.5t-10.5 -62.5t-25.5 -45.5t-46.5 -23t-74 -8.5q-47 0 -75 7t-49.5 28.5t-30.5 63t-9 108.5q0 135 32 179t131 44zM275 749q-60 0 -76 -30.5t-16 -121.5q0 -93 17 -123t77 -30q59 0 74.5 28.5t15.5 132.5q0 92 -17 118
t-75 26zM810 821l26 -21l-645 -861l-27 20zM555 92h71q0 -23 1.5 -34t9 -24.5t25.5 -19t48 -5.5q62 0 85 14t23 53q0 67 -58 67h-71v59h70q9 0 18.5 3t20 16t10.5 34q0 36 -19.5 49t-65.5 13q-50 0 -70 -15t-19 -61h-71q0 32 5.5 54t21 42.5t47.5 31t82 10.5q25 0 42.5 -1
t41 -7.5t38.5 -17.5t25.5 -33t10.5 -53q0 -34 -9.5 -55t-19.5 -27t-27 -12q12 -3 20.5 -7t21 -14.5t19 -31.5t6.5 -50q0 -70 -43.5 -97t-118.5 -27q-54 0 -89 9.5t-52.5 30t-23.5 45t-6 61.5z" />
    <glyph glyph-name="Japan1.9781" 
d="M810 821l26 -21l-645 -861l-27 20zM187 803h144v-416h-69v350h-75v66zM557 92h71q0 -23 1.5 -34t9 -24.5t25.5 -19t48 -5.5q62 0 85 14t23 53q0 66 -58 66h-71v59h69q3 0 7 0.5t12.5 3t14.5 8t11 16.5t5 26q0 35 -18.5 48t-67.5 13q-50 0 -69.5 -14.5t-19.5 -60.5h-70
q0 68 31.5 103t124.5 35q25 0 42.5 -1.5t41 -7.5t38 -17.5t25 -33.5t10.5 -52q0 -34 -9.5 -55t-19 -27t-27.5 -12q14 -4 21 -7.5t20.5 -14.5t20 -31.5t6.5 -49.5q0 -125 -163 -125q-101 0 -136 35t-34 112z" />
    <glyph glyph-name="Japan1.9782" 
d="M810 821l26 -21l-645 -861l-27 20zM343 559l-112 -22q-18 -4 -29 -11.5t-15 -21t-4.5 -24t-0.5 -30.5h252v-61h-322v85q0 49 24 81t72 41l111 21q48 9 48 64q0 34 -18.5 52t-68.5 18q-48 0 -70 -13.5t-22 -48.5v-28h-71q0 24 1 37t5 34t14 33t26.5 24.5t44.5 18.5t65 6
q94 0 129 -31t35 -98q0 -65 -22 -90.5t-72 -35.5zM557 92h71q0 -23 1.5 -34t9 -24.5t25.5 -19t48 -5.5q62 0 85 14t23 53q0 66 -58 66h-71v59h69q3 0 7 0.5t12.5 3t14.5 8t11 16.5t5 26q0 35 -18.5 48t-67.5 13q-50 0 -69.5 -14.5t-19.5 -60.5h-70q0 68 31.5 103t124.5 35
q25 0 42.5 -1.5t41 -7.5t38 -17.5t25 -33.5t10.5 -52q0 -34 -9.5 -55t-19 -27t-27.5 -12q14 -4 21 -7.5t20.5 -14.5t20 -31.5t6.5 -49.5q0 -125 -163 -125q-101 0 -136 35t-34 112z" />
    <glyph glyph-name="Japan1.9783" 
d="M739 371h93v-270h59v-63h-59v-86h-67v86h-229v80zM765 101v207l-162 -207h162zM810 821l26 -21l-645 -861l-27 20zM114 524h71q0 -23 1.5 -34t9 -24.5t25.5 -19t48 -5.5q62 0 85 13.5t23 52.5q0 67 -58 67h-71v59h69q7 0 15.5 1.5t21.5 14.5t13 37q0 35 -18.5 48.5
t-67.5 13.5q-50 0 -69.5 -15t-19.5 -61h-70q0 33 5.5 55t21 43t47.5 31t82 10q31 0 53 -3t48.5 -13t41 -34.5t14.5 -62.5q0 -34 -9.5 -54.5t-19 -26.5t-27.5 -13q13 -3 21 -7t20.5 -14.5t19.5 -31t7 -50.5q0 -69 -43.5 -96.5t-119.5 -27.5q-103 0 -136.5 35t-33.5 112z" />
    <glyph glyph-name="Japan1.9784" 
d="M810 821l26 -21l-645 -861l-27 20zM187 803h144v-416h-69v350h-75v66zM566 371h298v-63h-231v-99q32 25 100 25q81 0 115 -34t34 -105q0 -35 -5 -58.5t-21.5 -46.5t-51.5 -34t-89 -11q-47 0 -79.5 9t-48.5 20t-24 32t-9 33.5t-1 37.5h70q-1 -34 15.5 -51.5t71.5 -17.5
q64 0 82.5 18.5t18.5 63.5q0 43 -16 62.5t-72 19.5q-35 0 -56 -6t-26.5 -11.5t-11.5 -17.5h-64z" />
    <glyph glyph-name="Japan1.9785" 
d="M810 821l26 -21l-645 -861l-27 20zM573 376h298v-63h-231v-100q33 26 100 26q81 0 115 -34t34 -106q0 -35 -5 -58t-21.5 -46t-51.5 -34t-89 -11q-47 0 -79.5 9t-48.5 20t-24 32t-9 33.5t-1 37.5h70q-1 -34 15.5 -52t71.5 -18q64 0 82.5 18.5t18.5 63.5q0 43 -16 62.5
t-72 19.5q-35 0 -56 -6t-26.5 -11.5t-11.5 -16.5h-64zM344 554l-112 -21q-24 -4 -35 -18t-13 -28t-1 -42h252v-60h-322v85q0 47 23.5 80t72.5 42l111 21q48 9 48 64q0 35 -18.5 52.5t-68.5 17.5q-48 0 -70 -13.5t-22 -48.5v-28h-71q0 24 1 37t5 34t14 33t26.5 24.5
t44.5 18.5t65 6q94 0 129 -31.5t35 -97.5q0 -65 -22.5 -91.5t-71.5 -35.5z" />
    <glyph glyph-name="Japan1.9786" 
d="M810 821l26 -21l-645 -861l-27 20zM114 524h71q0 -23 1.5 -34t9 -24.5t25.5 -19t48 -5.5q62 0 85 13.5t23 52.5q0 67 -58 67h-71v59h69q7 0 15.5 1.5t21.5 14.5t13 37q0 35 -18.5 48.5t-67.5 13.5q-50 0 -69.5 -15t-19.5 -61h-70q0 33 5.5 55t21 43t47.5 31t82 10
q31 0 53 -3t48.5 -13t41 -34.5t14.5 -62.5q0 -34 -9.5 -54.5t-19 -26.5t-27.5 -13q13 -3 21 -7t20.5 -14.5t19.5 -31t7 -50.5q0 -69 -43.5 -96.5t-119.5 -27.5q-103 0 -136.5 35t-33.5 112zM566 371h298v-63h-231v-99q32 25 100 25q81 0 115 -34t34 -105q0 -35 -5 -58.5
t-21.5 -46.5t-51.5 -34t-89 -11q-47 0 -79.5 9t-48.5 20t-24 32t-9 33.5t-1 37.5h70q-1 -34 15.5 -51.5t71.5 -17.5q64 0 82.5 18.5t18.5 63.5q0 43 -16 62.5t-72 19.5q-35 0 -56 -6t-26.5 -11.5t-11.5 -17.5h-64z" />
    <glyph glyph-name="Japan1.9787" 
d="M291 802h94v-269h59v-63h-59v-86h-68v86h-229v79zM317 533v207l-162 -207h162zM810 821l26 -21l-645 -861l-27 20zM566 371h298v-63h-231v-99q32 25 100 25q81 0 115 -34t34 -105q0 -35 -5 -58.5t-21.5 -46.5t-51.5 -34t-89 -11q-47 0 -79.5 9t-48.5 20t-24 32t-9 33.5
t-1 37.5h70q-1 -34 15.5 -51.5t71.5 -17.5q64 0 82.5 18.5t18.5 63.5q0 43 -16 62.5t-72 19.5q-35 0 -56 -6t-26.5 -11.5t-11.5 -17.5h-64z" />
    <glyph glyph-name="Japan1.9788" 
d="M879 261h-69q-2 30 -20.5 43t-62.5 13q-59 0 -76.5 -23.5t-18.5 -111.5q10 11 17.5 17t31 11.5t60.5 5.5q24 0 40.5 -1.5t38 -8.5t35 -20t23 -38.5t9.5 -60.5q0 -44 -12.5 -73.5t-36.5 -42.5t-48 -17.5t-57 -4.5q-102 0 -136.5 40.5t-34.5 162.5q0 97 17 146.5t50 65.5
t98 16q49 0 81 -9.5t46 -29t19 -37t6 -43.5zM725 156q-32 0 -51.5 -6t-27 -18.5t-9.5 -22t-2 -25.5q0 -40 19.5 -57t68.5 -17q58 0 75 18.5t17 57.5q0 44 -20.5 57t-69.5 13zM810 821l26 -21l-645 -861l-27 20zM187 804h144v-417h-69v350h-75v67z" />
    <glyph glyph-name="Japan1.9789" 
d="M871 261h-69q-1 30 -19.5 42.5t-63.5 12.5q-59 0 -76.5 -23.5t-18.5 -111.5q10 11 17.5 17t31 11.5t60.5 5.5q24 0 40.5 -1.5t38.5 -8.5t35 -20t22.5 -38.5t9.5 -60.5q0 -44 -12.5 -73.5t-36.5 -42.5t-48 -17.5t-57 -4.5q-101 0 -136 41t-35 162q0 98 17 147t50.5 65.5
t98.5 16.5q49 0 80.5 -10t45.5 -29t19 -36.5t6 -43.5zM717 156q-32 0 -51.5 -6t-27 -19t-9.5 -22.5t-2 -25.5q0 -40 19.5 -57t69.5 -17q58 0 75 18.5t17 57.5q0 44 -21 57.5t-70 13.5zM810 821l26 -21l-645 -861l-27 20zM124 806h298v-62h-230l-1 -100q32 25 100 25
q81 0 115 -33.5t34 -105.5q0 -35 -5 -58.5t-21.5 -46t-51.5 -34t-89 -11.5q-47 0 -79.5 9t-48.5 20t-24 32.5t-9 34t-1 37.5h70q-1 -34 15.5 -52t71.5 -18q64 0 82.5 18.5t18.5 63.5q0 43 -16 62.5t-72 19.5q-35 0 -56 -6t-26.5 -11.5t-11.5 -17.5h-64z" />
    <glyph glyph-name="Japan1.9790" 
d="M810 821l26 -21l-645 -861l-27 20zM564 367h321v-63l-188 -354h-80l192 354h-245v63zM187 804h144v-417h-69v350h-75v67z" />
    <glyph glyph-name="Japan1.9791" 
d="M810 821l26 -21l-645 -861l-27 20zM564 367h321v-63l-188 -354h-80l192 354h-245v63zM344 554l-112 -21q-24 -4 -35 -18t-13 -28t-1 -42h252v-60h-322v85q0 47 23.5 80t72.5 42l111 21q48 9 48 64q0 35 -18.5 52.5t-68.5 17.5q-48 0 -70 -13.5t-22 -48.5v-28h-71
q0 24 1 37t5 34t14 33t26.5 24.5t44.5 18.5t65 6q94 0 129 -31.5t35 -97.5q0 -65 -22.5 -91.5t-71.5 -35.5z" />
    <glyph glyph-name="Japan1.9792" 
d="M810 821l26 -21l-645 -861l-27 20zM564 367h321v-63l-188 -354h-80l192 354h-245v63zM109 525h71q0 -23 1.5 -34t9 -24.5t25.5 -19t48 -5.5q62 0 85 14t23 53q0 67 -58 67h-71v58h69q3 0 7 0.5t12.5 3t14.5 8t11 16.5t5 26q0 35 -18.5 48t-67.5 13q-50 0 -69.5 -14.5
t-19.5 -60.5h-70q1 68 32 103t124 35q25 0 42.5 -1.5t41.5 -7.5t38.5 -17.5t25 -33.5t10.5 -52q0 -26 -4.5 -44t-14 -27.5t-17.5 -14t-21 -8.5q12 -3 20.5 -7t21 -14.5t19.5 -31.5t7 -50q0 -125 -163 -125q-101 0 -135.5 35t-34.5 112z" />
    <glyph glyph-name="Japan1.9793" 
d="M301 810h93v-269h59v-63h-59v-86h-67v86h-229v79zM327 541v207l-162 -207h162zM810 821l26 -21l-645 -861l-27 20zM564 367h321v-63l-188 -354h-80l192 354h-245v63z" />
    <glyph glyph-name="Japan1.9794" 
d="M810 821l26 -21l-645 -861l-27 20zM564 367h321v-63l-188 -354h-80l192 354h-245v63zM124 806h298v-62h-230l-1 -100q32 25 100 25q81 0 115 -33.5t34 -105.5q0 -35 -5 -58.5t-21.5 -46t-51.5 -34t-89 -11.5q-47 0 -79.5 9t-48.5 20t-24 32.5t-9 34t-1 37.5h70
q-1 -34 15.5 -52t71.5 -18q64 0 82.5 18.5t18.5 63.5q0 43 -16 62.5t-72 19.5q-35 0 -56 -6t-26.5 -11.5t-11.5 -17.5h-64z" />
    <glyph glyph-name="Japan1.9795" 
d="M430 692h-69q-2 30 -20.5 43t-62.5 13q-59 0 -76.5 -23.5t-18.5 -111.5q10 11 17.5 16.5t31 11t60.5 5.5q24 0 40.5 -1.5t38 -8.5t35 -20t23 -38.5t9.5 -60.5q0 -44 -12.5 -73t-36.5 -42t-48 -17.5t-57 -4.5q-102 0 -136.5 40.5t-34.5 161.5q0 97 17 146.5t50 66t98 16.5
q49 0 81 -10t46 -29t19 -36.5t6 -43.5zM276 587q-32 0 -51.5 -6t-27 -19t-9.5 -22.5t-2 -25.5q0 -40 19.5 -56.5t68.5 -16.5q58 0 75 18.5t17 57.5q0 44 -20.5 57t-69.5 13zM810 821l26 -21l-645 -861l-27 20zM564 367h321v-63l-188 -354h-80l192 354h-245v63z" />
    <glyph glyph-name="Japan1.9796" 
d="M824 172q12 -5 19 -9t19.5 -15t19 -30t6.5 -46q0 -68 -39 -96t-129 -28q-87 0 -126.5 27t-39.5 92q0 28 6 47.5t18.5 31t19.5 16t22 10.5q-57 24 -57 92q0 39 15.5 64.5t43.5 35.5t48.5 12.5t50.5 2.5q23 0 40 -1t41 -7.5t39.5 -17.5t27 -33t11.5 -53q0 -33 -11 -55
t-20.5 -28t-24.5 -12zM722 316q-24 0 -36.5 -1.5t-26.5 -7t-20 -19.5t-6 -36q0 -15 5 -25t12 -15.5t22.5 -8t26.5 -3t35 -0.5q25 0 38 2t25 15t12 39q0 21 -7.5 34t-22.5 18t-26.5 6.5t-30.5 1.5zM721 141q-15 0 -24.5 -0.5t-25.5 -4t-25.5 -9.5t-17 -19t-7.5 -32
q0 -33 22.5 -50t82.5 -17q52 0 73 15.5t21 53.5q0 34 -21 48.5t-78 14.5zM810 821l26 -21l-645 -861l-27 20zM187 803h144v-416h-69v350h-75v66z" />
    <glyph glyph-name="Japan1.9797" 
d="M827 173q12 -5 19.5 -9t19.5 -15t18.5 -30t6.5 -46q0 -68 -39 -96t-128 -28q-88 0 -127.5 27t-39.5 92q0 28 6 47.5t18.5 31t20 16t22.5 10.5q-57 23 -57 92q0 32 11.5 54.5t27 34t40 18t40.5 7.5t39 1t40 -1t41 -7.5t39.5 -17.5t26.5 -33t11 -53q0 -33 -11 -55
t-20.5 -28t-24.5 -12zM725 317q-23 0 -35.5 -1.5t-26.5 -7t-20 -19.5t-6 -36q0 -19 6 -30t22 -15.5t29.5 -5.5t42.5 -1q25 0 38 2t25.5 15t12.5 39q0 21 -7.5 34t-22.5 18t-27 6.5t-31 1.5zM725 142q-15 0 -24.5 -0.5t-25.5 -4t-25.5 -9.5t-17 -19t-7.5 -32q0 -33 22.5 -50
t82.5 -17q52 0 72.5 15t20.5 54q0 34 -20.5 48.5t-77.5 14.5zM810 821l26 -21l-645 -861l-27 20zM109 525h71q0 -23 1.5 -34t9 -24.5t25.5 -19t48 -5.5q62 0 85 14t23 53q0 67 -58 67h-71v58h69q3 0 7 0.5t12.5 3t14.5 8t11 16.5t5 26q0 35 -18.5 48t-67.5 13
q-50 0 -69.5 -14.5t-19.5 -60.5h-70q1 68 32 103t124 35q25 0 42.5 -1.5t41.5 -7.5t38.5 -17.5t25 -33.5t10.5 -52q0 -26 -4.5 -44t-14 -27.5t-17.5 -14t-21 -8.5q12 -3 20.5 -7t21 -14.5t19.5 -31.5t7 -50q0 -125 -163 -125q-101 0 -135.5 35t-34.5 112z" />
    <glyph glyph-name="Japan1.9798" 
d="M827 173q12 -5 19.5 -9t19.5 -15t18.5 -30t6.5 -46q0 -68 -39 -96t-128 -28q-88 0 -127.5 27t-39.5 92q0 28 6 47.5t18.5 31t20 16t22.5 10.5q-57 23 -57 92q0 32 11.5 54.5t27 34t40 18t40.5 7.5t39 1t40 -1t41 -7.5t39.5 -17.5t26.5 -33t11 -53q0 -33 -11 -55
t-20.5 -28t-24.5 -12zM725 317q-23 0 -35.5 -1.5t-26.5 -7t-20 -19.5t-6 -36q0 -19 6 -30t22 -15.5t29.5 -5.5t42.5 -1q25 0 38 2t25.5 15t12.5 39q0 21 -7.5 34t-22.5 18t-27 6.5t-31 1.5zM725 142q-15 0 -24.5 -0.5t-25.5 -4t-25.5 -9.5t-17 -19t-7.5 -32q0 -33 22.5 -50
t82.5 -17q52 0 72.5 15t20.5 54q0 34 -20.5 48.5t-77.5 14.5zM810 821l26 -21l-645 -861l-27 20zM124 806h298v-62h-230l-1 -100q32 25 100 25q81 0 115 -33.5t34 -105.5q0 -35 -5 -58.5t-21.5 -46t-51.5 -34t-89 -11.5q-47 0 -79.5 9t-48.5 20t-24 32.5t-9 34t-1 37.5h70
q-1 -34 15.5 -52t71.5 -18q64 0 82.5 18.5t18.5 63.5q0 43 -16 62.5t-72 19.5q-35 0 -56 -6t-26.5 -11.5t-11.5 -17.5h-64z" />
    <glyph glyph-name="Japan1.9799" 
d="M824 172q12 -5 19 -9t19.5 -15t19 -30t6.5 -46q0 -68 -39 -96t-129 -28q-87 0 -126.5 27t-39.5 92q0 28 6 47.5t18.5 31t19.5 16t22 10.5q-57 24 -57 92q0 39 15.5 64.5t43.5 35.5t48.5 12.5t50.5 2.5q23 0 40 -1t41 -7.5t39.5 -17.5t27 -33t11.5 -53q0 -33 -11 -55
t-20.5 -28t-24.5 -12zM722 316q-24 0 -36.5 -1.5t-26.5 -7t-20 -19.5t-6 -36q0 -15 5 -25t12 -15.5t22.5 -8t26.5 -3t35 -0.5q25 0 38 2t25 15t12 39q0 21 -7.5 34t-22.5 18t-26.5 6.5t-30.5 1.5zM721 141q-15 0 -24.5 -0.5t-25.5 -4t-25.5 -9.5t-17 -19t-7.5 -32
q0 -33 22.5 -50t82.5 -17q52 0 73 15.5t21 53.5q0 34 -21 48.5t-78 14.5zM810 821l26 -21l-645 -861l-27 20zM121 802h321v-63l-188 -354h-80l192 354h-245v63z" />
    <glyph glyph-name="Japan1.9800" 
d="M570 68h69q2 -31 20 -43.5t63 -12.5q59 0 76.5 24t18.5 111q-10 -11 -17.5 -16.5t-31 -11t-60.5 -5.5q-24 0 -40.5 1.5t-38.5 8.5t-35 20t-22.5 38t-9.5 60q0 44 12.5 73.5t36.5 42.5t48 17.5t57 4.5q102 0 136.5 -40.5t34.5 -161.5q0 -98 -17 -147t-50.5 -65.5
t-98.5 -16.5q-49 0 -80.5 10t-45.5 29t-19 36.5t-6 43.5zM724 173q32 0 51.5 6t27 19t9.5 22.5t2 25.5q0 40 -19.5 56.5t-68.5 16.5q-58 0 -75.5 -18.5t-17.5 -57.5q0 -43 21 -56.5t70 -13.5zM810 821l26 -21l-645 -861l-27 20zM187 804h144v-417h-69v350h-75v67z" />
    <glyph glyph-name="Japan1.9801" 
d="M570 68h69q2 -31 20 -43.5t63 -12.5q59 0 76.5 24t18.5 111q-10 -11 -17.5 -16.5t-31 -11t-60.5 -5.5q-24 0 -40.5 1.5t-38.5 8.5t-35 20t-22.5 38t-9.5 60q0 44 12.5 73.5t36.5 42.5t48 17.5t57 4.5q102 0 136.5 -40.5t34.5 -161.5q0 -98 -17 -147t-50.5 -65.5
t-98.5 -16.5q-49 0 -80.5 10t-45.5 29t-19 36.5t-6 43.5zM724 173q32 0 51.5 6t27 19t9.5 22.5t2 25.5q0 40 -19.5 56.5t-68.5 16.5q-58 0 -75.5 -18.5t-17.5 -57.5q0 -43 21 -56.5t70 -13.5zM810 821l26 -21l-645 -861l-27 20zM344 554l-112 -21q-24 -4 -35 -18t-13 -28
t-1 -42h252v-60h-322v85q0 47 23.5 80t72.5 42l111 21q48 9 48 64q0 35 -18.5 52.5t-68.5 17.5q-48 0 -70 -13.5t-22 -48.5v-28h-71q0 24 1 37t5 34t14 33t26.5 24.5t44.5 18.5t65 6q94 0 129 -31.5t35 -97.5q0 -65 -22.5 -91.5t-71.5 -35.5z" />
    <glyph glyph-name="Japan1.9802" 
d="M570 68h69q2 -31 20 -43.5t63 -12.5q59 0 76.5 24t18.5 111q-10 -11 -17.5 -16.5t-31 -11t-60.5 -5.5q-24 0 -40.5 1.5t-38.5 8.5t-35 20t-22.5 38t-9.5 60q0 44 12.5 73.5t36.5 42.5t48 17.5t57 4.5q102 0 136.5 -40.5t34.5 -161.5q0 -98 -17 -147t-50.5 -65.5
t-98.5 -16.5q-49 0 -80.5 10t-45.5 29t-19 36.5t-6 43.5zM724 173q32 0 51.5 6t27 19t9.5 22.5t2 25.5q0 40 -19.5 56.5t-68.5 16.5q-58 0 -75.5 -18.5t-17.5 -57.5q0 -43 21 -56.5t70 -13.5zM301 810h93v-269h59v-63h-59v-86h-67v86h-229v79zM327 541v207l-162 -207h162z
M810 821l26 -21l-645 -861l-27 20z" />
    <glyph glyph-name="Japan1.9803" 
d="M570 68h69q2 -31 20 -43.5t63 -12.5q59 0 76.5 24t18.5 111q-10 -11 -17.5 -16.5t-31 -11t-60.5 -5.5q-24 0 -40.5 1.5t-38.5 8.5t-35 20t-22.5 38t-9.5 60q0 44 12.5 73.5t36.5 42.5t48 17.5t57 4.5q102 0 136.5 -40.5t34.5 -161.5q0 -98 -17 -147t-50.5 -65.5
t-98.5 -16.5q-49 0 -80.5 10t-45.5 29t-19 36.5t-6 43.5zM724 173q32 0 51.5 6t27 19t9.5 22.5t2 25.5q0 40 -19.5 56.5t-68.5 16.5q-58 0 -75.5 -18.5t-17.5 -57.5q0 -43 21 -56.5t70 -13.5zM810 821l26 -21l-645 -861l-27 20zM124 806h298v-62h-230l-1 -100q32 25 100 25
q81 0 115 -33.5t34 -105.5q0 -35 -5 -58.5t-21.5 -46t-51.5 -34t-89 -11.5q-47 0 -79.5 9t-48.5 20t-24 32.5t-9 34t-1 37.5h70q-1 -34 15.5 -52t71.5 -18q64 0 82.5 18.5t18.5 63.5q0 43 -16 62.5t-72 19.5q-35 0 -56 -6t-26.5 -11.5t-11.5 -17.5h-64z" />
    <glyph glyph-name="Japan1.9804" 
d="M570 68h69q2 -31 20 -43.5t63 -12.5q59 0 76.5 24t18.5 111q-10 -11 -17.5 -16.5t-31 -11t-60.5 -5.5q-24 0 -40.5 1.5t-38.5 8.5t-35 20t-22.5 38t-9.5 60q0 44 12.5 73.5t36.5 42.5t48 17.5t57 4.5q102 0 136.5 -40.5t34.5 -161.5q0 -98 -17 -147t-50.5 -65.5
t-98.5 -16.5q-49 0 -80.5 10t-45.5 29t-19 36.5t-6 43.5zM724 173q32 0 51.5 6t27 19t9.5 22.5t2 25.5q0 40 -19.5 56.5t-68.5 16.5q-58 0 -75.5 -18.5t-17.5 -57.5q0 -43 21 -56.5t70 -13.5zM810 821l26 -21l-645 -861l-27 20zM115 798h321v-64l-188 -353h-80l192 353h-245
v64z" />
    <glyph glyph-name="Japan1.9805" 
d="M378 603q64 -21 64 -99q0 -69 -39 -97t-128 -28q-88 0 -127.5 27t-39.5 92q0 28 6 48t18.5 31t20.5 16t22 10q-15 7 -24.5 13.5t-21 27.5t-11.5 52q0 32 11.5 54.5t27 34t40 18t40.5 7.5t39 1t40 -1t41 -7.5t39.5 -17.5t26.5 -33t11 -53q0 -25 -5.5 -43.5t-16 -29
t-17 -14.5t-17.5 -9zM276 748q-23 0 -35.5 -1.5t-26.5 -7t-20 -19.5t-6 -36q0 -19 6 -30t22 -15.5t29 -5.5t43 -1q25 0 38 2t25.5 15t12.5 39q0 20 -7.5 33t-22.5 18.5t-27 7t-31 1.5zM276 572q-19 0 -31 -1.5t-31 -6.5t-28.5 -19.5t-9.5 -36.5q0 -33 22.5 -50t82.5 -17
q52 0 72.5 15t20.5 54q0 34 -20.5 48t-77.5 14zM570 68h69q2 -31 20 -43.5t63 -12.5q59 0 76.5 24t18.5 111q-10 -11 -17.5 -16.5t-31 -11t-60.5 -5.5q-24 0 -40.5 1.5t-38.5 8.5t-35 20t-22.5 38t-9.5 60q0 44 12.5 73.5t36.5 42.5t48 17.5t57 4.5q102 0 136.5 -40.5
t34.5 -161.5q0 -98 -17 -147t-50.5 -65.5t-98.5 -16.5q-49 0 -80.5 10t-45.5 29t-19 36.5t-6 43.5zM724 173q32 0 51.5 6t27 19t9.5 22.5t2 25.5q0 40 -19.5 56.5t-68.5 16.5q-58 0 -75.5 -18.5t-17.5 -57.5q0 -43 21 -56.5t70 -13.5zM810 821l26 -21l-645 -861l-27 20z" />
    <glyph glyph-name="Japan1.9806" 
d="M823 379q70 0 89 -43.5t19 -170.5q0 -126 -18.5 -170.5t-87.5 -44.5q-66 0 -88.5 41t-22.5 174q0 131 22 172.5t87 41.5zM822 318q-25 0 -32 -27t-7 -125q0 -96 7.5 -124.5t32.5 -28.5q13 0 19.5 4.5t11 23t6 51t1.5 92.5q0 86 -8 110t-31 24zM810 821l26 -21l-645 -861
l-27 20zM539 373h114v-417h-65v351h-49v66zM187 804h144v-417h-69v350h-75v67z" />
    <glyph glyph-name="Japan1.9807" 
d="M823 379q70 0 89 -43.5t19 -170.5q0 -126 -18.5 -170.5t-87.5 -44.5q-66 0 -88.5 41t-22.5 174q0 131 22 172.5t87 41.5zM822 318q-25 0 -32 -27t-7 -125q0 -96 7.5 -124.5t32.5 -28.5q13 0 19.5 4.5t11 23t6 51t1.5 92.5q0 86 -8 110t-31 24zM810 821l26 -21l-645 -861
l-27 20zM539 373h114v-417h-65v351h-49v66zM109 525h71q0 -23 1.5 -34t9 -24.5t25.5 -19t48 -5.5q62 0 85 14t23 53q0 67 -58 67h-71v58h69q3 0 7 0.5t12.5 3t14.5 8t11 16.5t5 26q0 35 -18.5 48t-67.5 13q-50 0 -69.5 -14.5t-19.5 -60.5h-70q1 68 32 103t124 35
q25 0 42.5 -1.5t41.5 -7.5t38.5 -17.5t25 -33.5t10.5 -52q0 -26 -4.5 -44t-14 -27.5t-17.5 -14t-21 -8.5q12 -3 20.5 -7t21 -14.5t19.5 -31.5t7 -50q0 -125 -163 -125q-101 0 -135.5 35t-34.5 112z" />
    <glyph glyph-name="Japan1.9808" 
d="M823 379q70 0 89 -43.5t19 -170.5q0 -126 -18.5 -170.5t-87.5 -44.5q-66 0 -88.5 41t-22.5 174q0 131 22 172.5t87 41.5zM822 318q-25 0 -32 -27t-7 -125q0 -96 7.5 -124.5t32.5 -28.5q13 0 19.5 4.5t11 23t6 51t1.5 92.5q0 86 -8 110t-31 24zM810 821l26 -21l-645 -861
l-27 20zM539 373h114v-417h-65v351h-49v66zM115 798h321v-64l-188 -353h-80l192 353h-245v64z" />
    <glyph glyph-name="Japan1.9809" 
d="M823 379q70 0 89 -43.5t19 -170.5q0 -126 -18.5 -170.5t-87.5 -44.5q-66 0 -88.5 41t-22.5 174q0 131 22 172.5t87 41.5zM822 318q-25 0 -32 -27t-7 -125q0 -96 7.5 -124.5t32.5 -28.5q13 0 19.5 4.5t11 23t6 51t1.5 92.5q0 86 -8 110t-31 24zM121 499h69q2 -31 20 -43.5
t63 -12.5q59 0 76.5 24t18.5 111q-10 -11 -17.5 -17t-31 -11.5t-60.5 -5.5q-24 0 -40.5 1.5t-38.5 8.5t-35 20t-22.5 38.5t-9.5 60.5q0 44 12.5 73.5t36.5 42.5t48 17.5t57 4.5q102 0 136.5 -40.5t34.5 -162.5q0 -97 -17 -146t-50.5 -65.5t-98.5 -16.5q-49 0 -80.5 9.5
t-45.5 29t-19 37t-6 43.5zM275 604q32 0 51.5 6t27 18.5t9.5 22t2 25.5q0 40 -19.5 57t-68.5 17q-58 0 -75.5 -18.5t-17.5 -57.5q0 -43 21 -56.5t70 -13.5zM810 821l26 -21l-645 -861l-27 20zM539 373h114v-417h-65v351h-49v66z" />
    <glyph glyph-name="Japan1.9810" 
d="M810 821l26 -21l-645 -861l-27 20zM567 373h114v-417h-65v351h-49v66zM788 373h115v-417h-65v351h-50v66zM187 804h144v-417h-69v350h-75v67z" />
    <glyph glyph-name="Japan1.9811" 
d="M810 821l26 -21l-645 -861l-27 20zM567 373h114v-417h-65v351h-49v66zM788 373h115v-417h-65v351h-50v66zM344 554l-112 -21q-24 -4 -35 -18t-13 -28t-1 -42h252v-60h-322v85q0 47 23.5 80t72.5 42l111 21q48 9 48 64q0 35 -18.5 52.5t-68.5 17.5q-48 0 -70 -13.5
t-22 -48.5v-28h-71q0 24 1 37t5 34t14 33t26.5 24.5t44.5 18.5t65 6q94 0 129 -31.5t35 -97.5q0 -65 -22.5 -91.5t-71.5 -35.5z" />
    <glyph glyph-name="Japan1.9812" 
d="M810 821l26 -21l-645 -861l-27 20zM567 373h114v-417h-65v351h-49v66zM788 373h115v-417h-65v351h-50v66zM109 525h71q0 -23 1.5 -34t9 -24.5t25.5 -19t48 -5.5q62 0 85 14t23 53q0 67 -58 67h-71v58h69q3 0 7 0.5t12.5 3t14.5 8t11 16.5t5 26q0 35 -18.5 48t-67.5 13
q-50 0 -69.5 -14.5t-19.5 -60.5h-70q1 68 32 103t124 35q25 0 42.5 -1.5t41.5 -7.5t38.5 -17.5t25 -33.5t10.5 -52q0 -26 -4.5 -44t-14 -27.5t-17.5 -14t-21 -8.5q12 -3 20.5 -7t21 -14.5t19.5 -31.5t7 -50q0 -125 -163 -125q-101 0 -135.5 35t-34.5 112z" />
    <glyph glyph-name="Japan1.9813" 
d="M301 810h93v-269h59v-63h-59v-86h-67v86h-229v79zM327 541v207l-162 -207h162zM810 821l26 -21l-645 -861l-27 20zM567 373h114v-417h-65v351h-49v66zM788 373h115v-417h-65v351h-50v66z" />
    <glyph glyph-name="Japan1.9814" 
d="M810 821l26 -21l-645 -861l-27 20zM567 373h114v-417h-65v351h-49v66zM788 373h115v-417h-65v351h-50v66zM124 806h298v-62h-230l-1 -100q32 25 100 25q81 0 115 -33.5t34 -105.5q0 -35 -5 -58.5t-21.5 -46t-51.5 -34t-89 -11.5q-47 0 -79.5 9t-48.5 20t-24 32.5t-9 34
t-1 37.5h70q-1 -34 15.5 -52t71.5 -18q64 0 82.5 18.5t18.5 63.5q0 43 -16 62.5t-72 19.5q-35 0 -56 -6t-26.5 -11.5t-11.5 -17.5h-64z" />
    <glyph glyph-name="Japan1.9815" 
d="M430 692h-69q-2 30 -20.5 43t-62.5 13q-59 0 -76.5 -23.5t-18.5 -111.5q10 11 17.5 16.5t31 11t60.5 5.5q24 0 40.5 -1.5t38 -8.5t35 -20t23 -38.5t9.5 -60.5q0 -44 -12.5 -73t-36.5 -42t-48 -17.5t-57 -4.5q-102 0 -136.5 40.5t-34.5 161.5q0 97 17 146.5t50 66t98 16.5
q49 0 81 -10t46 -29t19 -36.5t6 -43.5zM276 587q-32 0 -51.5 -6t-27 -19t-9.5 -22.5t-2 -25.5q0 -40 19.5 -56.5t68.5 -16.5q58 0 75 18.5t17 57.5q0 44 -20.5 57t-69.5 13zM810 821l26 -21l-645 -861l-27 20zM567 373h114v-417h-65v351h-49v66zM788 373h115v-417h-65v351
h-50v66z" />
    <glyph glyph-name="Japan1.9816" 
d="M810 821l26 -21l-645 -861l-27 20zM567 373h114v-417h-65v351h-49v66zM788 373h115v-417h-65v351h-50v66zM115 798h321v-64l-188 -353h-80l192 353h-245v64z" />
    <glyph glyph-name="Japan1.9817" 
d="M378 603q64 -21 64 -99q0 -69 -39 -97t-128 -28q-88 0 -127.5 27t-39.5 92q0 28 6 48t18.5 31t20.5 16t22 10q-15 7 -24.5 13.5t-21 27.5t-11.5 52q0 32 11.5 54.5t27 34t40 18t40.5 7.5t39 1t40 -1t41 -7.5t39.5 -17.5t26.5 -33t11 -53q0 -25 -5.5 -43.5t-16 -29
t-17 -14.5t-17.5 -9zM276 748q-23 0 -35.5 -1.5t-26.5 -7t-20 -19.5t-6 -36q0 -19 6 -30t22 -15.5t29 -5.5t43 -1q25 0 38 2t25.5 15t12.5 39q0 20 -7.5 33t-22.5 18.5t-27 7t-31 1.5zM276 572q-19 0 -31 -1.5t-31 -6.5t-28.5 -19.5t-9.5 -36.5q0 -33 22.5 -50t82.5 -17
q52 0 72.5 15t20.5 54q0 34 -20.5 48t-77.5 14zM810 821l26 -21l-645 -861l-27 20zM567 373h114v-417h-65v351h-49v66zM788 373h115v-417h-65v351h-50v66z" />
    <glyph glyph-name="Japan1.9818" 
d="M121 499h69q2 -31 20 -43.5t63 -12.5q59 0 76.5 24t18.5 111q-10 -11 -17.5 -17t-31 -11.5t-60.5 -5.5q-24 0 -40.5 1.5t-38.5 8.5t-35 20t-22.5 38.5t-9.5 60.5q0 44 12.5 73.5t36.5 42.5t48 17.5t57 4.5q102 0 136.5 -40.5t34.5 -162.5q0 -97 -17 -146t-50.5 -65.5
t-98.5 -16.5q-49 0 -80.5 9.5t-45.5 29t-19 37t-6 43.5zM275 604q32 0 51.5 6t27 18.5t9.5 22t2 25.5q0 40 -19.5 57t-68.5 17q-58 0 -75.5 -18.5t-17.5 -57.5q0 -43 21 -56.5t70 -13.5zM810 821l26 -21l-645 -861l-27 20zM567 373h114v-417h-65v351h-49v66zM788 373h115
v-417h-65v351h-50v66z" />
    <glyph glyph-name="Japan1.9819" 
d="M354 810q69 0 88 -43t19 -172q0 -126 -18.5 -170.5t-87.5 -44.5q-44 0 -66.5 16t-33 61.5t-10.5 137.5q0 131 22 173t87 42zM353 749q-25 0 -32 -27t-7 -125q0 -96 7.5 -124.5t32.5 -28.5q13 0 19.5 4.5t11 23t6 51t1.5 92.5q0 86 -8 110t-31 24zM810 821l26 -21
l-645 -861l-27 20zM567 373h114v-417h-65v351h-49v66zM788 373h115v-417h-65v351h-50v66zM69 804h115v-417h-65v351h-50v66z" />
    <glyph glyph-name="Japan1.9820" 
d="M538 373h114v-417h-65v351h-49v66zM712 231v47q0 29 8.5 49.5t19.5 30.5t28.5 15.5t27 6t24.5 0.5q57 0 84 -23.5t27 -94.5q0 -28 -1 -42t-6 -33.5t-17.5 -32.5t-33.5 -22l-65 -28q-19 -8 -25 -21t-6 -40v-25h155v-62h-220v92q0 81 63 108l62 27q17 8 23 20t6 35v35
q0 48 -39 48q-51 0 -51 -52v-38h-64zM810 821l26 -21l-645 -861l-27 20zM187 804h144v-417h-69v350h-75v67z" />
    <glyph glyph-name="Japan1.9821" 
d="M538 373h114v-417h-65v351h-49v66zM712 231v47q0 29 8.5 49.5t19.5 30.5t28.5 15.5t27 6t24.5 0.5q57 0 84 -23.5t27 -94.5q0 -28 -1 -42t-6 -33.5t-17.5 -32.5t-33.5 -22l-65 -28q-19 -8 -25 -21t-6 -40v-25h155v-62h-220v92q0 81 63 108l62 27q17 8 23 20t6 35v35
q0 48 -39 48q-51 0 -51 -52v-38h-64zM810 821l26 -21l-645 -861l-27 20zM124 806h298v-62h-230l-1 -100q32 25 100 25q81 0 115 -33.5t34 -105.5q0 -35 -5 -58.5t-21.5 -46t-51.5 -34t-89 -11.5q-47 0 -79.5 9t-48.5 20t-24 32.5t-9 34t-1 37.5h70q-1 -34 15.5 -52t71.5 -18
q64 0 82.5 18.5t18.5 63.5q0 43 -16 62.5t-72 19.5q-35 0 -56 -6t-26.5 -11.5t-11.5 -17.5h-64z" />
    <glyph glyph-name="Japan1.9822" 
d="M538 373h114v-417h-65v351h-49v66zM712 231v47q0 29 8.5 49.5t19.5 30.5t28.5 15.5t27 6t24.5 0.5q57 0 84 -23.5t27 -94.5q0 -28 -1 -42t-6 -33.5t-17.5 -32.5t-33.5 -22l-65 -28q-19 -8 -25 -21t-6 -40v-25h155v-62h-220v92q0 81 63 108l62 27q17 8 23 20t6 35v35
q0 48 -39 48q-51 0 -51 -52v-38h-64zM810 821l26 -21l-645 -861l-27 20zM115 798h321v-64l-188 -353h-80l192 353h-245v64z" />
    <glyph glyph-name="Japan1.9823" 
d="M538 373h114v-417h-65v351h-49v66zM712 231v47q0 29 8.5 49.5t19.5 30.5t28.5 15.5t27 6t24.5 0.5q57 0 84 -23.5t27 -94.5q0 -28 -1 -42t-6 -33.5t-17.5 -32.5t-33.5 -22l-65 -28q-19 -8 -25 -21t-6 -40v-25h155v-62h-220v92q0 81 63 108l62 27q17 8 23 20t6 35v35
q0 48 -39 48q-51 0 -51 -52v-38h-64zM810 821l26 -21l-645 -861l-27 20zM98 804h114v-417h-65v351h-49v66zM319 804h114v-417h-65v351h-49v66z" />
    <glyph glyph-name="Japan1.9824" 
d="M722 379q51 0 65 -43.5t14 -170.5q0 -125 -13.5 -170t-63.5 -45q-33 0 -49 16t-24 61.5t-8 137.5q0 90 7.5 135.5t23.5 62t48 16.5zM722 318q-17 0 -21 -27q-5 -31 -5 -125q0 -101 4 -125q5 -28 23 -28q16 0 20.5 30t4.5 142q0 86 -4.5 109.5t-21.5 23.5zM905 379
q50 0 64 -43.5t14 -170.5q0 -126 -13.5 -170.5t-63.5 -44.5q-33 0 -49 16t-24 61.5t-8 137.5q0 131 16.5 172.5t63.5 41.5zM904 318q-17 0 -21 -27q-5 -32 -5 -125q0 -94 5 -125q5 -28 22 -28q16 0 20.5 30t4.5 142q0 60 -3 89t-7.5 36.5t-15.5 7.5zM810 821l26 -21
l-645 -861l-27 20zM536 373h83v-417h-50v351h-33v66zM187 804h144v-417h-69v350h-75v67z" />
    <glyph glyph-name="Japan1.9825" 
d="M336 629q0 103 37.5 142t127.5 39t126.5 -40.5t36.5 -142.5q0 -99 -36.5 -139t-126.5 -40t-127.5 39t-37.5 142zM500 751q-56 0 -76 -27t-20 -96q1 -69 21 -95t76 -26q55 0 75 27.5t20 92.5q0 72 -21 98t-75 26zM65 396h870v-32h-870v32zM339 77h69q0 -20 2 -30t11 -20
t28.5 -14t52.5 -4q21 0 32.5 1t27 4.5t22.5 14t7 26.5q0 52 -55 52h-66v55h66q52 0 52 43q0 45 -87 45q-56 0 -71 -11.5t-16 -45.5h-70q1 23 2.5 35t10 31t24 28.5t46 17t74.5 7.5q156 0 156 -97q0 -22 -5.5 -37.5t-17 -24t-18.5 -12t-18 -6.5q63 -13 63 -82q0 -33 -12 -54
t-35.5 -31.5t-48.5 -14t-62 -3.5q-100 0 -131 26.5t-33 100.5z" />
    <glyph glyph-name="Japan1.9826" 
d="M65 396h870v-32h-870v32zM575 95l-119 -19q-44 -7 -44 -60h241v-59h-310v70q0 93 87 107l117 18q41 7 41 46q0 28 -19 40.5t-71 12.5q-30 0 -48 -5t-25.5 -16t-9 -19.5t-1.5 -25.5h-68q0 24 1.5 36t9 32.5t22 31t44 19t71.5 8.5q54 0 88.5 -9t50 -27t20 -34.5t4.5 -41.5
q0 -92 -82 -105zM396 802h154v-345h-72v285h-82v60z" />
    <glyph glyph-name="Japan1.9827" 
d="M65 396h870v-32h-870v32zM339 77h69q0 -20 2 -30t11 -20t28.5 -14t52.5 -4q21 0 32.5 1t27 4.5t22.5 14t7 26.5q0 52 -55 52h-66v55h66q52 0 52 43q0 45 -87 45q-56 0 -71 -11.5t-16 -45.5h-70q1 23 2.5 35t10 31t24 28.5t46 17t74.5 7.5q156 0 156 -97q0 -22 -5.5 -37.5
t-17 -24t-18.5 -12t-18 -6.5q63 -13 63 -82q0 -33 -12 -54t-35.5 -31.5t-48.5 -14t-62 -3.5q-100 0 -131 26.5t-33 100.5zM396 802h154v-345h-72v285h-82v60z" />
    <glyph glyph-name="Japan1.9828" 
d="M65 396h870v-32h-870v32zM339 77h69q0 -20 2 -30t11 -20t28.5 -14t52.5 -4q21 0 32.5 1t27 4.5t22.5 14t7 26.5q0 52 -55 52h-66v55h66q52 0 52 43q0 45 -87 45q-56 0 -71 -11.5t-16 -45.5h-70q1 23 2.5 35t10 31t24 28.5t46 17t74.5 7.5q156 0 156 -97q0 -22 -5.5 -37.5
t-17 -24t-18.5 -12t-18 -6.5q63 -13 63 -82q0 -33 -12 -54t-35.5 -31.5t-48.5 -14t-62 -3.5q-100 0 -131 26.5t-33 100.5zM575 593l-119 -19q-44 -7 -44 -60h241v-59h-310v70q0 96 87 108l117 17q41 7 41 46q0 29 -19 41.5t-71 12.5q-30 0 -48 -5t-25.5 -16.5t-9 -20
t-1.5 -25.5h-68q0 24 1.5 36t9 32.5t22 31t44 19t71.5 8.5q54 0 89 -9t50 -27t19.5 -34.5t4.5 -40.5q0 -93 -82 -106z" />
    <glyph glyph-name="Japan1.9829" 
d="M520 312h92v-218h58v-60h-58v-70h-66v70h-216v74zM546 94v157l-145 -157h145zM65 396h870v-32h-870v32zM396 802h154v-345h-72v285h-82v60z" />
    <glyph glyph-name="Japan1.9830" 
d="M65 396h870v-32h-870v32zM339 576h69q0 -20 2 -30.5t11 -20.5t28.5 -14t52.5 -4q21 0 32.5 1t27 5t22.5 14t7 27q0 51 -55 51h-66v55h66q52 0 52 43q0 46 -87 46q-55 0 -70.5 -12t-16.5 -46h-70q1 24 2.5 36t10 30.5t24 28t46 17t74.5 7.5q156 0 156 -97
q0 -22 -5.5 -37.5t-17 -24t-18.5 -12t-18 -6.5q63 -12 63 -82q0 -33 -12 -54t-35.5 -31.5t-48.5 -14t-62 -3.5q-100 0 -131 26.5t-33 101.5zM520 312h92v-218h58v-60h-58v-70h-66v70h-216v74zM546 94v157l-145 -157h145z" />
    <glyph glyph-name="Japan1.9831" 
d="M65 396h870v-32h-870v32zM359 308h284v-62h-217l-5 -73q28 21 95 21q144 0 144 -121q0 -66 -36.5 -94.5t-122.5 -28.5q-93 0 -127 28.5t-34 86.5h69q-1 -33 23.5 -44.5t69.5 -11.5q47 0 68.5 12t21.5 50q0 36 -18.5 51.5t-70.5 15.5q-34 0 -53 -5.5t-22.5 -10.5t-6.5 -15
h-68zM396 802h154v-345h-72v285h-82v60z" />
    <glyph glyph-name="Japan1.9832" 
d="M65 396h870v-32h-870v32zM359 308h284v-62h-217l-5 -73q28 21 95 21q144 0 144 -121q0 -66 -36.5 -94.5t-122.5 -28.5q-93 0 -127 28.5t-34 86.5h69q-1 -33 23.5 -44.5t69.5 -11.5q47 0 68.5 12t21.5 50q0 36 -18.5 51.5t-70.5 15.5q-34 0 -53 -5.5t-22.5 -10.5t-6.5 -15
h-68zM575 593l-119 -19q-44 -7 -44 -60h241v-59h-310v70q0 96 87 108l117 17q41 7 41 46q0 29 -19 41.5t-71 12.5q-30 0 -48 -5t-25.5 -16.5t-9 -20t-1.5 -25.5h-68q0 24 1.5 36t9 32.5t22 31t44 19t71.5 8.5q54 0 89 -9t50 -27t19.5 -34.5t4.5 -40.5q0 -93 -82 -106z" />
    <glyph glyph-name="Japan1.9833" 
d="M65 396h870v-32h-870v32zM359 308h284v-62h-217l-5 -73q28 21 95 21q144 0 144 -121q0 -66 -36.5 -94.5t-122.5 -28.5q-93 0 -127 28.5t-34 86.5h69q-1 -33 23.5 -44.5t69.5 -11.5q47 0 68.5 12t21.5 50q0 36 -18.5 51.5t-70.5 15.5q-34 0 -53 -5.5t-22.5 -10.5t-6.5 -15
h-68zM339 576h69q0 -20 2 -30.5t11 -20.5t28.5 -14t52.5 -4q21 0 32.5 1t27 5t22.5 14t7 27q0 51 -55 51h-66v55h66q52 0 52 43q0 46 -87 46q-55 0 -70.5 -12t-16.5 -46h-70q1 24 2.5 36t10 30.5t24 28t46 17t74.5 7.5q156 0 156 -97q0 -22 -5.5 -37.5t-17 -24t-18.5 -12
t-18 -6.5q63 -12 63 -82q0 -33 -12 -54t-35.5 -31.5t-48.5 -14t-62 -3.5q-100 0 -131 26.5t-33 101.5z" />
    <glyph glyph-name="Japan1.9834" 
d="M520 810h92v-218h58v-60h-58v-70h-66v70h-216v75zM546 592v157l-145 -157h145zM65 396h870v-32h-870v32zM359 308h284v-62h-217l-5 -73q28 21 95 21q144 0 144 -121q0 -66 -36.5 -94.5t-122.5 -28.5q-93 0 -127 28.5t-34 86.5h69q-1 -33 23.5 -44.5t69.5 -11.5
q47 0 68.5 12t21.5 50q0 36 -18.5 51.5t-70.5 15.5q-34 0 -53 -5.5t-22.5 -10.5t-6.5 -15h-68z" />
    <glyph glyph-name="Japan1.9835" 
d="M653 206h-68q-1 47 -81 47q-36 0 -55.5 -5t-29 -21t-11.5 -31.5t-2 -51.5q10 11 18 16.5t32.5 11.5t61.5 6q30 0 52 -3.5t45 -14.5t35.5 -34.5t12.5 -58.5q0 -69 -40.5 -94t-128.5 -25q-92 0 -124.5 36.5t-32.5 133.5q0 84 17 126.5t49.5 56t94.5 13.5q42 0 72.5 -7.5
t45.5 -17t24 -26.5t10.5 -28t2.5 -29zM503 120q-29 0 -47 -3t-32.5 -16.5t-14.5 -37.5q0 -16 5.5 -27t12 -16.5t20 -8t22 -3t24.5 -0.5q57 0 78.5 11.5t21.5 44.5q0 36 -21 46t-69 10zM65 396h870v-32h-870v32zM396 802h154v-345h-72v285h-82v60z" />
    <glyph glyph-name="Japan1.9836" 
d="M653 206h-68q-1 47 -81 47q-36 0 -55.5 -5t-29 -21t-11.5 -31.5t-2 -51.5q10 11 18 16.5t32.5 11.5t61.5 6q30 0 52 -3.5t45 -14.5t35.5 -34.5t12.5 -58.5q0 -69 -40.5 -94t-128.5 -25q-92 0 -124.5 36.5t-32.5 133.5q0 84 17 126.5t49.5 56t94.5 13.5q42 0 72.5 -7.5
t45.5 -17t24 -26.5t10.5 -28t2.5 -29zM503 120q-29 0 -47 -3t-32.5 -16.5t-14.5 -37.5q0 -16 5.5 -27t12 -16.5t20 -8t22 -3t24.5 -0.5q57 0 78.5 11.5t21.5 44.5q0 36 -21 46t-69 10zM65 396h870v-32h-870v32zM359 806h284v-61h-217l-5 -73q30 20 95 20q74 0 109 -29.5
t35 -91.5q0 -65 -36.5 -94t-122.5 -29q-93 0 -127 28.5t-34 87.5h69q-1 -33 23.5 -44.5t69.5 -11.5q47 0 68.5 11.5t21.5 50.5q0 36 -18.5 51t-70.5 15q-34 0 -53 -5t-22.5 -10t-6.5 -15h-68z" />
    <glyph glyph-name="Japan1.9837" 
d="M65 396h870v-32h-870v32zM337 308h326v-53l-192 -302h-85l196 295h-245v60zM396 802h154v-345h-72v285h-82v60z" />
    <glyph glyph-name="Japan1.9838" 
d="M65 396h870v-32h-870v32zM337 308h326v-53l-192 -302h-85l196 295h-245v60zM575 593l-119 -19q-44 -7 -44 -60h241v-59h-310v70q0 96 87 108l117 17q41 7 41 46q0 29 -19 41.5t-71 12.5q-30 0 -48 -5t-25.5 -16.5t-9 -20t-1.5 -25.5h-68q0 24 1.5 36t9 32.5t22 31t44 19
t71.5 8.5q54 0 89 -9t50 -27t19.5 -34.5t4.5 -40.5q0 -93 -82 -106z" />
    <glyph glyph-name="Japan1.9839" 
d="M65 396h870v-32h-870v32zM337 308h326v-53l-192 -302h-85l196 295h-245v60zM339 576h69q0 -20 2 -30.5t11 -20.5t28.5 -14t52.5 -4q21 0 32.5 1t27 5t22.5 14t7 27q0 51 -55 51h-66v55h66q52 0 52 43q0 46 -87 46q-55 0 -70.5 -12t-16.5 -46h-70q1 24 2.5 36t10 30.5
t24 28t46 17t74.5 7.5q156 0 156 -97q0 -22 -5.5 -37.5t-17 -24t-18.5 -12t-18 -6.5q63 -12 63 -82q0 -33 -12 -54t-35.5 -31.5t-48.5 -14t-62 -3.5q-100 0 -131 26.5t-33 101.5z" />
    <glyph glyph-name="Japan1.9840" 
d="M520 810h92v-218h58v-60h-58v-70h-66v70h-216v75zM546 592v157l-145 -157h145zM65 396h870v-32h-870v32zM337 308h326v-53l-192 -302h-85l196 295h-245v60z" />
    <glyph glyph-name="Japan1.9841" 
d="M65 396h870v-32h-870v32zM337 308h326v-53l-192 -302h-85l196 295h-245v60zM359 806h284v-61h-217l-5 -73q30 20 95 20q74 0 109 -29.5t35 -91.5q0 -65 -36.5 -94t-122.5 -29q-93 0 -127 28.5t-34 87.5h69q-1 -33 23.5 -44.5t69.5 -11.5q47 0 68.5 11.5t21.5 50.5
q0 36 -18.5 51t-70.5 15q-34 0 -53 -5t-22.5 -10t-6.5 -15h-68z" />
    <glyph glyph-name="Japan1.9842" 
d="M503 618q-29 0 -47 -3t-32.5 -16.5t-14.5 -37.5q0 -16 5.5 -27t12 -16.5t20 -8t22 -3t24.5 -0.5q57 0 78.5 11.5t21.5 44.5q0 26 -12.5 38.5t-28.5 15t-49 2.5zM653 704h-68q-1 48 -81 48q-36 0 -56 -5t-29 -21.5t-11 -31.5t-2 -51q11 11 18.5 16t32 11t61.5 6
q30 0 52 -3.5t45 -14t35.5 -34t12.5 -58.5q0 -69 -40.5 -94.5t-128.5 -25.5q-92 0 -124.5 36.5t-32.5 133.5q0 84 17 126.5t49.5 56t94.5 13.5q42 0 72.5 -7.5t45.5 -17t24 -26.5t10.5 -28t2.5 -29zM337 308h326v-53l-192 -302h-85l196 295h-245v60zM65 396h870v-32h-870v32
z" />
    </font>
</defs>
</svg>
